<mxfile host="app.diagrams.net" modified="2024-01-09T20:25:36.988Z" agent="Mozilla/5.0 (Windows NT 10.0; Win64; x64) AppleWebKit/537.36 (KHTML, like Gecko) Chrome/120.0.0.0 Safari/537.36" etag="xYRyaUeLxJH2p5mj4rr0" version="22.1.17" type="device">
  <diagram name="Страница — 1" id="IlJlSmKeRsedkhfMfxXM">
    <mxGraphModel dx="1400" dy="707" grid="1" gridSize="10" guides="1" tooltips="1" connect="1" arrows="1" fold="1" page="1" pageScale="1" pageWidth="827" pageHeight="1169" math="0" shadow="0">
      <root>
        <mxCell id="0" />
        <mxCell id="1" parent="0" />
        <mxCell id="Jlm6lItwhGJ9jv6W5DHI-6" value="" style="endArrow=none;html=1;rounded=0;" edge="1" parent="1">
          <mxGeometry width="50" height="50" relative="1" as="geometry">
            <mxPoint x="500" y="455" as="sourcePoint" />
            <mxPoint x="500" y="455" as="targetPoint" />
          </mxGeometry>
        </mxCell>
        <mxCell id="Jlm6lItwhGJ9jv6W5DHI-12" value="Telegram" style="swimlane;whiteSpace=wrap;html=1;" vertex="1" parent="1">
          <mxGeometry x="350" y="360" width="210" height="210" as="geometry">
            <mxRectangle x="350" y="360" width="90" height="30" as="alternateBounds" />
          </mxGeometry>
        </mxCell>
        <mxCell id="Jlm6lItwhGJ9jv6W5DHI-22" value="" style="whiteSpace=wrap;html=1;" vertex="1" parent="Jlm6lItwhGJ9jv6W5DHI-12">
          <mxGeometry x="47.5" y="150" width="115" height="40" as="geometry" />
        </mxCell>
        <mxCell id="Jlm6lItwhGJ9jv6W5DHI-21" value="" style="whiteSpace=wrap;html=1;" vertex="1" parent="Jlm6lItwhGJ9jv6W5DHI-12">
          <mxGeometry x="10" y="95" width="90" height="40" as="geometry" />
        </mxCell>
        <mxCell id="Jlm6lItwhGJ9jv6W5DHI-20" value="" style="whiteSpace=wrap;html=1;" vertex="1" parent="Jlm6lItwhGJ9jv6W5DHI-12">
          <mxGeometry x="110" y="95" width="90" height="40" as="geometry" />
        </mxCell>
        <mxCell id="Jlm6lItwhGJ9jv6W5DHI-18" value="" style="whiteSpace=wrap;html=1;" vertex="1" parent="Jlm6lItwhGJ9jv6W5DHI-12">
          <mxGeometry x="47.5" y="40" width="115" height="40" as="geometry" />
        </mxCell>
        <mxCell id="Jlm6lItwhGJ9jv6W5DHI-14" value="Тренировки" style="text;html=1;align=center;verticalAlign=middle;resizable=0;points=[];autosize=1;strokeColor=none;fillColor=none;" vertex="1" parent="Jlm6lItwhGJ9jv6W5DHI-12">
          <mxGeometry x="10" y="100" width="90" height="30" as="geometry" />
        </mxCell>
        <mxCell id="Jlm6lItwhGJ9jv6W5DHI-15" value="Цены" style="text;html=1;align=center;verticalAlign=middle;resizable=0;points=[];autosize=1;strokeColor=none;fillColor=none;" vertex="1" parent="Jlm6lItwhGJ9jv6W5DHI-12">
          <mxGeometry x="130" y="100" width="50" height="30" as="geometry" />
        </mxCell>
        <mxCell id="Jlm6lItwhGJ9jv6W5DHI-17" value="info, корты, отзывы" style="text;html=1;align=center;verticalAlign=middle;resizable=0;points=[];autosize=1;strokeColor=none;fillColor=none;" vertex="1" parent="Jlm6lItwhGJ9jv6W5DHI-12">
          <mxGeometry x="40" y="155" width="130" height="30" as="geometry" />
        </mxCell>
        <mxCell id="Jlm6lItwhGJ9jv6W5DHI-13" value="Расписание" style="text;html=1;align=center;verticalAlign=middle;resizable=0;points=[];autosize=1;strokeColor=none;fillColor=none;" vertex="1" parent="Jlm6lItwhGJ9jv6W5DHI-12">
          <mxGeometry x="60" y="45" width="90" height="30" as="geometry" />
        </mxCell>
        <mxCell id="Jlm6lItwhGJ9jv6W5DHI-25" value="" style="shape=image;verticalLabelPosition=bottom;labelBackgroundColor=default;verticalAlign=top;aspect=fixed;imageAspect=0;image=data:image/png,iVBORw0KGgoAAAANSUhEUgAAAbQAAAF3CAYAAADNSL5cAAAgAElEQVR4Ae29eXQVVbr/zV++q+9a3V5v3xZ6vN0qaNtOLSijMoaZIAaVQQYZBAICCsg8CorKpDIPYQiQQCAJCRnIBAmEUeYAirN2t9f+afe9Ku/73vf3rvf7rl3DObt21Tk5deZUvlmrVp2qs2vvXc/+Ps9n7107dZr87M4/gBttQA1QA9QANdDQNdCkod8A608npAaoAWqAGhAa8CTQbv9VC/z2sX5o0WM87u8/HX96ehY32iAuGhB6u7fXJNzddRT+8MQQ/PrPPfFvv3uAsyCcCaIG4qABV0C787f3oW/vZ7B45iLseHcLyrPycSKvBKcOl6Ei5xD2b92N1UtXYvrEaejWtS9+8Zt7496Iv2jRBvf1mRyX4EVQsqMQqgZa9JygdbLu+PV9cfcJjl44emksGqgXaHf88m4MfHooNq1ciwvl1ag7ehJXq06irqoWdZXHcaWiGpfKj+F8aRVOFpaiJrcQ1QfzcSznIEr2ZOGNeQvRt/fT+Ndmd8fckQXMQg0wTEcYJUIDYgT3m1Z9cfsvm8fcHxpLEON9EtimBoIC7U+tnsTGtVtwqeoEPjh+GjdqTuF69Ulcrz6FD6rP4MbRk7hWdQJXK2pwsbQKZw6X4UR+AU7k5aPmwEEcyzmAqux9qNybhZ2r16BTxx64veldMXFkMc3IkRkhlQhIhVPmff2moukfn4iJL5jOzT0DfWPTgCPQfnX3g3h6+HhMnvsaCg4U41LlCXx44gw+OC620/jw+Fl8dPx9fFxzDjeOntJGapfLjuFsURlOFhTiZP4hnMjLRda691CVsw9Hs7NQnbUXpbt2YdWi13Dv/Y9G3ZHFM7NwAguvIQQTqYHftOqHn8Wok9fYghnvlwC3Ae3uBx7H8+mvYNyr8zFlzlIUHCzG5apa3Kx9X9s+OnkBH9dewse1l/HJ8Yv45NhpXK+qwdXyY3i/uBwnCw7jTH4+9r63BuljhuHNRTORuX4lavbuQfnunTi0bSP2vvYSOrd/PKpQEwtAEhmYWDbBGK4G7npyKG5vxilIAolAilQDFqA93LYTXpg0FWNenoXxr87H1HnLcOhgES5XncBHJ8/ho5M61D49eRmfnqzD57VX8HnNGXxQfRwXyypRlJWNqtyDOF2Qh3kvjUfv7h0xd9pEHN23B8ezdqNyzy7sWrkUxe9Mw5kNkzB+9KCoQY2rGQmUcIGSDNcJqHGkxoAeaUBv7Nf7gPZwm44YkT4JoydPxdhXZmHCq/Mwdd5SDWiXKqvxUe1ZHWq15/Bx7QV8evIKvqy9jM9PnMX7paU4vHcPFsycjvQXhiN/+xYM7JeCtKe6o2jnNhzftw812btxdO9uHFy/Ehtnv4Ds119E0Rvj8GzfnlGBWjIEJdaBUI1EA9r0YxyWNjf2oMf7927HQQPavQ+3xbBxEzBy0iSMnjIV46fNxMSZ8/Dy3KUoyC3GpYoafHTiLD6ufR8fnzyPmyfOaM/UPjl+FjdrapG7azt2bdmIyenjkD5+FNJHD8PTfbrg1YkvoHLvTpzYvw/H9+9FVVYmSndlYN+7b2LdginYvnQayjLexRMdukYMtUgCCa8liJJFA1wo4t1gS5DGvm2b3H1/K6S/PAPPj5uAYRMn4YXJU/DiKzOQPmsBps1bhoKcQlysPO4bnd2sPYsPj5/CjZoTuFheiZwtm1FVVIh3V7yNiWNHYcSQZ/H8c0/hxeFpWDQ9HfvWr8bxnGyc2J+ljdKKd2xD2e4dqNq7U9sqdu9AQcYmPPBI24igliwBifUgHCPRgFj9yCX9sQ98hIs3bdxk/sI38fLseRrQhqdPwgsvTcHYqTOMRSFLkJtTiJojx3DlxFl8UHsWN8Uqx5qTuHb0BM6VVyB7+zY8PzgNbyxbjKkvjcOggf0xZGAq0vp0xpTRg7F//RptdCaAVp21G4d3bEXRjm0o2rEFxdu3oGTHFg1w+Xv2RrSkP5IgwmsJoWTSgPg/NQZcbwZctmts27XJrsx9eGX2fB1oEyZi1EtTMGbqDLw4Yx5emrMIq9/dgMLSoygqqUJ1eTXOVR3HlaO12kKRU0cqsX/XTkyaOAFLX38dB3PzUXT4MIYPfgb9e3TC5BcGY/vKZTiWswfH92ehak8mDmVsRv42sW1C/raNOLRtE4p3ZeCrq5eRmvps2I6cTAGJdSEgI9GAWODEN4rENvARLN60b5PMzGxMn7sAz784HsMnTMQLkyZjzNTpGD99NibOmI1+qQOxM6cAOYcrUVB8FIcPV+BIUQXKispRUVKJvAMHkZGxHSVHqlB85BgKCw5jQN8eGJTaC5NHDcVrMyZj28rlqM7OQuXe3TiwZSMObN2EnC0bcGDLBhzcshEFO7bhy6tXUHW4GHeE+UaRSAIIryWAkk0DvxX/n8YFIrQBNeBKAzrQ5izC0DHjMGx8OkZNmozRU6dh3LRZmPTqHPTr9xTmLngdeUVVKKmoxf6Dh5Gdk4/qmlOorj6JyspqlJZV4lhlLYpKKrB04SKk9euNp3ul4OmeKXimTw+8NX8WqrJ3a/+Htn/zemRtWo+9G9dh78b1yN60AQcytuCLq1fxVV0dBj033NUNmE4fSUB65Jk5GDr7XfSb8jaeHPUaWg2ej4cGzsGDabPx0LOz8Njweegydhm6vrhU27qMXaqdE989kDYLD6bNwiPPzUab4fPQPX0pnpv5Hh5+Zg7/L44vRA5bA817TgjLD0x/4N6bIxC2a/B2bbJrZxZmzl+MoWNfxPPjxmPkxMkY89I0jH95NibNWoBlK9fgYH4R9uUVIn3KVPRJ6YG+XbrhmX79MXrESMydMxcHcvNQUVaNotIKDE5LQ4+OT6B7h/bo1r4tenZqj9mTx+FI5k5tavG9t17D+tVvIWPtGuxY+x4y169F9paN+OzyZXxZV4dt6zaF5ciRAK3HyFdx4mIVaq9U4lRdNT76+kvc+Oo/cajmDGbk7MK4ko24+PU1XPur2Opw6eurSC/ZgOFb52LWxhlYvHM2VubMx7xNk3Hw+B6c/+A6erzAUU8kbcJrZ/Et/RydhBULGzP0muzcsRevzluIIWPGYsjYcRg+Qax0fAXjXpmFqXOXIDu3GPlF5Zg+Yyae6pWCkQP7YPzg/pgybAAWT3weO5a9gtenj8Pa99aiuLQCo4cPQ7d2bZHSoR26tm+DlI5tMey5AZg+8UWMeG4A+vdLwfAhaXjnrWXYuHoFtr6zGrvWr8Only5po7Srtafxi9+6fyN5JAGwz6jpuPLheZy9cVLbvvj2b/j7Dz/g+MVLmJe/C+OPbMLlb67h+tc3cP0/63Dlm2uYUL4JQzdOxrjXnsHIuakYuzgNq/fPw4y3X8L5D6+h76gZgXvnb57DX749hymOI5hMHPj2exx4k0CMpE29cK346ZnGHJx478FHI7SP3T5Ntmfs1kZog0aNxtAxYzFszIsYMW4CRo2fiFXvbcbhkmPI2nsQT/fvg4VTR+LAm6/iZta7uLJ1Gb45vB1fHNyEYxuW4oXBqdi4bjPy8wow6OkB6NH5CXTv2EGDWlcBtyfaoWvHtujauR1Se3XDpAmjsHzJAqxb+Ta2vfcuPrl4EZ9frsPNs+fRt+8zrh05kgDWb/R0/PV/fY1vf/we3/343/jHrR/w9x++R93nX+HNynxMOLJJg9gHX1/D+S8u4vhnZzWg9Xjtecx4dxRGLXgKT03siE2H38DLb0zAhZvXkUqgBQa6I8gJcFXD4vfUGLTsQYs2oU0CaaBJRsYezFr4Gp4ZNhK9+w9A95690L1HD3Tr1BXbdmahuKQaB/ILkD5iEPavmI2jG1/HlW0r8c8j2fjvI/tQt3cdTmx9C7PGD0WfTt2QsX031q5dh87t26Bru9bo3LYNOrdtja7t2qBbhzZI7Z2Cfr26YeK4UVi6aB5Wv/kmNqxeg5sXLuGzK3X48Ox5vDZ/qWtHVoOBm+PUMTPwt2//ju9+/AH/+PEHfPfj9zrQPvsSyysPYHyZGKHdwNq87eg+4XkMWjwZE8o2YODK5/H6pu4Ys6ivBrU3dr2K+Wun4+JHH6D/6CA/LMoRGmEXAtTv6TrKtR8EcnSeJwQagwaabN22RxuhDRj8PPoMSEOvvqno99QApHROQWFJFUpLapCbV4jZU8Zj/dzxyFw2CyfWLsX3Rw/i85yt2Lv4ZexYMBlTR6VhQN9+WPbWOygqrsDAfv3RrW1bdGrTBj2e7IAubVqjS5vHkfJEe/Tv1R39eqdg2NDn8MbSpXhnxSp8cOEiPr1Shw/OnceuLdtdO7IbgKlpB4yZga+/+xbf/fijsX2Pb77/AXUa0A5iQtkmHP34NHpMHoa9NYWo+fQc0ss3YdiGdLz6dh+8vGoY1hcuw7sHl+LwuRxc+vhDiDzVcnzHYQCt/5slOFD3Pf7yrdg+xYHMVZb8p1R8j79UZFrOifLU8+qxr05GgK3vezU9j2M3sry310TXftAYghbvkXAOpIEmm7fswawFy/Ds8FHaKC1t6AikDRuBrp1TkH2gACVFR7Fx7Ua8OnYYqte9hsOvvYorm97Eh9tX4ubmt1G+fDaOvjUX77w6HkOHDsWqjTtRUFiFUcNGoWvbJ9Dp8bbo/Pjj6NSqlbZ1ad0afbp2xnPPDcSo0S9g6dLXsOKtt3Ht/fP45PJVXD/7PioLS1w7ciSB9emxr+Kbf3ynwewfAmq3vsc3Ysrxsy/wRmUWxh3ZgIlrF6Hb5BGYsnohdlbnYmL5ZvRfNRbjF/XArFVDUHB+N0ou56LiShkufXwTaeNetcHFV0e3QNPSi+dqBsSmlOD0t9/jtAS1QCBSz6vHvjoRaIHbK4TRlGrHaByL/0cL5Lg8z6BODdg10GTz5kzMXPg6nhsxGoNfGIshYyZiyJgJ6Na5BzZu2YWyI8dxMOcQ3nxlIj7PWI1v927F33avw8db3sJfNr2F/zq4Dd/t3YDc5XMwatgIrM/IQlHxMYweORrPPjUAvVO6o2vbNuj4eCtt36Vda/RO6Yrx4yfg1ZmzsHjJUry1fAWunr2Ajy7W4dqZCzhVedy1I0cSQJ4dPwv/6x//8APtRwG0/0bdZx/hzcrd2qKQOTtXY/CCl7EmPwOHLpZjUvk2pK4cg7mr+2DzwRkovVyI6utXsLagBudvfoa08dEaoa3CKjEyU0Zf/TM/tSwsCQQq9bx6rNqtvu/V9Dx2HqE98MxcPDriDTz4zDwLKB8YOAd/HvY6Hnx2vuV8IDsyaNmDFm1CmwTSgAa0WYtexzPDR2HwqLEYOmYinh/7Erqn9ML8+UtRWlaD3NwSLJk6EV9sX4cfC7PxybY1+HzHWvxt+3v479wd+PHQbuyZPxlvzZuPrbsPoOhwBQY9Owh9eqSgZ5dO6N2lEzqL6cZ2bbVna2lp/THl5emYM38RFi5aimXL3sRlDWjXcPX0BVyoORNXoD03fia+/ec/LVOOf//vH3D106/wesVBDWgr8reg68Rh2Fi8G8VXj2pAe37TS3hz10vYcOhtnPn4ItYXnML0nSdx7NIHeGb8zMABy9UILcCqRy2PT7Fqih5QA4FIPa8eq4G0vu/V9KEct5uahanZVzF1wXK7TaYWY372Vds2eqozKLTyXFwTtOwYjbwErHovL8O4sv9Bp5l7/PecNgc9lhTixZJb2j4U2wVyXJ5nUKcG7BposnFTJuYsegMDh4/EsyNHY8jodAwdOwm9+vbH0EEjcLikCrk5RVg67WV8nrkBn+1ei+sbV+CL3ZvwUcYa3Nz0Nv6Zk4Gc5fOwdMFC7Np9EFnZ+XgqtT96d+2kLeHv9FgrdHr8MWPK8XE81bsXps2YgZlz5mPOgsVYsnQ5Lpw5j5sXruHqmQs4WR7fEdqgCbPx3X/5gfYPsShEA9pf8HrFAaSXb8GZv17BwDkTMGnVArxbtAvpZZvwYuZ4bDwwEBvy3kD19WqUnr+Kt/aX4+JHn+PZaAHNmF7Un52Zz9DMvQI07fma+Z20l0Z3GrDUdHXnMKUeMIYSfO1plqPnyhOYv7kYUzcHAdrmLPR8YTnaSZs9LwlwAmj1XhNC2TEAmhiR9VpWivFl/4MXcv+O1uPf04AmRmxd5+Vg3JH/G6ML/gsdpm7zgy5APTjlaA9YDOK0STANNFm/fgfmLHodA58fgWdGiFHaeAwZOxFpg4ehe5ee2L3nAHIPFmP86BdxdddaXNm0HOfWvo2/5mbi86yNOL1qHv52cCvWLF6El2bMRXbOYaxZswFdn+yILmKFowBZy5ba1qtzRzzVqwc6tm6Dnl1TkD5xMmbNW4SFr72O90+exc3zdbhy+gLK80vjOkIbMnEWvv3+n/julr7KUQDtm++/x9XPvsIyDWibceXv13HsWg1eXbsM0zct1xaFjNk9C0syRmN9/nIUXcxB2dVCVF47gquffYwhE2cHDljRGKEpQdAcWfWfsgryZp43AWEe29LUlaC/wyIS87qw9lMFyLLQ7ulZ6LnSGWjtFpzA/JUbAttKuU9Rj5CuCaHssO7JoT5yPj2XFmvQGlv0AzpM3oI/pek66Do3B2OLf9RGZ11mZfvOy9eqn7kohME7WPDmd3Z9NFm3bjvmLXoDac+PwMARL2CQAbQhY9LRvWsvzF+8HCVHarD0zVXYuvBV/DVvO95fvQyfbV+Pj9a/jb/u3YBT21Zi7pI3MGfJ28gvqMSEceno1K4denTqhE6PPa7BrEvLVnjy8ce0N4mkdOyIZ1KfwuQpr2DmvIVYsOR1nK09gw/PX9VGaBkb4rvK8fnJc3DyyjHUXKlE9eUKnP/kFM58cBbHr17C0oocTCzfogHtxtd1uPH1dVz55jomVWzB6F2zMWvji1iYMRn7azei+FIWSq/k4spnH2PYS0FefeUKaPozNHkBiBr4xLEJKvU79bx6rKWX6uP4fT1BXC3T6Th8oC3Hs5uv6iMyox4hAU2qc6CyneoZ7jkxMktZmI/xFf8bow79A0++vF2HVtocdJmzDy8W39K2zrOy8Ke0INqQ6s1l+/aAxSBOmwTTQJO1aw2gDR2OtOEj8ZwA2ugJGDFhKp4dNBLpr8zFgUNl2LFtNxZMHoeKLSvw90OZ+OZAJv5ZuBeXs9fi7dkTsfTt97B1xz7k5pZh8DPPonf37ujyxBPo1KYtOj3WGp0fexxdHmuDLmLVY+s26Nu1GxYsXIwZ8xZi3uKlOCN+Y+39Olw6eQEzps6P6wht5NTZOF13DEcvFqPi/UJc/fISrn5Rh1PX6/Ba5QFMKt+Cq99cx42vr2lb3TcfYHLFVozcNRsz3h2NmetexNyNE7C19C2UXs7D5U9vYLgxhecYIE2AKKMpfdRkPjNbpY2YtOu19GJVY6Y0+srEKnFsBMBAIFLPq8d/mrJKh2EsRmhScA4EFXE++AjNAFp2MXoa+dV/jTQ9GWR06Ng2Up3dfC+mE8WzMQEuHVr6yOyJV7Zj7OEftFGbeH5mjthCyZv/WM3gHSx48zu7Ppq8++42zFu0HGlDh2Pg8Bcw6AUx5TgJg0ZNxKI312Lh2xvx+potKD1cgdLtG7BuzkTUZKzH54dzcCF7KzLmT8XGxbMxf+lbGsx27slD3x590btbd3QX045txLL9tto0Y/cOHdG5TXukdHgCfTp3waJFSzSgzV20FKeO1eL9YxdRllGHhx/sFlegjXllNrbvXIeduzdgd9ZmHMjdjfyCfdifl42Z2evxUukmnPvqIi59cUHbzn95BZNLN2F8xny8tXY23l4/B8vfmYk1mxZjQ8YKbMl4B2NfmRt4Gs0AlPNzMednX3+aIv8fmkjzqQY4MzDaQBUAdFq6uD1D84MlKNAsi0JOYPSCDdo0pXlv6l4DmotrApWt5hvO8QNps9FtYZ4GrBdL/k8IgJn5CLCJqUfx3Kzr3AOuYCby4Kuv7AGLQZw2CaaBJmvWbNanHIeKZ2hjMGz8FLw05zXMXLYa7+08gHe2H8Ca9VnIyDyAquISXDu4CyUb3kTR+jeR985iVG9Zjk0LpmObGJ3llWPbjoNYtWItpk2ZjkFpz6HbEx3RuV17dG7fAV3atUeXth3QrUNH9OjYCfPmLcS0WQswZ/5S1FaewOY1m1Cy4QTuaHZPXIHWeeQ8TJ2/BPOWLMGshUvwyvzFmDR7Mca9uhBPzZqN1BUzsCU/EztyM7EjLxNb8/ei/8qZ6D/rVYybuQCT5izCtPmLMWvRYsxfshjT5i9C15HW5dpmkAt1HwhQoV6fbOmCQUVbDCIALBaFGCsig4/aZukLSEK8JljZodip9bh3kbrqOB4bY/1ndjF12HFGpjYqE8/HUhbkadASkGs/ebO2+EPATDxXU5fvh1Luv/3uAdd+EMzZ+R1h4HUNNFm9ehPmLV6OIS9MwMLl72Ddtmxs3p2PtdtzsHFPAdbtzENWwVGs3rgLuXnVqC0pxSdF+/FtTTk+yN6C87veweY3l6LgcDX2ZBVgx8487NqTh+x9BdizJxfvvbsJg58bis5PdtKmILt2eBIpHbsitU8qXp42SwParHlLcKLiKF5f9AZSOvQKy4lDCRD1pXnAabopbTYeHDgL4idm5O3BgbMde9yOeTjlW8+5xgQ0W7toy/L9U4y2751sF+SaSIEmFnRMKP/fGLH/b3hs9ArrCExMJ5b+X5YRWIcpWzG64J/asv1erx9x1El998SfjyF8vA6fWNxfk7feXoeFb6zBinXbsW3PIezeX4q9B8qw92AZdu4rxo7sYuQcrkZ27jFsysxHTsExlOSX4p1FizF99AsYPmgosrPykJt3FFn7DmPvnkLszS7E3r0F2Lu3EFlZBdiekY2pU2agW+fOSOnUCV2f7Iz+/dMwZfosvDJrPmbNX4Lq8qOYNW06UnqkJgxo9QWZeH7fqIH2gvi/tRN41s1P8AS5JlKgPTx4EdLWncOEyv8XQzI/weMvrkHHaTsxpvC/tOlEsRjk0RHL8edhy7SVjSMPfqMtDhEwe/C50P6BWtUWf+CTQItFwPd6nk3mLnoLb723HVsy87EzqwjZB8txsPAo8g8fQ27BMRwsrMa+/GM4UFiDHftKkZVfjbzS01i9ZivGjk7HrsyDOJhbgZwDR7RnaNn7irAvpwT79xdjz55DyMoqxI6dB7FlWzbeWL4Szzwtfi+tM/r17IWJU17B9FnzMGvuQlQdqcKYEaPwr2H8YvUdv/mjr9esBgYe+59jJdIWrqASZLQV8B6CXOOqbKfR39Oz8MjQ1/DM5stIr/r/MHz/33SYlf0Per1eigcGzsVz265j+L6vMCr/Ow1m/VbVQPzvWcD6BihHpBf/f3bHr93/hJLXgxXvj5CvTwNNZi56C5u2H0RG5iEcyD+KvEPHkF94DHkFVcgvrEZBSS0KimtxqLgWBwqP42DRaRRXXUJJxQXsz69Cdm45svYVI3tfCQ7lVyI/v0LbcnJKkJ19WNt2ZeZhW0YOtmfkYOP6beid0g3PpPbHqBfGYOSIMZgxYw4qSyvx0CNtwhqd3Xlv+7ACRzjBhteEB0hnqGzAsyuVf6oW/z9meauIusoxlGusdXQu25omlHZ9aNAiPLvtmjZSE28B6bnksA9a4hmbmJacUP7/IHVldVjPzMw6/KZV37D8oD5n5/cEgtc10OSVOa8jc18Jtu86hJzcSg1o4nnY4aIaFBXXorC4FkVHTqO47AyKK88j/8g5VJ2+idKqiygoFbCrQVHJcezbV4KSohoUH65GwaEqHDhQCgG1ffuKtOnHPbsPYXfmIWTuysGiBa9h8uRpmPjSy5gzeyEmpk/BO6vXhenEd+G3rQcQaEF6/GagTOTeGSr62zwEwHyvv9p8AqOnyq/IEmn0/0MT/6D9p6dDucYKK+eyrWlCtc2jw99A37ertP85kxd6iBFc7zfK0PO1IgjwhZqfmu6+flNx+y+bh+kLDNheD9i8v+Aab3LX/Y9pI7TtmQXIza/C4aITKCisRnHRCZQdOYPSI6dxpOIsyo9dQHnNZRyuuoTKc5+i/MR17dyRqvdxpPws8vIrUX7kpAa1gvxK5OWVIy+3TJt6FM/TsvYWYPfuPGRmHsT2jCys27AN8+YvRu8evdGvbyp+1/yhsJxYTDe26DE+7ACiBhQehxfoabfo2K3pH58Iyw8Y6IIHOtqncdiniWjoVu27Y+v2A8g/VIVDh47icOFxFB0+gdKSUygvP4fKqgs4WnMZ1ac/wLGzH+H01b+i+szHOHriOqqqL+FIxTkUFtagrLQWxUX6CC0/txwHc0pxYH8J9mUVIjurUHumtjszF3t352LXzhy8++4WLH19Je598PGwnfjOe9vh/qeC/FRLko9cCILogMALdvxNq35h+wEDduMI2Gzn4O2sAU0YqddTQ5F3qAr5BUdRWHQCh4trUVp2BhVV51FVfRXHT3+E0xc+x5lLX+JC3d9w8sJnqD77EapO1KG86oKWvqz0FEqKj6OwoAqH8iqQd7BMA9r+7CLk7CtG1t5C7Ms6jAM5xdiyNRvvrd+F7n2fDduJb296N+568nmOzgjtBq+Bu54cip81vStsX2CgCx7oaJ/GYR8f0ESDP/3cKOTnV6Go+ARKSk+ivOIsqo5dQM2Jazh59iOcvfA5Tr3/Gc6c/0w7rj17E9W1dag6ekGbmqwoO4MjJSdQXHgMhw8dRWF+lQa1XLECMucIDuwvRe6BUuTmlGDTpj3o1X9IRA7c7E+d8Mf+0xt8MPPC6IL3EP5IU8Ds9mZ8bkboNA7oxLKdLUATBbV9sjdy9peitKQWFeVnUFV5DjU1l3Dy5DWcOfexBrTasx/j9NmbOFVbh+M1F3H06Ps4UlqL0uITKCs5jiOHq1EkgJZXicK8Chw6WIbcnFJtCjL3QAkyd+zDY+26RwSzf/uPh9Ci50TCjKOzBq0BrmhkEI9lgG9seduAJgzQ/IHWWPPONlRWnMLRynM4duwCao9fRm1tHWrPfoqa0x/hxMnr2rmaY+dxrOocKspOoYrPPLUAACAASURBVLT4OMpLa1FSeAzFYoFJXgWK8spRePAICnPLcCi3FG8vfw/N738sIpiJhSB3dx2N+wcE+RFNBvoGHei9PuITqxm5AIQwa2zAifX9OgJNFHp707vQtUcaduw4iKNVZ1FbcwEnj1/GqdM3UVN7AydOXEXt8UuoOfo+qsrPoPzIKZQUHceRouMoLjiGQ7kVKMgt10BWlF+ODet3olPX/lq+kdzUL5q3Rovu4xisCewGqQHxT9O/admXS/PvJMwiiYO81lk/AYFmGky8uaN/2jC8vWIDjlacxelTN3Cy9hqqj57H8WPnUV15FlXlp1FZpi/ZLy85gdJC8fxMrHIsxqKFK9Cr76Cw3gBi1sHci0BwX5/JHJkRZg0OZuLdjOJ1VnwDiHMgMn2ce9onEg3UCzQ581/85j706DMIs+cux3vvbUdeTgmKC46isqwWRQVV2JuZj9WrNmHaKwvQtfvT+Pff3BvR1KJctvjs9Wko3l/4CyuSxXZiBCZ+aVr8OKf4PTPxEzB8az6DtBrLeBwbTbgCGhshNo1Au9Ku1AA1QA1ErgECjXP5UR1F0ykjd0rakDakBsLTAIFGoBFo1AA1QA14QgMEGoXsCSGzRxtej5Z2o928pAECjUAj0KgBaoAa8IQGCDQK2RNC9lIvk/fCURM1EJ4GCDQCjUCjBqgBasATGiDQKGRPCJk92vB6tLQb7eYlDRBoBBqBRg1QA9SAJzTQ6IF2e7O78fPf/hG/+P2D+MUfHkLTu/+MZvc8imbNW3KjDagBaoAaiLYG7nlUi7Mi3oq4K+KviMPRGCk2SqCJFy///Hf34867H6FYoy1W5kdNUQPUQBgaEPFYxGURn8OFW+MCWtM/4Oe/vR/N7uHoiyNQaoAaoAaSUgP3tNTi9M+aun++2WiAdsev70VTTiWy5xhGzzEpnZ73QS17XANN7/kz7vh1C1ejtUYBNDGMZVBib5QaoAaogYanATGrFuoUpMeBdpf20JEibngiZpuxzagBasDUgFg88rM763+25mmgCSOYBuGezkENUAPUQMPVgA614M/VPAs0TjM2XOEy6LDtqAFqwEkD9U0/ehJoYgGIkzF4jk5CDVAD1EDD1kCwhSLeA1rTP0CsjqFoG7Zo2X5sP2qAGnDSgIjvgZb0ew5o2v+ZeXw5q1Mj8xydnxqgBhqLBgJNPXoKaLc3vZv/NE2Yc3RODVADXtfAPS0d3yjiKaBxIQh7qI2lh8r7pNYbuwZEvFf/P81TQOO7Genkjd3Jef/0gcaigTvvesS7QBNva24sDcn7ZNCiBqgBaqCl7S39nhmhiZ8gCLuBp5Xh1q0yTHKcd56Dwlu3UDiNDhS2fR3tSnvSns4aSJm2GXW3bqFu3eDwfZqaaxS2E3Ffnnb0DNAieisIgdYoxE+AOAMkeewyGJOKb+DW9TLUXSfQkqddklc36ttDvAO0PzwUflAm0MK3HXvCtF20NDBNgGwzUpq3xKRiAo1Aqx+kd971kDdHaNovTYfrWC6B5uhsWh63cKt4jh7gUsW0yQ2sSfU3irjO972oq5bGOp0pplsKr9/CrVtiu4HCeqZdtDy1tOY10t6sixQgUtaVadM5vvynWad1Qro3Iz89D6k8UV8lv9DuZzDW+O5Zz0+dbqovH5ttDS2o59VjNWiE971e/6Ssc+ocFF6/YejJsG2xDg3/vQ/GmuIbki5uoa54jgYWfxq/jpvFIk/Fd0U7qPa018XZ7iKdvR1DvMdU2f9u4dZ1qw/b6yDZRbkHpo29bdSFIZ4ZoTWL5LfOIgaa4VgicEgQaabka3Uy/dmcxWkNKPqgYADPkkZxGjPPlNTBkDfzvOlU2rF4LiEClQbZwUjxlecXnkhnLc/53sz85TIFLAWEfRD35W9AM+D96GXozykdglQI+Zj1Me/X3Kvn1WMznbkP7/tkrvNgTFon2lxvg5TUOXrnwRgJ6fc9GGu0NIYOAraTqZNY5Gnmre9FO1h1aP3eV+8AU5P2dgzhHs371nzE8KdpQcCu+KKpIe6d2ipG5+5p6c0RWkQiMgKmfcThH33Ii0JUZ0tZJ+b9N2OS2MtAa94S5nfmNIr+vR4ArWmdzhnXB1yw4tQT9QcEOX/NwR3y0c5LwS3Ue9OuU+61WXMBaRNobu7Hfp0/mIWWj3N97PYJlM7UT3jf63VM1jqb9+bba3oPtAjKWT++awMF8SjnKdrBb89AwVC1uz9dfe0o7kdNox7Xe8+BbMHzcZ2G9+SikIjEZzqjMsrRRx/2VY5WZ/MHYw1etiDvdxzTYbS9BBG97vZytPNa3UxI+B3WvF8zT/PY3Kvn1WMzndMo0h9IAt+bU376iM8MlC7uR+sZm9epQSq0fJzqI+5RPa8e++xgBKHwvk/uOlvu0RyhOehUThdIy3Ia3+cY5Cnawa9Du+7NsgOlq68dxfXWewygM8IprnAy29XNnkBTRWoCTT2vHduFLjuR7DhWB5GcUAvYN7SVW2JOXjxbk0d8WuMZ0x3Oo8TEAC3YvWnfqc/urpdhkvnM0MX9aHbzAV6BQ4j5ONbHrJ8UvB3TSfWW79nJqZy/T+46N2uu18/Ulu35WKq+urBOedYmj/DttohFnn6fEXYOBWi6diTdNTfuRbS91O7N6r1Hu5/b79lfP36XPLYg0FRwhQs0LdiaIwu1x2c2uO4owjnNYKg5oW36LzyHMvNUHUw9rx770iv3LtJpgaSeezPzszxDM/5/SId1qPejwMAIvv5gFlo+jvXRgpg1sDml084ZQDW/99lH0Yrz9+o9JFed5XsR7aUtjffpT6+rCP5iWtxMG7BzJqXxpY1BnsLOfg3462WW6d/riz1MWOsLqeZgjWUBVij3GFqb+csNVid+F087EWiqUypB3doYdqHrzqY/XJedzh4EjF6s0VOUg6H22TcqEQ6gBsXQnELOU663el479gUxf95qPcRx3br6703NXy9bvgf5s788uY7aZw2c8ghUvU49ds7LuT4hTjlK7R8oH7Pezt+rdVSPE1tns+7+vdC0YXPt3mX763V1vk/n+9DzjW6eonzZt/x1D1YH/3eW+od0j3qbWUZ1apzgsa/D47Y9YpmeQFOFKQU0u+EDAE1Mz1iAZB+haU4lpbE4mTkNJE+LaPXQgeIf+czRV6CpdTaOrXkGcGjzWZK2ynFz/ascQ703ue7N9VWT4g0PvunUeu/HCPzyqjLjeYyAqm/EUG8+dnCZ7ajaRz3Wp6LE8mz//z8FC2rm9f72EavhzA5A8tVZ/LvDmmmijoY21NGUMaXrg4fve+vI1rSn2MciTzl/8VnY2VenANpXr5GPzXbSzoV6j046m7bZP40eRj3kOvGzPz5F0xYEmipMTcj+qUOrsZ2BJqY4fIHbyE8eoTlNK1qcTLtGz9viuOr/wdy6oY2YrHXyC8Oep/6det48DuX/0Oq7N1EXLT/zGZVvb/8/NPG/dv7/qxOrRv3345yHf2WpBSxB8vHVxwLYIHbw1dcoy+0zNPV6+ViuQzLUWUwDq//jJ92vsJ1YzCM6Ivq0nd4+2gIf+V5kn4lFnnL+0Qaam3tU24z/h5aUozI5HhJoivPIxvHqZxNoyXR/ok4WmEvtIncOkqnOwerSEOsc7H74nb/jSFskry0INClwNhahEmixd0gCLfY2biz+yvsMXUsEGoGWFNMIHKGF7rQMcLQVNeCsAQKNQEsKoNFBnR2UdqFdqIHQNUCgNUKg0UFCdxDairaiBhqOBgg0Ao0jNGqAGqAGPKEBAo1C9oSQ2YtuOL1othXbKlYaINAINAKNGqAGqAFPaIBAo5A9IeRY9fiYL0cT1EDD0QCBRqARaNQANUANeEIDBJqDkH/ZohUe7j0a9z7xNP7UdTAe6DaUG21ADVAD1ECUNSDiq4izv3+0a1SASqApQPuPhzsiJX0F0pbso3ijLF52DNgxogaogUAauLfDAPzqvtYRgY1Ak4AmRmYpE3WYEWh0vECOx/PUBjUQGw0IqEXyzJJAk4AmphkFyMyNoo2NaGlX2pUaoAYCaSCS6UcCTQJaj8lrfDDjCI0OF8jheJ7aoAZipwHxTC3cURqBJgHtqfmZBBqfm/HZKTVADbjUwIMpz+PR1BfR5rnpaD90Dto/P1vb2g6dhUf6jHVlT7FQhEC78w8w6RyuMcypRnPPXljsemG0LW1LDXhHA48PnIJu6SvQc8q7lq375DVo/ewrroAmdBFuDDcZIPZN5IOG/DlcY5ggM/d0OO84HNuSbUkNxEYDD3Yfju6TVqPz2NfxaL+xEMcP9tC3B7oPcw0zAk0anQkQE2ixES4DAu1KDVADqgYeTZ2gjcpaPzMVj/QejSdHLkSnMUvt26jX8NiASXgwpX4bhhvD5YEYR2jSCkcxSlMbjsf1C5E2oo2ogcalAQEpMdXYasAktBk0HT2UaUd5GjJl4ko80ndMvbGVQJNGaeEaw5xqNPehO+ZEdFtUgiEr/FvahImWRms1Idvy/ZBFb6GV9OC1w4wSiGvE3p/PZnQw0wx4C2krStBnmOIswzZjyIpsdBugnDev497SDqG3Ke1JW1EDoWhABlq7wTMtz9BkmInPAnZiRFdfvuHGcI7QpFWOJsjMfX1G17+fiz4CZDPmBmwkHVISnLoZAJSg5gOZLx8jje94qA476RpRvnadlCa0OtNRaSdqgBqIjgbcAE1A7dH+4wPGSrNNCLQEjdC0kZcCGbNRtH2gkZV23j+ycgSTNvqSQKiOxpQ8LOVyZFav09Be0QlotGPjtiOBJsFHHiJG63O4dDdHZuY+FEd1BJEMk4DQ0Ud25hSiYz4qwIyRnTmdqcGUozOCS9YbP1MPcdYAgeY1oMVrhCaEKiCnlSeA6B/hhQJfpmncPWm2P9s/Fhog0DwEtAeMKUVz1OQkGG30tUKaOjSfoUmjK/sITR/B2fPVn631mbE56HM7p3rwHAMaNUANRFsDLftPQPfJ76DlU+mob1EIn6GFAb94Tjlq4jCg5l+dqK9YlIWjQ01awSjBTKSzfe+0otGYSjBXTJrTlXI5/MyARQ1QA3HVQPfheCxtCh7qMYJAi9ZzMzmfuAMtCnPW9hFaYKesdyFKFOoTV4dgffnchxrwhAbaDJ4R9P/QekwWy/a5ytH3nkYZXIE+expoxmiQo7PAwCeMaRtqIDEaENOO4p2OTv9cLc51efENPNx7VL3wDjeGy0zgm0IS+KaQ+kZo5jSjmNYkzBLjrAyStDs1UL8GBNTESE08T5O3NoNm4JE+o+uFmbAxgSY9awvXGOZyfXNP8dYvXtqINqIGqIFoayDcGM4RWsRvCqGYoy1m5kdNUQONWwMEGkdoIQ3lGSgad6Bg+7P9G4IGCDQCjUDjSjlqgBrwhAYINALNE0JuCL1H1pGjHGogthog0GIAtNt+8lNwow2oAWqAGoivBgg0Ao3wZQeEGqAGPKEBAo1A84SQ2ROOb0+Y9qa9k1EDBBqBRqCxd04NUAOe0ACBRqB5QsjJ2FtknTiKoQbiqwECjUAj0Ng7pwaoAU9ogEAj0DwhZPaE49sTpr1p72TUAIFGoBFo7J1TA9SAJzRAoBFonhByMvYWWSeOYqiB+GqAQCPQCDT2zqkBasATGiDQCDRPCJk94fj2hGlv2jsZNUCgEWgEGnvn1AA14AkNEGgEmieEnIy9RdaJoxhqIL4aINAINAKNvXNqgBrwhAYINALNE0JmTzi+PWHam/ZORg0QaAQagcbeOTVADXhCAwQageYJISdjb5F14iiGGoivBgg0Ao1AY++cGqAGPKEBAo1A84SQ2ROOb0+Y9qa9k1EDBBqBRqCxd04NUAOe0ACBRqB5QsjJ2FtknTiKoQbiqwECjUAj0Ng7pwaoAU9ogEAj0DwhZPaE49sTpr1p72TUAIFGoBFo7J1TA9SAJzRAoBFonhByMvYWWSeOYqiB+GqAQCPQCDT2zqkBasATGiDQCDRPCJk94fj2hGlv2jsZNUCgEWgEGnvn1AA14AkNEGgEmieEnIy9RdaJoxhqIL4aINAINAKNvXNqgBrwhAYINALNE0JmTzi+PWHam/ZORg0QaAQagcbeOTVADXhCAwQageYJISdjb5F14iiGGoivBgg0Ao1AY++cGqAGPKEBAo1A84SQ2ROOb0+Y9qa9k1EDBBqBRqCxd04NUAOe0ACBltRAS0XnFSUYIm+z09HM4nxMQ/sYGqE2pKDsVb/gyDDYyJBAS2qgUbzBxMvvqA9qgBqQNUCgEWhSr5bOITsHP1MP1EDD0gCBRqARaJYp3IblwAy4bC9qwK8BAo1AI9AINGqAGvCEBgg0As0TQmYv1d9LpS1oi8aqAQKNQCPQ2DunBqgBT2iAQCPQPCHkxtoj5X1zNEYN+DVAoBFoBBp759QANeAJDRBoBJonhMxeqr+XSlvQFo1VAwQagUagsXdODVADntAAgUageULIjbVHyvvmaIwa8GuAQCPQCDT2zqkBasATGiDQCDRPCJm9VH8vlbagLRqrBgg0Ao1AY+88ehpono7UFRlo1ZxQaaxQSeR9E2gEWvSCGcFAWxJo1EAC4wCBRqDRARPogInszcakbAKN/pRAfyLQkhVoWmBQftzT90OfnNKJSTBOoCN65n4iApr+o5yd21unK5sNyMAQ24+XWtN4xn7UYEQdAgItWYEmCzuiIEHHZ7CLowYi0iqBRq1GplUCjUCLqEdEB4zMAT1nPwKN/iR3xuP8mUBr4ECzT8fovdwhY1N9jtVibICpSylNvYFVC1QB8pFWtYmyUgf8GdYyl6GFKuz2yzDEN4VaArm+oi7a9Ur91HOh3nso9dHykuujTHFZ78e0g/W+bPXx2cyfzpbmJ/b2qrctVFsm03G8gBYF/Wh2VvNR2r1Bt0Uy6SJOdSHQPAY0X+CVYKCCIBAwQnbeIEHLXv6f0Wq2FVg6PPxB/raf2NOEUmcVDvayDTAKUPnsEaCsFQ71kYKbvT5GPlIaS32MQClgKtvVksYEt6V+DXzEF0Qbsh2cP4c25Rgt/dwm6urThbC7xzoXcYKIc1smRscEmoeAZjp6ZzEikxzVHoydR0AhCzNI0HIq6zYtuJvA0EGgBnprGuf6qXnLcHBz75aytHspgboQQQt2yshTtqkThH31MWBmy/MnP4Uvjfl5xTKo7RVyOyRjwAqijfrvKxSgRU8/TvVRNeaUhucSA6tQ7E6geQVoUmBWnVI9FsJwOheKYLQ0QYKWY75agDdXZhq9YHl6z/fZhJ40svJ9Z0zzSaD2wcHlvetAM+oT8F6swVW7L7Uu0uhM2EWHqlFP5TvTtqHU2UzbIPcB7RlKELTa3Lx/n800gEdPP75OidquksbMOnAfSvslPg2B5gmgLUPn2fqzK+F4KlTUY6c0rhw2SNByKssyIjKmdZxGL3IdnPJRz+mBzv29W+ojwVAuv/4RmgkwE9Ty6MsIug5QC6XOlnok4ygsWJ2CaKP++wodaJHrxz5lLOqnaqz+Oic+iLOO/jYg0LwANNHDlIKn6pTqccSOGyRo2cvSg5Q8xagFdcszK78gTee052MPNno+bu/dXh+tLEt9jGAn9dSd6qPehw6rdDSTRxJSu4h7C6XOpg0a5D6INuq/n1CAZtrQP5p3ytepvazn7G2sd3Ss0/VOefOc3V+TxSYEmieAZnVuq+PaQSDEp6ZxJcggQUvLV5nCcepN+wK7nLYegKh1VoHidF+h1seWTqqLL1+5rtpnq92tQBNOrwfoIdKzuFDq7Kotgo2WEvFdEG3Uf1+mvcxVpMpe6hxEQz/6KFwqY3Y6Woh/4lbavv56J2+Ab2x1J9AaAtASEZjCLFOFTqIdKtnqk2h7xLz8iIAWGAz2zkLgtDG/xzB9g/WKfZsRaASaZVl5pE6XbABJtvpEat+kvz6WQOPIKaq+mvRaCqPjQKARaFF1kmQDSLLVx4tBxHJPMQKapYwwAh2vj/3oKBlsTKARaFEFWjKImnVoHMGL7cx2VjVAoBFoBBp7/NQANeAJDRBoBJonhKz21HjM3js10Pg0QKARaAQae+fUADXgCQ0QaASaJ4TM3njj642zzdnmqgYINAKNQGPvnBqgBjyhAQKNQPOEkNWeGo8T1Hvnsn36UwI7BwQagUYHTKADeg68BBr9KYH+RKARaHTABDoggZagkSTb3JN+T6ARaJ4UtudA0VACMEdo9KcEapVAI9DogAl0QM+Bl0CjPyXQnwg0Ao0OmEAHJNA45eg5DSTQnwg0Ao1AS6ADei6YcYRGf0qgPxFoBBodMIEOSKBxhOY5DSTQnwi0pAaawy/4Sr/aqzsC0wyRf0ma9pE6KPHUhgGmoCO0eNbHq2WxAxCsA0CgJTXQKN5g4uV3SaiPoEBLwvomcDRB/UZfDwQagSb16KMvMDptI7MpgUZ/SmAngUAj0OiACXRAzwGfQKM/JdCfCDQCjQ6YQAck0BrZCJZai2m8IdAItJgKzHMBmwEpuF44QgtuH+onpvYh0Ai0mAqMQGtkIxACjf6UQGgTaAQaHTCBDug54BNo9KcE+hOBRqDRARPogJ4DGm1Jf0qgBgg0Ao0OmEAHJNAa2ZQstRbTeEOgEWgxFRgDNgM2NUANxEsDBBqBRqCx10wNUAOe0ACBRqB5Qsjx6gGyHI42qIHk1QCBRqARaOydUwPUgCc0QKARaJ4QMnvNSdJr5rJ9+lMCOwcEGoFGB0ygA3oOxAQa/SmB/kSgEWh0wAQ6IIGWJCNLasATcYBAS1qg6T9Q2Lm91eGbDcjAkBXL0IIO6AkHJNCs+nZrD90fSjBkbKpdD+2XQf7x19QBf45JGl8dgv7QbGT36dYujTU9gdaQgKZN55QQaIS5PTAni03iOeVolJU62wFoGswy0Kq5ARLDdyxQi1Iaeyfzz2gl6mT79XRCLdagJdAaENBajBUwI9Bi7RTMP4LAGzeg6dAQgNL8wjJC838nt6UVPNFK81NY8zVsp8IyWTocHq8HgdZQgKY5yDK0MPeGMO3O/FMHB/8pbtOuM4Fo7KUgoDmlpUepT3nKUzl+oMr5WKc/Q8lHCzLB6mP0ptXpVv0epF63sIGaj+Ue5OAi19nao3eyoRwIxWenNE7nQqmPox2ltlDLblDHcQKaDBFbOzjVwdDUkBWGfqKV5icEWjLpk0BrEECTepNhAs0KGj0/GVbW740ALkaDUqC1BY6fGPlIEAklH+EA1nT2+mhlSfmKa2zli6Ak1e+2n9ghbC/Lno8tX4derFMa27kQ6qPdt/IM1JaPQ/nJFDSC1sUJFFG/H+vzZZv9NB/xd3y07wXI2qcjdUUJtI5StNKYWra0qV3PQW0WdftEMMJu4HUh0BoA0CzBPw5AM4NuZzHFKQHDFjhMoElp5LoGyscOGYcAoASc20IMlPY6qvCMIdAcgoFaH9Mm8qIeNU2DDn4htlMk96jaSz32jeQNgPk0rNVNAVpU0iijf6UjGMm98lp3cCbQkh5o1t6o7qz+aT7NmeXVVeZnCTLCKaxObweID0SS01uvMfIw8zf3yigqlHxCqc9tBizNh/havso9mWnklWzaZyWd431IaZxt6O/h++pr3rO8l/IJtT62aUmRnyUfd06cVEEv1kBTOnS+tpHtZ2jYN71odjTkukUrjeMIrQG3n2mrBron0JIcaLYArTi0GqwdHdyYijPh4Au8UhDQQbQMnWeXwEyn5q0ei7K068znEubx7OD5mFODZjlO9dGCtLhXDZgC6lbA+K5RgGqvo94h8Jelwt1+7L8vpeMg2ctuZ6OTEIX6aPfeQANKqCPpcO9Ra1+5Q6F81tvZ3ua+NvW1T5TSaP6ojNB8ZRBs4bZzuNcRaEkPNCWQhwE0HTr+4OyDgRSg9TTWpcYqHNRjX5CQnh+Ekk8o9dEFrUOi89hlDiMY+yjTN/KR7ss3/WQu37aNVp2B5jgSlvO15RNafez3HqB8Ai3kf00IrEvJd4wRmbzQSG+LaKWR/YsgCxdIkV5HoCU50OSRhdbYroBmBFmlF2uZojOCdCiB1rl3bHXk4PmEXh9T2Hp+xnMPNcj7po2MHvLsdLQQ/3hu3JNZX9WGagA001nsoowI1WtE/Wzn6qmPPnrxj4DNe7Tlo95nQzrWbCBBIg51D2Q/Uztmu8owM20fjTROmjfz5z6+cCfQkhZo0RCCDhA1oJtOFigQmN9Hf+++Plqw4BROyKOV6LeZSx0mAGgJv+c4QJv3GJoOCTRPA00fRSQP0FzWxxjxOPWs6eChOXjc7USgNZzOhwdBTKB5HGhxD2hRcBJ5GogwS1JwBWpnAo1AC6SNOJwn0Ag0OmAcHK0hdixY5wbWmaCOQaARaAQaAwE1QA14QgMEGoHmCSFzNMHRBDVADRBoBBqBxt45NUANeEIDBBqB5gkhs3fO3jk1QA0QaAQagcbeOTVADXhCAwQageYJIbN3niS9cy7bpz8lsHNAoBFoiXdA8Tov5T2JBFT8ACXeGBPon+9dtwOBlnh/SiBQXOslynUl0Ai0xDqg9m7K+L77L9FOl3TlaxAK8L5MtwGHQEusP7ltL4+lJ9CSHmj2F/p65+0Zzj/hYQZ87V2TvhcrE3qmXWKyV156HXYZcQJafdqQ3zZjvpzY9vtoIphr9+3/+RfHkWo9aRzL4vtHEwJ2Ai2pgaYHfHU6rsVY6xvuww4+Ce6daUEpgONrQUKahtSDBqEWu7Y2Ok6SzcMqKw5AC0UbWpoA2vLdlzo7YIxULVALIY2uTdknDVvWV36C/c9nBw/Vg0BLYqAFC/gNX4w6rEMebRrBJuT0HnLSuLW1FrzlwBzGc7w4AM1mDwdt1A80519+sMIplDTmj9wqdlNBSD3GZcRGoCUt0IJPx5lObZ168U+dqKM6dWpFm4aReuP2AKCMDo2g4Z++kcpSfjvMrFvQvdvg6RC0guavBRDngKTZTLp3LR+tPtI9qd+L/NQ0YjpUSacHRCkfpZfu3F5KMHQqy6kcf2LQ4wAAHUNJREFUOW9f+yh5qXWWr7EFWZedDNv1P0Wsf7Hasc0dtGHXswJn7RplxO+zoXE+lDTmr7RLP3Lr15OSv5O9eC6qoCPQkhVoDk7q5MxOwdnpnOrgahrH7x0CtlYHJ0d36ZhqeU73Jp/T0rsGZ2hA0/OWQaBf5wgrCQiqDbVjS2Az8glyje/Xw6U0odTHYj8DWpapMtEeop0sIFQ6KbY2c7aX3A71fo6CNuotQ6m3kzb0c1LHYoWy6EWzmR84ettloFX7dKSaaUNJ4wg0Z/24vS+mVzohSrs72YdAI9C0HpIcIPVgsAydx9pHIJqIohC05PKchGk5Fyhg1ytwO1BEvlYQBQjiWpky5IypJQk8lnw0myhBU9RPsZXlGq3+avALrT4++xm2CXUq1l6+HDQClF2vnaU8lPu1tKObfEJNG6o21HTasR9gvs6L3I4hp7GCU539iLkNQrVVI0hHoDUSoKmBTD32BUjJodU0PseMQtDylVefkxmByBdw6ktv+94YlfhWSxrBxzdyCfC9lt4KNNUeluOANrFO42nXqHWRIHnbT0Krj2Y/Mx/L9RJcfmLA0kxn7n33LqcVnxsY0Fxqw95eQgv+UZqmb7kdDV8ImsZxhKbalce+2GHzz+jahkBLVqCZwShgsNKFYHFSQyz2c3qQlKek1DQ6YJah82z/P9mqaXyilJ0+XIFqwcgKDF/+Zp5mQAkYgMNzBut9WYFjq4NZFwM0AW1o1NU2UlJsZS1br78OJzOwhlYff4fAAKBNJwbMlPNO5fvvObSy/ekd7K/cb9C0Pts65FPfd661YdjDpyX9XuX2FHX121XUKYQ0JlTNzoLYKzaPmQ3qs1Ej/J5AS1qgSYsQfE6oO768bN8pQNnOaU5nBkwzD+t0oh5Urc5oy8d0kKgErXqCp+uAFXpQVO9Lv/d64BqCDbV8nZ6hSe2nlu0LotJ1odTHKfBaA6kawAPryRdwQ+lkmBoItI+KNuppyzC0odvU6gO2c0a+cqck9DT16CeQvXiei0J+JkEomp/DpXvakn2QN1+AiIpY9cAvry6UHc4pQMrn9CDrH3WZdZPTOAVVcU5NY16rPhfynXd5v1r+jr1ZIxjLvV7f58gDh9N96YFLeRZigEhLv6J+G/ps5qurtdPg+L2W1n5Pweoj8tG+t9jO1IkUtM3Ab9ZndjpaDMiwrczU288BgC7bU8sn5kALTRtmm/n8xmIrPzBVO8u+pdvFXJbv14aaRs/D3obm9dz77R1rW4Qbw2WONJEPGvLncI0hw0x8jnWjeSd/5ykd79xf/Bw5YptFY3QmABhzoDUgm4bTIeA1EcXPcGO4zC0CLaYjNI87sBZIHVYH0rEjcmxXgHOYanN1vdxWBFr82k22Oz9rdifQpOnLcI3BEVpk0NWmbKTnTGEHUzp1WMFUTM+piyPCbgMCLaw2CNve1LzF3uHGcI7QmreEaTwCLTKg0ZlpP2qAGoiGBsyY7HZPoBFolp5RNMTIPBjUqAFqIBINuAWZmZ5AI9AINE73UAPUQFJpwASU2z2BRqAllZAj6dXxWo4KqAFvaMAtyMz0BBqBRqCxd04NUANJpQETUG73BBqBllRCZg/bGz1stiPbMRINuAWZmZ5AI9AINPbO7Rrgsn27TaiTuNnEBJTbPYFGoMVNpJH02HhtnHv8BBr9IoEAdwsyMz2BRqDRcRPouEkLagKNfpFAvzAB5XZPoMUBaOqLU8WLVtUXoyZtYEugqGmTOI/K5LaOE9CsLx+WXsgs18V4rZr5gmLHt6FEIY2Tn1p/+SCB7SHboxF8dgsyMz2BFgeg2QKz5nwBnLcRiNVmD95z8o0G4gA09VVpOlAUv1B9RauX8oqvKKXRy5fftm/8IkCAN/xTx7EDvAkot3sCLRFAM35wkKO02DkEg02Eto0D0GxtZMDK7xc6UNQRmRU80Upj/ryMDDTzt+cUyLIDFvMOmFuQmekJtAQATXNI170+Z8fVpmzUFwIr0y9D1O+FQ6ppxG9tKen0wOH//Sh1+sU6XWSmUwKCU1lO5cj2MALbEOnHMrXgp9ZZvoZBJrpBJhmA5lQHnzYMyEQrjfnbdI6aI9BsnY8Y+5sJKLd7Ai1OQLPCIRwHCQ1o1t6r6KXr1znCSgKCCkYdVjKcjHyCXOMrS0oTSn20NOY1BrTUXrn2+1wWEBo/hGk5F+GoJMZOGu+gEFF5TqCIsX10rUi+oWnBf6xrMgOt2qcj1XwOHa00jkBz9p2I7BpjG3qlbm5BZqYn0OIENIvQjF6mLWgHFbsdKCJPK4j0NLZ8NaeX4WT/pWRLPkb9/FM/BiiUIGe5Rqu7GgBCq48PaAbMbOUGsIu9fALNorMAdgspjdLWIV0TSXlG21u0a8LKAJivUybrM6ppzFkGac8OU3RH/iFqxASU2z2Blgigmb1Bc1QSYiPfZjx7M1d7+fY+pzNGLWL60LZZgabCwHIcMJjp+ZvA0a5Ry7HcU2j10XvmRp0t18uAMmCplue7dzktP0cMoIAaiIFtDZj5gGX6gwGuISv8ozTtvuS6RSuN6ZPqlKNZF+7jCja3IDPTE2gJApoFIBE4izUfK3ACBzU9ndwbtuRjBAkTXL585EBiGx3qgc46bRRafXwjNBPYNqgZMFPOW+ocgQ1998c8/EFLaeuY2cgEkmPHxK5TUQ+/XoTmopTGhKrcYVL0FjMbUHd+3Rm2MAHldk+gJQJo5jRJ88h7u2pQ14FiHY3ZHNGhfDUf7djSW1WnE9XpThlo/vJDqY9TgLIuQLGX7VvU4hgII7erzWaNLejEA2hBYSbrSRqhGdfInS1dY9FK49duo9dAAjXvFmRmegItDkDT4SBPA0bPaVQQCSfUHVwuz7+C0ayLPDoT1zjlY6b1TV8q8LB9r/Vu7fcWrD6++lp6w3qv2zLVZAY/swc9Ox0tBmTYVmYyCEUJ5jEHWoApZAcNqfqRYWa2dzTS6HnY9WuWwX2UtBUCKE1Aud0TaHEAGh0hfo5AW0fJ1jEHWpTqGUJwpCYanq3dgsxMT6ARaLb5awaAhhcAot5mBBr9IoGdBRNQbvcEGoFGx02g40YdRNG6FwKNfhEtLYWRj1uQmekJNAKNjhuGwyUtiHgv1LMHNGACyu2eQCPQGAA8EAAIWE4Te0kDbkFmpifQCDQCjUCjBqiBpNKACSi3ewKNQEsqIXupl8l74aiJGghPA25BZqYn0Ag0Ao29c2qAGkgqDZiAcrsn0Ai0pBIye7Th9WhpN9rNSxpwCzIzPYFGoBFo7J3bNcBl+3abUCdxs4kJKLd7Ao1Ai5tIvdSD9Py9EGj0iwQC3C3IzPQEGoFGx02g4yYtGAk0+kUC/cIElNs9gRZnoPleoqq86DdpA1sCRU2bJPC5UByBFswnfN+ZL6XW9tKb9U19Kj//or58W9NSPWkcy7K8NDuB7WHeZyPZuwWZmZ5AiyfQjCCROtv/9nsGbQaJpNRAXIBm/pZZOjoLUDl08jTI1AcV9eeQtLqXwAK1ENLoQJPftu/8O3xJ2V4eA50JKLd7Ai1uQNOdQziZ00+10EkItqTSQByAJvxA/ykY4+eCwgKa369k+1nhFEoa82eXZKD9FPrv7jmMCD0GENl2yfDZLcjM9ARanIAmO1h4QHN2Sse8lKkVp56v7wcy5akcJaDodZZ+V03pKWtly9drn5WAIBy/nvpo5ch5Gz3sIZYfGHXIR76GASa6z3ziADR/4IwAaE719OnHAFEoaXy/I6joVx3ZUWfR1VkAe5qAcrsn0OICNN1hzR8mdIRQgIb1O31oQJPBqV+rX6dCTYWIWicdVrJzG/lIEFGvue0n9jSh1MdSFwN+lukiYRsRlCzADRwE/TbjqC9sWzhBoF6NhmvvwG2p60fqVK0wR3VGWQpwdN1moFX7dKSaaUNJ4wg0Z98J26Yxs1+4dk/e69yCzExPoMUBaGrgV49DcxA7LMR11rz0NDYYaA4tw8mYXgkEJ6OHawLYVz8lyFnLFs6hBoDQ6uMDmgEzW7kBAoG9/OR1UJ8NA9xL0n2vtHVs6xcYaLZyDY34NG7CygCYr+MmazjkNFZwar/UbulEUV+29oiRnk1Aud0TaLEGmuZMVpiEH4gNx1en+XxOF+B7h6lAtQ6W44DBTM/fBI52jVoXCZK3/SS0+lh64Zbr5QBiwFItz3fvclp+jjjwBNRALGxr6CTEtrRrVYBIec4l19+AW9A0jiO0WNwr8wxFm25BZqYn0GIMNMegLwVlX08zzJ6OxbkNgJjACSwcPYDIZVvyMQKALR85SNhGh7qj6nAyg4sVgIHq4xuhmQC0Qc2AmXLeUucw7ReoTo3+vNLWsbWHG6CpswB2LYu6+jUldBlCGmPkp43KTP9U9BZbGxB0sn1NQLndE2gxBprcSObnaAZiNS8dKNYRoVmub29OwTT3O5Gaj3ZsWZShBhJ1ulMGmr/8UOrjFHyGWIKJvWzfQpMQe/W+eyf4Qnuon6RA0/VkdphkzUnnHDpktusCpvFrl5rxx4d428ItyMz0BJrHgCaEpzuv8jzACPw6qJT/0Qkw2jLT+nqtCjxs32s9W3tACFYfX30tADN67PI0khGAfHWZnY4WAzIc/3cp3s7nyfLiADRHXQgNSVqwaUz6Tra7mpdtdsHBL9Q0eh52/crl8HN8IGcCyu2eQEsA0OgU8XEK2jkCO8cBaGyfCNrH4zMNbkFmpifQCLTQpqA87kAMrkpwJdDoFwn0eRNQbvcEGoFGx02g4yYtSAk0+kUC/cItyMz0BBqBRsdNoOMmLdBoE/pFAjVgAsrtnkAj0Oi4CXRcAk2Z6mRb0B/FAh4pLrv5TKBJhktbsg/yxmDDYEMNUAPUQPw14AZicloCjUBjj5CjAmqAGkgqDciQcvOZQCPQkkrI7A3HvzdMm9PmyaYBNxCT0xJoBBqBxt45NUANJJUGZEi5+UygEWhJJeRk6ymyPhy9UAPx14AbiMlpCTQCjUBj75waoAaSSgMypNx8JtAItKQSMnvD8e8N0+a0ebJpwA3E5LQEGoFGoLF3Tg1QA0mlARlSbj4TaARaUgk52XqKrA9HL9RA/DXgBmJyWgKNQCPQ2DunBqiBpNKADCk3nwk0Ai2phMzecPx7w7Q5bZ5sGnADMTktgUagEWjsnVMD1EBSaUCGlJvPBFpcgGb+ArP0K9K2X95lGt+vUSu/Wqz3Hmkf2sfwH0/4DkeFwUaFbiAmpyXQ4gI0ijeYePkd9UENUAOyBmRIuflMoBFoSTXVIIuanxnkqIHGqQE3EJPTEmgEGoHG5yfUADWQVBqQIeXmM4FGoCWVkNkjb5w9crY7213WgBuIyWkJNAKNQGPvnBqgBpJKAzKk3Hwm0CSgPTU/k79YTcdOKseWe638zFFMY9DA//EvP4MbiMlpCTQJaD0mryHQCDQCjRqgBhKogX+5/RcEmkxmmdhuPj/cezSBlkAhN4beJ++RoyxqILgG7vjVPQRaNID2yxatkJK+wgc1Ci+48Ggf2ocaoAaiqYF/+dc7w4aZGLzIHGgiHzTkz25GZWra/3i4ow9q0Wwo5kXHpwaoAWogsAYEzO6862ECTYWvCim3x2KkJqYfxVyueEBJEQYWIW1D21AD1EC4GhDxVcTZSKYZ5fgus4AjNGmBiGwkfm4ZUa+J9qP9qAFqIB4aINAIMcKKGqAGqAFPaIBAo5A9IeR49P5YBkcZ1EBya4BAI9AINGqAGqAGPKEBAo1C9oSQ2XNO7p4z24ftEw8NEGgEGoFGDVAD1IAnNECgUcieEHI8en8sg6MMaiC5NUCgEWgEGjVADVADntAAgUYhe0LI7Dknd8+Z7cP2iYcGCDQCjUCjBqgBasATGiDQKGRPCDkevT+WwVEGNZDcGiDQCDQCjRqgBqgBT2iAQKOQPSFk9pyTu+fM9mH7xEMDBBqBRqBRA9QANeAJDRBoFLInhByP3h/L4CiDGkhuDRBoBBqBRg1QA9SAJzRAoFHInhAye87J3XNm+7B94qEBAo1AI9CoAWqAGvCEBsIG2h2/ux/3pg5Hh8XvoWfGYTxdcgGDqm9iyOkvtL04FufF9yKdSC8XFsvP8egJsAz2OKkBaoAaSC4NyFxpIh84fb79l/fgj8+NQ9f3svHciY8x5MyXIW8ivbhOXH97s3tiCjeKLLlExvZge1AD1EA8NCBzKzDQmt6F5n2Gom9ODQaf/jLiTeQj8vtZ07tiArZ4GI5l0EGpAWqAGkguDdQLtGYPd0D3rYcx6NSXUd+6by2EyF+uRDQ+U2TJJTK2B9uDGqAG4qEBmR+2Edofuj6Np8vq8NzJL2K2PV12FaIcuSKRfo6H4VgGHZQaoAaogeTSgMwOC9AeGP4ynqn5FM+e+CLmmyhHlCdXJpLPFFlyiYztwfagBqiBeGhA5oYPaH8SMDv+Rdw3Ua5coXA/x8NwLIMOSg1QA9RAcmlAZoYGtN93TUPasU8wsObzuG+i3N93iXz6kSJLLpGxPdge1AA1EA8NWIDW7KEOSC26irTqzxO2pRZdQdMH20c0UouH4VgGHZQaoAaogeTSgAVonTcU4Oljnyd867y+IKIl/RRZcomM7cH2oAaogXhowAK0AVWfIVm2u3oODnuUFg/DsQw6KDVADVADyaUBC9CeqvwMybKl7Dwa9htFKLLkEhnbg+1BDVAD8dCABWj9Kz5FMm3NB4wJa5QWD8OxDDooNUANUAPJpQEL0FLLP0Uybe3e3E2guXwL+KTiW7hVPMcTb85OlmBBmyZX0EoWXbAeyacLK9DKPkVqEm19Dt/Av/7mj66h1piFFmrwTVlXhsJ1gwm+EDoMtGnyBa7G7OO898B6tACtX+kncLtN/vh/IP5OX7Jeu/I/tdP46uOvXOcp1+GunkMJNMegOweF1zcjRfku1OAbarrG5Ty0aeNq78CBkXZomLaxAK1vySdwu03+SAfaqUvStZd+1Gn29X+6zk8tv+WMNQSaAi3N2aaV4VYEQKPDOjgsbcoRu5Ov8VyD0YUFaH2KP4Hb7SUTaBeNa4//A19pOPsRK8LITy2//arc+AItVfTSb+HWLXO7gbriOdaRUOpma5rrZViTag2QYgRUt24OJhXfsORVOG0wUqaVoU4qQ+SvAiZlmlzGDWl6cLCSp1FPIw9z5CWmFOuke1CnF810Zrl6fY26BbmuWfMA5d+6pdnJzM+yp02DtkVYNmWQtfmMRXO0T6O0jwVovYs+httt0k1jhHZBXPufOKXB7H+wr8Z9Xk5ld8s8HUegzUGhCMzrBhsAG4yU1DlYM0161pS6WQtOAlYpAmKpgzFpnYDWDQvUNGAYQd6XTizY0GBxw5enAJcAT+E0CYhipKCdM8r1lemvR4ooM9AITS63eUs4leEENFFmXfFmpKSKcvxwk+umXSeVq+dtvXdrYKFNo29TSSsM3I0ycFt9jHow7WEBWq/DH8PtNlEC2ttf6zONpy64zydQud0PXI0f0DRwBAvOg7FGjKwcRlRqoFePNYMbYJIBIc5b4eJchgawW2WYZASw4EDzpzMb2lqGWqZxLOXvfJ0OJ2v99fqKToB5jWVPm/razLSLtS3CsCkh5qw12qXR28UCtJ6FH8PtZgLtq+/1kRq+/wcmhpFPoHJ7FNyMH9BMuNy6AW1q0OYgTsHH6B1poyo/SKxBy0gTILhb0wYoQ8vfD9ugQAsEXOm8tUw74KIZfLWyaFNfsLHa3qm96+kk2HTJHrqpV+7D18J9KaMxcuFqjBzYzadVnz1TXsFLC1fbtrSUIOW5uCZo2S70bgFaj0Mfwe2W/qEBMgBffa+P0L768AvX+QQqt9u+K3EFmmhA+fmVmC6a5Hs+5hR8jAaNFtCMUZz/GZ45TSn2iQaaCT5pdWUASPscwRAjbep3fCvQwrepamMe+21MW7ixRTe0Hr0YL738Cka+HARoL49G68e74T5pC2pnAbR6rwmh7FCBdk9LCyuadM//CG63CR/oQDv5wRfonv81ThrP0LKr3OflVHan7acslZQJHOhzUCOHahyRTjw/0xZvmCOvOACteZAypLonZoQmnMSYEjUXjjgsiAlqf9pUmWKOgk0lXQS1PdPZRx60CZqlCJCNxn3NW6L1aGeg3TdwMV4aPdCV/UK6JoSyQ9X0nXc9YmFFk5S8m3C7jTeBdta49uwP+jDt++8wPoz81PJbv3nAUslAEJPPh2qA0NIJwPhHRmrv2sxDOy8tlnBMF2A0Y00b2nRTwoAmRqLSfZr3725Pm1qew0bFpm565EzrTq+Nx17hA60bUl5erY/IjE5CSECTOhSByg61re686yELK5p0y70Jt9u4G/oIrfas/9rlf9WZJp9zm6+Z/qEpqyyVlMEV6HOoBrClE8vxtSlGc3WhuYLRHKGJUZuLVY7SMyutrJCA1hLNtOlLfdm/WHGob3OwRqysNAVgpBHP+kTe5nkrHP2OqJ6v79i0jZpOA6lYCWnWo749bWrr1UZs0/pszu9tNjf1zL0/JjjZIhBUxPngIzQDaAtfQWtDf/VfY61LoLKd6ul07he/f9DCiiZdD96E280HtDPSteXf4UuNaT/gjTDylOvwHynxfFPIYKyx/N/YLdRdL5OeoRkNoP5flcO0mxq0tAYIFWhCEOr/ut26of1fm9yQGlzMqT8Dno7lmotdJMCq6dRjsxzbeVEvs0zf3l4383ptipI2tQTYyG1qDQR+W/M8bRGZBgJBRYOTZVHIYqQNHKhNUwayudtrApUdKH/1/M9/a31NYpMuOR/C7fbidWOEdtp6rXkef/mb6zzNOnTae4Xvckym3rYA8nX9f+j8I0cxgtQhZ13OH5ljqWL17DFtaoG9Z9s5mfw4SF2CQUVbDCKuFYtCjBWRwUdtLfUFJCFeE6zsUHRxe7O7rSO0Lvs/RDJtj87faalgoClG9XwoN8807oEjRhbO/28W2nM/2txuc9rUbhPqJHE2cQUVbVm+f4oxpHYLco2rshUoqwtCBBOadN73IZJp+33vUQSa0nAhiSZG1+gLUdQpWPM5o3/hTCLr2NDKpk0TF7wbmlbiUV9XUHlc/N/aYqQ87qINg1zjqmwlxv38d/fbWNGkU/YHSJat9ZqysH6x+vamd3EKQ2ns6DmC/h5H/zsi9f+Ns/6vngtxx6yeDakOtGn09NmQ2j056+oKKkFGWwHbNMg1rsqWY8c9LSHivjpT16Rj1gdIlu23nZ+zVVCtsNPxHb9qQaDJjc3P1AM1QA2EqAFnqAxEymjln6rF/49Z3iqirnIM5Ror1J3LtqZxAuXPf2sfnWlTjo8uycGTe24kfBP1+JkDcZ0App77+e/+RPGGKF4ncfBc/Q5EG9FGXtWAM1T0t3kIgPlef/XyYqSlyK/IEmn0/0MT/6DdrHko11h15Fy2NY1q96b3/Bk/a/oHx8FPk1/c3w7tNp/DE7tvJGxrt/ks/v3+do4VVOGlHoth5513PUygEWjUADVADTQCDdzx6xYBWdFEAOJX7Z5C+5116JB5I+6bKFeUr4Iq1ON//VULNL0nONFVwvOY9qIGqAFqoOFpINBUo8kLDWji4A9PTUL7XdfjvolyzcqEsxf/KU5hNjxhss3YZtQANeBGA+pbQZx44QOa+PL3T01C2+1X0W7n9Zhvopzf958YEczu+PW9aHrPowRaI5hmcCN8pmWgpAa8pQEdZvZVjSrULEATX/6ybX88vu4s2m6/HrPt8fVn8Mu24U8zinqK/xAX/1hH4XpLuGxPtic1QA3IGqhvmlGGmg1o4st//2NbPDR/P9pkXIv69uD8fVr+ciXcfhYLQX7xh4c4OuPIjB0aaoAa8KgGxGrGYAtAnLjhCDQtYdO78Ksnn8Ujb5Sg9bZrEW8iH5FfuEvzzcrf8avmXNXoUQHLvTJ+Zi+dGmikGrinJbRRWYCl+SYLnPaBgXanvs7/9mb34DfdX8Afp2Wg1caLeHzrtZA3kV5cJ64X+ThVwM25f/vt/Wh69585MiPQ2CunBqgBj2lAPEISr7NyegNIqJz4/wFe7VsliL458QAAAABJRU5ErkJggg==;" vertex="1" parent="1">
          <mxGeometry x="617.64" y="380" width="174.4" height="150" as="geometry" />
        </mxCell>
        <mxCell id="Jlm6lItwhGJ9jv6W5DHI-26" value="" style="shape=image;verticalLabelPosition=bottom;labelBackgroundColor=default;verticalAlign=top;aspect=fixed;imageAspect=0;image=data:image/png,iVBORw0KGgoAAAANSUhEUgAAAmcAAAFICAYAAAAVoFlvAAAgAElEQVR4AeydiX8UVbr3379gnOUd4b0uc0VQVMQFZEfWsMmiLAqyE5BVtiBi2BEUUPYtLGELkEBCCAlZCCGBhLAqgkRwVES8M96ZO86dGWcybujv/ZzqOt1V1ae6qzvdSS8/Pp+i01WnzvKcX53nW885Vf1/fnH3A+BGG1AD1AA1QA1QA9QANRAZGvg/7IjI6Aj2A/uBGqAGqAFqgBqgBoQGCGchjBz++neP456neuCB9i/jwS5j8HDPKXi03yw81n8ON9qAGohhDYjrXFzv4roX178YB359fxPOSoRwfCW0EFriSQN1Bmd339cYvXsNwuLXF2H3+u04kZ6DM0cKce5YMUoyj+LQjn1Ys3QVZk1OQtcuvfHbex+OyIHuV/c0xn3P9MFDPSbS+caw8yVg8wYjGA2IcUGMD2KciCfHwrYSpKiBmmmgVuHsV//vQQzsPxRbV23E5ROnUVV2FtdKz6KqtBJVJyvwYclpXDlxCu8XleJsXhHKs/Nw+nAOTmUeRuH+dLw9byF69+qPX9Z/sM4Hurv+XyPc27wPI2MEMkI5NeBXAyKydm/z3hDjBp1WzZwW7Uf7xYMGag3OHmv+LFI2bseV0jP4uOI8bpSfw/XTZ3H99Dl8fPoCbpSdxUelZ3CtpBwfFJXiwrFinMnJxZkjOSjPOoxTmVkozTiIkwfSsWfNWnTs0B131WtQJwNdvUfbo3GfGX4H5GDutHkOIzTUQOxqoHGf6aj3SPs6GbfiwaGxjQS3WNFA2OHsPx58HP1HTMDUuW8iN6sAV06ewe/PXMDHFWI7j99XXMSnFe/hs/JLuFF2TougXS0+hYv5xTibm4ezOUdx5kg20jdtQGnmQZRlpON0+gEU7d2L1YvexMOPPl17A129BriveW9CGSMl1AA1UCMNiKj7L+ro5jJWnBfbQRCLZQ2EFc4ebNICwybNxPjZ8zEteSlyDxfgamklPql8T9s+PXsZn1VewWeVV3Gz4gPcPHUe10vLce3EKbxXcAJnc4/hQk4ODmxYi0ljh2PFoteRtnkVyg/sx4l9e3A0NQUH3nwVndq2CDug3VW/ERo8O7RGAzIjIrEbEWHfsm8D1YAYT8S4EssOhm0jQFEDwWkgbHD2ROuOGD1lOsbOmIMJs+dj+rxlOHo4H1dLz+DTs5fw6VkXoH1+9io+P1uFLyo/xBflF/Dx6Qp8UHwS+ekZKM0+jPO5RzDv1Qno1a0D5iZNRtnB/ahI34eT+/di76qlKFiXhAtbpmBC4uDwDXL1GqDBs8MIZoyWUAPUQEg1IACNEbTgnBedPu0WyxoIC5w90aoDRk6agsSp0zFu5hxMnD0P0+ct1eDsysnT+LTyogvQKi/hs8rL+Pzsh/iy8iq+OHMR7xUV4diB/Vjw+ixMGj0CObu2Y2CfBAx4vhvy96Si4uBBlGfsQ9mBfTi8eRVS3hiNjLdeQf7b4/Fi7x5hATROZTIqEmhUhOmpGaca0KY4+cqJsIzdsey82bbYhtOQw9nDT7TG8PETMWrKFCROm44JSa9j8uvzMGPuUuRmF+BKSTk+PXMRn1W+h8/Ovo9PzlzQ1qDdrLiIT8orkb13F/ZuT8HUSeMxacIYTEocjv7PdcbsyaNx8sAenDl0EBWHDqA0PQ1Fe3fi4PoV2LRgGnYtTULxzvVo365LSC9ysfjf6SDLdHTI1AA1EIwG+JBAbDtaghT7N1ANhBTOHny0OSbNeA3Dxk/E8MlTMHrqNLwy8zVMmrMASfOWITczDx+crHBHzT6pvIjfV5zDjfIz+ODESWRu34bS/Dysf/cdTB43BiNffhHDXnoer4wYgEWzJuHg5jWoyMzAmUPpWvSsYHcqivftRumBPdpWsm83cnduRZMnW4cE0MRj7+LpqmAGW55DJ00NUANONSDGGb5mgw48UAfO9LGrmZDBmXitxfyFKzDjjXkanI2YNAWjX52GcdNf0x8IWILszDyUHz+FD89cxMeVF/GJeFqz/Cw+KjuDSydKkLErFcOGDMDbyxZj+qvjMXhgP7w8sC8GPNcJ0xKH4NDmtVrUTMDZ6fR9OLZ7B/J3pyJ/93YU7NqOwt3bNVjL2X8gJK/ZENMNTgdXY7omA+bg2RGL0H/GKgxduA7DF63VtmGL1mKog234gnV4YeYqtB+5GCIvY978m/agBmJTA+I9aHS2sets2bfs20A0EDI4a9/pOexNO4iZb8x3wdnEyRjz6jSMnf4aXnltHl5NXoQ167cgr6gM+YWlOH3iNC6VVuDDskrtIYFzx0/i0N49mDJ5Ipa+9RYOZ+cg/9gxjBgyCP26d8TU0UOwa9UynMrcj4pD6Sjdn4ajO7chJ1VsW5GTmoKjqVtRsHcn/uvaVfTt+2KNBrpf3fNIUC+YFTDVZ8o7mL02C7sL30fBxU9x/P2b7q3o/ZvwtYm0hRc/0c6dtS4Lvae8Q0DjInQCehxoQLyolr8kQAceiANn2tjVS0jgTLz5f9XqTUhLy8CsuQsw7JUJGDFxMkZPmYqx02dhwqw3MPm1N9Cn70DsycxF5rGTyC0ow7FjJTieX4Li/BMoKTyJI1mHsXPnLhQeL0XB8VPIyz2GF3p3x+C+PTF1zFC8+dpUpK5ajtMZ6Th5YB+ytqcga8dWZG7fgqztW3B4ewpyd6fiy2sfovRYAX5Vg18SED+5EkyEouOYJRBQlX3mY5R8cBsnr9xC6ZXbKL3yJU4aNvf3qyLNF57t6hcouXoLJVe+QHblx5i1NhMdxrwZVF2CqT/Pic2oDPs1Ovr1PvH+Mz4cQBtQA3GvgZDAWULP/jiwL9MFZ8mLMHTseAyfMAljpkxF4vQkjE+agymzk9Gnz/OYu+AtHMkvRWFJJQ4dPoaMzBycLj+H06fP4uTJ0ygqPolTJyuRX1iCpQsXYUCfXujfMwH9eyRg0HPdsXL+HJRm7NPec3Zo22akb92MAymbcCBlMzK2bkHWzu24fe0a/quqCoNfGhF0Bwf7W5nDk1OwJqsSh8pvIKv8Y+WWWf4xMivEdh2ZPtIdKv8Ya7MqMTQ5hXAWB5ETAlR0AFQ4+6lRj4lBj1mEutiNorBv469vQwJnr7+xGPv3HcLePel4ff5iDB33CoaNn4BRk6di7KtJmDDjDUyZswDLVq3F4Zx8HDySh0nTpuO5hO7o3bkrBvXph8SRozA3eS6yso+gpPg08otKMGTAAHTv0B7d2rVF17at0aNjW7wxdTyOp+3Rpi83rHwTm9esxM6Na7F74wakbd6IjO0puHX1Kr6sqkLqpq1BDXS//t3jQcPQxLfTsPrwGWzOfx9bjl223XYcu4T9RRew49hFbDn2gStd3gfYYtyOXcaq7EqMX74v6Pr4dCQrLuH819/gD2KrKkQ/AlB47Ey70q4BaODX9zcJatyiA48/B84+j90+rzGc/d97H8aunfuxL+0g9uw+gNnzFuLlsePw8rjxGDFRPLE5E+NnzsH0uUuQkV2AnPwTmPXa63i+ZwJGDXwOE4b0w7ThL2Dx5GHYvWwm3po1Hhs3bERBUQkSRwxH1zatkdCuDbq0bYWEDq0x/KUXMGvyKxj50gvo1ycBI14egHUrlyFlzbvYsW4N9m7ehM+vXNGiZ9cqz+O39zUOeKC756keQTuTSSsO4M19FViacRZLD6q3tw+ewYeff4Uf7/yEy598ibczzmJZxlm8ZdmWZZzD4n3lmLBiv219+qVdQlbaatvj9nCWhqyvv0HWCte5BDNGbey1QtvUpm3E+EOnG7tOl33LvnWigRrDmXgQIG1POtL2ZmDXzn1a5GzwmEQMHTsOw8e+gpHjJ2LMhMlYvWEbjhWeQvqBw+jf7zksnD4KWStm45P09fhwxzL8+dgu3D68Fae2LMXoIX2Rsmkbco7kYnD/F9C9U3t069BOA7QuAtTat0GXDq3RpVMb9O3ZFVMmjsHyJQuwadU7SN2wHjc/+ABfXK3CJxffR+/egwIe6B5o/3IQsONyYBPe3od5O09i/p7TmL+nQrkt2XsKf/rmW/z888/4w1//iSV7y7FgdzkW7q4wbWLf3J0nMf5t+8jZtJJv8IeStMDru+IS/vD1JUwL4I6+Nh0UyyIQxasGxPjjZPBmGjp5aiB2NVBjOBs3fhr27E7Hnt0Z2LlzP+YsfBODho9Cr34voFuPnujWvTu6duyC1D3pKCg8jaycXEwaORiH3n0DZSlv4cPUVfjb8Qz84/hBVB3YhDM7VmLOhKF4rmNX7Ny1Dxs3bkKntq3QpU1LdGrdCp1at0SXNq3QtV0r9O2VgD49u2Ly+DFYumge1qxYgS1r1uKTy1dw68Mq/P7i+3hz/tKAB7oHu4wJHHZ0yHll2V4kbz+BebvKMG/nKfO2qwxzd53Wjm3MOY/iyzexMesC5u0qRfJuRfqdZVperyzdE3R9bB0c4Sz0NiXo0qYh0EDDLmMCHrPopGPXSbNv47NvawxnyXPfxM7UA9i1MwM7UvdrkbMXhgzDcy8MQM/efdHn+ReQ0CkBeYWlKCosR/aRPLwxbQI2z52AtGVzcGbjUnxTdhhfZO7AgcUzsHvBVEwfMwAv9O6DZSvXIb+gBAP79EPX1q3RsVUrdH+2HTq3aonOrVogoX1b9OvZDX16JWD40Jfw9tKlWPfuanx8+QN8/mEVPr70PvZu3xXwQPdwzylBO5mxb+7G6ylFeGPHCSTvKFFsJ5C8vQhztxdj3vZCzNtWjOQdxZgj0m+3bDtOYE5KEcYuSbWtjzVyJr6fT1uNfsb1ZF9/bpj6XI1pJZ+71pnJ9WZff47V0/RIzbRCZFXp69C0tWiXPMccOh5rnR6bVojzxjJEPg7KcbclzbA2TrRFn4oV4KmV5W6Hod56NNGrLpY2+DuuhFs/dfdZp2lpyKoy2/98iXm9n786WY+ry1PYyUeE1Zqnst0W2zFNeKKbD/ecHPCYRQcenw6c/R67/V5jOHvnnQ3Yvn0fduw4gG3b92POgmV4ccQYLXo2YOhIDBg+El06JSAjKxeF+WVI2ZiC2eOG4/SmN3Hszdn4cOsK/H7XKnyy7R2cWP4GylbOxbrZEzB06FCsTtmD3LxSjBk+Bl1at0fHFq3RqUULdGzeXNs6t2yJ57p0wksvDcSYxNFYuvRNvLvyHXz03vu4efUarl98DyfzCgMe6MT7hoJ1PKMXpeK1zfmYnVKkQZoANeO2IPU4Lvz+j/j97f/GJ1/+N3YXXsIbKYWYnVKA11MKTWnF99c25WPMou229bE6VemoNYc/Tawn84Ba1gqDM1FFzjSIEnCXhn4C1qatxrQ0ARIGeHPgoM11kmvbDGU7LMfTFr0+elvEAwyetqxGv2mijToArtC/6/U018VQB4fHvXTgqO6+6iRsKtqjr/WblobVAoYND2QEWmeZXrODsIXY0sS0taffZBqv9gRrBwc6sCuL+711aLSJGH/odGPX6bJv2bdONFBjONu4YRu2b0vDju37sW1bGl5f+BZeGpmIIaPH4eWxk/Hy2Ino2qk7UrbvRfHxChzOPIoVMyfji51r8PWBHfhq3yZ8tn0l/rB1Jf5+OBV/PbAF2cuTMWb4SGzemY78glNIHJWIF59/Ab0SuqFL61bo0KK59tm5TUv0SuiCCRMmYvbrc7B4yVKsXP4url28jE8/qMJHFy7j3MmKgAc640AZ6N+jF2zDrA15mLVZbMcsWz5e25KHxbuLUPnhTfyMn5F96ipmb85zAd2mY5ht2ZI25GHUfPtXaVidrvZdsZbMmu4xLzhb7YIERXRFO9cAD/5s4inLlaeI5HnOcV6Oz7ZY66OKzsnImqJNsj6euvp2mK70zuuupbepkyzb/WnpC391sh63fnflK6CYcOa2cS3BZJNBc/H0yLfx+KB5Bs3PQZOByXhq+Ft4/MX5pv129XMyeDMNnTw1ELsaqDGcbdm8A1u37tEATcDZnEVvYdCIMRgyZhyGjp2MYeNeRbeEnpg/fymKisuRnV2IJdMn4/auTfhXXgZupq7FF7s34qtdG/CP7N3419F92D9/KlbOm48d+7KQf6wEg18cjOe6J6BH547o1bkjOokpzTattbVoAwb0w7QZs5A8fxEWLlqKZctW4KoGZx/h2vnLuFx+oVbhbMS8LZix5ghmbMjx2pLWH8XM9bmYviEXeZVV+Ak/43DZFSRtyMHMDblI2nDUa5u+9ghGzN1sO6BbHbP1uxz8vfZbgOCx/ooIl3RoXml9g4wsS37KOrg+nZejPn8OvMHSNU3qNXUacjhzXnetrU7gTEbODABp226bKJcqvZjWNj7woUpj7Bd/x41pnf7dZno6pmdcw/QFy731O70A8zOueW2J031oy8k5o7fgxVVnDPmeQeJ0RflS2yH8FODVa3kxxhd/j46vG56wHpCM7kvy8EphtfbpxH50urHrdNm37FsnGqgxnK1ZuxlbtuzG1q1pSNmahuRFb2PgiFF4cVQiXk6chKHjpqBn734YOngkjhWWIjszH0uTZuCLtC24tW8jrqe8i9v7tuLTnWvxydZ38LfMnchcPg9LFyzE3n2HkZ6Rg+f79kOvLh2112p0fKY5OrZ4Rp/WbIHne/VE0muv4fXk+UhesBhLli7H5Qvv45PLH+Hahcs4e6J2I2fDkjdi2qpDmL4222ubseYwxDZ97WEcq7iKnwFknXwfM9Z4p5XnT111CMPf2ODt3AJw1MIZeDlfi/MOOZxVfe69zkyrs3PA8aqzdKRedfcDZ9Y1aVWXME1fY2dbhizL9Om87poDtoUzPQKn1+t8SZrpHXNanQKos7/07v4PIE8nAGGfZjl6CEDaVoDp23zA2bZ09Bi9HG0Mm32ec/CYgDOf5yzHi6K8VVs8eepA5xP6TH3sAw59pBORsp7LijCh+HuMzv4ftJzgumZFJK3LvEyMP/4dEnP/jnbT7dePyrZzWpPO24nzZprY1kmN4WzZ26uwefNObNmyB5s370byorcwcNhIDBopomcT8PK4yRgwZDi6de6BffuzkH24ABMSX8G1vRvx4dbluLTxHfwxOw1fpKfg/Op5+OrwDqxdvAivvjYXGZnHsHbtFnR5tgM6iyc1BZQ1a6ZtPTt1wPM9u6NDy1bo0SUBkyZPxZx5i7Dwzbfw3tmL+OT9Knx4/jJO5BTVauTs5dfX4dWV6Zi6KlOxHYKALXEst/wDDc4yT1zCtHezFGld509ZeQAvz14bfXAmgEOsV7NOPwYQobMFp0DhTNRFrsUS6+jE60f0etmWoXTEoYIzDwCIerke0PC81kTWyWmdVelda/A8a/NUabR9QdnBU38JFKbP6QLK0tGm/xz0WKWGszYLzmD+qi22ujblp/dFMOeIfEQdAi1LVb6vfT2WFmgANi7/n2g3dTseG/CG1rYuczMxruBfWtSs85wM935fefGBgNh2uoQq9q8TDdQYzma+Ng8bN6ZqYLZp0y7MW/Q2BgwbiYEjR2OwDmcvj52Ebl16Yv7i5Sg8Xo6lK1Zjx8LZ+OORXXhvzTLc2rUZn25+B388sAXnUldh7pK3kbzkHeTknsTE8ZPQsU0bdO/YER2faaGBWedmzfFsi2e0XxBI6NABg/o+j6nTZuL1eQuxYMlbuFh5Ab9//5oWOdu5JfCnNX0NnP6ODZ61GpPf3ofJKzO8tikr0jF5ZTomrUzH0dOXNTg7VHwBU1Z4p3Wdnw7xiwODk1bZOjHpdGW9rN9t9ysAx+e5XpBl76CN+Rj/tq2L7ny1tIZytO926+cM6bR8baJUqvKN06LK40owc7XXLr2232GdpB08nwL6/KwPM/SXtQ7W7658zev9lGl85Ompm30/O0kTPJy5omBapCyC4UxEzBIW5mBCyY8Yc/R/8eyMXS4AG5CMzskH8UpBtbZ1mpOOxwYk217HRlvyVRp03k6cN9PEtk5qDGfDRo7H+vXbsXHjTmzcqMPZ0BEYMGIUXhJwljgRIydOx4uDR2HSzLnIOlqM3an7sGDqeJRsfxf/czQNf85Kw9/yDuBqxka888ZkLH1nA3bsPojs7GIMGfQienXrhs7t26Njq9bo+ExLdHqmBTo/0wqdxdObLVuhd5euWLBwMV6btxDzFi/FhYpzuPFeFa6cvYzXps+v1cjZSzNXYuLSXZj49j7bbcLyfcg59Z4GZxlFZ7V04uW13uekYfybOzF4xkrbQd3qdK3f5aDvtd/gmGUa1ysv/D+tqeVlBRED0JjLMkOCVpYGUg7L+fobuJ48FZDgevLU/LSmDg9O4cxP5Mxf25zayNNOD3SJfSKitVp7olTW2z5y5ukX39E+s709dhI/zSWfavVK48cO7rIN/RrMPjs48x/N0uEsowA99Dr4P0e3qanO+lSnat2bKZ3qXP/7xJSlWEsmIMwFYK6IWfuZuzDu2D+1aJpYbyYjaU5syJfQxrbTJVSxf51ooMZw1rJdN6xbtxXr1+/A+vWpmLdoOQYMHYGBI0Zj8GgxrTkFg8dMxqIVG7HwnRS8tXY7io6VoGjXFmxKnozynZvxxbFMXM7YgZ3zpyNl8RuYv3SlBmZ79h9B7+690atrN3QTU5utxKs0WmtTmd3adUCnVm2R0K49nuvUGYsWLdHgbO6ipTh3qhLvnfoAxTur8MTjXWsVzgZNX45XFu/A+KV7FNtuiBfKjlu6B9llF/ETgAOFldo+sV91zrjFOzBomv2CZqvTtX6XzsBrvwrOhLPS3sNleF9YlfU9Z66pPfMTmGYn5lWWairTbzmedXLitRDu3wC1vOdMtk/5LjW51s7xWiv/bdPKc1B3VzrF+93EKz+M75ET8GlYAyfO0+znuM426S12CjRPt11rCDA+4cz0QMAZJC7Yok2F2pWtwVmA52jr1AyAZ5d3oPubDHgDXRce0eDrlcJ/Q8CYzENAmpjeFOvMuszNCgjMRB78+SY6byfOm2liWyc1hrPf3PMQ3nl3A9at24a1a7e5pjWHijVnYzF8wjS8mvwmXl+2Bhv2ZGHdriys3ZyOnWlZKC0oxEeH96Jwywrkb16BI+sW4/T25di6YBZSRdTsyAmk7j6M1e9uRNK0WRg84CV0bd8Bndq0Rae27dC5TVt0bt0OXdt1QPcOHTFv3kIkzVmA5PlLUXnyDLat3YrCLWfwq/oNaxXOBr66FGMXbcW4Jal4xWYTx5buPIqDx89iybYc23Ti/LELUzDo1WXugV86gDr7tIlQhaM+3pBnhsCQl1mLbQt53WsIUeGqjx2cifK0BwFEvcUDAfqTnf7WhgV0zmjX06LBPgzQcvx69F1dgWfGGl8FM0ebnuzwWpoWLRPryRIWHNEATABb26nbtIX/AszEOjTrKzWc2Jk/fB7bTpdQxf51ooEaw5ko5JWJM7B69RasWbMV8xYvx8ujJ2Lh8nXYlJqBbftysHFXJlL252LTniNIzy3DmpS9yD5yGpWFRbiZfwhfl5/Axxnb8f7eddi2Yilyj53G/vRc7N5zBHv3H0HGwVzs35+NDeu3YshLQ9Hp2Y7aNGeXds8ioUMX9H2uL2YkzdHgbM68JThTUoa3Fr2NhHY9AwYz0R4nA6hdmt7jF2H0vE1IXLgdY31s4xZux7iFO1xpFm3HWNW2cDvGzNuEPuMX1ahOdnUNar+IuBle+xBUHg5BotbhrBbbFk67RVLevuDMq57ak5WeaUyv4yrd2J0zegsS7V7jocpHsU8s5p944keMPPQVnkl8130NapExMWVZ9K0pMtZu2g4k5v5Ne5VGz7eOBxwxE+1t1GNiUGOWk8GeaQgF1ED0aCAkcNamY0+sfGc9Vr6zCQvfXot3N+1C6v6j2HeoCAeyinHgcDH2HCzA7owCZB47jYzsU9ialoPM3FMozCnCukWLMStxNEYMHoqM9CPIPlKG9IPHcGB/Hg5k5OHAgVwcOJCH9PRc7Weipk97DV07dUJCx47o8mwn9Os3ANNmzcHMOfMxZ/4SnD5RhjlJs5DQvW9QA50jp6AYzMV57YYlY9js1RgzfwsS56cgcf5WJC4wb2MWpGCM2CeOLxCb+bh2zvwUjJm/Vcur3VBnC4lrUu9IPLfW4cymTyPRNtFSp4DgTIt0ncGLowOIkCrPqTmYCfs+MWQRBmy6hIkn7+DltJto8cpadEjag7F5f9emLMWDAE+PXI6nhi/TntAcdfjP2oMBAswef8nZy2at/Xhf8z5BjVl0utHjdNlX7CsnGggJnP2yfgPMnD0PcxetxMoNu7A9LQd70vORcfgEDueVIefYKWTnnsLhvNM4mHMKWXnl2H2wCOk5p3Gk6DzWrN2BcYmTsDftMA5nlyAz67i25izjYD4OZhbi0KEC7N9/FOnpedi95zC2p2bg7eWrMKj/AHTv0Al9evTE5GkzMWvOPMyZuxClx0sxduQY/LL+gwEPdL+69xH3HbJ14HTyvUn/19Fr3CIMf30NRs/diDFzN2HUvMA2cc7o5I1aHj3HLYLI00nZsZaGcBYApEQoWAYEZ3ZRMF9t8zpnCxL1d52F4np4cuibGLTtKiaV/owRh75ygVnx9+j5VhGaDJyLl1KvY8TB/8KYnL9qYNZndTnEu82CKVu83+xX9zQOeMxyMtAzDYGAGoguDYQEzkSnP9miI15ftBJbdx3GzrSjyMopw5Gjp5CTdwpHckuRk3cauYWVyC2oxNGCSmTlVeBw/nkUlF5BYcllHMopRUb2CaQfLEDGwUIczTmJnJwSbcvMLERGxjFt25t2BKk7M7FrZyZSNqeiV0JXDOrbD2NGj8WokWPx2mvJOFl0Ek2fbBXUIHf3w22DGliNg/Hj/V9HhxHz8fyrS/HSzOV4Mcm4rcCLSb43cY44t8PI+RB5GfPm39EPLPHUh2o4E2/xt7yAVrwbzTQNaX1aM4BzVqV7XkLr9AW3PgCw6eBFeDH1Iy2CJt7+32PJMTeAiTVpYupz4okf0HfV6aDWmEk93Nu8d1BjFp1udDld9hf7y4kGQgZnorCZyW8h7ZsP0i8AACAASURBVGAhdu09iszskxqcifVjx/LLkV9QibyCSuQfP4+C4gsoOPk+co5fQun5T1BU+gFyiwS4lSO/sAIHDxaiML8cBcdOI/doKbKyiiAA7eDBfG2Kc/++o9iXdhRpezOxaMGbmDo1CZNfnYHkNxZi8qRpWLdmU5CDXAPc1/IFwpAPRyUdCT8JiU40oIYz1y8ICBhz/4TTNuvPLIk017RfBBAvs32sv4Nz9AcA3Hka888IcLrUcg08PeJt9H6nVHunmXGRv4is9Xq7GD3ezIeAOCc2UaVp3Gc67vp/jYIct+jsnDg7pqFOokkDIYWzBo8+o0XOdqXlIjunFMfyzyA37zQK8s+g+PgFFB0/j+MlF3Hi1GWcKL+KY6VXcPLS5zhx5rq273jpezh+4iKO5JzEieNnNUDLzTmJI0dO4Eh2sTa9KdafpR/Ixb59R5CWdhi7dqZj05ZUzJu/GL2690Kf3n1xf6OmQQ1yYkrzoe4Tgh5gVYMu9xFiqAFqwJ8G6j3SPqgxK5qcDetKOKIGnGsgpHAmDN+8bTfs2JWFnKOlOHq0DMfyKpB/7AyKCs/hxIlLOFl6GWXlV3H6/Mc4dfFTnL/2R5y+8BnKzlxH6ekrOF5yCXl55SguqkRBvitylpN9Aoczi5B1qBAH0/OQkZ6nrUHbl5aNA/uysXdPpvYi3KVvrcLDj7cIepC7++E2ePT52YQzS9TAn2PhccIHNRC8Bu7lQwBBj9l09s6dPW0VXbYKOZwJAfR8fiiOHC1FTm4Z8vLP4FhBJYqKL6Ck9H2Unr6GivOf4vzlL3Dhype4XPUVzl6+hdMXP0XpmSqcKL2spS8uOofCggrk5Zbi6JESHDlcrMHZoYx8ZB4sQPqBPBxMP4aszAJs35GBDZv3olvvF4O+yO+q9yAaPDuMYEYwowaogVrTQINnh+IX9RoEPW7R4UaXw2V/sb+caiAscCYK7//SGOTklCK/4AwKi87iRMlFlJ66jPIzH+HsxU9x8fIXOPfeLVx4/5b2vfLiJzhdWYXSssva9GdJ8QUcLzyDgrxTOHa0DHk5pRqgZYsnOTOPI+tQEbKzipCdWYitW/ejZ7+XazTA1X+sIx7pN6vWBmVGGoKPNNB2tF0saECA2V31uc7MqbNiOoJNPGkgbHAmjNj62V7IPFSEosJKlJy4gNKTl1BefgVnz36EC5c+0+Cs8uJnOH/xE5yrrEJF+QcoK3sPx4sqUVRwBsWFFTh+7DTyBZwdOYm8IyU4ergY2ZlF2jRndlYh0nYfxDNtutUIzH79u6Z4qMdkghkjJtQANVArGuCTmQSNeAINtjVwvYcVzkSHNGrSEmvXpeJkyTmUnbyEU6cuo7LiKiorq1B58XOUn/8UZ85e1/aVn3ofp0ovoaT4HIoKKnCiqBKFeadQIB4uOFKC/CMnkHf4OPKyi3E0uwjvLN+ARo8+UyMwEw8BPNglEY++wFdWxEI0gm1gVC2SNSCeyuTi/8AdFZ07bRZvGgg7nAmD3lWvAbp0H4Dduw+jrPQiKssv42zFVZw7/wnKK2/gzJlrqKy4gvKy91B64gJOHD+HwvwKHM+vQEHuKRzNLkFu9gkNyvJzTmDL5j3o2KWflm9NOuy3jVrioW7ja+VOOZIdButGoKEGwqsB8YLZe5v15usy7iZk1MRn8dz40U+twJkUlHhjf78Bw/HOu1tQVnIR58/dwNnKj3C67H1UnHofp09eROmJ8zhZ7HqNxonCMyjKE+vNxNOaBVi08F307D04qDf/yzrITzFQNn5uKiNmnMYinFMDYdOA+K1M8ZNMfPN//DhV6WP4yT6viQZqFc6MFf3tvY3R/bnBeGPucmzYsAtHMgtRkFuGk8WVyM8txYG0HKxZvRVJMxegS7f++L/3Plyj6Utj2eJvRgrCGymgfWnfeNKAiIw93HMyGnYZgwfav4x7nuqBX9/fJKRjlnUM43c6f2ogdjVQZ3BGUcWuqNi37FtqgBqgBqgBaiB4DRDOuAaCd/fUADVADVAD1AA1EEEaIJxFUGfwLiP4uwzajrajBqgBaoAaiBUNEM4IZ7xbogaoAWqAGqAGqIEI0gDhLII6I1aIn+3g3Ss1QA1QA9QANRC8BghnhDPeLVED1AA1QA1QA9RABGmAcBZBncG7jODvMmg72o4aoAaoAWogVjRAOCOc8W6JGqAGqAFqgBqgBiJIA4SzCOqMWCF+toN3r9QANUANUAPUQPAaIJyFEM7uqv8gfnPfI/jtfz6O3z7QFPUefAr1Gz6N+o2acaMNqAFqgBqgBqiButZAw6c13yx8tPDVwmcL3x1pIEk4qyGciR91/839j+LuB5/kRVfXFx3LpwapAWqAGqAGgtCA8OHClwufHgmgRjgLFs7qPYDf3Pco6jdkVIyRQWqAGqAGqAFqICY00LCZ5tt/US/4KclQwB3hLAg4+9U9D6Mepyt5dxbE3VlMDF5sN7VPDVADMa6Beg2fwq/ueajOomiEswDhTIQ96WB5h0gNUAPUADVADcS+BsQMWSgiYYHmQThzDGcNtMWDvBhj/2JkH7OPqQFqgBqgBqQGxIMDv7i7dteiEc4cwpnoHNlR/ORFSw1QA9QANUANxI8GXIBWe+vQCGcO4IxTmfFzAXKwZV9TA9QANUANqDRQm1OchDM/cCYW/6s6ift48VID1AA1QA1QA/Glgdp6SIBw5gvO6j0A8cQGL774uvjY3+xvaoAaoAaoAZUGBBPUxms2CGc+4Ex7j1mMPy6sEh/3cVCiBqgBaoAaoAbUGqiN6U3CmQ2c3VXvQb5glmDKqCk1QA1QA9QANWDWQMNmYf8lAcKZDZzxIQD1HQPvpGgXaoAaoAaogXjXgGCEQN9dFkh6wpkNnPG3Mjn4xPvgw/bzGqAGqAFqQK2Buxs8STgLhDZDkVb8Qn3kC3II1l6vRnV1MaYw5BwF/aW+wCNfZ6w3+4gaoAaoAZUGBCuEgjlUeTBypoic/ea+R4J29gmbbqC6uhp5SSoxJyOvWgBVNao2DQm6DJdICGeqi4X7VLrjPuqCGqAGqIFQa0CwggqsQrGPcKaAs5r8GoAvOJtS4AIzwhkHiVAPEsyPmqIGqAFqoHY1EM5fDSCcqeDsgaZBR7Vs4SypWIuYCTAjnNXuBcQBi/amBqgBaoAaCLUG7m7QlJGzUIQJneZR78HgXzyrhjM5nXkDa5O2ocoyremKqN3A2r6Gi6evK1319W1IMK4p65uMtQWuqVMJehrsFWzDFOP5+jkJSduQp61N06N214uxNqmmU6qGehrrxr+DhvpQDxrMjxqlBqgBaiC8GgjnQwGMnCkiZ/UbPh20k1XBmdynrTPTocu45swxnElgq76BqoJiHbpuIK/ghgZ81dUWwHNH60SaYm0TYChgTr0mLrxC5kBB+1ID1AA1QA3EjAYaNmPkzGnUKxTpaiIcCWJu+JFAJSNgQcOZfABAApj8rj+taS2nkTwu0+sDglc6DhQ16W+eS/1QA9QANRC/GggFc6jyYORMFTmrwfScC84kECkAKVg484Iqmbd8lYb8rpftlV5ePJZ0NWgrByRpU35SC9QANUANxKMGVGAVin2EszDCmYyiVRcke6ZJbeHM8ySncS2Ze82ZhC13XhKyJJw1g2l61Cu9Z+AwpSOcefqGtqAtqAFqgBqgBgLQQChATJUH4SxccKYv/Pd6SawtnN1A3qZkTEnSt03FrnVklulQN6y5py0lnElYY+QsHu/e2GbPzQdtQVtQA9RAbWlABVah2Ec4CxOcVelPSLrXnkkS9wFnvp/WtMCXFc5kpEzCnPu4nGLVL1avdLyIa+siZjnUGjVADVADsaWBUICYKg/CWVjgTJ+idE9BGsQYNJw1Q30JVnxak2F3Cfv8pBaoAWqAGqgzDajAKhT7CGdhgzM53WgAM3EB1QTOtPNd7zmTr8SQ69OqbN5zJsrje84sfcCBrM4GMkYNqEVqgBqIJQ2EAsRUeRDOQgxntSc6Oc1pA4EEEAIINUANUAPUADUQVg2owCoU+whnhLOwCrf2YJV3o7Q1NUANUAPUQO1qIBQgpsqDcEY4I5zxzpIaoAaoAWqAGghCAyqwCsU+whnhjBdkEBck705r9+6U9qa9qQFqIBI1EAoQU+VBOItaOOOFGokXKutEXVID1AA1ED8aUIFVKPYRzghnjJwxckYNUAPUADVADQShgVCAmCoPwhnhjBdkEBck74zj586Yfc2+pgaoATsNqMAqFPsIZ4QzwhnhjBqgBqgBaoAaCEIDoQAxVR6EM8IZL8ggLki7uyju5x02NUANUAPxowEVWIViH+GMcEY4I5xRA9QANUANUANBaCAUIKbKg3BGOOMFGcQFyTvj+LkzZl+zr6kBasBOAyqwCsU+whnhjHBGOKMGqAFqgBqgBoLQQChATJUH4YxwxgsyiAvS7i6K+3mHTQ1QA9RA/GhABVah2Ec4I5wRzghn1AA1QA1QA9RAEBoIBYip8iCcEc54QQZxQfLOOH7ujNnX7GtqgBqw04AKrEKxj3BGOCOcEc6oAWqAGqAGqIEgNBAKEFPlQTgjnPGCDOKCtLuL4n7eYVMD1AA1ED8aUIFVKPYRzghnhDPCGTVADVAD1AA1EIQGQgFiqjwIZ4QzXpBBXJC8M46fO2P2NfuaGqAG7DSgAqtQ7COcEc4IZ4QzaoAaoAaoAWogCA2EAsRUeRDOCGe8IIO4IO3uorifd9jUADVADcSPBlRgFYp9hDPCGeGMcEYNUAPUADVADQShgVCAmCoPwhnhjBdkEBck74zj586Yfc2+pgaoATsNqMAqFPsIZ4QzwhnhjBqgBqgBaoAaCEIDoQAxVR6EM8IZL8ggLki7uyju5x02NUANUAPxowEVWIViH+GMcEY4I5xRA9QANUANUANBaCAUIKbKg3BGOOMFGcQFyTvj+LkzZl+zr6kBasBOAyqwCsU+whnhjHBGOKMGqAFqgBqgBoLQQChATJUH4YxwxgsyiAvS7i6K+3mHTQ1QA9RA/GhABVah2Ec4I5wRzghn1AA1QA1QA9RAEBoIBYip8iCcEc54QQZxQfLOOH7ujNnX7GtqgBqw04AKrEKxj3BGOCOcEc5iUwN9hyAhKRlrC4pRdf0Gqq9vQwL7Ojb7mv3Kfq0jDYQCxFR5EM5CDWdJxaiurlZsxZhSR+KxI37u591gTGqgbzLyrotr8Aaqrhcjb9M2TEkagoS+7O+Y7G+Oq7UCZq1WVWN62jY8Qnub7K0Cq1DsI5yFBc6KMUXctZs2OgY6Bmog/BpIRl51Nao2DTENoOEvl31LG8e2Bghn6v4NBYip8iCchQvOeHdB50gN1LoGEjZx+pKQpHaitEvN7EI4U9tPBVah2Ec4qys467tNn3rRp0Cv38Ba47SLanq0INnt7KYUKKID8hxDOs+ANARrryvOadQMvhyaKMd7mvYG8pKMkYkhWFtwA1WG6dyqgmTv9T3+2myFGa/0xWYbyfRe6Vy2VNe9GtVu+zist7SroX2ePJohoL6wqavoJ62+7rqpBwJPf7qOe53Tdxuqqo1a8t9Gf3kE0r6EJKOubyDPaQQrRDaWdU1IKjbo0aYeXn1hoy+pM9lHRh1of1uvh2ao7yBvze5eeenXm0EH7jZtsrTJdA3qenFQrqYhr3QezWj1MpTvV3MG+1jTiu+aU1/lGbtkGu/9Q9B91Q0kFldjur4lrko2TaNp5xiOy3Tap6EMkS5xlnGMaob6w4pd+VrSTTd8t6uvta5O8retq6G8R4Ztw6A02d4bGGSts8W2rjxvoHtnxfigt8/Ybmu97W3fDP7q8sisG7DaSuYXz5+hADFVHoSzuoAzzYFWQwMYOfWZZIEZ4ayub3NPj1oHTDlgey4KHb7Ewme7gVVzgNa1b/bQJvKW5ZqmaDeJdXWewbx+oyFYuynZs6ZHts/omOU+AW12bTYORDK9zLfvEEwRURFTuS4nKKBQbUt9ajlJBxZt3dEQAzQ6qLeoU6j6QrbJxgbS1p4+VQzARhsZ+sd1jmtKLy/JeJ7/NprL9c7DsdZ0wHKDu2yvUQeW+rvbGhIb61Oa18VaM9e1I7QpQc1kF3fddN3a6ctSX2krt4aFlq3Xg8O8lXmJeogbIsM1rH13a1z0ratN4qYpqDbJ+gWpQ2v93H1osZXc7xwQhqD7rGQ8IsGj8zYN1FSw8UjnITBu1jLEd+N5wmbd06qRmGYGDOt5os5O9jnLX6/jMNGOG+g+TP8u7aTD1KBhOkQq2ittKD+1ugk4NQCe9Zix3aq2KNvooC6EM+O46vlbBVah2Ec4CwucKaJNhifFnAxuWjTLOkBbvhvX1cjolwYwhnTywnV9ejtecYdvjrR4RCfOUddV5GOEM/M5qvPU+Xif56qnCxiNDsq1X69PgLb010aZt6reYl+o+sKfDfwdN9ZT/u05xzdky/Ti03OOy/6e7+o8xHH/WlP3mWa7ausNgXe/h8bGLn2rdCOvD9fTmuq6um1j0JfRbu7jXteX8XpwnrfH7mZ7WPdr3xU21Pa761rzcmVbreXL/fLT33GZTn46BgQJLYZP67nW73ZliHRGSNHAIm0bWlmiP6r8nOxzmr9WPw26rNEuFyxaIUurZ3ExWhlsINsoPrVyVxUj0ZpGK6MYgyztVrVF5uMp21ldCGfm61T2SyhATJUH4SwscObrgQAFICkuROsAqPrucZge52B1clJA8tOaT6DpRT4iElGtcBayDC2NiHK5nZizNnvO95HeVLaPdEab+gFQT7neICaOWW2m+u6/L/zX1ZqvsV52f8tz5KddOuN+a5/Lc+WnMa34W+wPun1af/kGeVmGRy9qmwddB6EFp7oxpfMejFU2Ml8PPvrZkrcqLye2cPePKT+n5fpIp18zdvWS5fo7LtPJT2eA4G1rcb4VCJzmpUGMe4owGYNE5Kqzs/xUZVj3Oc1fs4ESzkSdqjFomKXdWgTLCnKeNK5yk7UooPFcaSdzvdRRQFEnc3uc1UWWIfs1FJ+NExIxauEajBrY1b1kx51vwky8unCN1zYgwWMPd1o53js5p8VAJCQuNuS7GAMSFOXLPP18qsAqFPsIZ+GCM9sO9T84atOElvVh1gFRfJfOynjM6ni9xOt0QNfrr+VtXRdzXcCn4QLRpmLEVJKYdjREDSMdzvzWW7TRFZGQthb2NNpbfpfHjcfMfeG/39W2voG1pmlKg91lXcQ0nl0k00EbtXJ95CGO+22fPlVm6n+3FnQ407Tn0YdnSq4WbOxU96Z0ZlvLvvZqo+l68NHPlryNWjFep9b91u/utKb8nJbrI53Da962PjZjngYCDtaJ1e88BK3EmjMx9WhMb5jCM0OFp3+s+8V3GTkzHrMChvGYtKuTfU7z1/JUwZm2T641s376g7MhrvVz7tdauCJfAtaM9RJla20x2tL4t7Sr07oMK3bbVNoq+M+uaCkAacZMjJrhA85mJKJli65obNh8lingzOc5XZEgyksc6MlTBzqf0Gej7foNmyEUIKbKg3AWkXDmPYBaB0TxXXOYmlP0TBuZgcAzeHkE7XKEmmM0De6qtB4QMa2x0dZwyfUurrqKqIfxBZ/meni3x1MfVbk+0pvq7COd8WJSRs6c1FvUzbuM4PrCOx+rDWS+Rlu71tl5+tf2HOVTis7a6C5XmYchcuZTa/7bJ+pubJunLd7nyjrJNOK7f717Q548P9SRM2M7xEMQYt2jCza926Kug+fach83wpH7xsY+XXBt8lE/S/nGNmr9oU+hWvvGWn/rdwk7xjVi4m+535XeFb0RU23G92g5gSlxvjkvA6Ro4OGZJnSSnzWvmuSvtU0FZ41solXGcUvxt6ibCzrF+TrEiWibDmqe465xVbbFie2NkThXn1jG5lDCWYKAskQ0btQMLRPVcNZ44GK8mjjQO6KmsIusbzDniHNFHQItS5x3d4MnCWcqsgzXPtnRQX2a4MEibk1ULgdinMLxKsfiBMVx64DoclbJXk9gmqFIVb5n6s6ap1c9FOW60hicoNZe72krc94O2my54Mzne9qh7XewzsbUFhWcOaq3fODADEfWuonvVZv89YV/G1jz1dqgqrvBVsZzjH9r5zpso/E849/ShmKf0/bJCJs819FnCPWu6d+tD4tuHACP1n7F+bIdKvtYo6vqNPo1bMjbZzprXRXLCKx19Zmfu9wgdWgY1+zKkTayfkpA8LnfZjrPeq71u8zTul98T5zlmv6TETSRNrRw5j9/rX5KONMfUHBPvXq0Ktuk+nS1y/UAgfxbfor0xr/ld8/aMk8ZIp1nf3B1UdUvmH3Bw5krCqZFyvQxsfbhrCnhLFwgpso3GIG5z5GDmHwi0f3puTBcd7wuh+e+O00ST5eJNN5Pa4m8rQOi+K76SRoncCYXyFddl3f7hroZHL+qXFE/09NvmmPVoxriXH0aTZv6MTgY321WlO/O18/TdJq97Wyp56sCHHf++pNSynqHuC/81NXax5ottSdUzXDo1pqXLgzQrPWFK6LjBiZlG63asuShl+FIa6r29U12Pclr0ZWnDSG2sR7p1CK5+vXk9TSlyTZ+9GWpt1cfWa+HAPL2zsulV+t+7bv2tOY2/YnoGj6tqeon9/hj1YO8pqvdP3+lrJ8b/ryvZTMIeI6b9utTa26Q0qc4Va/I8ECFTV4SUsT0qHvqz5XWDs6MkSVZL9U+qVuRRpt+9ZO/ll4JZ55XewiI9JSV7Hpi1aI7U7kS6ES+aeLVI55pUK1e8rgiomjMx2RH/WlN+7roDw1YH0Swqacsx8mnHZz5j2bpcLZwJlrq9fB/jkcznrrpU52qdW9+2vfb/3yccKaCqHDt83SaqiP97NMHPq91KdY7X+V7hvS7WrGGxSIK5YDonkrx1MkRnEmnbq2TpUxhB+kYzO0xv9dJwporzQ0tyqItkjbCmchb2WZP3b3s7v4ZHn2d0nWb91D5y1cFZ/qDDZ53s1nrHaa+8FFXpa3t2qz3lVUX1mlYJ33jLw9ZL88aMVefKbVmbZ/4CaVN3u+4cvV1uGwsopiG9Y92NnSqL8N1IW3h63rQ2uYgb2+7u+xq3S+/C8g06tX9yhJD/eo7KNdVP+P76AR4eaLfyjYa1tXJ+rj60DVN6r4BMNZF/1vCjiu953q37n9ETJu510Td0CJfYp8RIqznyDyt+7XvigX3Sjhzl2ld+2X5LtdoSehxkL9WPzs4E/bpbHzPmSjP1W7ZLuunaJcbYPXXg1jt4znuPd0r87PaS9bT8841a130aWjxxKuij2W+wXz6hDPTAwGLMWDgQG0q1K4cDc4CPKe+tubMA3h2eav2/+a+Rwhn4QIxVb6qToi1feYB1jNgxlo72R72bbRrIKKvVZsbn2i3Oetfe+OGHZyJPtAeBBAwKB4I0J/s9Lc2LKBzWrieFg3qYYBGzXBX/QcJZyqICte+2L8wxd2u50459ttbewMNbUlbh1oDEQ1nYqbAGiEPcWQl1PZkfpF1jfqCM6++CibKZXdOi4EYYPcaDwcaDufDAIJt+LRmqJ/WdNCpXoKr1XP0NT4+1ojUbf0ia+CgLdgfda2BiIazWh27qMW61mI4yg8IzrRI12IktAhAC8pzagZmwg6/uf/RsEXNCGcKMBNGCYcA6z5PfX2PePcUwSxG+ziAAYtONWo0QDijruvef4SvDwKCM7somK/xzOucgRigv+ssaLs2bIa76jUgnIVr+tIu36A7zJdAeCxqnCH7P3wDMW1L21ID1IBRA2o4E2/xt7yAVrwbzTQNaX1aM4BzEhM9L6F1+oJbgw//zX3hjZoxchZXkTMOCMYBgX9TD9QANUAN1L0G1HDm+gUBAWPun3CaYf2ZJZFmjfaLAOJltvUbOThHfwDAnacx/4XOpkvrNXwKv6j3QFijZoQzwhmjWYa7IQ7UdT9Qsw/YB9QANRDJGvjVPQ+FHcwIZ4QzwhnhjBqgBqgBaoAacKCB2pjOlMut+LSmAtDqN3yaQnUg1Ei+u2HdePdNDVAD1AA1ECoNhPPXACSQGT8JZwo4q9fgScIZ4YwaoAaoAWqAGqAG4AKz8D6daQQz8TfhTAFn4v0loaJt5sM7N2qAGqAGqAFqIDo1UJtTmUZAI5wp4OwX9RpAPJHBiyk6Lyb2G/uNGqAGqAFqoCYaEAxQW4v/jVAm/yacqeDs7gfwy/94iHDGcDY1QA1QA9QANRBPGmjYDFq0rBZelyFBTPVJOLOBM2EsAWiMoPHuqyZ3XzyX+qEGqAFqIPI1IH4rUyxpCveb/1UgptpHOPMBZ5rB6jXQOkx7SKBh5AuMgwD7iBqgBqgBaoAasNFAw2YQIHZ3g6baQv/f3PcI7qr/YK28u0wFYXb7CGf+4IzHI060dmLm/vC/tZo2po2pAWqAGgi/BghnhC/CFzVADVAD1AA1QA1EkAYIZ/46wzStyZfTMlRuEyqPpwWzbGt0LBBv+DTqPfgUfvtAZE/fMAoT/igMbRx9Niac+YAzPhBAECGMUgOxpoG7H4yshc8Eh+gDB/ZZ+PuMcGYDZ3yVBp1yrDlltoeaNmkgQl4ZQEcffkdPG0efjQlnKjjjS2ijY9qG02vsJ2qgxhqo65dtEhyiDxzYZ+HvM8KZAs74802MMJgiDASAGgMA7Rn511Rd/UwNHX34HT1tHH02Jpwp4Iw/fB75joTOnn1EDYReA3XxA88Eh+gDB/ZZ+PuMcKaAs/oN+VQmHV/oHR9tSptGgwZcgBZ+50MHTxtTA/YaIJyp4IzTWJzGogaogTjWAKc47Z0mgYK2qQ0NEM4IZ3TCceyEoyGSwzrWTcTxV/c8xJeSKvxDbThmlkEAJJwpLj46g7pxBrQ77U4NRI4GxFOcv6hHJ0lQogbqQgOEM8IZI2eMnFED1IBSA5zeJJjUBZiwzAdAOCOcKQdlRjAiJ4LBvmBf1JkGGjbDXfUacHpT4ScIEATXcGqAcKa46OpsIOTdO0GRsgvPVgAAIABJREFUGqAGIkwD4r2P4XRCzJuQQw14a4BwRjijM4wwZ8ibA0bKIkkDdzd4knCm8BMECm+goE1CZxPCmeKii6SBkXWho6YGqIG61sBd9R8koCl8BWEkdDBCW5ptSThTXHA1GQgTNt1AdXW1ebt+A3mbhjBCxQgVNUANRKUGfnPfI4Qzha8gUJiBgvYInT0IZ4oLrsZwdn0bpvQdggS5bSpGVXU1qghoUemYaqIHnsuoVyxogL8aEDqnS4ChLZ1ogHAWJjhLsEQIphRUo/r6Nlj3x8LAzTYQQKiB2NbA3Q2aMnKm8BVOnCzTEMaC0QDhTHHB1cTRaNOaCgjT4Kwg2Rw56rsNedcNU6DXb2BtX88gn5BkPO5/alRZRqNm8OwfgrXX1RE8d737bkNVtbkenvP1umlpqpGX5PrudVwHU+t+63ernVXHA7WBlqcfu9b3cVxVB2M9lceTis3T2GJa29DXXudYbCyOe0VVZZ7ufFx9JwB/igX8jfXj357rh7YInS34UAABIxjA4DnB64ZwVhtwZoEZzWno+6oKkj3Tn0nJnsia7pzzkvS1ajK9j6lRLwhQQZKWb7HFwVugzZLGnG8y8ixTtObjHodg3W/9bnWeXseDsIEAL20K2c6ufo571cECQsrjop6GqWxrGvN3l/0k2AobiONmONP74/oNA+TpcFZt7TuPva325HfaJmQaaNiMkTOFryB8BA8ftJ1v2xHOFBdcTQY0uwcC1upRJpm32WFbnYjuiN1RE9dxV972ztkuT/N+bzhwAY05WuaOpCkib8aokGiPOX9PW6z7rd+lLeSn+XhobaAuw1PXmhzXbGXoK3M7jPbRocsC2CK9Ec6k7aeIh0sM+co68tO732iT8NuEztS3M6V9aJ9QaoBwFg44M0RRtIcCkvRojtspKwDJFKGxOa5FkswQZXRKViiQx6z7rd+tcGE9T6bXPp1O2SqgTeYj87d+mo8HYwObc9y29XfcCFJqZ2euoyuNdZ/dd+t+2X6x3wNnoo6uPrbrF3keP9V9FIl2aZyQiFEL12DUwK7mpQ1Cmwkz8erCNV7bgAQf7XNyTouBSEhcbMh3MQYkKMp3Xx8+ymvEyFkoHS/zIsj50wDhLExw5rXw3zRV6AcS9Kk3r1dyaK/o8ANn1td4yO/GCIzTumj1uIEqsS7u+g1tLZpxOk46QQ06ZDnWT0O5ynTXizFFX2dngpegbODHro38HdfhzNoGuzpqTs07GmZqh4RU3X7GNYVG+0k4M55LOPMNC9J+kf3ZFS0FIM2YiVEzfMDZjES0bNEVjQ2bz3YJOPN5TlckiPISB3ry1IHOJ/T5ADV/zoTHCRzUQOg0QDirVTiTYOUPEvwdVzst6djdr/DQX+Uh93sGexdQaKBlAjVjvq46CGiQ52uwoFjz5D4uXx1iU64qnbZPj8bJ4656BmMDf+f4O+6JnBltaF9HYS/vPM3tMOQppiltIo8anGlA6pm2JpwZ9RilfycIKEtE40bN0DJRDWeNBy7Gq4kDvSNqPkApmHPEdSXqEGhZctyg4w2d46UtaUt/GiCc1RKcmcFGvZ5KDoL1G3lHYzzH7J2UFQrkOar90vGrjsny5XonYxrtbwtgGI/LMsWndb/1u5bWAIfm48HYwJldZbuMdZV/m+ug29q2js3gWq/nASp/7VblL/ZVbUr2epJW9pGsGz/ttR8NtgkezlxRMC1SpgMb4YzO3Z9z5/Ho1gjhLExwZnoJbZLrJbQmKNAcvsspu6M0SeLltUYgsBzvm4y1mwxPdFrurFWOXwULmiMzTFlapyq1fAwAZs7XG4DMxz0O1Lrf+r1+Xz0qp4ycNUN9lY382EB5jj+7Go4HVkdPVNEIB9Y8zN+9oVMcrxJPZhpsLvIzw5lud0Xk0lg2//boL9JsYQdn/qNZOpwtnImW+jXv/xyVHfSpTtW6N8tYorIdnX10O3v2X3T1H+EsHHBmXbNULd5RpoAqH+/b0gZH6/HqG1qERTVwin1mCPAMzj73W5y9OcLnysP7fNdUnmqdlLFu1vO071bb+FzP5YpMmd4F58cGSrtZ3h8nol2mPA3HnddRhyVRf4tjU7bbsPbOOhUqy7RCshXOtHQWgDPam397NB+JtvAJZ6YHAhZjwMCB2lSoXTs0OAvwHNeDBx7As8vbbj+de3Q5d/ZXdPcX4SzEcGY3sEXifitERGIdWafIBg72j/P+sYMzYUPtQQAB+eKBAP3JTn9rwwI6p4XradFgHwYQdaSzj25nz/6Lrv4jnMUtnInol3xAwbmDoTOmraiB4DTgC868bKo9WRlglMvunBYDMcDuNR6WqK9XPQzH6dyjy7mzv6K7vwhncQln5rVevgZkHgvOEdNutJtVAwHBmRbpWoyEFgHYUXlOaMBMtIXOPrqdPfsvuvqPcBZXcCYXlfNH2K2Ok98DgABDNIV2c263gODMLgrmy/Ze5wzEAP1dZ6HoJzr36HLu7K/o7i/CWVzBmXNHEorBnHnQ3tSARwNqOBNv8be8gFa8G800DWl9WjOAcxITPS+hdfqCWxsApLOPbmfP/ouu/iOcEc4Cevklna3H2dIWtEUgGlDDmesXBASMuX/CaYb1Z5ZEmjXaLwKIl9nWb+TgHP0BAHeexvwXBjhdqsManXt0OXf2V3T3F+GMcEY4s4kUBOJ4mZagFusaoLOPbmfP/ouu/iOcEc4IZ4QzaoAa8KsBOvfocu7sr+juL8KZCs4aPu13oIr1u2S2j5EgaoAacGugIZ/WJOxEN+xEW/8RzhRwVq/Bk4QzRhKoAWqAGtA1IMbEaHNurC9hKpo1QDhTwNlv7n+UgzIdMzVADVADugbEmBjNjo51J6hFmwYIZwo4+0W9BqjX8CkOzHTO1AA1EPcaEGOhGBOjzbmxvgSyaNYA4UwFZ3c/gF/+x0NxPyi715vQQVML1EDcauCX/9GIYGbjJ6LZ+bPukQ2vhDMfF50ANEbQuCiakEoNxKMGxNhHMItsB07Ait3+IZz5gDNN+PUaQKy30B4SaEgnFY9Oim2m7uNGAw2baWOdtsaMU5mMGPrzjzweNo0QziiusImLd3Wxe1fHvmXfUgPUADUQPg0QzghnhDNqgBqgBqgBaoAaiCANEM78dMZd9Rrg7gea4p7Gz+D+R9vg/ibcaANqgBqIUQ082kYb68SYJ8Y+RkbCFxmhbWlbXxognPmAs1/f2xj3PdKKQEYgpQaogbjTgBj7xBjoy4HwGAGDGgiPBghnNnAmBiVGB2I0OkDQoLapAccaIKCFx/kSamhXXxognCngTITzGTEjmBHOqQFqoI02FnKKkyDhCyR4LPT6IJwp4Eyst+CgTMdMDVAD1IBLA2JMpAMOvQOmTWlTOw0QzhRwpi3+57QHAZUaoAaoAU0DYky0cyLcT8CgBkKvAcKZAs74VCYjJoyYUAOxqoE3Fq9EelYuDmbnmbad+w6hY+/BaiB/tA3hTOErCCWhhxLa1GVTwpnigovVQZntInBQA9TAjU8+g92/d9ZvVcNZE8IZoYEgVpsaIJwRzmwHYzpyOnJqIPY00LRtD3R7YTi69x+BERNm4sq1625WW791t+14UJuOiWURhOJdA4QzwpntYEzHHHuOmX3KPpUaeKJdT5RVnMN3332Pjz+9qQEa4YxQFO9QFCntJ5wRziICzho83gbtn2iLgU+0wsCmrdD+yXYQ+6Qj4SdtQQ2ETgMCzHILSzQgO3m6EklzlxLOFL4gUhw16xF/0Ew4U1yQdAKhcwJObNmuSWusbNQEhxo8jJyHHsbRhx/GwUaNsfyxJ9C2aWsCGp8YpAZCqIFnOvfVImaCxnLyj0NMcw4fP4NwpvAFhKL4g6JI6XPCmeKCdAIUTBMagGvTtDV2PdAYR+57AGWNHsalxx7DB02b4sITT6L48abY3uQJtGwamrLYZ7RjvGvg8Tbd3VOZImImwEzYZNgr0zU4W5ey0xaEI8VpsR4EpnjQAOGMcGY7GIfbkT3QpA02PtEcZQ89gg8eexyft2iBv3RLwD+GDMb/vjgQNzt1xPGnm2PB40/hAU5x1lk/hVsHzL/2oHnF2i0ahAkwa96pj1tTrbo+j0uXr2LkxCT3Pmu/xINDZBsJfpGiAcIZ4cx2MLYOzqH+3unpdvioQ1t80uIp/E/ndvj3qBfxw9Jk/Hg0Az9m7Ma/p4zDx9064+CTTdH2qbZ1Vs9Qt5v51R6M0NZmW/cYOBJvr96MJq27BXw9RYrTYj0IUPGgAcIZ4SzgQTpUDm90m474a79OuNHicfy1R3t8PysRP6S8he93rsL3m99C9bSR+MOATijv+AyGtOkQUD17p97WIgQlyWbnlFSm7cbN1FEB5ReqNtdlPtImwgJWu7jrlVzhMhAQlzZy2yGEa7xiJc94cIhsI8EvUjRAOCOc1RmkjGjVEbc6t8bl5k1wq1MLfD2kL74eNwJ/Gj4Qfx72PP7wfBd80KU5zvR8Fi+16xRQPSWImCBEgkfZkoDyihXnKm2i0ZeNDSS8ijTxCLCx0tfhaEekOC3WgwAVDxognBHO6gxU2jfrgCtduuD3nZ7FH3t2wR8HvYDKHr1QntAdH3TuhHPtWuHIM02R0aUL2jTvGFA9JYi44WxQGrQ3Od1KQ+84jYq4bHIbN28J9KpAkpcdlkC8XOHmLVfUkXBmjrqGA3iiKc94cIhsI8EvUjRAOCOcBQQ9oXQm//l4W6R07IlPOnfHX57rjb8MfhGnunRCUZvWOP9sexS2aI3tzdshqX0viLSBlG2Gs1FI0YDkNlIGeTvc3slpKNGO6zN6tyqQkmye9tQiSgLsBi0xpL2NEsP0qDHqpOfk+dAjVa406npo7ZMQaRPZEmlsyxH1VrRP2k3CWUqqa+rSDa4S0rTI4m3I41Y4c2InUZZI5wJAac/bSNGnl73b7903gbSvd3KFC7r1om6WLYlb+Jb9HK7PSHFarAcBKh40QDgjnAUEPaEe+Fs/3RHHuzyPz3sOxH/1H4LyHt1R0rkTznTqiaMd+mFZy+fw5FOBrTfTAMGw5kw6ey8YEVAipzpxGyVlFdrmele6eV2WzAO3buOmTKcDnYQYAW5JyWKTsCegRN83yAV73nBigUXHcCbAUJa3BEmpElJUETFXGW44E4ApYMYEgDokCQDVbSLbpfW5Qzup7emBUWv7pV2NfSPT+G2frJMG00uQUuaK+JnbZbGvBFF+Bnzdx4NDZBsJfpGiAcIZ4SzgQTrUgNbm6Q7Y1P45nOo1GCeGjULJ6HHY16EvZj/TDU81fTao+snImZyiUzts76iN1jYJSIYpUAkRJmBpokOO1xShzNcblCR42Ea4ZNkmcDIDhl0edvtlf3ngTEbfDPXTy9Xa5wVnsj0eyFLbySadAYRMdZRwZWmrKY3duU30sgx9JOpkd660AT/NWgrEHpHitFgPAlQ8aIBwRjgLCn4CGdSdpP1dkzZo17oblk2YhNeGvIyWLTrXqF4SzkpS9bVmXgDVBvdLELI4+Pul44cHRtRO3w5G5H4D/OiQoc7H4DBlnSzAYrShKw+4I3haxE+ftjVOsxrPEX8b4UxGuGTESnXMDaKyTv7sZJvO0z53+8XUp4jeeeUpActP+9xleSKeHjuYo55WO/C7pz8CsUU8OES2keAXKRognBHOagRBgQzu/tI2fqYTkl6dgKEv9MXDTwcXMZNluOEsWUKJdRrPAGcKEHJDhL6Gy/pdlqPe7w/O9AVS8uOWYe2ahA5FncxlCrARi/v1TcvLkI8h4iTPMwGYjPpp5ViiUNbImY86mdrvI52sgyu9eOhAVPi28pUeMo3P9smy9AcY3HbQ7SGhU5bLz+CAzGi3SHFarAcBKh40QDgjnEUMnD3cvCNmT5+CkQP746Gn2teoXkY4Ew5GOnx3NEjAi3TwXtEbCVfhi5x51lPJ9Wl6tEfWyS+ceeomHahsox2YmOFM2qQCSXqZbtvYwZk/O8m6e6XzgIGrjqLudlPCsl5+2ifL8mEnaRd+euxfE1vEg0NkGwl+kaIBwhnhrEYQVJPB3nruQ8064I2ZUzF2yCA0CjGc3S8jRYapStX0pVYn6fgNkCHBxw0wRrjzmjKVcOdwWtMIQ7JsH9DhARyz07UCqdW+VjiTU5uudXmGuhrro0XgZHsswCTr6raTBC5LOkMUz1R3r/Nd7TGlMZxrbp9NnQzpre3nd7NeArVHpDgt1oMAFQ8aIJwRziIGzho9/SwWzJ6BCcOHoOGToY2caY5Ihw7TOie5z+nTmmIazeZpTY+zk+BgAB4dGiR4eEfOdKCRwOIAzjx5GJ/WtAcjLzhzA6tlytcLzpw/1SoBSpuyNNhJRvNk+90PREj7G9or0/htnzxX9J325GoaSsrENG/8vsvOo8GagZgqn3hwiGwjwS9SNEA4I5xFDpw91QFLkl/Dq6NH4MEn2tWoXhISJBRIZyP3m57eHOSZWtSWbtm950xE3dyvydDXTBnecybL8ETk7OBMK8Xzn1hzJt+r5hjOPKfLv27eElOU9k7ZG87kFKJlAb0KzgRcOrCTsIH27jHre+N8rN1zwZjnFwnkd9ku+alqn9e713AbN1Pj8xcgPPqz10BN0kSK02I9CFDxoAHCGeGsRhBUk8Heem7Dp57FW/NmI2ncKDRoGthLZ615hfq7jOa4Iz6cPosY3YS6r5mfGu7iwSGyjQS/SNEA4YxwFjFO9sEn22Pl4mS8PmksGtQwchZqB0s4UzvsUNuZ+UWunSPFabEeBKh40ADhjHAWMXDW4In2WLdsIeZNnYgHGDmLmH4hMEUuMNVm38SDQ2QbCX6RogHCGeEsYiDgd4+3ReKYV/DykOEQL6WtTcfjryxGziKrP/z1F4+Hvr8ixWmxHgSoeNAA4YxwFlEQRKcaeqdKm9KmodBAPDhEtpHgFykaIJwRzghnERalC4UjZR4EslBrIFKcFutBgIoHDRDOCGeEM8IZNUAN+NVAPDhEtpHgFykaIJwRzvwOyqG+A2d+jOpQA9GngUhxWqwHASoeNEA4I5wRzhg1oQaoAb8aiAeHyDYS/CJFA4QzwpnfQZlRjuiLcrDP2Geh1kCkOC3WgwAVDxognBHOCGeMmlAD1IBfDcSDQ2QbCX6RogHCmQrOHuVdd6jvupkfNUUNRLEGHm2DSHFarAcBKh40QDhTwNk9jZ/xexdJRxPFjoZREuqbGghIA2JMjAeHyDYS/CJFA4QzBZzd/UDTgAYughpBjRqgBmJZA2JMjBSnxXoQoOJBA4QzBZzdVa8B7nukFQGN0QVqgBqIew2IsfAX9R4knCl8RTxAAttYNzBMOLO54H59b+O4H5RjORLAtjHSRQ0404AYC+mg68ZB0+7xa3fCmQ2ciYtCDEqMoDkbwOnoaCdqILY0IMY+gln8wgHBsG77nnDmA86EOMUUp1hvoT0kwKc4GU3kNB81EMsaeLSNNtaJMU+MfXTQdeugaf/4tT/hzA+c8eKI34uDfc++pwaoAWqAGqgLDRDOCGe8O6YGqAFqgBqgBqiBCNIA4cxPZ3BaM7bW0XBdFPuTGvChAU5rElD8+MS6iCLFY5mEMx9C5AMBPgbxWF53w7ZxXRk1oD0MxQcCOKUXj2AUCW0mnNnAmRiUeIdNOKMGqIF41wABjYAWCbASb3UgnCngjC+hpUOOd4fM9vMakBoQr9Tgk5sEtHiDo7puL+FMAWf8+SY6JumY+EktUANttNcJ1bWzYvkExHjSAOFMAWf84XM6ZDpkaoAa8GiAP3xOMIonMIqEthLOFHB2P182y/V2XBBODcSoBt5YvBLpWbk4mJ1n2nbuO4SOvQer+/3RNnyKUeErIsGJsw6xCc6EM8UFxztmzx0zbUFbUAOxpYEbn3wGu3/vrN+qhrMmhDNCUGxCUKT2K+GMcGY7GNMpx5ZTZn+yP4UGmrbtgW4vDEf3/iMwYsJMXLl23c1q67futh0PItWJsV6EpljUAOGMcGY7GNOZ05lTA7GrgSfa9URZxTl89933+PjTmxqgEc4IOrEIOtHYJsJZhMFZ42fao2//5zBz6kDMnDoI/fo/B7GPTjJ2nST7ln1b2xoQYJZbWKIB2cnTlUiau5RwpvAF0ejUWefYAGzCmeKCrO2BUpT3QNM2mDp5EG6UL8C/bm7At7d3aJv4+6OKBdoxkaYu6sYyaXdqIHY08EznvlrETNBYTv5xbZpz+PgZhDOFLyDoxAboRGM/Es4UF2RtO6LfPd4GyxYMxT8/34zv/pyD7/56Gt//7aK2fffXU/j2T9n45vMNeGv+MIi0tV0/lkebUwOxoYHH23R3T2WKiJlYfyb6dtgr0zU4W5ey03Z8iUYHxzoTrqJVA4SzCICzF4f0wT8+3YQ7fy3FnX9W4c6//4A733+tbT9++wf8+I9r+P4vxfj77zfgxSG9bQdPOtDYcKDsR/ZjuDSwYu0WDcIEmDXv1Mc9lrTq+jwuXb6KkROT3PusdYhWJ8d6E9CiUQOEszqGs/9s2hb5B2fgx7/k46d/foKfvv8L7vz4L/z003f4+afv8NOdb/HTd3/FD//8CN//zzEUpCdBnGMdOMP2fdAoJCWnoaSsAjdv3QZQgaQYff9T2GxIewWg11FIuSX4gToLhx57DByJt1dvRpPW3QLoExcsR6ODY50JZtGqAcJZHcNZ8/ad8JfrG3Dn7+/h52//iJ9/+Dt+viPA7I5ru/MDfv7hW9z57iv8+PcL+MtHG9C8XaeAB9beArA0uNJunLX/bt6qQEryKHVeg5agRHOSnvS4dRs3b6URzghbas2ExC6Es3BAWSjyjFYnx3oT0KJRA4SzOoaz5wc8h2//axfufHMFP33/FX768e9axAw//Qhtu/MDcOc7/PT9n/HjP69oacU5gQy2vVNFxMv1TwCZiIIZQe1mqhXQlsD1HNdtlCSPQu9BnGYKxN5MWxO9EM4iVT/R6OBYZ4JZtGqAcFbHcNbnhV747sud+PFf7+Pn777SI2f/1qYzxbTmz3e+x88/Vrvg7JvL+PeXu9HnhQDgLLlCx7IKJFkhS0TH9KMlyR6H6oK520ixpg9JZMRTTqQ6IdarLvuIcBap+otWJ8d6E9CiUQOEszqGs6atO+KPV9fjzj/O4Od/f46fv/8zfvrhb/hZbCKK9v0/8NN3f8Gd6s/x49/K8eWVNRDnOB3Ak8pc9GWEL9O5Et7Kluh56s5RTF8OElOhOr3hNkosETZX3maIk1E6U3l6GaYI3aAlSCm7DderL11l3Cxbgt5GADSVL+sBwF1XO4jwQKfhLJjq1KQNeidX2JYv7WY83/23LN9JG0R7pI3dGeh/yHyatIHKlqZ+0u2iTDcozdWOW2ke+zmpWxD2VZbfRAKVuW+UaVV1FW3T62s10c0yoUPvfnZN0xtSK6botfKFTUxT9HY6Fnmp1rkZtGToL1lfX/pVtl/oTo9kG/WoTqu26/1B9JtKS4Hui0YHxzoTzKJVA4SzOoYzMUDu2fIqfvjLMfwontT89jbufP8nF6QJUPv2T7jz7y/xwzcf4ts/H8GuLZMcg9n9TaRjUTkd6fCsaeR34axuQ3OO2no1lyM0ApbKoagcj4QT47nCwdzUgC/N9cCBDoHuNNKJ4zZSkpcgSWypOkwZnaQR5tx/620QgKmd55rWNTpDWSdoTt0FiloL9byFQ9fOdbfdUI9B+jSwvzbo9ZGRyJJU+3aobKlynsp00lYmOAuPfVXlyz432k/UXZXW1e8AvOoq9Sam3F1/l7jh3XwD4O47oR8xRS8eVtEKhwnAXeWLsoSO9XRWnbnr6crApBEDSGlHjbpz0PfK9hvyNJalSqu0q+zroK4Lec0H9xmtTo71JqBFowYIZxEAZ+0TuuAPH67HD/9bhh+/qcKP/76Fn/59G3eqb+POvz7DnX98iO//WoIvP1yH9gldwwtnxsHfFLGQ0OYBPV8Oxeh4pDN1g5cbogxOQpYrnbYy2qZHiIxO0kde7vL0vDx18kQHjZE6VXvud0eFPO1WQZO2z9oGC5y5p4llOkM71GUb7KPnpUwn85O282ETNxQFaV+v8mXZAn4Ewfhrk0zvrquMDkkAk991e/tNr9vIK52EQ8CtA80u9jq+KcDNXS+Rr14XRdu8NGBbvmyXpy8ldHn0KOtqSCvzs5YdZL951VelET/7otHBsc4Es2jVAOEsAuBMDJwTJg7Gv77cizt/PYUf//EBfvrndW378W/v44evT+KbL3dhwqTBAYCZcAbejsh7kLakcTsFOc0pnYp0mh4H4uWobaICjuBM1lU6R1kP+V04DrnPAADe7fFMI7qdnxXOZD63PJEX10MSquiJbLcDOLO2QXd2LjsZzpflG9qhsqWqbcp0Mj+jrbwcrd7PMo3qHLnPUC9rHczlG2wj1y8azjWn1XUky7CthyFPrQ3yu6476/nudlrSuSNiHr262mKXrgIp2nSjIb1bN7rtDG2z2sV9rcl22ZbvZFpT1lGsE7WUrWq/3OezfvI6Dv4zWp0c601Ai0YNEM4iBM7+8/G2yNqbhO++ysT3X5fhx79d0Dbx97+/OoTDaa9BpPF2Cr4GWwleBofjdmbyPJnGLlIh03nf3aucryoqoIQzxZooDY1Mzs3zlKkLm/T//Tghr3q5nazeFunMAO3dbeL9bcbNDXUmODDAlbShgza4oy+Gdqkg01VnUyu1L9rrTgwRTLt0WmJTGd5r+qxpksoCt6/RtrKvtciUtKmhbxzV1es8A5jodjaWqbKdvCZM6XzAkTqd6F8zCLnSee/XynPQ99ZyZD2l3Yw6M6aVx+3tGni/ybJr8hmNDo51JphFqwYIZxECZ2LQ7NGvJ775PAXVX+Xg2z8X49s/FeNfX+Xim5vb0aNvAE9oSnhwOyjzWhzTAK2Di2c6ygJr7rz8OE09nXQsRsfjDWeyDLE4ewl6DxKv69D3GQHDXX/xSg+na84U+djBmQEkTDZxt1nAnHdaDGupAAAYvElEQVS7XWmdtkFPZyzLC0g84Otel2Zsr1hfpAOadOLKdG7bOa2boVxjeca6mmwh04uIjuUhBPndcK6jusrz3HW32lt+123glV7ePFjSGbQjbefqN7t0Lvh21dkKZNY+dGZf2X5z+b4iZ87sKtoh83Z+XUg7Bf8ZrU6O9SagRaMGCGcRBGeNnmqPzy+sxDe30vCv21n4p9hu7cPnF9+BOGYPED4GXAlf4kk0QwRGy0sCEczw5hr4zfvcEQu3E/U4CKPzcQRnsk4GR67KX0KdGxylYzaeZ4EHeY5pnZEVztzA5YEee9tKZ+5y3u50AbbBVB9FO6SzNdpSlGW1pzKdzE/2TYB1C8S+rvLF4noRhzPYT9bB0DeO6urVFxZ7y3xl27zS69r3Sif1aVlzJtMZnsyUbdJ++UI/Lqa5Pe2zwJlD+yrbr+hT0c+yDk7sKjUeSL+5dWu9XgL4Ho0OjnUmmEWrBghnEQRnD4ifcjowB/99LRX/c30v/nJjL/5UtQPFmfPQoAY/2SQdvHCnjl5C63ZghqfctDkxM7BJ52OM4ojXY2jlyCcTDU9Lup78HOVZOyafOBNPYcpfL3A7YRmdMECRrJcBAIxOp7d4xYBWuh5pE2Ubyxd1kk9aSgerPTEq0omfqHL9AoLxIQHbyJmsi20bRiHF/RShAWKEM5TnGtqhsqX76VQvkLDJT9pO5m9bNwE0gdvXAxEuMQQFnLJusq5Ge2hPB4fhaU2he79Pa0qdSTg0PhxggTPZBp/2lcDlig67nvx16dF0jeh6dPW/E7sG12/G6yTYv6PVybHeBLRo1ADhLILgTAya85Jn4bOqs/jqi2v43z99ij/efB/rV70ZxHozczStxj/fJF45YYm8GR2Ky604+F93yr3lazHEKXreWn7u4xLyDL9eIJ2iAWqMjsZRfQzner0rS8BBqt2DENJ5e+zquw3SiXq/V8sezrztJ2DaGPF0tdEPnGnRGc/rJUJlX2Frt42NcGUELIN9ndZV60ObNVx27zkTNvS8g0/XkOWnyNzlu1+HIuzr3R+udJ7+lTcznql5C5w5sK/JVt7d6tmj28upXWXd/IGx8boI1d/R6OBYZ4JZtGqAcBZhcDZ+4mSUFBzBlQun8WnVJVScyMXEyZODm9IMYMoiVAO4fT66g7M69RDW0epkzXXxdrDm4x7o4v66tIWMXHlgKdj+cMOZ5aYi2PxCe1706TFanRzrTUCLRg0QziIMzoYMH43DB9NwPP8IzlWcRHH+EUybMZNw5gDiCGd1CVWhKptwFloIDFW/tEE0OjjWmWAWrRognEUYnD3Xfwh2p25DXs5hFOXn4sjhg0gcP4VwRjiLAQ38//bO/TmKMt3j/4HhnN1DAAEhRheyJC4XiQxZ5CIQJCKikaiIwGENHiKi2a3azSlPland8rjucV31cFFCgMBy8YJGLgrBEKICEUPIPZNMJhNWZYPhB3frnFWoerae7nlnejrdmZnunpme6S9VL5OZ6X4vz/Od5/nM+77dEwkoAM4AZwCKZAUK9Ns67QLObAZnt/5sDhWtWkubNhbTMxs30Oq16+gnM+Y5JDFHkrxxjF2TtzX9cgqcJZ+OkXitS7ywJWwZTgOAM5vBGSe4W7JdNGV6LmXPyKWJ2ckXxK1J0hg37AgN2EkD4ZIJ3gdwQAPWaQBwZkM4s1NARl8ACNAANMAaQOK1LvHClrBlOA0AzgBnWDKNYD8bAAWA4nQNhEsmeB/AAQ1YpwHAGeAMcAY4gwaggbAaQOK1LvHClrBlOA0AzgBnYYOy02cMMH7MmkEDWNYMl0zxPoDLSg0AzgBngDPMmkAD0EBYDViZeFAXQAYaGF4DgDPAWdigjFkDzBxBA9AAkunwyRT2gX2s1ADgTAvOshCIkYyhAWgAGghoIAvLmlYmXtQFkAunAcCZBpzdPOlOzCZhmQcagAagAb8GOCaGSyZ4H8ABDVinAcCZBpyNnJiDoIzEDA1AA9CAXwMcE5F4rUu8sCVsGU4DgDMNOEtLz6Bxk+9CYEZyhgagAcdrgGPhTem3As40ckW4BIv3AWFGNQA40/nA/evYSY4PyoH9JkjQ0AI04FgNcCw0mmBwHuAEGjCmAcCZDpyxoDgoYQYNm6IBqdCAEzXAsQ9gZiyxAkhgN7MaAJwNA2dsXF7i5P0W0kUCuIrTsbMHTkzOGLMDoTTLJcU6jnkc+8wmGJwPSIEGjGkAcBYGziAsY8KC3WA3aAAagAagAWjAmAYAZ4AzfDuGBqABaAAagAagARtpAHAWxhlY1nTg0g42v2P52qkawLImACVMTsRMmLGZsGjtBjgbRoi4IABghn1X0IBTNYALAuKThKNN2jjeGX4BnOnAGYOZU4Myxg0ggQagAaEBXLHpDBgA9NnLz4AzDTjDTWiRmERiwiO04HQN8Awarty0V+IGSKW+PxIGZ/8yPot+smw15b3wOuXvPEIrjjdSUZ2bHj3nkx75Ob/O7/NxfHy8BImfb0JCdnpCxvjxGVBqAD/flPowEK/8inYi01Jc4SxtdCZNXllMC14/QCs/7aFHz/dHXPh4Po/PTxuVGVNQww+fIzEpExP+hh6crgH88HlkCRXgATtZpYH4wFl6Bt229DEqePsMPXKu33Theri+m2J0k8TxuNks9ts59Wo9jDvltf+bF35P+9+ppoPvfRhSdu49RHMLirTHn+WK6RdiqxIa6gEcpYoGYg5no+7Io0U7jlDR2X7Ly6IdHxLXb7UznP4tGePHTBE0kLoa6HD3kN6/l1/brg1nUwBnVucZ1AeQHE4DMYWziQtW0IoTrbTyc1/MyooTLcTtDDfIaN9DYkrdxATfwrdO10DO7Hxa9MDjtHjFalq94TlqamkPsNpr23cBzjQuEos2h+B4gJdZDcQMzqasfpYKz/TSw5/6Yl64HW7PrDHE+U4P3hg/AAYaSH0N3JG3hGrrz9I//vE9dXZ7JEADnAEqRB7EY2K1EBM4+ymDWb0v7oXbtUJQSEzxT0xFC5fR8c2b6Njmp+nYMyV0/OkSKpp/r+63ePgo/j6CzVPH5gxm1cdrJCA7VfcZlf7nbwFnmDGzJH9akYNRx0SyHM4mLHiQHjztoYfO9MW9cLsT5ptf4kQSin8SeuG+++n6LzfQjVJ/ea6YyhcvBZxhgz40YLEG7py/TJoxYxp7/+jHxMucjxc/CzgDnAHObKQBS+FsVE4eLTvaQg/W9SWsLDvaTOnZs02JDHAWPzjLyMmjxXcvoT2rH6cbzxXT9eeelMqNZ4upqqiIFuflU0Z2HhK0xQkaGo+fxu1k62zX4sBSJs+YMZhx/1Y9uVmCsz9t26n7WcNsRmKXuWB/Z9nfOjhLz6B5W6tpxem+hJd5W6pN3WbDTsE01fsyY9oc8q0uoh+efZKub14vlRub19ONTevph2d+Qd5HH6KZ0+boJoxUtw/G50yIipXfX3p1qwRhDGYz5t0X+Fzddc9y+qLxEj3xVGngNXUfAAfOggP4O7H+tgzOMvIfpQc+8dqmZOQ/Ynj2TB2U8Dy2CXLlHbnUf18+XS9eTTdK1tL1jWvph+JV1LdsCT02PbZtw7ewr5M0kP/QE/TiK1toyqxFuhCmZw8k68Qma9jfWfa3BM7SRt9KC/fU0vJTXtuUhbtrDf+SgF5wwuuxS+SPZN9JPflz6f/XraT/W/sw9SyZR09MnxV1AlH7qKCsimq8Pmm2QPzn8dbTtrI1putWt4XnsdMHbJt42wIOnAUH8Hdi/W0JnN2+4hd0f02v7cptD6w3NHuGRJCYRFCUM5M65ruoa0EerZo6i24xuc+qoCIIZQxkNbX1IaDmqQCgQeuJ0Xoy2h3JOrHJGvZ3lv0tgTPX7/fRspO9tiuul/YCzkwCjlVJZOqcpfTwmo1UtK5Es6xcu5G4vLCumH63/ikq8j/n14acs7ZEqmva3cNczVlW758oq6fSQlUCLiwn+SYCRDVlqvdsYi+r7I564F+rNAA4cBYcwN+J9bdpOBsxLosKjnbSshO9titLj3TQiLGTowY0q4IZ6gkmxte3V5LPd5muDV6ja9dCy+DgIHH59upVGhwYoMGBq9Lf3377rfS6eF+cNzh4jfq8/fTG9krdpcnSWpnNdOFLwFtteUgdvAzq8YoFUCLy+mhbmYtEfYp3gn+KOgrLaVutj+Tbecpve2rLqUABfLr18FKrAiLl43whr42fsoa2ib7529Stj5sPOUZdV9A3w+lUXhYODpVUS8Jh22cQ9obaRKoj7FgV/Suskm0q7DxlGH+o7Djc2PCewsYKjerZBck6scka9neW/U3DWcaSVXTfRx7DZVPP91LkP9cUWsf/XJETwuWey4br5n5l5D8GOIsg8OoFZKter9x7kJovtVBvbx9dvXo1pAwMDJBU/vpXGhBFvKZ45PMGBq6Sx+OlCxcaqXLvoRCwCvZVzIzVU6nu2DWOEcBGPnkJtLaePCRDTUFhOZWWceE9bKxNhjb/a4X+5VEJInxUU1GlOI5IuXwqoKumQtRXTqUV3A7/C/ZXHKcENuUyrQCvSPqlVVfQVsMkaE17yJ9LAb3h25fhTLZJ5GMN6Z8unLGth7djSD26WhjGBjgn8BkDHDgLDuDvxPrbNJxN/9WrVHDcY7hs6pbh7GyToo6mv8sZ4JsrhusVfeL+RSsyBHTrk9WufQepr6+Pzp//gjw9fXTlypXoyzdXqLvHS2fqPyOv10u79lkJZ2JWKtwMkzguCFK6ehFQ4a0KzJ7pgZL6dfXz8aIu3jfHnw7FLJLcvn6/htQVEXCI+lT2EP1QjClc+2r7yP0J2i9s/0SbijHrnaP3uroPeB79ZzzaOIrjE5vcYf/ktr9pOMv742FaesxjuDwt4Oyiv476a3RZQrO/0x9M1Cv6NPuV9wBnESXj6IN1NAmucu8B6u/vp95eD9XXf0bd7l766quv6euvIyt8bJfbQydrTpGnp4d8Pp+1cCYAYAh0qO0ioCUIF/p28M/OKeqU4YHIw5Alin8mrkZxgUIoZCjaFPvlFKAit684RuXv0LrU49F5rmsP0Y4K2gJLrlp2WSPNDvJ45SVjnvEKXowRtn+iL4oxR2pHfd/ojFtlO5wftBOSfXIne/gvufxnGs4W7D1H9x7tMVxK3P6Zs0au4wqdlcDsezp4xnidyv7cU3UOcGaDhLOzar8EVDx71tXVRbW1ddTZ0U0+X78EbQxueoVBjI89duxj6ujokGbN+DVeKtVOnmLJUg0QwUQzfoo4xg8TGgCgXbeAEw0I0dhzJslZA854L5tHFOkgfWARy5nS8qhuP/X7JUBGakbxn3RLEcXer5Dx6rYj9nupbavfvrRXjvfiBfaeaY1V0TH+06s4RqMvgTEJG+rUHTImG3wOkrk/SO7Jldzhr+T2l2k4W/xuKy050mO4bFTA2cvfyAH6bKPx+tR9WfROC+DMBkmpYs+fpWVNhjOPx0Otra108sQp6mh3U2+vl3p7eyXo4uVKLvxcFD7mw+ojdOnSJelcfp/r2Vl1QAfOBEAMczWm2E8lZmMEAChASjuR6kGIgD2GinIqKFxDvB9LWoJU1Kk3SyRgQ+zlkp/zlab+zfCiDvFc9DvgW71+CVvI/ZL3zSn3fqkhyw+woh3R7pB21Ofpt6+2o/ZYlf0T+/r8/hN9UYw5Ujuq28Zz5ReU6P5Gsk/uZA//JZf/zMNZtZvyP+wxXAScXf5OnkGj767RRhP1qfuyuNoNOAsk1uiCsZWJbMfufQHY6unpIbfbTRcvXqTq6iPU1tYpPefXuru7peJ2d5Hb3U1trR309qF3qaGhQTqGz2W441KxZ78unI0X8MWb7NWzQwKaSAlvQbhSbsIfagMdCBHtKQAisE9MATh6UCFmx9RwViNddaoAIQ1Qkfuo06/AlY2KOvx6ULcZOlZRn+o80b5iTOHaD63XRep2NW3it6febKHmOVOG1q1uG8+NxwAk9+RK7vBXcvvLNJwtPNRCiz/oNlz+o8sPZUR0+Tt55uxyl89wfeq+3HOwOXo4yzIewBD8tW33ZmWVArzc1NnZSY2NjRKg1dV9Si0tbdKSJS9bcmlv75Beqzn5iXTcl19+KZ3DACfKW7v26cOZIlGzqiK5Ca2ABr4SU+wH4z1SAphk3wpoUS1rCmgRV3HyFZjilwkUICOgQvsqwyAIycfJnwfl1Z4B4FNCoARbOv1SwJl2m6pxKEFeAKfSHnKXVDZhn2u3L9mUbwDsv4I1eKuRYLtDbSJmzvz2ELZVjHnoORHMBirHhr+H/ewMiWNZrqjjKOAgueEA/kus/0zD2dzKs7To/W7D5alOGc4+7/TRove/oc+l4P89HfjEeJ3K/nD/ohXZ2EkzowtcCPRh7bWtYre014z3mzF8MZjx0ibPhPHj6dNn6FJTK7W0tEilqamVak6eoubmZgnq2trapHP4XK6Dy/adVWHbjfbnmwrKxKZ1P4UMuW+WNoRwMisI3BKD90zJ9y2TIGIInPnrVjwwPCpn+AJwpjhXSpgaoDIsNAbgTNGY/091m0MSMuu6UICS/yTVfc6C5+jYRX3fOD8oa45V2UXecyZ+YktjzAH7KM/RqDvYP+0vDXg/MruMnZQbdRyNNu7i+MTCAOxvL/ubhrPcl96lhYfdhssGAWcN/joa/iaH2+8GaYOJekWfcl96J+qgMub2GWGTPoJ6ZEFd2Gnrjl0SlDFk8SwYQ5eYAWPQutR0iWpqTlHD+S+l8tFHH1Nj40UJwsRxvOfswoULxHUwpG2r2AM/4YsBNBAHDXBMRPK2V/KGP1LbH6bhLGfzK3TPe27DpbhDnjn7rCFYx39/JfOZ8jWjbeQ880rUQWVU5jQEfIsD/pa3KqUZMQazpqamwOwXL2+K0tzcQnV1Z6i29rS0+b+9vT3wnpgt43MZ0HiGbeuO3fCTxX4SMI3H6L58pLq9RmVOjTqOAh5SGx7g39j61zSc3bLwMVrwrttwCcDZeUUdJwepX+Kzv9GLJurmfnH/ohXRyAnZSPoWJ/03tldIM2a8nCnvKWsnhq+hpY3a27kE3+PjlYXrYMjb8tYu+MliP6U6ZGB8xqCTY2K0cRTHxzZ5w76pbV/TcMa/XTl3fwvNf7vLUHmy3T9zdi70fPE6/eVrQ/Vyf+b+udnQb2uOGJ2JpG9x0n9t61vSjBfvL7Oi8OzZa1t3wE8W+wnwYgxeUt1uI0ZlAs5GpjYMAPbs5V/TcMYOnfZfu2n+oS7blWnP7zYcUG7GRQGWgs+Gzb+mw9VH6PAHR+nwB/yoV/j9cMfI55aUllnax1RPsBgfwMuIBjgWInHbK3HDH6nvD0vgbMLSf6d5B7tsVybcu85wUBk5MQeJH7My0AA04HgNcCwEDKQ+DMDH9vKxJXCWNvpWyn31Y5p7oNM2JffVE5RmYio+LT2TxuN+Z45PTEZmGnAOZqhSRgNZLuJYiMRtr8QNf6S+PyyBMxbKuHlFdPf+TtuUcfNWmg4oIyfiwoCUSTKYAQJoQwNRa4BjIEAg9UEAPrafjy2Ds5vSM2ha+ds0Z19Hwgv3g/tjWnDpGTR28l1RBzQADWZOoAFoINk1wLHPkjiKjfTmcxFs6DgbWgdnIyfSv2W5yPXmF/TzvR0JK643G+jHFv7UyI/GTQacYcYBGoAGHKcBjn2mv+ACKmBDaMCQBiyFM/4gj3Etp9m7WymvqiPuhdvl9q0OKLg4ALMgyT4Lgv5Dw9FoAMuZ9lvmsjqvoT57+9hyOGOHT1xeQrP3tMe9cLuxEtzo2/CrAdEEdxwLGIAGklMDHOtiFUdRr72BAP6xj39iAmfs4AnLS2hWZQu5drfHvHA7E+7fGNOAkpaeQQC05Ew2gAT4DRqITAMc4zjWIUnbJ0nDF870RczgjAU1etb9NPN/G2hWZXvMyswt52n0LOuXMvU+ELiCM7Igj2QIO0EDyaUBLGU6EwL0ch1eT6weYgpn7NwfT55FOc8fort2tllesp8/KNUfbxHxRllcxZlciQegAH9BA9oa4FiGzf+JTcTxzmFoz/7+jjmcSSJIz6Axcx6mn714nHIr2kwXrofrS+hl3ukZJM2i4Ua1jruKDUleO8nDLklmlywXSXf/xzImlnFxRaXtNBAfOPM7nu/YP3bRWppcupNmbLtIM3e0RVz4eD6Pzzdz53+rvzHw3bM5wOG3OJMsMeHWEIBqh2qAYxXHLNz53/6zJ1bnK9SXPD6PK5wphZF28yQac/cjdNv6l+mnZQdo6h/qaPobX9CdbzZLj/ycX+f3+Tg+Xnm+Hf8eMSqTRk7IplGZU2nM7TNo7KRc/ASUQxMgZpEA6wnXQJZLikEcizgmcWziGGXH2Ik+JQ80wFfx8VXC4AwOjo+DYWfYGRqABqABaAAaSC4NAM6w1o5v0tAANAANQAPQADRgIw0AzmzkDHyzSa5vNvAX/AUNQAPQADQQCw0AzgBn+LYEDUAD0AA0AA1AAzbSwD8BcM4UkZ19WyQAAAAASUVORK5CYII=;" vertex="1" parent="1">
          <mxGeometry x="465.61" y="690" width="281.25" height="150" as="geometry" />
        </mxCell>
        <mxCell id="Jlm6lItwhGJ9jv6W5DHI-29" value="" style="endArrow=classic;html=1;rounded=0;exitX=0.5;exitY=1;exitDx=0;exitDy=0;entryX=0.5;entryY=0;entryDx=0;entryDy=0;" edge="1" parent="1" source="Jlm6lItwhGJ9jv6W5DHI-22" target="Jlm6lItwhGJ9jv6W5DHI-26">
          <mxGeometry width="50" height="50" relative="1" as="geometry">
            <mxPoint x="490" y="710" as="sourcePoint" />
            <mxPoint x="540" y="660" as="targetPoint" />
          </mxGeometry>
        </mxCell>
        <mxCell id="Jlm6lItwhGJ9jv6W5DHI-30" value="" style="endArrow=classic;html=1;rounded=0;exitX=1;exitY=0.5;exitDx=0;exitDy=0;entryX=0;entryY=0.5;entryDx=0;entryDy=0;" edge="1" parent="1" source="Jlm6lItwhGJ9jv6W5DHI-20" target="Jlm6lItwhGJ9jv6W5DHI-25">
          <mxGeometry width="50" height="50" relative="1" as="geometry">
            <mxPoint x="580" y="520" as="sourcePoint" />
            <mxPoint x="630" y="470" as="targetPoint" />
          </mxGeometry>
        </mxCell>
        <mxCell id="Jlm6lItwhGJ9jv6W5DHI-31" value="" style="shape=image;verticalLabelPosition=bottom;labelBackgroundColor=default;verticalAlign=top;aspect=fixed;imageAspect=0;image=data:image/png,iVBORw0KGgoAAAANSUhEUgAAAUYAAABgCAYAAABhVdtvAAAgAElEQVR4Ae2dd1RTWbv/7z/3vu96Z0Z0nBmc4rwzjI5jm2JBwQbSxAIqFhQFARUUFAQLIggqVqQovZcAobeQhBp6V0TAhl2nX6frlHvv+n1/a5/kkBASSELAOB7W2uuQnV2evffzfM6zyzn5jzFvfQgmMH3A6ACjA4wOiHXgP5jOEHeGvL54/d8z8e4Xy/Dhos34yMgBU8xdMc1yP6av9WIC0wcvvQ4QWyA2QWyD2Aixldffn/FCO1xqB+NbEz/ByuXrceyQP5IvxqGCXYiGAj6aS8pRmVOE7Pg0hAQEYb+LJ4yNVuLN96ZoZAeOe/cTTJy7Ch8v2/XSKz5zA2BugKroALEdYkPEluQ5HZoarxYwjnv7I6xba4OYoHB0VNSip7oJ3YIm9Aga0VNVj67KWnRW1OByqQBNnFLU5XNQm1eImpw88NPZOO3jh5XL12LshI+eewdqvT0Z781ZxXiEjCfI3BDVpAPEo3xvzkoQ29JUEErLNWwwTp+zGNHhcegUNOBmfQtu1DXjem0Trtc242ZtK25UN+GaoAHdlXW4UipAa0k5GgqL0VBQiLrcPNTk5EKQmYWqDDZSQkJhsMQMWto6z6UDtactwier9jEGoSaDUMXLYPL8fb3TT1a5Q3vqoudi29LgG+qzymB856OZWGvrjL1HTqA4l4fOqgbcamjFzXoSWnCrvg236y/hTl07blQ3U57j1fIatHHL0VTMQVNhERoK8sGOCIMgJwvVmWzUsjNQmpqKYP8TmDJt1uh1oLYOJs5ZyQCRASKjA6OgA2RGNuY5OT9DAZH+XiUwfjRDF1t2e8DpoC/cvANQnMfDVUEjehsvUeF2UwfuNHbiTuNV3K2/grs1LbguqEN3RQ0u8SrQVFyC1sJCZISFYvf2rTjrfwisyCDUZaSjIi0FRQnRyDixB4YLdEccjloTJkNnsQ1jEKNgEIw3+Pf1BpUdW2JzxPZoEGnaVWkwfqZnAHtXd2zf5wXng75w9zmJojwurgoacLupHbebhHC813QV95p68KCxCw/qWnGzth5XyqvAZWdCkJ+HluIC+OxxxnLTJTji6YLqrHTUs9NQlZ6K1KAA8C54ojXKFc6O1iPXedo60Fm8hYEiA0VGB56DDhA4aqrnqBQYP5u/BHa7XeG41x07PLyw66AP3H0CKDB2VtXidmObEI6N7bjT2IF7TV141HgVDxracKm0FCUZ6Th6aD9229uiMCkO61aZwGq1KbgpCajPykJdZhqqM9KQFxmE6MP2yDy1E9zTTtiwctmIwJGZPjMejLKeDpNevTpDTas18Cy1wmCc8pketjrtwjZXVzi6ucPZ8xBcDvlg35EAFOfz0FlZh9sNbbjTeAl3mi6jt6GVWnO8W9+G3rpG5KcmITUuGnt3O2G3swN2O27F2hVLcdDFHlUZKWjIzkJ9dgYEbBZKUxORdfEsIo66ISnAE+WJF7FooZFa4Ug2WhglV6+SM/3J9KcqOqCJGzIKgfGjaXOwe98BbHHaha0urrDf64adHgew2+soPH1OojiHgytV9X3eYm9jG27VN+NGXQOuVFQhJy4WAi4HF88HwmWHA+w2b8CWjaux09YK/vt3IysyBPU5mWjIZlNeIy85AeVpyRBkpFChMi0ZxYkxmPG5nlrgSI4NkB0yVQaRycMYP6MD6tUBYouadpRnSDCSozO+fmex77APBUbb3a6w3+OGHe4HRJsvx5Gfw0FdWQ26Gtpws7ENvWRXuq4J16ob0F5RicykBGzZZIXTJ4/BfY8TrNdZYvM6C1itMISb4yZkR4ZS3iIBYy07DSXJ8eAmJ4CbHAdeUhz4yXEUKAvTM9RylIe47+pW7hlrD2HO5gNYaO+JhfYemLN5P2ZaHVJ7PeqWmylPvUbO9Kdq/UnOOWrSBsyQYFxkuAKprCx4HPYVgnGXCxz2uGG7+wHsPOCDPd7+CLkYBU5pNbh8AWoratEuqEdXdSO1IdNcVoXs1BS4uuxCwKlTyMsvBLekBLab1sPSzAB77TchKegkanLSUZ/NhiCdhaLEWBQmkBCDwoRoFCXEgJeaiMfdV2FhsWFYHTju3alqPbyt7+ABzzBHpNetRsM9E3R+Z4DO7xeh6cEiZDWawyt6KxZvd2MA+RwW9xlIqQap59Fv5BC4Jj0hMygYyRMtQcERYLEysf/IUWzZ6QzbXS6wd92L7e774bz/MFwOHMYqi3VIySlGTkkVinnVKCmpRBm3EuXcClTyq1CQm4fExCTwywTgldWAU1yCNSvNYG1hjr0ONjhxYC8Sgs6gNpONqow05MZFIzc+BjlxUciNi0JeXDSKkxPwqLsLghIexg3jCRnyiJI6Bn6GlRd2B+5E0wNT9P5siN5fFqP3l4Xo/WU+en/VRe8vn+LWjzNx/cmnqL87G3uCtoHkUUfdTBlMP/4ddWAiOd+oIRsxg4LRxHwtMtJyhGD09ofNdidsdd4NB9e9cHT3hJOnF1wPemPVqtU4cvQUCrgC8CsbkZ1XgsycQtTWNaO2tglVVbUoLa9CTVUjuPxKBPj5w2rVcqw1N8HaZSZYv8IM53y9IMhMo84xZsdGgh0TiYzoCGRERyIzJgq5iXF42N2Nxz09sN5oq3IHquvZ5y2++9H1jRnu/LYA957p4cHv83D/2Szcf/Y57v42A3d/+Rh3ftbBrR/eR/d3/0br/VkIzjgAXZsDDBwZ75HRARk6MHnZLpXtWt1AHRSMhw4fQ3paNlJT2Djkeww2O3Zii5MztrnsxfY9nnDedxiuXkdxMigUeYVcZBVwsNvNHStMzLByqTHWr7KEo902HPE+gtz8AlSW14JbWolNVlYwW7IIpgsXwHiBHpYZLMDhvU4oY6VQU+awcycQGXIOieGhSA4PAysyHJlx0bh/9Soe9fQgISJGpQ4kb8kZ7p125rpDCEw/gJ4vj+P6fxvizrPZePj7TDz+Yyoe/TkZj36fjAdPP8S9397GnV+1cevHN3DtuzfRdn8iLt21Rlr5dsy18Ri2HMNtB5Of8To1UQc05a08csH4xntTkJSYjjRWFlKSM3DQxw+bt+/A5h1OsN1FdqY94OThBfcjx5GZz0MhtwL7DxzCanMTbFu3As6bLOG2dQ2OuWxB8kkPnNrvhPCwcPBKK+FouxXG+nowWagPowXzYbJED1s3rsF+l52w27gGlqtMYLvZChfOnUR0yHnEXwhBamQE7nV2Ul5jd2ML3pyo/Bs7yOuQhqsMByN24Ob3vnj4Ywy6vzXC3aef4dGfk/D4r4l4/Jc2vvxdG4+evon7T1/HnV/G4uaPWuj+9nW03H8Tgq4v0P3wKI4nmWOG3I2ZYAT3/IovnwwSeviwlHHHHW7bmPwMLJ+3DhAbVbf3p0p5csFINl1YKWywUjORlJhGeYzWDo6w2b4DW7fvhJ3TLjg4uyA4LBYl/BqwM/Kw1nIF/Ny3IffsQfSyL6Ir/iS+K0nCw7wY1EQFwH6TBaIjYlFYUAzrtWtgZrgIpksWUnA0IpBcpA+jJXowMtSHhbkxXHc54Mzxo4gICkRC2EXcvXIFD672oLftMlauXK90B5J3xQ1n4Bc77kPbQ3PcfnIC3/9Wiu4vrXHr56n48o938PVfr+Orv17F4z9fw6PfX8G9p//C7Z9fxY0nr6Hrm7FouT8eFV0T0d7rDl7bRqx0c5Avi1swLOlwlo+WJ/cQfFYizo0x4OGMI5NXc/WH2KgqIFN3Hrlg3OHkhpRkNlKSM5GYmA4vvxNYv3Ublluugekyc5iamcHYwAgJKWzw+LXILSzGbjtrZJ8/jOroU+hKCMJPZZn4pSwLPRkRaIg/By9nG6wwMEZiUhrCwyNguGA+jPTnwVBvPgz15sFIfz6MF86HxXITrDI3houTAwL8fRBy9iyiQkLR29GJ+109uNV2GSd8A5TuQPIizeEYxZn0Lej9eQlufr8PP/3Rgoc/hOHKVzNx/7c38eUfr+CrP/+BR3/8Aw+f/Sfu/fZfuPHjP9D9/Svo+Po1tD8aj8qet1DduQodt4/hVMoSTJfrNUoorpsIjAwMhzV2wxl3Jq+EPo7wTGWSkYPSdq1uKJLy5ILR+8gJJCZkICkxE/EJ6ZTHuGbTFqxYYwXzlRZYtXoNTAxNwOELUMqvQ34BB4fdnBF5xBmsk15oCA/Ar9V5eJATj4xj+5B8dC/cHaywZuUqnDx3AVxeJdatsoSxnh4M5s+H2eKFWDp/HpbO14XJogWwNDfFquUm2GqzEacDAnDhfDBudlzBva4e3Gy/jNS4JKU7kLxlWFUl/3zjQdTcNMOdXxag+2sL/PR7GZ7+2Yreb1zQ9a027j97FQ+f/icePP0H7v/2D9z5+b9w7ck/0fX9a+j4agxa749DZfcb4LfPQu/jSCSXzIKe7Z6h5RkEjG6Vv6KFFQxLVjta+qbe95B7NnhAuZZn+cjtm6LfQy6rfxpS1peVrAH5pOPpOvv149l24dRfIj+dThHZprtJyvYrvuxpR7DUjYCSo6+N9DJD/7ZKy0rKpbxtUVm0TEPJ3u/7EQYBU1d/6E4xd1HarkcVjIGBYYiLS0N8fAZi49LhdfQkNtg6UF6jlY0drLbawcjQBJm5xeBzqxEdHo2DO7aiNuIESk4cRFfMWdxKCkJvbCAqzhxG9bkjuHDQGTY2NgiOTkExRwCHrQ4w0lsEA109GOrqwmDOHCosnTcPK4wMsXHjOjg42iMg4ATOnwvEtUuXcfdqN663XUIVh690Bw7n5wgMd3rg2pMFuPPLXFz/79l4+MQff/zPFTz7sxqdD4zR+Y0Wbv30T9z95V+48/M/cfPJP9D13b/Q/vgVNN19BQ29Y1He9ToKGj9Ez71AZJUvg4XbxgEgGmAoUsYt+T0Ni5ZKFiwp4w+GpQhSuWclFK4vTgRDqkwhVOnyBkBFBATp+IFwEa6JtvTc6wdWhWXrk0XUBrdguLHu4UuyfCABR1qOviUGstTAIkAWp6PTCNvEQu6TXyHZD4rKTvcJc5XQoVG6QRAbHQnQKVumXI8xPCwWcbEsxMelIzaWhUN+p7DRzhGb7Hdg83YXbN6+C8aGZoiOS0V5WT3ycopw1sMFDxJD8CQjHl+nReBO3Dl8GXMOP+cl4IeMKOSf8YbDVjtEJrLB5dXAcZsjNqxeg+UmpjDSm48lunOo61L9eVhuYgRn5104eMgLx44H4NyZ8+hu68DtKz241tqB5qp6pTtwOIq+8fAu3Hiii9s/fo5bP0xF12Nd/PwsC3/8dRU//p6NxpvTcOWrMbjx5F/o+e6fuPL1P9H26F9ovPsqBNdfgeCaFriXxyKndgJarnmgqGYz7HxN1ADGdrhJKS0FiL4NGtFmjoQ3R/rBkoKPOG9/qIgNQjpeGi5UOT18Icwk6qDyPRGXT/c9FT+EbCRt/3SizxLlC8sj8JMFRhGsZXjFxMOmZZEnO/09cxXrgSJ9MWP9EcyyO42Z6336+pjkm7HOG19sPYWZG3z7xcsrU1mIjUR6uWCMioxHTEwKBUcCRi//U1hv64BNDjtgs90FW3bsgamJOXx9A1BaXof8fD6Ou7vgYVIEnnIycTchFA+Sw/F1Uhh+yU/G06I0pPvuxTkfX8Sn5YJbUgnrDdZYYWaCZUsNsHypAQzJNFpfj1p7tLKyhNu+/fD29YeffwBOnjyLqxQYr6G7pQMdda2jCkabo47o/OZz9Hw3BTd+0EHXtxPR/dgCT/+qwbP/vYxHT86j9vp7aH/4Kprv/hMt9/+FpjuvoubaGJR3aoF/aSzyGrTArnoLZc2bwKndph4wDoCFF6ZTHiINpYGeE6WQVBpZUOlvDBSgJOogn8VwEYOJgoxUOllTc4VkI6Dv1wbZYBR6x3Q7xWmkZaYNUFHZ6fTDueq7s+Ge2Q33o2cGwsCdB9/M7gHB0b1/3/erX5E89lHYENQgUW4DHN1l1C91I+1Xj4rfEegtP1MOp/K/YHAoXdxmK2+YHedgJ/8ZdVWkrpEAnbJlygVjSGgkoqKSERPDQnQMC97+p7HOdhs2bHPEZsfdsNnhCvOVlrCxtkMJX4D8HC4CPPfhASsK99PCcT36PB6mxeB2Yih6YwLxU04ics74IOCoH1LT8sDOLMRqC0ssNzKgju4YzJ0DA925oqm0LlYvN4fngQM45O0L76PHcDzgDDpaL6O34xq6WzvQVDG6HqOFhyvaHsxA51cEiu+h67u30P7wHdz91h1P/2zBT08r0X5rK8o7x6Hm5iuouvYvVHa/Ct6l18Bp10JB4xiwBWORUPI68qvMUVRtiw37LcUKJE8hh5pKS8CoT+kkoSKaqso+/iMFxgFreKK1PIk6JOEiCaBRAaO0fD3tcJOebvfc67eu2NcnIi+UhvpgskvmUf7/M1hG4BTLg3vsIGCMZWOZ/RnoS4RB6yJgHDTPGWwg9QVFicsUwXRQ4MrTOyXiiYdofrIUzuV/wT7/e8xzDqP0mniQRj45cCr7E47FP2Ohe8KQ+q7xU+mTp4MQGZmIqKgUREYmw9v/FNZtscN6O+I1OmPzDhdYbdoK06XLkJaei/w8Hpwdd6I7NRxdMWfQHh6Ir/JZeMCORkuwD77Oi0foMX/sOXAEmTklCA2NgtHiJVhKdqQJEGfPpoK54RKsNjfDknnzsczIBLtd9sLLxx9+J07hUlMbei/3oKulAxWFpaPqMerZeaCqZwZa772PtgfauPTodbQ/HI+ansn48kkcfvxFgAdfJ6KkaTo4bVooaXsVJW2voKDhNeTUvQZ21atglWshrng82KVLkFO2FibO9kMqivQGgqTxSBq3ZHx/b0uOxyil+HRZ/dbwyHqf1KYM+UzBhQKu2FsbFTBSa6kSx5aoo0zidURaVnqKLH3WU1HZ+/WlVD8N+Z07ASIb+mu9sCxINhj1jzbANyhq6LGXqFuVPERWIoOydQ3ZRgm5qDoCeBT8dnB/w8K9cZhudZhqm9GRHOzgPaW8xaVemX3xg5Wv8ZsvHgd8EB6eQEExIiIJPv6nYbXFDuvs7GEtAuPm7bthamQO32NnwC+rQ8DZYMT7HcRXBUm4FHIS95MicTsyEF9lRKE5IQhHjp+G9/FAFBZXYZfTbhjo68PMwAAGc3UpKC6dPQeLdedST8aYLFmC9RarsdfNA4d8/HD0+Cm0Nbbi1uVuymNMjFJ+V3qwARnqO3IgO46nj+qeCai7+Qbqb41FzfXXUdb5Bqo7l+Pr/87Fo29yUH1pK7JqxyOv/jXk1r2GzKrXkF4xBqn8MUgsGYuInNeRxjVAfJ4lZlkr8MNbQ3mMCq7j0Z6SvHbSUJH+XjpeCBcWdQhdskyZYBxSNvH0V2a9fWuR8tL1X0uUlFXyf7psRWWn0w/3qjoYhd4f5SGKIKSJYCSeoolfIZwr/xcORT9i8b4kIfysvLHUOws7ec+oYOjFxnQrb4VuBBp/XGeLnRMuXoxDeHgiwsNFYLSxhZXtNmwkYHTcBbtd7thgvQ27PY4gt6gcyQlpOLrXCZVx5/F9EQvf5bLwEycDVzPDEXjYBQGBYYhPzkJ+fjk2rd+A5aamWLpoEQzm68Fg7jwYztXF0rnzsZTsUs+bj5VGxjjqdwwHfPzgcywAreQdj5d60NnUgQPuvqPqMRIjsfPbCE772+B3vAl+5zhwL41DUfN45NZ+gI6bfrj9MAUd1wOQUDwBrFItpPDGIKnkVSTxtBBfrIWIbC2EsN4Au9QcB4O2KqQoQ3qMT35FSyVfoV3pFhbZ+aU9LhaCyWeR4ckCCWmzdDwFF7IDLQEtkk42GBWQTTTVF8rmhelD7EqLYSXcgSfHlOid5/6y9ocm3RZq93wI2cV1DLLmJ+U1ycojD4xDe3EiMGbysExUz9B5ZMkqml7LWudUQH5ZbZKMI9NksnZIACiEn9BTXOSRhB0lv1FeJFlfpD1Iybzy/tf4A97zFpriwoUYXLwYj4sXE+DjfwZWNrZYZ2sPa3sylXaFtYML/M+Gwy8wGqdC41BaUonSpChEeLugLjESD0py0JEZj0Rfd0QfOwzfgHMUFFPSC7DSbCWWG5vClEyn55PjOnrU9Nl04RIYzl8Ak4WLsMJwKfz9j1NgPOIfgOaaRlyquYLyxB58NtN41MH4+Yb9iMibhvyG11HUMha59WORU/0G0sq0wa1bi66b4bh6MwTxuVMRWzQO0QVjEJX3KiJzXkNE9lhcTB+PCywdJHOssdBOAW+RKO9QHiOZXipwjpGUIz7HSNYO74HAiFbQ/lARG5l0PPVZAkZ0fplgVFg2Vn/Z1HWOcW3/ZQRFZafbNNzroGDst/nSAMejUdT0W16dFBiVzDOdWmMUw1Ve2crGz7A6DGO/Agp8O/m/g4CQLoMAkkypybqi0ZFcpaBIytD4RwLHv/sxAs+H4cKFWISGxgqn0jZkjXE7tjq7YY/3CRw6GYKwlFxcSMpFaCQbiaxcCHh8XMtLBT/qLLiRZ1Fw4Rhq484g5uh+JBBvsaACCcl5CD4fDk+3/bC22gjjRUtgqL8AhgsWYqn+AizVWwjjhUtgtsQAPj5+8PQ6Cm/fADRWNSA2NAb8qAaMmzBp1MFIBm65qz1SSt9GRtWbYJW/gdRSbcQUTEBK8Xy0XjmJS93nEJc3FxfYY3ExcyxC2VoISR+LkLTxCE1/FxfZuljmoiAUh7irS0OLVk5NuGqybKPVP/LASOqnNl3I+JLNF9EO9lBrgUrlsRfuiqu68TLP6SIsgusxd7v4eBPVb1beWHKARXmJZP3Q5GgBBT8CywV7Y6lNFgLFZQG8Acd2FOl3jX+JBNne3rlrH4KDoxASEgOfY2ew2X4X/M5cQERCJmLTChGelIPo9GJEpBSAXVyNkOhU5BfUopFfirvcbDypq8DNzDhcTr2A2LMBKC6pRTq7GMkpBUhNL0BmVjHS0/MRdjEGmzbawHCxATW1Nlq4GCZLjGCxwgL7PL0oMHr5HEdDZTVO+Z+GyUJzpaFI2qPIwCiSZuOhtYgrnoAkzgQkFL2DiOx3EJP9BWqavNDQfhQX06cjMHkcApPHUiEoVRsX03UQlz0bLqds1SaHJsNHk2VTZIzVkWYwMA4oXxXvTl4e+yg4yjsqNMTNlpaLbJzsqvhf2GV/jbmO5/t0lvIIyTS59I9+HuFCt3g4Fv9EHdcxP1WmtKdI6n1hXjumb2COc4EXcS4wAn6nQ3E+IgkJ6UVIyy5FRm45MvLKkZLFQ3ImDzkltcjMr0EMqxA5xTXgF5bigv8x7He0h621DTLZBcgvqAY7qwQZ6RxkZHKQkVGMjAwO2Oxi6tFDd7cDMDY0hImBAYwWG8LS0gpu+73g4eULL9/jqK2ohpfnfpiYWTxXMJJBtNpvjbDMjxGb/wHCsnUQlzcfVY2eqKzfg7Nx7+NMwnicT34LIWnvIiLrE8TmLsLuU3aYqcaX1WoyfDRZNtr4R/qqFBgpD68BG+zFyxhDyiczz/ChSOr9bJM/rCLasavq/7CZdRe6O0OxxDMF2zk/U9Nksukyy+4Mvth6ktqJ3pb3HbUJQ6A4c6NiB7ml2/fCvKh27AQdeBz0wRH/czgXloQ4ViFS2Fxk5lUgj1ONwpIa5BfXII9Ti6zCGuRy6pCcVQp2YS0KSlsQEhqPHY67kcrKQ15+JXJyy6g1xswsLrJy+MjO5iE9vQhsNgfJKXmIS8jE6TNBWL+WvK/REKuWmcPFzQP7vXzgdcQPgjIBtts5YKwKb/Ae997Uvrue9ICo+nmJgyv2BZkjMHkRckptUd2wH2n5ZghOmYywjKmIyvoC8XkLcCJmNVa4uoL8LoyqdcnKp8nw0WTZZPXlSMQpBUZ53t9gHt6APFFwFJ1lVEd7Prc5gfWxV7Fb8P9gm/21EIrlf8H8VClmrDuCjQnXYZv1GA6FP1BQXBVcB3J2UZW6X6ifNiDTz891DXDI/xxikvKQyCpCbmE1CopqUMipQUGxAIWcWhTzG1HMa0QRrxG5nHrkcVvAE3SCX9mB7EIBMvMrwM7iITOLj6LCKhQWVlIhJ4ePzMwSKqSyCpCQmIOkxBxERyZguYkx1ltYwsF+O7bZbceBA96oKq3Cp5/PV8lbfGvKApUGTJFB/mz9QSze5gWXgF04Gr4aAXErcSTcCk4ntsHUaR/zo1iDGfff+DvZYCRPp0gd7iZnH/tNfaV3pZXIE8QWH/BW9PD4IGPwqbU/NiRcozxH8lTLsuMlffAja5Bkur2r4n9gEVSr0poibV8v3I9hETh6eJ8CK4uPpNQi5ORXUWAk64Ul3DpweY3g8BrBLWsBr7wVvKrLKCxrh6ClF6WCKyguJdCsA5dfj6wsPvjcOvBKalFcJEBubikIHLOyuNS0Oj2tCGmsIrBSc+B/9AT27vWEy5598D7sB5fdbrgQEqESFMe8pYOJ89aMGBjpwWWuSkwDBzHGv0s/ygaj8MkYAsK+xwJjpR/dI2m6qSddyEHx6WsVyCPabOkrU7L8TCWn6FJjM8v2NFYGCqgzi5LPQROPcvnpciw7wQUBqKrj9kL+fCoBo860uZTHmMQqRn6hACXcBhRzasHjNqC8rBWlZS0oq2xDRU0HKuquokTQiar2e6houE7FlQkuoayiDQWFVagoa6LgWFxYhYKCChTkl1NTarLeyM4oRlpaAVisPCQlshERlQAf32NYbrYcq1Za4P3Jn6oERjKN/tjMWeWBU3XAmXwMKBkdGFoHtKcuUsmuCZtGKsh9Vlq6wjkLTBGflIvCIgGKiqpRwqkHt6QBpfxmVFS0o0rQgeq6q6htuYmattto6f4Kta13UN1wHYLaTpRVtoPDqUN5aSN4XKHHWJhfgbycUuRm85HF5iCTzaHWHNNY+chIy0dqSg51yDzgVBCmzNRVuRPemqKPaasPMmCU8gQYox3aaJk+Gtk+Ir/xLs0aTfisMBiJsOarbVBQJEBhcTU43AaU8BpRWt6KSsFlCGq7Ud9yGy0dD9Da+QgdPV+jqeM+aqtuejAAABHDSURBVNtuQ9DQgwpBB5W+vLQZfF49OMUCFBVUoiCvnAJjdiYXOVk8sDM4yGKXIDeHh7j4TIRFpsJ0peq/Ja2l/RF0Fm9hoMhAkdEBDdMBncU2GKOt8+KDkcBx7UYHFBYKwOU1gF/ahIrKNghqOlDXcA1NbbfR1vEAzZfuo/XyfepzY1svaht7IKjuoKbcleWtKOM3gMepQUlRNTiFAgqO+WTHOqcMudmlyM8tRX4OHzEx6TC3HN5vQEyYboCplvsZo9Awo2A8sZH1xDS9fwkUtSZM1kgoEs4p5THSLq7e4uXIyS5FKb8RlRWtEFS1o66uE01N19DafocCY2PbHbS09aK5sQf1dVdQXX0JZaWNKOU1oJxfj7KSWnAJGAuqwCmoRFFeOfJzSqmpdX4uH6zkLMzVNx1Wx73+70/x8TIXBooMFBkd0CAd0LQdaJprkleVwEgKmDxjHkIvJKCqshnVVe2oqelAY/1VNDb2oLHtHupabqOh6ToVV1dzGTWCdlSWN6OUV4+K0kbwOTXgkY2cgkpwCyrAySsDJ78cRfmlCDwThsnT5g4LimTD5SMjR0xbo96zg5p+J2bke7k9MU0ef7L7rIkbLZJApP9XGYykAC1tHRiZWSE5OQ/VgjY01nWgqf4qmlt6Udd4Aw0N3Wis70Rd9SUIKlpRUdYMPrceZdx68IprUJRfieL8CgqI3MIKREWmwMDIkiqXFlCV65uT5+FjUyfGS9AgL0GTDZaRbWRvJuTw9nuzV0Lrbc2dOktzZlhgpAsjT6JYWm1F4PkoVFe2oaX5Bpoar6G2+jLqay6jtqoNgooWVJULj+pU8BtQyiHri2RXmgd/v/MwX2mt0hMttAz0lQzAJyv2Mp4iA0XmxvicdYA8+0we8xv37ifDmv3Rtj2aV7WAUVLgN9/7BGYrrHH4yBmEhSWhIIcPXnE1qsobwS0WIINViJDgGHh6HIWR6Vq88d4UtXYac/cf2bs/079M/0rrAPEIyZu3yUtmyfsUyavDNOUtOZJsUuZ/tYNRmcqZtCN3QJXpW6ZvGR1QXQcYMI7g6XlGMVVXTKbvmL57njrAgJEBo1qXMp6nMjN1MzBVlw4wYGTAyICR0QFGB6R0gAGjVIeo647DlMN4L4wOvLg6wICRASPjLTA6wOiAlA4wYJTqEOYu/+Le5ZmxY8ZOXTrAgJEBI+MtMDrA6ICUDjBglOoQdd1xmHIY74XRgRdXBxgwKgBGrQkfYfzEqXjzg5l488NPof3RF5gwaRYmTJ7NBKYPGB1Qtw5MmkXZGLE1YnPE9ogNjuaNRu1gHPf+NEyxsMXCY2FYlliCtfwOWNf2YnPLQ+pKPpN48j1JR9KPZoMVrYu8IGP8+9Pw1kefM4qvbsVnymN0SgUdILZIbJLYpqJ2rGo6tYBR6+1JmLrRCUZhmdjYcAebWx8pHEh6ko/k15owacQbPGRHaX+I8ROnYcIkxhtkPGJGBzRSBybNpmx0jPbITdWHB0ZtHUxeYYOVOXXY1PJo2IGUQ8p7Xq87H/fuFGgzU2TGm1HBm9FIgPzN26E96QuMe/fjEXGmVAbjhM8WwjS+BNbNj9QeTOM5IOUP6d0psD6oaBnERWeUm/GQGB148XSAzPAUtXNF06kExg+N1mJteQ82Nj0csbC2vBukHkUbono6HWqBlzGIF88gmDFjxozWAbJJQ34/XnUO9J+WKw3GGbb7sL7uHjY0PBzxQOoh9amrsbLKIR1Kdy5zZQyN0YEXVweEcOwPOFk2r0icUmCcTqBY/3DUA6lXkcYom4aZPr+4RsAAjBk7WTqgrmm1wmD8wMgKVjV3sa7uwagHUu8HS9U7rSYbLbI6loljDI7RgRdbB9SxIaMQGCd8uhAW3G5Y1T54bsGC2wXtmQvU4zlqfwiyo8UYwIttAMz4MeMnSweIbQ/3KM/QYNTWgWFUMdbWPHjuwTCyWC1Heahzin/zowyyFIaJY0DysujAcKfUQ4JRZ9lmrBHc15igs2zTsLxGLe2PmMPbzE2BmS383XVg0uxhPSEzKBi13v4IJqnVWF11X2OCSUr1sJ6QYTZcGK/pZfGaXvZ2EltXdkOWTj8oGD9euwOWlfc0Lkxes13lBjPPPjNgfNmB8bK0/y2dz1XmxKBg1D+XDouKexoX9M+mqdRg8oYOzVYKb3Ce3UCoBQMvzR4nZnxelPFR9a08csE4duI0rOTehEX5PY0LK0puYOx7U5WGI3l9kaoDahJxA8+ux8JE1tqMZzmePXuGnohNKpcvlIsBo6rjw+RjYC1LB4jN09NjZa5ywahjvgWrSu+qHPbe+Qvkr6WzfxlB31LReHznscplE7l0ltko3eDhPOUiH4wEZs8YMMq6YTBxw7xRMrCTBTtl4lR9GkYuGGcfCMVK/l2Vw97bQjA2d0qU0flUSMVvvlW5XFomIp8ydwCSlrz4UplOlUwrD4xU/LNycHiMxyjZX8z/DNQ0QQfe0vlUaU4QVsgF48KQAqzg3VU57KHBeEVURv2PeExh8SnOD6NcWqYFwflKN5h687aKXoxMMFrEoufZM3A8Z8NVCozk8zOe9wAQy4y38Abn+g3K6yRTcmpafr0crgPWGjchlHeDqrMvHc9b9vRe1E6qPlGZdJ6+q4R8tPwmEeUS5d8Ax1PG8oBFLDjXhXJSZV0vH3RdVK4MovqVqdvEU7LuG+BILV9QdUm0izZO6Xi6Tvp76ipaEpEcNzqduvqFkmPAePTvZ2lZJ1B6Jl57pmUaSvZ+36uo9y96GapuwMgFo1FaC5Zz76gcXHtFHmMHKeNbNFNQ/AtZdaqXKSmPMatFaTAO5+cIBoJxE0IJHCgjFP4vucY4QLklQSVpuCK49kQQwInWGD03wZWsaQ7YiNmEUJKOBmZfXhnwkqrPxGITJIO0fNRnsk5KQEuVvwkmIlAQ8PcZSF+donQW8mSVyDNZVLcnuZHcQKin6LOkjIrU3SePqL19sojbL90uWm7pePJZcrwmTBaNIblBSYyPuvuFlkNyLAh0JceaTiOUXbhUIzkGispOt/2lvk6arTQnBvUYzfJ6YF5yR+XgIgHGwG+EM+jmDtXLk5bFNLdb6QYPR0GkwUh9flYOV8q4VQWjJFwJSPpvvlAGIm/DRxIqEoYs3cb+RiaGlXQ89bmvPVLp+mSQlldeOnF8P3kokIk9H/q74dTdfxyEnrsk2PrVIdFPpE5JMNLjS92QpNI9U2O/SPe7UD4Z407JMFCvSHpFZafb/rJfCeiUDXI9RrPiXizj3FE50GB8/KvQc8SvP8JlGOVJy0LkU7axw1EQ2nCEu9LCu7jYsAYqsGwDkDZcaW+gv4FMoDwkGr6yYUPJJWHI0m1UTA5puSTq6ieDtLzy0knEiwBOyTUYGGW1QZG6qTRi2CrTXvH4iftduj/lldd/bBTvF1nlCT1z8TjTaeirrDFVRHbpfKp8/sTEEdv8QrBtnbF41kCPqYkH9viFDAhWJnLGn+RTJI/uOpg4HpMo9xisTGTUT8sxxFVZTpD0csFokt0Ns6LbKofdt0RABPD4V6HH+PjWQ5XLk5bFOKvruYGRUtg+L4oogRwwDlhLEq3L0RAYAAqxgcoECZm2kjVGqfVIWR4SbQSDGZdkPnnpVAUAXX+/64D2Cg1IobqpvBLrmv36VgqM/b6TyEP3u5TXJVn/qIBRWj6p9WRKnutkLVncLsl+JN/TYBxMdsk8yv9vjHkETvs8sG3fIGDc54h5usb4RCIMWhcB46B5jGFC6nNcJy5TBNNBgSsPjuqeShskNcO08LbKYddNIRibbj6EaeE3aBKtMWYKVC9TUh4in7J3gkEHTF7HiuL7PEYpD0VYphwwUut1g63tSXsaUmCU4TERmEmepZQ2ZOk2ShqO5HfS8dKf+9LKkEFyvUt2Ojkew3DASC0zCDe6+uqUMWZ0O/qt4VE3FHo9WAxjCi6UTGJvTbo/6fIG1Kliv9Dl9ZOPWnsVt60vjZyzs+R7RWQfILOM/pKbxoQA0RGfTJ6NeY6ywfjJumPY47huoCc5SD2q5CEyEhmUrYvkU/vmy7yzeTAp6FU5ONNgbBOV0fab0G389Qc4D6NcWqZ5Z3NHH4y8curMIn23FiuVfDCK04gNUuypCfOJP/cHI2UgtGcqE8iDTIFFykkb2eByiMoZci1Nfn39ZJVnGIOBcci6B/axdJvIZ2XaSza8yAaa5HjKBOOQsg1RLz2GcuXr3zbJNkj+T7eXxCkiO51+uFfVwSj0/igPUaQTow9GNR/X+dQ9GMb5vSoHpxtCj7GxTVzGma+EbJSMU7WOT92CRx+M1BRI7F2IFa6/YpN4WQotM140Rey3Ky1rp7cvHb0jK5xWU8dlJKaIYplkgVjsyUnLR32mdoZjR2BXWlTvoGAkO+JD1E3dHIRQEHtc3sKdehVuBNSShAS0SN/JBqMCsvWNz+C79dL9TpZhyBojfexroI7I1i1FZJfWBVU/ywPj0F6cCIx+HpgnGp+h84h1VCyvaHota51T3k1YFK/2A97/NrGBUV6vyqEPjK0SZVT8gEcUG3/D6WGUTeQi8o36VFp0ZlE8YPQgylZesSdIp5MDTAXPMdIGJDyHeIPyGqiFe3WBkUzTFTrHSM5dSqzdDXGOsa+/BgOjwnVLnmMkMgj7ga5jIHiEfS8dT98IpJcFZIJRYdmG7he63r6zpNTNdohzjFLLCHQZQ8lO98lwr4OCsd/myzFYrVtHTb/l1UmBUck8wg0bMVzllS0rXu2PBJJnkQ3Y3Viac0ulsPO6yGNs6Z+fjseXX6tULpHHIKNLpWelZXWcRsXJAcdoyCgNjtGok67jedZNyyDvqsmyyZNZ3fHywEjqoTZdiHdGNl9EO9hDrQUqlUdXuCuu0sbL5NlQ+0skiDc262gKlmbf0rgwyzdFaW+RtEfdCqP28hgwatwYMWCUv/kiU/+pHWQlvTt5eXTXwUreUaEhptBENlU3Xggr5B7XIV9+sMIRhlm3NC58sNyBAaMCiiFTceXke54AeJ51D9VHmizbULKr6/vBPMYBdVAe3jGY6IqXjwakkdZBmXmGB0VS54i9qJa8wXteaBkMMm9qTJgXWq7SG7y1tHU0zhsZoDCMx6hxY8SA8Xl4jOtgJTrLOMBGpKEq7/NI/rQB8RonGlpjCfumxoSJhhtV8hbHvfOxxhmdyoMuTxmYeGaMR0AHZHuM5OkUqcPd5Oxjv6mv9K60EnkcHcUHvBU9PC7R9hH/Mawx2jqYdTwHi9NvPPdA5CDyEGArG8a/P50xGgnFYaCsxFTvJe832WAUPhlDQNj3WOA+6Uf3SJoQ6kkXclB8wmQF8og2W/rKlCzfT7Ep+uj8fCp5j+E0fejHtmNR2o3nFvRj2/DGNH2lgUgASqbRb+l8xoDxJTdw5mbwctwMxr37sUqckHS2Bt18kUz4jv5qLEjpwULWjVEPpF5Sv6Q8yvw/9p2PoT3p5VAKxviZcX6ZdWC4U2iaKwqDkWT4cLUrFqReH/VA6qUFVuU6nJ80eJmVjGk7A9kXSQdUfcpFFlOUAiMp4IPVrtBL6oZ+yvURD6SeDyxdhgXFce9OgfakWcw0mplGMzrwN9YBIRRV239QCxhJIW/rWUI3og16SddHLOhGtuJtPdWnz0ROcuqdHPJ8ke56jKyMl8bogHI6oK7psyQglfYY6cxvTNXDp77ZmJ94Te1hpm8WSPl0XapcyYYL+fErxltUTskYo2T660XRAbL7rI6NFll8URmMVGHaOnhn8QZ8fpqPeQnXhh1IOaQ8VY/k0A0c985kZhf6bzxtelEMl5FzhG4yk2aD8hK1lT+2RzNiqOvwwCg6T6g1YRLeM7XHVM9EzIm+At34awoHkp7kI/lJOUMJPNT3r0+cBvJrgIynOEJKyQCXWZp5TjpAlsXIY35kNjgUB4b7vVrAKCmE1ruf4J0lmzB5eyCme2fii/O1mB3ejrmxXdSVfCbx5HuSjqSXzD/c/5m7NANERgdecB2YJHwBBPlNaLKpQl4dpupbclTlidrBqKogTL6RmxYwfcv0LaMDyukAA0YVHi9klEw5JWP6i+mvF00H/j+432AukFnWUAAAAABJRU5ErkJggg==;" vertex="1" parent="1">
          <mxGeometry x="150" y="720" width="169.79" height="50" as="geometry" />
        </mxCell>
        <mxCell id="Jlm6lItwhGJ9jv6W5DHI-34" value="" style="endArrow=classic;html=1;rounded=0;exitX=0.003;exitY=0.489;exitDx=0;exitDy=0;exitPerimeter=0;entryX=0.5;entryY=0;entryDx=0;entryDy=0;" edge="1" parent="1" source="Jlm6lItwhGJ9jv6W5DHI-14" target="Jlm6lItwhGJ9jv6W5DHI-31">
          <mxGeometry width="50" height="50" relative="1" as="geometry">
            <mxPoint x="310" y="600" as="sourcePoint" />
            <mxPoint x="360" y="550" as="targetPoint" />
            <Array as="points">
              <mxPoint x="270" y="540" />
            </Array>
          </mxGeometry>
        </mxCell>
        <mxCell id="Jlm6lItwhGJ9jv6W5DHI-35" value="" style="shape=image;verticalLabelPosition=bottom;labelBackgroundColor=default;verticalAlign=top;aspect=fixed;imageAspect=0;image=data:image/png,iVBORw0KGgoAAAANSUhEUgAAAeEAAAJ4CAYAAABSy1sYAAAgAElEQVR4Aey9iXsWRbo3/P4F48yZd4RzRuc9IqjjNioKiAsghE0IyqJGZA3KvgYUw46oiAJBCEvYCZCwh4Q8CUlI2IIsiltMZnDcZnvPnOOsZ/Kd73zvd32/76rqru7q6up++lnSeZLnznXl6qe7qu+6665f3b+6q6q7/8cPbr4N9E82IAwQBggDhAHCQPgY+B9k9PCNTjYnmxMGCAOEAcIAwwCRMM0E0EwIYYAwQBggDLQSBoiEW8nwNAqmUTBhgDBAGCAMEAn7kPA//a/78NMHB+K2J17E7X0n4s5BM3D3sPm4Z/hC+icbpC0GWB9gfYH1CdY3WB/5p5/dS5GUjy8hsiWy9cJA0kj45lvvwpDBo7DiteXY8/52VBeV4OKJCnxwqgo1R07i8I79WL9qLeZPz0G/vkPwk1vuTMlO+6Of3oVbHxmKOwZOTVsnS4MMGmTFgwHWZ1jfYX3Iy+HQdSIjwoATAwmR8I/++XaMHD4a29ZuwvXqc2iou4TPay+hobYeDWcu4LOac/ik+iw+qqzFpbJKnD9ehnPHSnD2yDFUHCjC24uXYcjg4fhhx9tbvdPe9M9dcMvDQynSpQiXBl8JYoBFyrc8PASsT5HDdTpcsgfZQ8VA3CR8z8NPYuum7fik9iJ+eeEyms5/gMZzl9B47gP88twVNNVdwhe1F/F5zXl8XFmLK6eqcLGkFBdPlOD80WM4e+QoaosP4czBIuxdn4fevQbgpg6dWqXTdrj7Cdw1dC453wSdbzzRE93TfqPuu4bOQYefP9EqfVp1dHRO5JeqGIiZhP/l9vswfOwUzFr0BkqPRvDJmYv41cUr+OUF9n8Zv7pwFV9e+BC/Pn8NTXUf8Ij406qzuFpehUulZbhUchIXTxxHUf5G1B45hLriIpwrOojKffuwbvkbuPPuh8LrtB064daHhxD5EvkSBloQA2yG6QetNMBOVcdLetGgQGAgJhK+/d5ueGnaPEx+dQlm565C6bEIPq2tx436D/n/l5eu49f1n+DX9Z/iqwsf46uzl9FYex6fV5/Fh5FqXCo9hSslJTi4MQ/TJo3BO8tfQ+HmtTh/8ACq9+/FyZ1bcfCNmejzWLcWJ+KbOnZBpydHk/NtQedLUW77jXJjbVvW11ifE46HjkRChAEDA4FJ+BeP9saEGXMwae5CTHl1CeYsfhMnj5Xj09qL+PLSNXx5ySDiry99iq8vNeDb+s/w7fkr+OW5C/i46gzKi4pRe/wYLpeewOKZUzC4fy8sypmOukMHcKFoP84c2Id9a1chsiEHV7bMwJTsF1quw3bohE5PvkQETARMGAgRA4yIKSIm8iXydWIgEAn/okcvjJs2A9mz5uDleQsx9dXFmLN4FSfhT86cw5f1Vw0irr+GX9dfx9eXPsNv6j/Ftxev4sPKSpw6eABLX5uPaRPGomT3dowcmoERz/RH+d6duHDoEM4X70fdwf04tnkttr4+AcVvvYLytyfjuSEDW4SIaQqaIrRYIznKnxzM8KlpepSnRfwakZuT3NqKPaKS8J2/eBRjJk/F+BkzkD17DqbkvIbpry3G3EWrUHo8gk9qzuPLi1fx6/oP8etLH+HGxSt8jfirC1dx43w9ju/bjX3bt2LWtMmYNmUipmWPwfCnn8Kr0yfgzMG9uHj4EC4cPojaokJU7tuFQ++/g/yls7F7VQ6qdr2PJx7vm1TAsk1Y5FCT41DJjmTHeDBAm7XaJlm0FVJra3r6kvDtdz+MaXMX4KXJUzFm+gxMmDUbr8xbgGkLlyJn8ZsoPVKGj89csKLgG/VX8asLH6Dp/EV8XH0GR7YXoLa8DO+/9y6mvzwR4158Di89/wxeGTsCy+dPw6HN63HhSDEuHi7i0XBkz05U7d+D2oN7+X/N/j0o3bUN9z7waFKImD0ywXZsxuM46B4iHMJAcjDA+iA9vkRE3NbIsqX09SRh9rjQkmXvYO7rizkJj502AxNmzsbLcxaYG7NW4viRMpw/fRafXbyKX9ZfxQ22O/r8JXxRdxHXqmtQvHsnXsoagbffXIE5MyfjhZHD8OLITIx4ug9mZ2fh8OY8HgUzEj5XtB+n9uxA+Z6dKN+zHZHd21GxZzsn5ZIDB5Py+BKbCovHkd797GsQ/+z+jPG5eGikfU2kqUeWp//4RbxMOS0eHeie5BAA2TE17MieI24pp0ZyieDbEgY8SfiJPk9jX+EhzHt9iUHCU6dj4szZmDRnAV5ZsBgzc5dj/ftbUFZZh/KKWpyrPodrtRfwWV0936z1wekzOLxvL2ZMn4pVb72FY8dLUH7qFMZmjcKwAb0xa0IWdq99E2ePHMCFw0WoPVCIk7sKULKT/W9Dyc6tOLlzGyL7duG3n3+KzMznEuq0P/rpz+N6EccDz8zGgIxh6N9nIPr1ykDvJ/ohb8s+9Hy0D57o0Rt9nuiLPo/35cfejz8F9t+rZx88+WgfZPQbgnc3FODB+7vh8e5P4skevfDIw4/j3sFT4hoMEIGkBoFQOyTeDuyFHvRmLSLLtkSWLaWrloTZm7DWrstHYWEx5i9aipdemYKxU6djwoxZmDRnPqbMfx3TF7yOoZkjsfdIKY6cOoPSSB1OnarB6fIaVJVXo6biDE4cPYZdu3aj4nQtIqfPoqz0FJ4dMgAvZA7CrImj8caCWdi5djXOFRfhzMH9OLp9K47u2IYj27fg6PYtOLZ9K0r37MRvPv8Mtaci+FECb9Zir9OLx3l2zZyK9WMnoGzqNJROmYrCiZOwfMoMLMocipLJU/g1dl3+Pzl5Ck688grWvfQiXp04HjtGv4SSVyajZPJk5GT0x8/7jolLl3j0p3sSJwyyYcvY8Fb2/DBt0iIbpDkGtCScMWg4Du4/YpBw7nKMnjQZY6ZMw8QZs5A9JweTcxZixqu5GDr0GSxa+hZOlNeioqYeh4+dQvGREpw7/wHOnbuEM2fOobLqDM6eqUd5RQ1WLVuOEUMHY/igDAwfmIFRTw/AmiULUVu8nz8nfLhgM4q2bcbBrfk4uHUzirdtwdFd2/Hd55/jtw0NeOH5sXEDNt53QT80ZAo2jBmHqmnTUDV1ChYNHIx7/rUTnn3gFzg9ZQqqp061/qvMc3Y8PXkqhtxzL37R6XasHDQEpydPQeWUqVjQtx/u7JVFJBziozFEoi1DoonatcvAqXH3ZyJviqLbCwa0JPza6ytwYP9h7NtbhNeWrMDol1/BS5OnYPz0WZg0MwdT5r6OGQuX4s21eThWUo5DJ8owbfYcPJ0xAEOe6odRQ4che9x4LMpdhKPHT6Cm6hzKK2uQNWIEBvR6Av0ffwz9HnsUA3s/htdnTcbpwr182nnjmjewef0a7NqUhz2bNqJw8yYUb9+Kbz79FL9paMDO/G1xdVr2NaR4HcbDw6Yi76WxqJ46DaenTcPu8RPw9H0PYOWzz/Lz04yEp8hEPBVVU6aicsoUrBg6FEPvvw+F48dzwq6YMsUg4d5EwvG2B92XmoQab7vQ15eITNsLmcZbDxcJ/89b7sTuXQewv/AQ9u45iFcXL8OLk17Giy9PxtipbIf0PEyetxBzFq1E8fEISsqrMX/Ba3hmUAbGj3waU7KGYfaYZ7Fi+kvY8+Y8vDV/MjZt3IRIZQ2yx45Bv56PIuPxnuj7WA9k9HoUY55/FvOnv4Jxzz+LYUMzMPbFEdiw5k1sXf8edmxYj32b8/H1J5/waPjz+sv4ya2xf6GFfWotXifBSHjD6LE8Er721mp8lL8FZ3OX4NLSlfhow/u4uGKFQcKMiDkZT0ftzNmonT0X1bNmo3rOXNTMmo0zc+fizLy50Un4nWv43fd/d/43fI2jhYUYRtFj3O0Yb/vTfS1L+qxvxuu86D4i8PaAARcJsw1ZhXuLULivGLt37eeR8AsTszF60ssYM+kVjJs8FROnTMe6jQU4VXEWRQePYfiwp7FszngcfedV3Ch6H5/teBN/PLUb3x3bhrNbVmFCVia25heg5EQpXhj+LAb0eQL9ez3OibgvI+QneqJvr0fRt09PZA7qhxlTJ2L1yqXIX/sudm58H199/DG+/bQBN65+hCFDRsXcadk3T+N1poKEa6ZOwyfr1uPTvXtxbvlyXH7zbVzfuR2X3n7bJuGpU1E3dx7OLViAc6++irp5Oaidl4Mzc+bi3IJXcf6117DgqX640y8S5iR8DbNnr8Mw83924TVcZsRcUxh3PeKtP93XsiSU7vZlfbM9OFKqAw0I4sWAi4Rfnjwbe/cUYe+eYuzadQALl72BUWPGY/CwZ9F/4CD0HzAA/Xr3xc69RYhUnMPRklJMG/cCDr/3Ouq2voXPdq7FX04X42+nD6HhYD4u7liDhVNG4+ne/bBr935s2pSPPo/1QN+e3dHn0R7o82h39O3ZA/0e74HMwRkYOqgfpk+eiFXLF2P9O+9gy/o83Lj+Cb75rAG/uvoR3liyKuZOyz4+Hq+zYyS8/qWxuLR8JT7evBUfbt2GD9auxfUN7+Pa5k24+t57qJk5E1Xm2nDt3Hk4O/9VnF/wKs7Mm2dEwHPmoi4nByzNIOEXvPURJKxGvV7X1Xx07m1bsk3K2aZz34kx9+d4nR3dR0SZihhwkXDuojewa+dB7N5VjB07D/BI+Nmsl/D0syMwaEgmhj7zLDL6ZKCsohaVFedx/EQZXp89BZsXTUHhmwtxcdMq/L3uGL49sgMHV8zFnqWzMGfiCDw7ZCjeXLMB5ZEajBw6DP0efRS9e/TAgCcfx1M9uuOpHt2Q8cRjGDaoP4YOzsCY0c/j7VWrsOG9dfjl9Y/x9WcN+OW1j7Bv++6YO+2dg2bE7Xw4CY8Zw6Pfa+vWITJrBi6/9y4urVmD0zk5uLZhA+rffAuVbM146jTUzmFkOx+1c+bhzKxZfN2Ybchim7jYOvF8vjErDhKeXYHL33+NdbNFZLYO62q+NiJkc/r6co1mynp2BY42SNPbDbaM2TXSdXUKXIq6Wb7LheucNhTT5lI+PtDxKe+e4dF15jqpMocvhHo9Fp2GvSPbgE3tK3Uhcna2bYj2uHPQ9Jj7cyo6UtKJCD5eDLhI+N13N2L79v3YseMgCrYfwMKlb+K5sRN5NDxi9DiMGDMOfftkoPhoKSrK67B101a8+vIYnMt/A6feeBWfbXsHv9q9FjcK3kX16tdRt2YRNrw6BaNHj8a6rXtRWlaLiWMmou+jT6B3t0fRp1s39H74Yf7/VPfueLpvHzz//EhMzJ6AVavewHtr3sUXH36Erz79HI1XP8SZsoqYOy17JjGRSPjg2jx8WXkaX56uxI3TEXxZWcnPb7BjxWncqIyA/b5Rwa6za5W4EanAjQrzP1KBX0UiuFFegXdyFgSbjlYdoSsSXod1bJ1YkDInaYUsxTVGzmJ6+x2bqAWxWWli+puRs0SEbsJbh3UNf8flhq8d+e6JUh4n4Sg6C53U9lKvB9bJHCwcfcckXqEjEXHcfUJtm0TOWd+M13nRfUR87QEDLhLetLEA2wsKsWP7ARQUFOK1ZW/h+XHZyJrwMl6cNB0vTpqKfn0GYOv2fag6fQHHjpzEO/Om49td6/H9wR34w/58/Hr7Gvxu2xr89dhO/OngFhxfnYuJY8Zh864ilEfOInt8Np575lkMzuiPvo/2QK9uD/PjUz27Y3BGX0yZMhWvvrYQK1auwprV7+Hzq9fx5ccN+OLKdXxw5kLMnTYRJ9F12FSUlZbi73/7m+v/b3/9K7779lt8/x//gX/73/8b337zLT9nx2+++QbffvMN/vynP+Evf/4z///rX/6CzZs3444ga8IWCa/DsHeMNWFXNGrlMaJjHVHJZKraQc0v0tXrKuENK/wav2uowGx2VMhaPhfy/I66snQydPlke+h1MgYLqjye9/trmK3Yz09PShMzMPbx3lGL8NC4t3HfqMUOQr93ZC4eHPMW7ntuieO6lw3bgyOlOtCAIF4MuEh4y+Yd2LZtLydiRsILl7+FUWMnImviyxg9aTpeenkm+mcMwpIlq1BZdR7Hj1dg5Zzp+G53Pv5RVoyvdubh2z2b8IfdG/G343vwj5P7cWDJLKxZvAQ79h9F+akavPDcC3h6QAYGPtUbg5/qjT5sKrrno3yteMSIYZg9dz5ylyzHsuWr8Oab7+BTTsJf4PPL13H9/JXQSbiUkfDf/+74//bbb7FmzRoe4Z89exa7d+/GK6+8Yv1PnDgR48aNw5dffonvv/8ef/7zn/Gf//mf2LRpUwASVqeJv4YVyfkQBycXixQLcfT7v+PoO7bTVJ2gSmwiXb3Ozm3CY3KNKe1YyxPy5aNThnvaWeRNqk48Oran5UUZiRx7zinCnOLPMWfpag3xrMbApRd5+pLiz7Gk+CLmrN2Cnj5tec+cCIy8LL/9nz3H3Z4950Qwp8A/TyJ1093LCHbw6ipMrvpv9H7tgF3nEbkYsLIMr1Q086PuXvVavM6L7iPiaw8YcJHw+rzN2LJlD7ZtK8TWbYXIXf42Ro4dj+fGZ+PF7GkY/fIMDBoyDKNfGIdTFbU4fqQcq3Lm4tvCLfhm/yY0bn0P3+3fhi935eHGtnfxlyO7cGT1Yqxaugz79h9DUXEJnskchsF9e/PHlXo/8jB6d3vEnI7uhmcGD0LOggV4LXcJcpeuwMpVq3H9yke4cf0LfH7lOi5Vhx8JqyT83XffYebMmcjPz8f48eNRW1uLP/3pT/j3f/93/PGPf8S//du/Ye/evZg3bx5+//vf4z/+4z/w17/+FX/729+wevXqACRs745WHZZ1PnsdZrM1YTYlLK/ntjAJy2ToJNDopH9PVJ1NEpbrI/+26mbkEwMDT53MqWeHfSx5ySLh1Ri49iKWFBhEqCPhnksvYklxBAMnmAQ6YQuyGbGu3WKTl0rIjIQLijBwwmr0lP6t9jfzD1xrkPpzc1b7k7oqP4FzFvkOerMSU6r+GxOO/zu6T9nI68Ei476Lj2Dy6f8b2aV/xeNzdnrXzyyfpqOJSNsDkSZSBxcJv/n2WmzevAtbtuzF5s17kLv8LYx8aRxGjWPR8BS8+PJ0jMgag/5PDcT+A0dx/FgEU7Jfwef7NuGzbatxbdO7+P3xQnxbtBWX1y3GH47tQN6K5Zi5YBGKj5xCXt4W9H2yF55iO6MZ+Xbtyv8H9emFZwYNQK/uPTCwbwamTZ+FhYuXY9kbb+HDS1dx46MGfHb5OqpLKls9EmZR8Pnz53mEO2bMGFRXV3OSZUT7l7/8hRPv2LFjwcibETOLhBkRf/3113j55ZeDkbCvkzQIj02zys8Ox0qKMnnJzl29zs454XFSs6dxYysviM52JBx4nTohndxRpWyHQL95FFrECZARopuEV+O5Avd1TswFxn26cni6H0kzfPBo+SKeE+Tui5kk1NWUP3BVhBPty+X/icdnbcc9I17nZNt30RG8HPkHj4KfWlhsXdfVT1yjjVlEwokQWHu410XC8xYsxqZNOzkB5+fvxuLlb2PES+MwctwEvGCS8IuTpqF/30FYsmI1Kk6fx6p31mHHslfx+xO78eH6N/HN7s34cvO7+P3BLfhg51osWvk2cle+i5LSM5g6eRp69+yJAb17o/cj3TgBP9X1YTzZ7RH+Rq2MXr0wKvMZzJo9D68tXoalK9/C1for+NVHn/NIeNeW2HdHiw4fz5GtCcuRMItm2T+bnmbk+vzzz+P06dOchBkBs4h4+/btnGx/85vf8Onojz/+mBP1xo0bMWrUqMRJ2GM61Ume+vVQ2QbO/LaTVq8bJFxobMaSNjQ5SThKeYF0tklY1pP9TkQnETGrMpN9rifhheDRqkKoTpI1iJpHvibROdPttpF11smV05P9m0XAGctKMKXm/2DiyT/jybm7DaIdkYuncg/hlUgz/++zsAj3jMiNGgUz/egRJSLh9kCkidTBRcIvjZuM99/fjk2bdmHTJpOER4/FiLHj8Twj4eypGDd1Dp57YTymzVuEoyersGfnfiydNRk129/Dv58sxB+PFuIvZQfxafEmvPv6dKx6dyN27DmE48erkDXqOQzu3x9PPfEEevd4FL0f6Y4+j3TDU4/0wFNst3T3HhjStx+WLluBBYuXYfGKVbjCvlH8YQM+uXQdC+YsafVIWKwPM8IdPnw4IpEIj4DZ+VdffcWvlZWV4cqVK9i1axdmz57Np6/XrVuH+fPnJ07C6g5fc5qXT7tKU7b3mDuDL/MdyebLP96pwGxzR7VKbMJpq9c5CbNp74YKn8h7IXzLC6izWnaL6DS70NhZnuTI0YuE75lgrhfzdWBjfZitC9sRrEnCbMpaRJtsmlkhbmEL46iPsJ159OQdbx421czWehnZGkRrRMBPzNuNl0/9J4+O2XqwiIyDlEMv6yASToTA2sO9LhLu/nh/bNiwDe+/vwPvv78Ti5evxojRYzFy7AS8MIFNR8/ACxOnY/k7m7Ds3a14K287Kk/VoHL3FuTnTsf5XZvx7akjuF68A7uWzMHWFa9jyao1nID3HjiBIQOGYHC//ujPpqR7sEeUHuVT0P0f74U+PR5DxuNP4Ok+T2H58pWchBctX4UPztbjw7Mfo2pXA35xX79QSfihzCk4efKkY1MWI2EWDbNIODMzE6dOneIbr9jUM4t2J02ahC+++AJ5eXmYOnUqXxvesmULLl26hPXr1ydOwsMXWjumjfXOr8GJlpGuTMLMofs8txsL4bFy1E1ezkjYdPg+5Yld3n46h6LT94a9gpBELHk8SZi1g0nEfJNVgU22XvJ5lCttyGKknb1U3sxlrCtnz1mN59iatJl3zlrvKW6vsqJdv3fE6+i37AQn2Vcq/i8w0hX3MDJm09JsHbjvoqMxETCTQa+tJBJuD0SaSB1cJPzjn96Bd9/biA0bCpCXV2BMR49ma8KTMGbKbMzMfQOvvbkeG/cexYbdR5G3uQi7Co+iNlKBL47tQ8WWd1C++R2c2LAC57avxral87GTRcEnqrFzzzGse28TcmbPxwsjnke/J3qhT8/H0Oexx/FUz8fw1KOPo9/jvTCgV28sXrwMOQuXInfJKtSfuYiCvG2o2HIRP+rYuVVIWExBiyiYnbN13iFDhvDpakbIbM2XkXJ5eTnfmDV58mS8/vrr/PdHH32EP/zhD9EfUUpydCacJR2TGxXq7OlJwiISZiQ6YYtJmnIkrNeNb8jiBL4aYve1FR0LUi+IgG3KMvRhm8Q+5xu6fHdeazDWffL7yFx3AY9MUl5kMiIXvRYU8uiXrfdmLD3BiZYR82OzCvgGLEbAbJ1YfVRJZyP1Gn3AgUg4EQJrD/e6SJhV6pWpc7Fu3RasX78Ni1esxosTpmLZ6g3I31mMgv0l2LT7CLYeKEX+3hMoKq3D+q37cPzEOdRXVOKr8sP4/nw1flm8HR/t24CCd1ah9NQ5HCgqxZ69J7DvwAkUHyrFgQPHsfH9bch6fjT6PNmbT0/3ffxJZPTqi8ynMzE3ZyEn4YWLV+JiTR3eWv42Mh4fFDMBs/qoHT+WcxEJM9JV/xkJP/3002BTz2xTFptunjZtGurr6/n084oVK3D06FE0NDTwHdNsujrqc8IaBxmLvpRXT2hh2EVPwkbEqm7Y4mu+0vRzIP34RiwRRYtIWKkvJ+foBK+WxzZVTa3+Pxh3+A94JPs9q8/wSJdNNVf+lyPSfXz2DmSX/oU/ojTordMxR8CsfPqUIRFweyDRROugJeGevQdhzbvvY827+Vj2dh7ey9+NnQdOYv/hShw8WoWDx6qw91AEe4ojOHLqHIqPn8W2whIcKT2LipJKbFi+AvOzJ2DsC6NRXHQCx0/UoejQKRw8UIaDxWU4eLAUBw+WoaiolL8ec87sBejXpw8yevdG3yf7YNiwEZg9fyHmLVyChUtW4lx1HRbmzEfGgMzQSfgXQ17ByZKTLgJmpMue/WXrvuwxJBYhs981NTVYtWoV3nvvPVSyt2d9+SXfIc0ImG3cYtPSd/SO/4MSqvOkc4WEWnEQoyVhT1JkJBojWTpkeZDwcK/r/nb6RdZyjMi/hqln/l+8WPgVur2Sh145ezGp7K98qpltyHpo3Go8OOZNviN6/LE/8g1ajIDvez7YSzlUrN768NC4+nOiTo/uJ/JPJQxoSfiHHTth3quLsWj5GqzZuBvbC0uwt6gcxceqcaysDiWnzuJ46VkcKzuHQyVncbTsPPYcqkRRyTmcqLyM9Xk78HL2NOwrPIZjx2tw5OhpviZcfKgch45U4PDhCA4cOImiojLs2XsM23cW4+3VazFqOPvecB8MHTgI02fPw/yFi7Fw0TLUnq7FpHET8cOOt8fcaX90y8+tUb3qBIKcPzh0Mk6eLMHf/uqOhP/xj3/gv/7rv9Dc3Izf/e53fAd0QUEBj36vX7+O3/72t3zKWhCwIOE7n3opIZ2C6E15/EmnJewTEwk7CDWgro5I2Nh1rUbYxtpzjORuDlweGP0GRhV8imm1/x/GHv6DQcBV/41Bb1Xi3pGL8PzORow99FtMLPkTJ+Ch686DPRscjy3Z88E/+mnsnyVNJedJuhCZJwMDWhJmgh/o1huvLV+DbbuPYVfhSRwtqcOJk2dRUnYWJ0prUVJ2DqUV9SiN1ONkpB5Hyy7gWPllRGo/QUXNdRwuqUXx8WoUHYqg+FAFTpacQUlJDf8/cqQCxcWn+P++whPYuesIdu86gq2bd2JwRj+MyhyGiRMmYfy4SViwIBdnKs/g/gd6xEzArB433/lYXE5COJYHh85Av6eHY8Cw5zBg6EgMeHoEBgwZgYwhI/m1jKEj0WfQM+jRewAe7TMQT2QM4ed9nx4O9p8x+Fn+z2Sw84cf64u7B01JSCehGx0DkldI0bGWhIdLjx+J53nZujB7w5X1nLC6O5qtGysv6mDPI6tv5OJE/jmyl4oXemxBNpPru6va32b3v7Acz+38gkfE7G1YA1eesoiWrRmzKeup1f8PMteei2sNWGD2loeHxNWfk1Q9bi8AACAASURBVOH0SAaRZyphwJOEmZLzct9C4aEK7N53EkeOn+EkzNZ3T5WfR3mkHmWRepSfvoxI1RVEznyEktPXUHv5BiprP0ZpJSPo8yivuIBDhypQUX4ekVPnUHqyFkePVoIR8aFD5Xxq+sD+k9hfeBKF+45g+dI3MGtWDqbPnIvc15dh+rTZ2LA+P84O2wm3dn+WCC8kEhIONl2PehJmpGe+VUva7ex8baW6ocrIz0hX7HpeUnARbCe0y7YTigzitXZHyzuo/QnXJcvEyUNj38aQd2v5M8HyZisWKQ9+uwoD3ygHI2uv+6Ndv2voHNz0z13i7NNEIKlEIKRL4nj0JeFOdz/CI+HdhaU4XlKLU+UXUVp2DpHyi6g6fQWVpy/jdM1VVJ+9jurzn+JU7Sc4c+1rVF9s5NdO136I09VXcaLkDKpPX+JEXFpyBidOVOPE8So+Lc3Wh4sOlmL//hMoLDyG3buKkL9lJxYvWYHBAwZj6JBM/KzL/XF1WDYVfccAijqjOUVKj4+syG7x2a3Dz5+Iqz+Tw0/c4ZMNU8+GviTMGuzhx/pjx+6jKDlZi5Mn63Cq7ALKT11EZcUHqK6+hjO111F3/lOcu/xLnL36JS5//nucu/Jr1F1sRO25T3C65hrKys6jqrIekXIjEi45Xo1jRypx9HAFDhWVobiojK8R7y88joP7j2Pf3iP8hSGr3lqLO+/rFneHvfnOnrj7mVfjHrGTk43PyZLdyG5eGLiFNmPF7c+IQFOPQJPRJlFJmBUy6JnROHGyFiWldSgrv4hTkXpUVl1BTe1HqD33OS5c/hKXr3+LK5/8Btcb/oBL17/BuatfovZiA6prr/P8VZUfoCJyAWWltTh5ogYnjlVxEj5cXI4jhyIoOliGQ0WncPRIBNt3FGPj5n3oP+S5uAF7U4fb0elJ2gDl5QzpOhFl2Bjo9ORo/KBDp7j7dDIcHslon0TWlts1EAmzCg5/fiJKSmpRHrmIispLqK65itqz13H+4he4dPVLXL3+LT748Btc+egbfl5/9QbO1Tegtu46n7auqbqC0xUXESk7i1Mn61BWUsuJ+DjbOX3kNI4ersTxo5U4fqQC27YdwKBhLybUWTve0xs/HzafomBaDyYMpAAGGAHf1JHWgdsyWZDuLTOACUzCrAEefXIwjhyuRGVFPWqqr6D2zDWcP/8JLl36Aleu/ZqTcP3VX+Py1Rv4oL4BF85/jLq6D3G6sh6VkYuoqriA06fOoZyR8IkzKDtRg5PHqnD8SCWfnj5+tAKFew7hkZ79EyLgf/pf9+OOgdPJ+aaA8w072qLyUi/Cp53QLeO8iRTbh11jImHW6F3u7Y68DTtxpuYD1J25hrNnr6P+wqeor29A/dWvcf7yl7h4qZFfO3/2I5ytvYaaqg9QGbmA6sp6VJSdRYRt8jpRg/IT1Sg7dhplx6tw8ngl3l29EV3ufiQhAmabsW7vm427n32NSJhImDDQihhgu6BpE1b7IAoi/JZrx5hJmDXGTR06oe+AEdiz5xjqaq+i/vx1XLrwKT64fAPn65tw8eLnqL/wCc7XfYja6iuoPv0BKsov4HT5BURKz+Lk8RqUHq/m5FteUo0tm/eid99hXG4ijf2TLt1xR//J5Hhb0fFSJJp6kWjYbcJexHFL1yH0GNLNLee4E/GTdG9qtUtcJCwakb3BatiIMXj3vS2oq7mKyx804VL9FzhX9xEunP0I585cRW31ZZypMh5Pqq64iMoyth7MdkdHsHzZexg05IW43oQldBBH1unvenoWRcBEwDQIayUMsHdBs1dR0puwUsvJCx9Jx9Rsl4RIWG7Un9xyFwY8/QJeX7QaGzfuxokjFYiU1uFMVT3KS2txsLAE69dtQ868pejbfzj+5y13JjTtLJfNfoc92qfyKOJLVwywSPfOQdPRue9EsO8Bs88R0teQUtPBq36SzlOvnZJGwtS4qde41CbUJoQBwgBhILUxQCRM6zZJnZGgDp/aHZ7ah9qHMJBaGCASJhImEiYMEAYIA4SBVsIAkXArGZ5Go6k1GqX2oPYgDBAGWgMDRMJEwjQCJgwQBggDhIFWwgCRcCsZvjVGXFQmjfQJA4QBwkBqYYBImEiYRsCEAcIAYYAw0EoYIBJuJcPTaDS1RqPUHtQehAHCQGtggEiYSJhGwIQBwgBhgDDQShggEvYx/E0db8ePb/05fvKv9+Ent92PDrc/iI6dH0LHLl3pn2xAGCAMEAbCxEDnh7gPZr6Y+WTmm5mPbo3oNZllEgkrJMw+TvHjn92Nm29/gDpYmB2MyiK8EQYIA3FggPlq5rOZ704mOYYli0hYkHCH2/DjW+9Gx84U5VKkTxggDBAG2hwGOnflPvwHHdrW2jaR8M234Uc/vRMdaJqZRuFxjMLbnKOiOhLO2zkGOnR+ED/66R1tJipOexJm0xjkSGnUTxggDBAG2hcG2MxmWFPKiZSTxiTciS/uU8drXx2P2pPakzBAGBAYYBu4fnBzaq8Vpy0Js8YRDUVH6rSEAcIAYaB9YsAg4tRdJ05LEqYp6PbZ2ciJUrsSBggDOgyk8tR02pEw24SlayS6Rp2XMEAYIAy0Xwyk6mat9CLhDreB7ZyjjtZ+Oxq1LbUtYYAwoMMA8/2p+PhSWpEwfw64nW/P14GPrpFTIgwQBggD5nPE4t0QKXJMGxK+qcPt9CIOGoDQLAhhgDCQzhjo3DXl3qyVNiRMm7EoEqBIgDBAGCAMMC5I5LneZN+bNiRM74KmzkcOmDBAGCAM3NzpASLhZI8kosljX9qgzkedjzBAGCAMEAYYBlLp60tpEQmzT17F1/lyUdbcjObmKsxQ11FyqtDc3IyG/Kw4ZVNniK9NyG5kN8IAYSAxDDBOiBa8hZWeFiQc/9uxiISpsyfW2cl+ZD/CQOphIJXeopUeJHzb/XFGq0TC5EBSz4FQm1CbEAYSw8DNne6nSDisUJ+V0+H2eF/QEZyEZ0TYtLXHfyTXGgRk5BSgrFHK11iFvJwgU9pCF+ne5maU5TjBGFi+OZ3u0lnoKtLFOZuON6/JZYp6i2vGeRPyMiW9MgvQwGzTWIAMaVo/sK7SPaI8l97MjlKZWj0kOR2FTnL9eHoAO2fmIi/SZNTJbPOGSK6jbkH17BhFlqccVq6pe9S6SvVmNm9w4K8JeQJDmQo2BZ5dNpLaVpJNxEB2aSsYSKXNWWkRCXeM+1vBwiFHXxPOyMzFjBz2LxwZc27mtUyTZAWxNTehLFLF/zk5acjUDWZTl8YCo5z8Jk76gvx4/hjkZ/D7m1CWb+qYX2WQiuRwjTzSurdCwq70Ll2hJQRBeDIJx6CrbAsh39Kb2VjoLq3di3wyMctyopKwn515fZjtWFuI9pbsJNkhmp6GHt6yguAqal0FUWptbg6YRBs1S7gVdpUw4bChkEtHa5BN9mkjA5HOXSkSDjMSjr9jZCGPRw1KZMecjunQ3BuzxD0qcYvriizh/GSC0jk1M59VnkKIHbvEJl+QsEVSQg/F4TocvFxmkPyiHiKvVcfYdJXbz6GPkC+RnqiPVz5LltBJqa8gZ287a5yMkGXVz2MwotHT0kfURSPLyCNspuLKuyynbHG/gj9Rrg7PQhfVRuIeOhL5tmEMhMlBfmWlRyScAFAMZ86mgEX0qkxDunZHC2enOEvh0CRH7XSuHs5R6C4TILumnsco36iXpKO43+VwpfpYZdpRuTy9zOqjJT8hW9RdPRd19BpIWOlCfjMazJkEPqNgDpTKpLbQ6iHJEWQrpnQtwrLqaJKtei7LsH677SFwE01Pq1wfWU6cSG1m3hO1riyfp83NeurSxTUXJjQDEUt/SnO3KdkkFW3iR4xhphEJR3UeWZgRMaZ+jXXIJjRECvgUKDu3IiZLjkRa1jXJCWocWhAn6sqjkoOPw3TdK8hOkCLT0+d+a9q50bBDg3l0TIWbdTXKcq5bW+u3ojyfsty6Oh2YJb+xCUwP/s/XLtmUrr22buUT65rs2Cjl8dDBVb5qZ24r95owr6OonzUYMcr001O3JqzKCkbCbps3yOvkHvWVnaMT55I8DWbl++i3E6Nkj7ZhjzCJ1q8sImGZKGP5bTrnmElYctRGZxWk7RcJuyOtxCJhU57sXL2ctLjO9LYIyVtnQWLatVBRd1mmw+becoVjE/LFtLPzur1RTeSz9bDXbvngQegg26BLADuLPGxmJD8XGZlZYOu2/HlyUT+LhN1taugl9DTviyLLiRPvSNiuq7xObuog6ivpKGwnHy27yWvtDhu1DQcr14l+U5vpMOBHjGGmEQk7SCAGsMZKwiL6ZBtfpF28VgTq5xx1ZVmEKHT2IDCd89XJE/kcDleQhOn4HWUqaaYdhRP3r2MMuirto5XfpStEtC6ic20+ud66+srpolxHne1lAMc0tpAltaG2fFVPU3Y0WYYDETbzJmGHzdWypMGDms9yUKo+ol4OTAi80dGym8AKHdvUGnmYROtXFpFwvB1H57C5LG9nKaJXe33Z3JHsszs6gz02IqZbxW5rHqWYU8Nsd3Pg3ddZyIuIMj0GA5bDFfWQ8qmEJJx0NPLR5IvHFszpCXLzjfq0+UQkrESGZn0D21nURewiZjuIzel5+RGsQHoGlBWUhPU2sUlbDFQc+GtUo3I7vzVAtDBBxEvE234w4EeMYaYRCYdJwqws9VnMKM8JG85cWp+T1zjFb9lJ+soX0au0NirqLwhBkJL5CJRjul0lYSnaEvkE+TiiLSFbImvuzHx11Xd2L3uw9c8Z0gyDNh9bExbPZAudzPpq8wv7iqNlGzGQYWu+xvPJ/H6pfl7yVD0zxGNArAwPWcFI2I0RtSwmhy0pOJ8TNvQXBC3aUbQPf4ROxpfACx3bVNRnYEjfp9I1LUyi9SuLSDjFnYnhzKXoxKGvSarkJBN2iGRnctDpSkbpWm8/YgwzjUjYQWqp54iIHMJpE7JzOHZOV4dP9U49fIVJtH5lEQkTCSccRbYHB0MknHpOsj3giuqQurjyI8Yw04iEU5yEqROnbiemtqG2IQy0XQyESbR+ZREJEwlTJEwYIAwQBtIOA37EGGYakTB1vrTrfBS9tN3ohdqO2i5ZGAiTaP3KIhImEiYSJgwQBggDaYcBP2IMM41ImDpf2nW+ZI2kSQ5FZYSBtouBMInWrywiYSJhImHCAGGAMJB2GPAjxjDTiISp86Vd52vJ6IU/6kQvTyFMkV9JeQyESbR+ZREJU2dJ+c7SkqTpJZu9TlL+NKJXPvW6SsLxylHl0nnbnfaktkvNtvMjxjDTiISJhImENRhQyTSoI1XvU8+DyqF8qem4qV3aT7uESbR+ZREJaxwwdbT209HCbksiXcJO2Jij8uLDnB8xhplGJByFhLlTFV/RsY7S13jEZ/N81gH1jll8KtD++o3jCzbs+8ORJvCv2JjlNkRykaHom5EjPtHH5Di/jqTXvRnq92vLGm0dmhvtTxfyL+5YdbbzOPV0dgDPMpkc1Ua6ryhJX0KynIsrn60jzyO+gyvrqpTlZyerHMm2apuxc1Zvp02c9mZydPfJ9Q4qh8lKVGfjU4S2rVTdRL211102N762JO6x6irbXP6t2F/79TClrV168C9d2frLZdNvZ78je8RujzCJ1q8sImHJ8eqALBxDRmYWrP/8Kk544nN9Io/ufnZNn26QsPEReuO3k9yykJefiwzhqMxP7znyWJ8WzDKmlF15TJ1zCtDAv39rnos6i/yM3EX9ckyiN9PYuqiVlpnF6+LQQcgyj6Ku8j3st7hu2UiULerI8vDPJypOV+TT6SjKZnZoLODfVdaWFdVO7g6s6svPm5vRECng9ujYxSZkow0NGdr7JEIKKkd8b1n99GIQ2xs2Nr6w5aebaAtVZ/Ed4YYobSPuS1ZbC3le+gt96ejGK9kkdpv4EWOYaUTCwpF7HJ2OQTQ0c3A2WejziLxeJCzL0JGwfb/oYM5yzEhacvAsn/FdWOXTh5zIbH318pTyOHEpcswBRXAisGUG0Z3pxfOp3+VV6ij0F0deZylPkLK0dpIw4JRh6tWst4ca6UY9jyonhrbV6qzHk1onYT/ndX3ZsbRN4vL0+gt96Wj3K7JF/LYIk2j9yiISlpyYDtBOh2I0OJuSbJYcqS6PLEubzolROPVgTsdJNu5Ih5fJdVMIV0vCHvdb9jDSjWjIjoZZXRInYZ+yHbb1yWfp6R7kOO3tIUNnp8Ay7Y7vLCuaLu50gROnnMR0dsry1jWmspltHG2TYF185HnpL/Slo92mZIv4beFHjGGmEQlLjlcHaO4Q5LUu9ruxCjPENLGI3nzy6JwKJ1Qr4tOQMJ/CbUJDYxOaZdki4jOnaR1pVr5kkHBXuNbxTPmpRcJu2znsHYudJCw4ZIg2FraPIV9cchLRuZHtI1Da39SX62JhxF7j5xiy6uYxAGAywiBhH/11/ZOuxU9C6W67MInWrywiYcmh6kApnKhj3YuvsTZDrLfp8vBrJsmKdFu+ShzqueEI2bSmvBErUCSsq09ckbDRueV6MP3ZeWqRsJs0nPZ2p9vt4O3AnDKCRn3ufPHJSUxn5wDPrqPQxYFl13q9T9lhkDDDPNsbYA1Qbf2DtBvlIXsFxYAfMYaZRiSsIy3pmnBczoZ1kqY2j+SwXOkuUnTKMyIOdzTjlKPcI+ns1NWIaN3RkXG/vH4Z5D6mQ+Ik7CYrUTavo+WAg+oopvUNBxS3nSQbOmVE0deKIt354pMTQ9t66KyWy+yru6a77pvPapuWleelg8AJHYlsE8VAmETrVxaRsOTEdI3qdgbuXbGuPCK60EbCpoOVd/tm5iKvkZGbc2eyRXbm1LRz2lBMD5r3id3NTJaQI+rmIn2zA/OBgnJ/DttlzNL1BMjqaukl5EtHly3MNNd1c8o12g5csUvYsTYt6eiSqyMbXT11dvKph64chhf1eqznAnPqfdp6x6Szm8hdZSTYNi0rz62/sBUdiYCTgQE/YgwzjUhYcry6huWOxrWOpnlOWM0jrRvLzkovT1qfM6Mq9XlUTkKMTKSoi+urPs/Z3MTJ3FEXLxJmdVfvN58T5lOCmrVFpn9SSJiXnQvnM8ruZ1G1deQ6moMEZmelDWV7W3ZQ66mzkyRHlaGeC7nq9VjPveRo6x2jzh27OKeWVd38y47eNi0vz6m/0JeORMLJwECYROtXFpGw5HiT0bDRZDDH5UVizjVf6mjRbEnphBHCAGEgXgz4EWOYaUTCRML07uiQMRCv06D7iHAIA8nDQJhE61cWkXDIDpgi4eR1InJIZEvCAGEgXgz4EWOYaUTCIZNwvICh+8jZEAYIA4SB5GEgTKL1K4tImEiYpqMJA4QBwkDaYcCPGMNMIxKmzpd2nY+iieRFE2RLsmVbxUCYROtXFpEwkTCRMGGAMEAYSDsM+BFjmGlEwtT50q7ztdWRO+lNUSdhIHkYCJNo/coiEiYSJhImDBAGCANphwE/YgwzjUiYOl/adT6KJpIXTZAtyZZtFQNhEq1fWUTCUUjYeH2j9FpJ9nrKxiaU5WcReUWxXVvtnKQ3EQthoP1jwI8Yw0wjEo5CJOKzajOsDyRkISO/Cg3N3q+fpA7c/jswtTG1MWGgbWMgTKL1K4tIOCAJy9/1ZZ2Pv7xe+qwbdci23SGp/aj9CAPphQE/YgwzjUg4ERKWvmjk9UUZ0bH16eaXgKQvMDk/7pCFvEgTj7r5ZwxZ9M0+gajonJFTIH2NyDlVzsuV5As5xteYxJeIClxfIhJ6G8fE9PTXgXX8YPV06uR0GPoy3F+7YvYVMxmGLZx5RBl+NmV5jPLc33zm91ufTrSXLJxfxbKXN5zt7ayT0MVxNGVb7cjaVsIhz6t+MarR/XUqrr98n+tLW9HbxCWD49LAilwvlk8+l20k656YjdzlCruJ2SzWb4QuQTDg/sKYhx1d/cuNqUB4ktvD7OOqjdVzUUe/I79H1dEsK7o9gtvVgUm5PKleWl1EXjWfdK7WLx47qDLCJFq/soiEFUJTG0ruwFaa+S3cshzbaUYDhT7dALghRwf2LOPbwPz7vsZnB13T4KZTLssxHb71nV5BAFnIYFPpOQVoYJ8mzDHPJYfZ3Oz+HKBVVylf/Hr66WCSMPsGsl89o7STsC+vq1g6yK9Cs/Q5Rp5HDGTMbyYzx8+ch9yW4lu+3jYVJKwhQIugJeIReGEDAKGb+c1pFzlFqSfXrZF989mQJepttZfV/qY9WTn5TQ47sLzO+3SfDIyOPacM0RfcOGb5nPU08zQ22QOIZNiIt6WKZac+XOcgGIjRjnK7MoKXcRcYTxrSUW2snlvt7oMbcY9DRzN/IHsEtavjG+l6fGp1Ed9fl+ov8nnVL1q6133ydT9iDDONSNgHvKzBvDZm5UkEzPJFA4U+nTk/EU05nYUMFvm3U45xjxxN2Dorzog7FVGWcJhBj4nqaZYTgw7OekbXU59f1lsQp2IX0XbW0kIwm7LyGiJsb4Aij9exCmUy8WidmKGPk5yi15Pj0dNZ6XW38GnVUcZrMNxZMjzLFrq75XFbSRsZxcCWDw6EvKTYSDOYUDDHcaK2WUAMWDbQ2lHUnx1l3OnbxPArNnb0+JXbyZDvlY/p5vXvd08wewS0q2hLSRe1bPVc6KxeV89FPnGMli7y+R3DJFq/soiEJcDoGsxyGFIEY0SVztF9NFBo002HbXyU3u28PPWxwK7pHKw+3KEphKs4I51sz2sJ62k6iBh0UMnGUzez/XT2NaLc6I7OsJfIF8ymrLyG/FzkNTqjaKG3kS5mIwyZLL8cjTjzeDtRue5qPZ3nHrpbmBB1tJ27835/HUTdhD76e904ZvnswQbT0cCmU15ybKTq5CzDrreog3V0DAJit6Mlhw3cg8hS+qiqt5CnXlfPRT6/o989nmmOOrjtFtSuqnz1XOitXlfPRT5xjJYu8vkd/YgxzDQi4YAkrK7DOh23CVKxtiGOjVWYYU6x6kDDgWyNqt3OqyOfpmlCA5u2EzLZUZAwJzV7fdGRx4qwYydAFbgJ6yls7EXC0eop7vc5cvvKNmK/JfuzOunagNdVdjgBbcpkcWJh9yptyKa2rXShs7pOa+pqk5M/ARpt4saIs04xkkcj22+gDNYsfbMwg+1H8MKepz31Oop6yvqqjty1BhuPjeS25BGpc5Akl+/AeZT7rLyOfNH7PasTW0Jy9k1xbtue6+WVT/R3YXM1XyNbZvLGj2edhTxJvlc9nf7OjTOvMtTr6rkoT73Oz1319PenQlbQY5hE61cWkbBwOh5HJwFJQOedUelEypoIB5LpoFWQ8c1IjXKEoDovA+iMcOUBgNNxuTuDJwC9CNCj3rYcVS/1PIiefgOBGO730VXYV440xYyFWO8Veey6mXo5HGswmzJZBrGw/CYOmBypvQXxiPJ4+RZha4jap36GDLduzjq500XZTidqD0j0+Dbk+GPPlmGVwfVX8SHVk2PQjsadWDbaInEbGeXzNne0qyQ/KunEYUfNTJmBOx9ZUnuLdnTg12etVM5nrPnbdnW2h1c7xWIPljc+u4p6CZ3Uc6/rIp+jnhE2sC7g/lCki/vjOfoRY5hpRMJSR9A1pN5JibViG/haUEhOwJXuIkXFefF7bZIXujnlKPf41cVVntEJhVzPo+s+pcxAeppluWR5TJ37jdA96ui0i6ibU1eeJ+B6oEqgqn2YLJFH/BZHllf+ze/V1N2Vx6NuVtlcho05UY41M+JjN1aWcGDqfTxNJqaAbeq6j+vvtLkoS0zdC5ux6y4SToaNJLk6/fi1qBjwJi5+vzKQku3P6iUIy6ir2x5GHoFR46jTVdhOlq/Np7GbXIb2HhNrPC2APZg80V46ebprgfXX4FYrz8+fRus7mvQwidavLCJhTePIABYkLHaj8pFZjvGyDt/OIUax2pGb2TEdkbOxvsjXDZlOvGPZjl5MTfNpLZfDZPnk9cZcY1e1XDdtRzX08N4dnUQ9rTopA4uA9eSdUnJ+chvpOjtzhOKRF0ckzHfGFpg7sY08zKYiD5fLO7u/TZk+FqGwOihTu450M4qQ8SJ0tmQIR+RZRzY9LC1FmG3rumbZM5bd0QpRWDLEjntjalrFnihbjlYyMhUciwEJm9ZW6iacutGWJhZlbIt7pU1dvExFjnG/RGpcfzaVrrSrsHEQDFg2iMWOBgGruDNmIaLjScWHwIh8XdjcqjPzM3z3u3NwZqWLOit2FelcXhB7SP3X066aMlR91XOHHtL9rny+/lRqe9nnRfntR4xhphEJR2ko7ijUtYlm9iyuc5pYgNmx9iOtScqg0uaVyzDBKDqzIbPJIFpGEBJYOYhd641GXgFwkce9/mc6dg+n1hJ6unUwNrLY62a6ehpTejJhOeomHI1sQ/7b+bymaIO4nhFtdtqUybL1cROInG5gSBl8uAjGr46mfIYnBa+iTg57ZOZKz40ba+N54vEv8373fc5p0yDY4zJcNhfrnfaAQeRzDHSkyIrpnriNnI7YKNPbXsEwENCOLhs4cSf6X1mjZBsNnlz9WuBa6u/ClqqfUdtXxgO/R5KhSwtkD6GPV+SsKUMtWz0XuqjX+blqVw9/KmTEegyTaP3KIhJWnFqsDRlPfgYw24E7nYczOnCmxVNWIvekjJ5mZOPnaILUU+3oQe4JLU+S6hiavlH6TYvgOAYbebW11/VUsVvYesRqj1jzh12fWMrzI8Yw04iEoziTWBo1aF4GZCLhGAYYuug/jnZLaQeSpDoGxWBL52sREg5sIxbVu2ceWJ1TGgNxYDrRdozNHt52TVSP1rg/TKL1K4tIuJWATyQcAwknqY1iczjh69cajqilymwREg6EgwBLLJpp05ayQ6rLDd4n/O2a6vXU6edHjGGmEQkH6tjkkHUgbmvXgjscau+21rZiRzJfK/XY48DqRBhwYju6Pcz9CGx91seubQ8vXREm0fqVRSRMJOz5uru22LFI/42UlAAAIABJREFUZ6eTJXuQPQgDegz4EWOYaUTCRMJEwoQBwgBhIO0wECbR+pVFJEydL+06H0UG+siA7EJ2SScM+BFjmGlEwkTCRMKEAcIAYSDtMBAm0fqVRSRMnS/tOl86jfaprhTdEgb0GPAjxjDTiISJhImECQOEAcJA2mEgTKL1K4tIOFrnYy8IUF+fZp57PeubqiNP9jhCg/SMJH+Ws509dpCqtie99NEI2YXs0loY8CPGMNOIhAORMPuOZZbjg+z8pfXR7k21dPUd041VSPRVkK3Vgahcct6EAcJAIhgIk2j9yiISjkaUPBJ2vwg+kcane8l5EAYIA4SB1sWAHzGGmUYknEwS1k1dS9O/fDpY+iwb74TiHpFP85J611tteB75M21ZyIs0wf4SkTHtnCHVLVDZHm8UcpWvyRdUPqtzRk6B9JUf9kUq85N5kr6Wg+JfBGpyLAk0RIwPe1t52KcCA9Q/yFdqnF8Psr96I5YeuC10yxNm+wW1Q7RyrDdANRa4vpxk17t1nRjpQfZvyxgIk2j9yiIS1jl++VoskTDLy5ymOXWtkpfbQRuvhGPfonUQhFKmU47uk3dZxveDxefqTJIWxME6StCynWUZTibItaDyxbdVy3LEt2oL+OBB1tXZsdn3Uo1vJbPr4nu1zlfoBau/w8ZmGzvqJgY3+c6lB2fdzLQcpncT8nLMc0mesy6aNg5YTh7/9B3NwjjxQMRH9kgOBvyIMcw0ImGZcHW/RaQqRz+N7u8Jc4JgH9cWEW2AaFFsjOIf5Zbus2SZm6ZsojDf46rk1XVK+x6bSGVy8CpbvY/JDnKN5YkuX68/10XzjVJdvfg1ZZCiy6fqrJ6LexzXPeSqdeP3ciJ1f6lHzau1cyzl6DBJ19JuJ6/AKx2TQ8DMjmESrV9ZRMLRHJpwmNLGrBn5VcbUr0KGDoeuIS+ng7Y/C8YdtSKLgUTIcxwD7mZWZQYtW5Qld/Yg14LJN6J49ePuRnTsJjRZB+t3Zi54hKixl5VHfCReyqOrA8vvvC5mGYzIm2++yzS+HiMPMHg5gUjYq41jKCcaPimdCJkwEBcG/IgxzDQi4WgAFiSs5nNdN6cdpfVNp4N3TgnLaSphWmRiOvoGNi3ZyNZ8m+AiMKYXJ4om8GltOWJXSEgQiV/ZcprQI8g1lieqfHMaVv/Ilx8JmxG0eDQskgt5vTto/fXlNjtmLzqqO8hFmVK7BiVh2W6uNg5ajoo7Oo/L4Qos0zF5kWRbt2WYROtXFpFwNKfmIlsTxK5IyB3lyU6YAdYiKn6vvdbnctBcJxEtmd/xZMTDprtd07ZGPjYNLhOTKjNo2arOQm95ml13LZh8t41i7cgsOp0Rke0QvP7cRtKMhiFLIWERHUszDlbdZKy42l+Z9g/QxtzW0cqRy6TfRMCEgaRhwI8Yw0wjEo4Gai8SVq8rTtebqIzpVBE1snwqYVo7Y81IViZG1XF7TeXK9whdGvKjl63eJ+4NRsLR5LtnC5j82P8Z8ZqRM28HdxSt1kM9F2W6rmvIleWR24vfq8nHrht5o9mBzV6YG7vEZjrrXp+d4nHZKh770j0CH3Rsv1gIk2j9yiISjubYBNnKEVSOuiZsR6typ1UdPHfQbCe0FP2w/CoJ8/ukPE45yuYm7swlkrAiRWeEF1PZLKqW6ivK110T9Q0qX+yOZgMCW16usbtb0xbscSZjB7LpDKz6mTMJMdRfHUgw3UXdjHootjX14XWLZTo6ahsHKcfM45r5aL9OUWCJjtTGYWDAjxjDTCMS1jh+BwA4CdvPixrrivLuaNNZNtrTy+J+p4M3HX6z/Hyv0dlkEua/FceryunYxZiCFdGZ85nTJnCCY3ora8JMd3VNWS6b6c3LkteV/X7HIZ/bxrUeaugs7OY4skeB+KM6dhs0MFtLEWTg+kv6ijJk2xq210fVwtbiPl0ky9KE/fzsHKwcc2AnDcassqNhltLjmF0h4ks3fIVJtH5lEQmTwyKHRRggDBAG0g4DfsQYZhqRMHW+tOt86Tbip/pSlEsYcGMgTKL1K4tImEiYSJgwQBggDKQdBvyIMcw0ImHqfGnX+SgqcEcFZBOySbphIEyi9SuLSJhImEiYMEAYIAykHQb8iDHMNCJh6nxp1/nSbcRP9aUolzDgxkCYROtXFpEwkTCRMGGAMEAYSDsM+BFjmGlEwtT50q7zUVTgjgrIJmSTdMNAmETrVxaRMJEwkTBhgDBAGEg7DPgRY5hpRMLU+dKu86XbiJ/qS1EuYcCNgTCJ1q8sImEiYSJhwgBhgDCQdhjwI8Yw04iEqfOlXeejqMAdFZBNyCbphoEwidavLCJhImEiYcIAYYAwkHYY8CPGMNOIhKnzpV3nS7cRP9WXolzCgBsDYRKtX1lEwkTCRMKEAcIAYSDtMOBHjGGmEQlT50u7zkdRgTsqIJuQTdINA2ESrV9ZRMJEwkTChAHCAGEg7TDgR4xhphEJU+dLu86XbiN+qi9FuYQBNwbCJFq/soiEiYSJhAkDhAHCQNphwI8Yw0wjEqbOl3adj6ICd1RANiGbpBsGwiRav7KIhImEiYQJA4QBwkDaYcCPGMNMIxKmzpd2nS/dRvxUX4pyCQNuDIRJtH5lEQkTCRMJEwYIA4SBtMOAHzGGmUYkTJ0v7TofRQXuqIBsQjZJNwyESbR+ZREJEwkTCRMGCAOEgbTDgB8xhplGJEydL+06X7qN+Km+FOUSBtwYCJNo/coiEiYSJhImDBAGCANphwE/YgwzjUiYOl/adT6KCtxRAdmEbJJuGAiTaP3KIhImEiYSJgwQBggDaYcBP2IMM41ImDpf2nW+dBvxU30pyiUMuDEQJtH6lUUkTCRMJEwYIAwQBtIOA37EGGYakTB1vrTrfBQVuKMCsgnZJN0wECbR+pVFJByAhDNyqtDQ3Ixm/t+EspwshbiyMCNfytNYhTxXHqWTZ+YiL9JkymSydXKNe3j5jaL8ZpTlKLI0dcjIKeA6N+SrurJ749C3S1dEt0OwPNrOnpmLskbZHs1oYHbMjF5XrTyNTdpMPrKF0r9CxkAMfbPNYKot94cW0t2PGMNMIxKO1sA5VRZBZmRmWUQkE+GMCCPIKsxg6R55nJ01C3mNzWiI5Br5zXsYycty2T2G7CZO6hnRdOXpWZjByL2xCg2sDA0Jx65vV3QMYIdAeTR1yMg3yLchUmDbkDtCZtOQHbBGP2fbtaw+ZIuWtW/0tgzeN6PLau26UPl+bRQm0fqVRSTs63SNDtkcyXWMzLmjbCyAQYq5KNOQpzNPsM7AyVEuyyS+mKJBFrWbujF5bhKOR98gdgiSR2OHTL+IXZPft73aeH6yhaOf+TnQsNNcfbM94zBN6uZHjGGmEQn7Ak5PWEbEV4UZ7F7uOJvc06b8upnHtwybONSOrp7H6ni0JBxIX5NQGwuMOnYJYIdAeey6irrwOloDGne6I5+1JGBPzfMlAnng0iWLT/PbywfmjIPUBsIuGfISgrIcwPXSlWeVFawcxwDOy/ambkFtwW2SWYAyaYmCzXyogzUuz9LXA6sB5PDy+IDQ2+6usiR7O9pQ1keut3SdyXINHkX5Sj4/+waVI/TzOwapn9/9lObdt1vLNmESrV9ZRMIaZ2GBwstpytfl37Isr+tyHsdvg/hs56Oexw5irRPy0stx3SRhNsXOdHSkSXrI1+Xfcr28rvM8wesonCCf7hfT/pls6r0ZDkfMSDifTfObevLynU6d39MslgNYPmOZwbkcIJYWWKRuLgewcq26BSzHIg2PgYwsz2P5wMKjyGvVyawnswOf0ncOBp220ZQfUA4vn5EgG5SZtnfKNpdNrLpKGBE6i6UVTR6dLLsfGO3Dl2/YngHpfud97vqx9CByXPaVdDbSguM0uiy9bei+8O3iR4xhphEJuzqcBAYvAnFcNwmLOyjj3gwrunA6Rd+Oxkf6cuQsnIoRcRmbwhhxiGlwSU+POridELsnDn0d9ZXKla/Lv2V9vK7zPEYdnY5Ski/JcTpcO4/XddnWah5+LgYYahlqVO6rv60HK09bDieNIE48qC3M9pPISNSVly/pb+ujKz+4HCafL69IZdqyDRuo50In+eiVR73OzmVMiKUdPtDQ6qCrn9EeQeTIOmp/u/qms92190i4ovTUtFeYROtXFpGwX2fxcsCu606iZFODM/ju5IAkzOUpm7LMa3ya0dppbUZ+kqP16+CqM7Pzxqivq75mp5Kvy79lm3pd53mCEo+b4ERdVAcursvHaARi5dU5W1/9nc7Fq5wgOnY0p/Nl0rD0ku3pNe3P8ij6i3LF0SlPDPKcdeB5FDnsmioj2rmzLKMM9R6RR73Ozm07MD2NfhSrfYPKEXpoj7z9lb7paA+N/dIg/a6MbIxfth7jR/bTrOP3Q/eRK3j6zGXrMXPZCozPHom7/OySMQ9GXpbf/h+R4bbvXRnzMH6ufx5tWyrl+xFjmGlEwkrDOBrPywF7XZdlaRyZQ7bIyx5HYVOjrl3MHk4ySNmmbKcTcoPZoY+fvl5lytfl36Ju7Oh1nefRRzAOvaS6yFORIo/qwDvyKeomNCiPO8n3uu4R+ups4KV/0HIam4zpbDE9LspyHYPawgMXTJ6iP6+nZ/nB5YjZExmjqg35ubqG3sim8W3cafOIe5QIV5Qll6MlYc/6OSNhPzkCS66jZ9+06+S6x9Wu7S1vP3TPXoGZcw0i1JHwXSNXYOayeejezax7t5EYwYg1e6SGsM08jITnZqN7t364S/pX7ds92yD1jIx+/qQerR06d0WYROtXFpGwb2N5OCrF2alAYefcYUSNWA35wuE45XiU7RcJKXVhjkcv2+0Y/PX10MVhhyB53OVy5xjVTu5ITNhKdq4immSEa6/dRp9KFbJUEuPXtSRs1DVoOf62tW0SzBYedmZt72gP22b68oPLEXaVH59z2l0qS16v5+vU9hKLuCfauj7Lx3HLbW/fz+uhkDVvA1aOBkNB5Vjt7+g/hn2C9h+9DLtt2006j0KzOQEyQnSTcD9kzHVf58Q817hPZwue7kfSrG14tLwCGYLcHe0Vm61v7vQAkbDfyCDZabpGD3pNOA45v96pySDwcXAWcNjLKYzNQbJs+bflRKx7okWWsg7OSECW6/4dXd8gdgiSx1U2Jw423ad7qYhdH51sJstxnctyLwE48oh7ElkTjqUckzRUHVx2YG2cDFtIZCSXKf8WZeuuWTaV5BizGTYZWnk0hChk86MygPEtT5HVkJ9rPEsvzRB5kbBOH3EtiByHzryvRe+b7ntsrKZLmp6Eu4JHqwqhOknWIGoe+Zq+zZmut6VObry2vrnT/UTCySZaP3nxNhS/z3QkjCT8XsRhRF5sl6356IjkVMR0Hn+hBwed2BRTYL+sQ4ogLH152c0oyzfL5m9SUncD6wHLZDCn5zWSj01fm/x97RDQVlb9zA7IXy7CpuSVl3XMyGe7cY36BXLgpr2sOptTxupjTFyWWZ6xi1q3O9q0q1knx+M/sZRj4SDYdHMQWxikyNo2lt3RmvKtevjJ0e1AVwY/YmBj1ZXhRezYtsk7UBsK3LLlBHkgIGaXpDKc8tz1Y+l8WSKKHCceA/ZNE7vOe737YnvM50XCHbuZ68V8HdhYH2brwnYEa5Iwm7I27RidYPURdrx2/cm/3kck7EeayU6Lt6HEfVFf12hGMNzZNzahjDlHRydVNlSZzk/seHYelUjO2mltPKPJ37LlkO3d8bkTkiIJUR8RcQXW1ywvqh0CvtrS0kOqh/pqTqYbe21lTCSsKZ8TFWsfjfP2e07Y0lFHwjGWY8kKuJQQzRZcnhiQiTXVIM8J68r3lWMSEmsHqa1Y+U4CNM+FLuKo6KTeI+yiXufnXi/A0bSjkKNOmweVY98vBpvK89CiPuYGMUd+xS7plOZJwswmJhHzTVZzbbL1sg8nYWlDFiPtESPlzVzGuvKIjH7IYGvSZt7x2d5T3F5lses/vvXnRMLJJlo/eX6NQWneJN5ebaM6/fZaT6pX+mE7zDb3JGERCTMS7TbSJE05Eta3C9+QxQm8H8Tua2szlyD1ufPANmUZ9WSbxNbzDV2+O681A6WbOt5OJOxHmslOCxOYVJa+g6WSXYiEU7+NUgkvpIseL3oSNiJWdcMWX/OVpp8D2ZRvxBJRtIiEFV04OUcneLm8VNqUxbiOdkdrRklyg9FvBfTtwF5Ewu2vTamfht+mWhL2JEVGorGRpTGlLe7xIOEuXte97fHjn92dMlEwkXA7IBRyPt6dzcs2RMKx28zLlnQ9fW0ZEwl7krOP/RyRsLHrWo2wnUTtI0v4+s5dcVOHTkTCyZ5ujiaPHEUAcAqQ0tH7hQJkG7INYcDCgJaEu0iPH4nnedm6MHvDlfWcsLo7mq0bKy/qYM8jq2/kMteFR4wUL/QYiRFMrvI4lJ+///GtqRUFUyRMHcrqUH7ApTQaxBAGCAMqBvQkzOxkvlVL2u3sfG2luqHKyM9IV+x6njl3BdhOaLVMFvly4rV2R8s7qP3bqEPnB/GDDrelVBRMJEwk7AY52YRsQhggDLRDDPzop3ekHAETCbdDoLlGjlRHcqiEAcJAmmMgFaehxTJqeuyO7vwQdcI074Q0OPGfqiP7kH3aKwZS6e1YgnjlY1qQcIdODxAJEwkTBggDhIE0w4BBwKm1G1omYPY7LUiYPRfWXkd5VC+KYAgDhAHCgBsDqTwFLRNxWpDwDzp0AtsZR0B1A5VsQjYhDBAG2hMGmK9P1U1YMvmK3+lBwjffhh/+yx1Ewmk2FdWeHAvVhYiSMBAFA53ZhxnuTsnHkATh6o5pQ8Ks8oyIKSKOAmQiahqsEQYIA20IA+xd0GzJMdXehKUjXN21tCJhboAOnXiD8c1anYmQaHRNGCAMEAbaBAY6dwUj3Js73Q+24Yp9jjCVvoakI9gg19KPhG9OvTemBGkoykPtRhggDBAG2h8GiISJlFPyLTLkbNqfs6E2pTYlDLgxkH4k7JiOppd4tIlpqDa0PkX2pKldwkArY6DzQ+hw+4P4yW1tY9o6rUiYNma1cucgMqUNP4QBwkArYeDm21NzA1fakDA9okQETBEKYYAwQBjomGKPMqUHCdPLOmj03Uqjb3L65PQJA6mJgVR5qUdakDC9tjI1OwE5J2oXwgBhoLUx0Nqvt0wLEqYPOFBHb+2OTuUTBgkDqYuB1vzQQ1qQcEf6lCFNR9N0NGGAMEAY8MFAa33yMD1I2MfwNDpN3dEptQ21DWGAMBAmBlpjappImAiaRseEAcIAYYAwYGIg7C8wEQlT56PORxggDBAGCAMmBtiu6R90cL/ZqqXe9kUkTJ2POh9hgDBAGCAMSBgIc1qaSFgyfJhrD1QWrXURBggDhIEUxUDnrqF9GpFImEiYRsCEAcIAYYAwoGCAvV+ipaagZblEworhaWSaoiNTaidykoQBwkCIGGDfLpbJsqV+EwmH2KjeBJ+LsuYm5GUSAXrbiGxDtiEMEAbCxcBNHW9vcSImEo5Cwhn5TWhuLECGLl9OFZqbm9GQn5XgCJVImJxLuM6F7E32JgxEx8CPb/05kXAypgASAZs3CTPibCYS1g1O6FqCg7LoziERTNO9ZF/CQDAMhPEWLYqEoxCGFwnz681VKItQJEwdOliHJjuRnQgDbQsDN3e6nyLhlIyEMwvQ0NyMspyumKGQMDtvjuS6IiHt9cxclDU28WiaTWvzqe3GKszQrQ1nFqCs0cjD8zZWRV1D5mWacoV86yjpKOqQkV/F62XkaUJZjmaaPU492JR9dPlZyIs0STo0oyGS614KcOlgr6fHWmeHUzSXF1zt51Nexy7Rdda2fRcDO3JZoh2C6JSRI+OhCWUJL4m0LefosFGUgTTlpbaNFwNhbM6iSDhKB3ZHwlnIY2TIScz4La8JB3W4HU0ib8hnJGOuCedkYQZbg1Y3acl5GUFneuRT6iJ0ycjMgvwvrgtg8nO2ts0Ijw8AspBhEhIbaIh8Dp1j1SOIfEZozB5iEGLVWxoMiGtcV7NeOTZRi7rJ9WW/xXVRF3Yutxsn08ZmNLBBkTRAsersUR6/L4rOatmyDnJZgXWy2sa0i7AJEbGNVaUvCJvTUerPZKPoeOnclSLhVIuExTT0DA7geElYJnLWKZwbs7jTtjaDqXntTuTMZ18XjiYW59/cXAWjTrYcp/wE9Ygq3y5X6M+Oah3UczmvLr9IV+9j5zIJi8EWHwRJJKzeJ+T5HdV71HNxr3qdnUfXSd8OTlzqbSnKpSPZhzAQHAPJ4CA/GRQJRxkNCuds7I42NmPZjtJwiPa5mzQE2J0O15BjR5lOEu7IIx1BimpeCTyOfNJ1s07OMu109bp6LnRuaT2c8m39rPK7dAW3v0WKPraIo852u9n2j7U8WVfx2ykjKCaMfHHrxLFgT8sLXeioxxXZJRy73JWRjfHL1mP8yH6aqLMfuo9cwdNnLluPmctWYHz2SNzl55Mz5sHIy/Lb/yMy3PW5K2Mexs/1zxMEB34Emow0ImG/BhckYEalnKysCJU1ugcJR1uH5dOHssO0SYCDwpHuQzztjYT5tHGTMSUs27CFSVgehDgJ1Mf2AjdRdTZJWK6P/Nuqm5OEPXUyp56ttX1ZlrqMIXSko4YA3E47iEOmPEHt1g/ds1dg5lyDCHUkfNfIFZi5bB66dzNldhuJEYxYs0d6txcj4bnZ6N6tH+6S/tV26Z5tkHpGRj9/Ug/QN5JBtH4yiISjNAJ3yox4tZGGBwnL64fmeqzsVI3pZ2NjlwEehYQd5OpDBI587s7hLNNOV6+r5xagHfKTr4czEjbkszVS+ZnsWEnRqy7qdXbOo05OamLWIdbIO4jOdiQceJ06IZ3sdrbaMQrGKR/ZLOkY4FFoNidARohuEu6HjLnu65yY5xr36XTi6X4kzbDOo+UVyBDkniD+/Qg0GWlEwlEayCCBKv5MsD1VKDqtNwmrAHKSgHGfvSmHOXM7MuZ5pYjbea8o23TuUj7/MpX7lAgs+pqwTSbacqLpEW1NWDvIUctU7WbXSejkayulzmxTHNtkJ7erk/SjlBdIZ7UOts6qruw8qE6yzqLudLRtS7ZIHVvoSbgreLSqEKqTZA2i5pGv6aed6fo66uQmgodkEK2fDCLhICTMp/zsaMlu0HhJmO1wNh5zcuyO9tr1LOeNdVeyRDxCb53zZ9ObDZGCFt4d7SPfqqPY8ct2NJuPb8l14MRnkJUVWeYUWI91qXXzqzPfCa0MHpwk3BVGtO5RXkCdQ9EpM9fYWR4Fz8IedNQ7cLJL8u3iRcIdu5nrxXwd2FgfZuvCdgRrkjCbsjZxHZ1g9RF2Iu3qR6DJSCMSjuK0uFM2nwl2N2QCJMzKjek5YfZMcRzPCcsEZtZVJQVxHv05XqFzfHpEk8+m/Nnz1+I5ZT5AYaSr1sHnuV1RF7Wt1Ov8XNOuLhLm7SQ/k9uM5kZ71iKIzmrZQjf1ekI6NTfxKFrIpmPyyYRsGp9NPUmY9S2TiPkmq7k22XrZmpOwtCGLkfaIkfJmLmNdeURGP2SwNWkz7/hs7ylur7LE9WQQrZ8MImGTmITBW+XIIyrbsYetg0oGyS6/peUnW1+SF5+zJbuR3XQY8CRhEQkzEu020iRNORLW25NvyOIE3g9i97W1mUuQ+tx5YJuyDH3YJrH1fEOX785rDy7wI9BkpBEJexheB6YWu0Yk7L0bMhXah3Sg9iEMxI0BPQkbEau6YYuv+UrTz4F8Lt+IJaJoEQkrBM7JOTrB68pLBtH6ySASToXORSQcdwfXdRq6pjigVMA46ZC2GNeSsCcpMhKNkSwdsjxIuIvX9eh9xY9Ak5FGJJwKzoFIOG0dFA0YojtBslHbtlFMJOwg1ID1dkTCxq5rNcI21p5jJHeTG5JBtH4yiIRTgYRJByJhwgBhoJ1iQEvCXaTHj8TzvGxdeK68dqvujmbrxsqLOtjzyOobuTiRr8eIkeKFHiMxgslVHocKOrjzI9BkpBEJt1PgBwUY5Qs42iacEEkSBuLCgJ6EWb8z36ol7XZ2vrZS3VBl5GekK3Y9z5y7AmwntMuPdcs2iNfaHS3voI6tzyeDaP1kEAlTx3IDmGxCNiEMEAYIAxwDfgSajDQiYQIaORvCAGGAMEAY8MBAMojWT0Z6kHDnhwhgHgBzTeNQPsIKYYAwQBgwMEDfE74tKR9U7tDpAepU1KkIA4QBwgBhICYMMO7wi2KTkZYWkfCPf3Z3TIan6DC2jQtkL7IXYYAw0B4xwLgjGUTrJyMtSPgHHTqhQ+cHiYhpFEwYIAwQBggDgTDAOINxhx+BJiMtPUj45tvww3+5I5Dh2+NojupEUQphgDBAGIgNAz/8ly4tTsCMxNOGhFllGRFTRBwbEKnjkr0IA4SBdMIA44iwCDjtSJhPHXToBDbPzzdrdabOlU6di+pKeCcMEAa0GOjclXMCXwMOYQqac9HNxsbjtIqE5YrT7+TsPCc7kh0JA4QBwkD8GCASNkcjBKL4QUS2I9sRBggDhIH4MJB2JHxTh064+bb78dO7HsHP7u6Jn91L/2QDwgBhgDCQ1hi4uyfnBMYNjCPCHFCkFQn/0y134daf9yDipYEHYYAwQBggDGgxwDiCcUVYRJw2JMyMmtYjPepw1P6EAcIAYSAwBsIi4rQgYTa9QBEwTbfRIIwwQBggDATFAOOMMKam04KE2Tx/UMNTPuqkhAHCAGGAMMAwwLijpael04KE+SYsmoahgQhhgDBAGCAMxIABxh1Ewkl4hIh2QdOoliIbwgBhgDAQMwbu7kkknIxRSMyGj2GkRLKpYxMGCAOEgfaLgWRwkJ+MtJiOpg7SfjsItS21LWGAMNCSGPAj0GSkEQlT1EtrRIQBwgBhgDDggYFkEK2fDCJhD8O35MiKZNPInTBAGCAMtA0M+BFoMtKIhImEaQRMGCAMEAYIAx4YSAbR+skgEvbKTxdwAAAgAElEQVQwPI1S28YoldqJ2okwQBhoSQz4EWgy0oiEiYRpBEwYIAwQBggDHhhIBtH6ySAS9jB8S46sSDaN3AkDhAHCQNvAgB+BJiONSJhIOKkj4CE7v4Pu76tvLmBr7vikltWWndiQnRfwlWWo71Djss145Oz8zs7zzXfR7TdqJbbWyfb/DjU7nTb3ap+aXB+HGECu1RajCk2dLyAnQN+KboeeCJLHKp+Vaepr2xfANzob+9Q5gO6OMlsyf4w2DU2vlqxzCslOBtH6ySASTqHGbg+dx3Ly31xATZ35/41NDL7OPl3aIveCQb+MGOou4KtvjFPZNjl1JkObdtTlceJlJWrMW9iAR5b7lUTEon2+Em1jHreO8iKkYHKZLkNy5YFFABIOYIefBckj48YiLECuoyBk2RZO+3nVv3Wvx2xT2Rb0OymDfj8CTUYakTABNSlAFQ7NcvKS4+dpwpnWrUxqeaLctnMcj62cdGWSMonum0IMYXgURCLOOUaVPDrc5q5EjoNM3fcY5P4dvElXQzoB5Ip2BxsAuOqnkXlvADsEyqORPWq8YUfZRlqbau6V72nl37HbNLXr03b6qNOOySBaPxlEwq3c0doqML30Fo7DFXEIJ2iSsBXpmdGb4yAR9ZDcQtOp25GhOq3NZTHCGrVSyuueitUSkNBLIjxtPosQAEj6ufMKcvEgOlGeJIPZ0iHHHLCoNnTkCYRboYtN+IYM+9yrHf2vu+WyiPWrupUYYtlJLUO6hw0UgtghSJ5AdmBO1T0gYXVMPr4cSHZgxRnVskid2cvp8B12j2pTn3v95FJaTIGAH4EmI41ImAAZEyAdTkJjOz0JjzdJBhBTrowwc1iEZZEsW/M0r40y1zFF9Axj2pZPsZo+Tshh+hjEYqz7iSlIMX0rE5mWxISjj0LCol68eIlAVZlCF1k/h81EeZIMuw4mcXuQsNDBU7baHq6yBBHKRMEGK1HIIKpcmQxEGSoJmyQIs44u3QwZDnsGyaPqpjtna8SaKX9rqjvJ+GL2NLDNZiYULPO9EdLavYIDB1asunjZVLY7/dbbLnG7JINo/WQQCVtAT7yxWgoEbUmuIArZzRu/vTYWeTkYcV2JKIVjdpEmIBOuFfnAJgOHgxft7ilPKlfkYeunrDKS43TIFIMGKd3VdkEI1ipPnroX9rAHMi7Zok7mUTcg4JucrPVgaeOXn84B5Nq6CD1tu1tpfODlJCVnm7FNWMb+AT7QCGIrRTejLKGDjcKv6gqVqXqRR2pnJkvYPln44vqZZUkymZ4O7GjrIXyS0FVjU9/7xP10tDAYh738CDQZaUTCcTRKIg3a3u8VTpSvDbqcPduhqjoEDwejcYaG7UR+23nqnVnAfJpynPKEnAvIYdPdXiSca+4KVhytq70DEYsok01ZFmLrTnlK3q63S7aEZasdopKriFCDOfjocoXuUeQFsUOQPFKdbXuwneW6jYES/jTt3iL4YvpZZdkzOnzToi4696iPex+B2o/o3G7/5NoiGUTrJ4NIWAv65DZiS4EjFeUKJ61GOLrI1On0FKctHJeGRJwk6R1R6PPZ0ZHjl0Se8n2O+mh0MvLC3OEsOXkvXGlkMDvIZRp2YVOo9q5ytn7IHlmCmM71km/uUuZ1i7bmaMpwl63HP1vTjC43IAkHsUOQPD52cPQPMYASMyMesnVt4WUf9bp6bpUvygLDyXeuf/fAVLV/QJsGtQXli2kJzo9Ak5FGJEyAjAmQlmPxsJuDtBx5hCNRIzlx3YOEJXI0yhb5bTl65+edz7FmJ57Xlcox5LHIV4luxbk0MLDLDhhRamToHL/bzmZ9JD3deXrCWueMlk9qG7sOqvOXzgUBR5Ur7K60p1Qe1zuIHYLkUeX6nDvqKWS76iP0jx9frp3noiwJN9q289Rd6BTFpp73S+1IeWL2d8kgWj8ZRMIEyphB6edAPElYOCIRiVh293Iw4rrtDB3OW3KehnNV1oQ15TmcsChf5HPJY9OZLO6Tyhd5JWfqkCnSJVluW4l6yQ7VJHCf+0QU6phhkNdYWX3Ec7o+clz6BNE5Jrm6+pkk4NBXl0+1Q5A8QQlGHSQJ2VL7Mhtq7JEQvjjOPMoSGIx6FPfLmAlab8rnwnxUeztt5kegyUgjEo6xQRJt0PZ+vyBhdU3YmMdUiJLb3sfBiOgr6O5VNt1nrkMnvjva0NhJemZk7EXCrD5CZymPq81FHp+XdbBHZ7ayXbZsbdNcO4SDXAWpmCQiyAPfWTbg646mPXh0ZuYRL/OoqbM3ZnlOiQaR6+hDXu2p6CvbyscOlj398sjlm7a168gGU3Y9He0p2qEl8SV0k8viu6cLDb0cbep0/jZuvGzqlZ+u27ZL3BbJIFo/GUTCopPQMSkRsUXCgnXFkTlR16sZWQeJ4mBGyZuS2GNI7tdfWtGo9bgTKzTR54RZWebLMwQ2BCFJBGuVLb0kQxs5CRnm0fnMqNs2Djsy27keI5Lsxsq2nLwwuPNokOx4/lpL8fYonkNjT4cDCyRXdnSSXo46S9clW0WzA9MlSB5LZ90rK/larBs3/J6WxpdkA9czyWzAtFPeAS/bUf4t2U6SZ9WZriXFd3nZ049Ak5FGJEwAblEAewE7mdd1RJhM+SRLJoT0+034Sr82l/t8MojWTwaRMJEwkTBhoM1jQHaayf5NJEwk7EeiiaYRCZMDbvMOmJxkejvJZJOuKo/wld74SpRko91PJEwkTCRMGGjzGFCJM5nnRMJEwtGINJF0ImFywOSACQOEAcIAYcADA4kQbJB7iYQ9DJ/MkTTJSu+RNLU/tT9hoO1iIAiRJpKHSJhImEbAhAHCAGGAMOCBgUQINsi9RMIehqeRa9sduVLbUdsRBggDycJAECJNJA+RMJEwjYAJA4QBwgBhwAMDiRBskHuJhD0Mn6xRFMmhETlhgDBAGGi7GAhCpInkIRImEqYRMGGAMEAYIAx4YCARgg1yb3qQ8N1tdxRGI2hqO8IAYYAw0EoYuLsnghBpInnSgoR/etcjNMrzGOVR526lzk3tQX2SMJDyGGDckQjBBrk3LUj45tvuT/nGJjIkMiQMEAYIA6mFAcYdQYg0kTxpQcI3deiEW3/eg4iYRt6EAcIAYYAwEAgDjDN+0OF2IuFERhjyvf90y12BDE8j0dQaiVJ7UHsQBggDrYEBxhkyh7TU77SIhIXxmFEpIqYO3Rodmsok3BEG2gYGGEeERcCMm9KKhFmF2dQ0m+fnm7Vo1zTNDtDUHGGAMEAYuLsn5wTGDYwjROAWxjHtSDgMo1IZt4UKYrI32ZswQBhoqxggEr6ZwNtWwUt6E3YJA4SBto6BtCNhmo5uG+sytH5G7UQYIAyEhgGajg5nNEcbs6hTh9apaZ2R1hkJA20SA7Qxq4WmhxkBkwMmEiYMEAYIA4SBIBgIa4d0WkxH08s6qNMF6XSUh3BCGCAMCAywiDiMndJpQcL02krqWKJj0ZGwQBggDATFAL22MklT0/QBB+p0QTsd5SOsEAYIAwID/3973/pk21bVx19wLyHmHh73nnDOBXPvyfEmosClIQoiiNJBxLT4SFmdxEQTjUmqK1+6ylSlvxijMVaZmC7L1sLWCL6DEBPs2EobQaxSC5SXNO2GJPpFP6Bf/DRTY875m2vM11pz7157r/34nao+u/feY40x5pi/MX7ztVbzDziMRMJ3+VAO7ofzkAwxQAwQA/NigH/KcJxT0xjV8JUjXGKAGCAGiIF5MLDs+5B3Yk94noBTlglKDBADxAAxAAyQhEdYkkYw+crEIgaIAWKAGJgHAyRhkjD3cebdx6E8MUMMEAMjYYAkTBJmMo2UTPOMfinL2RIxQAwIBkjCJGGSMEmYGCAGiIGJMEASJgkz+SZKPs6EOBMiBogBkjBJmCRMEiYGiAFiYCIMkIR3iIT3j8/Nxc3MdP9m5vry3BwdbN5odP/sylyHhszMxfFhUkQOzdHZrJO5mZnTTCZp98GJOb2M43NxluqVaw7N/vGVub4JDpjrolyq/9z7c2WOsoRfwN+He2Y4Dm0ypRnZNuGl1L5FPmNMEkxnOJ7o++bcnci/njiRhHeEhPfPOnK5vrwyF/JjSWRmTjeNhI+vHPvdzGw7QIYXx12CHV16grxxbS3JxEX4xFz4S66Ta2KCPTSR7rNzc3R2PkjwlrQDZ+ckHOm87Ahetyn2d8/cbYhDk0yhQGwVXgrty2LZIMOYdPm1SPyWd01r7q6n/yThXSBhFGtztZGz3jh5D82pHTxoIvNJeHNu9qWYHvgZJ97bApvIlIru8UkSn/waFOKYmPuTG9cYIffM90X9bYjDwxaZgu9bhZdC+0p9P/QZY5KsNI0U16G4t37fkLtxHVkf/0nCO0DCmGX1zqoe7rkZnhDXwYknC5m6zUxpSTae2RlzfXniCDBKmm6EGiaBxpjID7+M1C0t13T5pAHBXp5ERcG10c/qfcFMiTKSifysJWRKYv59RO61a9XnsnRt45Pq8zJN/qprZeWiJQ4tMoU4zIUX3bH6d90/DX1sbQ5gD35pM+F32Gu1ZfQKEGKrP1P9h9xIsVuInRR6t2QdPDMy+Eq3QnIsln1o0WXJJQwSlF35FXEJbai3ESSV+6bwprBflAsDvyHbeXvn0Qdf66/QrwfrcZ/Wr12tHEl460kYRDgMRpcExpgb2SuOl3EjQkPC2+Ki9lFVwjuAdzPJIxmp+iXxmIRl1ipEf26O7J61KyKRPV3sWoilQmqYkUb2te7098yWb48QqtqTvr45L+zxlhK5Uhia/EU/+iKa+ebsRYWsRSZt80PYacWL9N2Jsf1r+9jv1WssWD/6+7gFezI4dHbkbIPgRPb5/WcHfu++2VZHRrBdx0V7TMLyv2AaOeR5UeuP+ikQZDJARZ4N6JJcc9hWfQF8qn5IbdZIqCgHLA2QMHLMNrnHdinmJbs1fTXfw+fwV/kQvsswX8rV1X1GEiYJhxklEiMmwLQAeSJRySjgLiUQZmtBny8quhhliYHkSfQHuRbCgo4oAUGASaHrSUjEI/gLvVJh0gFIzd9IP3xICA56h/y1JOTJpiUOLTKRf1J40v6uF6O+PtczsNB3sIX2qpgh1gErVrbmSyWO0K9fq7Y8CfsY9frbHBP41RG8bftCPrTrEhsg4XC+AzYVpor9pWPlfy/KQV/WZ6qtkJHBh+RIzXYl5pndHn0ZppJ2AE8hd5Pvh65f5fckYZJwQsIqqSxwk2KAxPCHojDadzOThOB8soVESN8XE8MXXpXsUUJ4HXGxRhGCffgsS9vn5vQMMyepDGn7yiQTRuCqkIRZTuJbVjyK7RI78Csh4fD5HP62xKFFJvO1Rnx5nIrtBj503Go2VByLukJc0j6rxTH3MQwqSraOS2cHenTImYqsLUoebVe2HHbhb9eO0N6aD3PoEhtOn/IP16t+CDYHDmIW5aBPtS2WQxvl3InHUMl2rb2hDYhRv76oJiR9UszdRKbv+lV/RxImCQ+QMBLcJweS0RhzLcvWyU8g3CyputO8WuZuYQ/PLmWpZI+SAvZVgsv3cUGQwnhiTtXtWLIn65bDkeSqeCYJKvvd9l+6z12xjaSP2pXodG1QhSX7fk5/K75EcWiRKfjhTomrgp7JuNhFtiBTstnQx0VdxX4V2z1xbLYl+HWDsuF+axyYlNru45K2z73v8WEOXSEeOmcK18OmA3f3v9wNEGbQIebd99FvyoZuE3LADo57bPfFfB59UU0A9ux+fCV3lUzt2qk+JwlvPQmDoDBLrJOPToIOkCh4CQknJNjJQ39hRuvJrSt6KG5uL2v/4NAdCpOsV8ke6S4kuHxf9h2+qMJd04skBQGX5Cq2UYC6dmm7+nfEcpjgioUVPsprxZcoDi0yWqf/3elYEC+ZzbY+jvwOPiFe6cAJn6dxnNcW5FM9us/c700xQdsz7MDfrh1deys+zKErzPZ1TuJ69RlsFvfw1QpRr5xqm5OTmW+yooD3BdunmCUXVhXm0RfVBOClL3chs4avJOEdIOGwjDpwi5JLAhM/eAIJFZImLyh9CREtG6ckjKRRyRrIRSV7rB/2deH0hax6jZxYdSPkyB+9xyrJKaeY+wYAYQbWFdNAlqqIxf7qgl7yXX/f/T7sb0lXGocWmc5m8Bv90oQXHYvC4AC6Bvq4DXvwtdSubqVF70WW8ORseb+B7x7s2LigHb0xgV+VmCgbwz6060J+x9j2xKjiHtlUZJQOIotyhTg5OTnAKUmj2gzZmm18r+IhMZ5HX8Aq2jGYu8DO+r2ShHeBhAPA3cISTj67p2d1ZOaSIJbBQy6iBA8FCacxz83FpSxNu/t09w/O/YMv5ElWONGK5WAhebkf97CbzUkC42QtlpCTBI2SDvZ7HtYht3acip0z3Jubzq4xA0mKselOhof97ku1XAfbOLEKf1XBiXxFkbCvKKxdzCE7t7+iD770xKFJJvLRFakSFsp4UcVX9KDAIh54P9DHJXtF7PXFcS5bym/EET4X4iH9VPIxjUmIN/AhD15xKRXdmud0DfgAv6q6Ds1p0K90lfoh+I+c9XmJU9RhkI12VvSpvIzioZ8Yh35Q8Wxp7zz6kDf2FfaGcrfSr5GuCWRIwjtCwgI0e2+v3QfzVcGC1j/gQiXpqbpVqH6fsD7sJPpmllzFjk4mWMpefYLqW33sieMDf71K9lKS2LYEpfljKzG6tyJCUmfpfcyKEOWgSih4QWn0i15qFsIEQYhQ+R7p0ohb2UySfW5//fVDcQj9HlqTx6oU33BdC170QR8URFWAW/o4FOkG7HWrD4XBTCAVf4K9gKdgS/kNzEaDzaSPWmJiYymDUB23pvuEu7yJfOjV1Q0ks3v5C/2ANgYo+F9kT1g/urYUnzC4UnkZ9KnP0H478FAYKOnE9Wgv3mdbUYW2WDvonzlyN7oO10/8ShLeIRIeAmApUYauKX3v9OQF0sn6wqEStKSDn5VIfHs/Gwt7xM32YmRb+5YkTBIePB09L/hJwiyEi2EmWQKdeIYybxsoT9wvggGSMEmYJMxiHzCwSBEZ4xrOhElgY+BoE3WQhEnCoQCzELIQTlXEiD1ibyrsTW2XJEwSDiQ8NRhpn4WYGCAGdg0DJGGSMEmYy9HEADFADEyEAZIwSZjJN1Hy7dqIn+3lLJcYyDFAEiYJk4RJwsQAMUAMTIQBkjBJmMk3UfJxVpDPChgTxmTXMEASJgmThEnCxAAxQAxMhAGSMEmYyTdR8u3aiJ/t5SyXGMgxQBIeg4Qf5IEl2BgTYoAYIAaIgV4MPNgzJOERSPhFT72cs0nOJokBYoAYIAbmwoBwB0l4BBJ+7N4zcwW+d2REEDOWxAAxQAzsBAaEO0jCI5Dwo3fumyeefnYnQMMBBJfXiAFigBi4PQaEMx658yRJeKxRyPMef4okzNE7MUAMEAPEQBMGhDPG4p8+Pc/p+3LbvpOgckZ8+xEiR9mMITFADGwrBoQjVkXAwrE7RcLSYFmalnV+e1iLp6abRoTbmmxsF4mEGCAGLAYe7FlOEG4QjljlBHTnSHiVwaWteysFM+PNeBMDxMCmYYAkPMLBr03rdPrLQkUMEAPEwHpgYOdImMvRXH7iEiQxQAwQAxEGuBy9mhEJD2Yx8aLE4ylRngkgBoiBBAM8mLWk5WEhYBZgkjAxQAwQA8RACwZWdUJ6J5aj+bAOJl1L0lGGOCEGiAFgQGbEqzgpvRMkzMdWMrGQWHwlFogBYqAVA3xs5UhL0/wDDky61qSjHLFCDBADwAD/gMNIJHyXD+Xgfnhy+AJJxlcWXGKAGKhigH/KcJxT09UAszCTnIkBYoAYIAZ6MLDs+6l3Yk+YJMyRLjFADBADxMAiGCAJj7AkvUjgeQ0TlhggBogBYoAkTBLmUlHPUhGLJIskMUAMLBMDJGGSMEmYJEwMEAPEwEQYIAmThJl8EyXfMkfX1M3ZGzGwGRggCZOEScIkYWKAGCAGJsIASZgkzOSbKPk4U9mMmQr7if20TAyQhDeehE/MhZF/V+YoJZPjK/vN9dnhzhHt/tmVubatl/9m5uI4jcGhOTqbdTI3M3OaySTF5+DEnF7OglarV8V2/0x/p8T8rxfHib60vw7OvT+Fvnx4aI4ulb9mZq4vT8x+qiN5PxyHPdMiUypC+8fn5uJGt1l8OjdHBwPtTHws6d7UzxiTNe37gdydEm8kYZLw9hG0H3yYm5m5uLwy1zeOBTUJHl16Zry5qsrEiYnBjjHXyTUY5NgCfOn0iV38lOzHuvfM/rEeNOQkDH8tyR2rwcDlSb3/GuJwt0WmQJp6wHGNtto4z8zpjpIwY7KmBPxwOHfTfFzle5IwSbhexAvFd5XgXMzWoTm1ZKCJzCfhzbmbOWLGife2nYlMqe3HJ8ksr+EaFIDIVlysQvEWcs98F9mSnVI7td7S96meFhmt0/8O4pbVlx0l3AybjMl615GFcreA/VJduOVnJOEdJOF41mWiZU3MuPLFVGOMn3VVZW6usllQny0pZFaXENTBiScgsTwzF2qZN8ilTpVmgSDY5Dvns5+l+YKJGSwKaiTTlFglEosTFwSb2oJN+yqzYLu0XNPnP4+IPP1MXSvE2BKHFplCHND/emUhao+/BnJpt9n3un/8UmG3fRBjUnRbXQM4abLXasvoGT1iqz+L+xm2h2IibXFL1ioqkjfJVojTp+2VfWjRBYwpi92vqh9ym3Eb0cdFOWBJYbQo9xDt6OpJ6N+BmM+jD77WX+GHHqyX21vXMY48SXjXSBgjdpv4+bKmkOGRjBrtfp/kquyV+s8O3L4qkuHiDLIn5ijswSpQD9jqks8YWTrGsiaWbzVxFW16f6IkQTFQxaWz00/CIMyWQmptVmx1/syb6HV5+Aaylv1h+dfFyM9yUcgqviGOdsm4RSYjYdhR/ZzJuOIEW0Wc6P6xfsjA61zhTrfNk7A0uAcnLdh1g5MWWx0BunYYU8dFe0zC8r8MNP0yPgYfWj9ih6X9og/IrwFdgkeHH2m3z1nkq+qH1GaH45hsinLA0gAJA8cWvD22S+0t2a3pq/kePoe/yofwXQXPy/qeJLzxJIzC3RWNAJZsxudlVaKIbAncd8OINS+2ZflUT5stJFtHJpLweVGr2QxtReJkbXYFBMlqC10xARHHvmJbKkY98iiSzYkOH/KYSzvRBlvASofN7ADKH0BriUOLDOIaXvO+yfrAyxb7rBj7OK5hFq9w2ooT50t/HCN/4U9mKx6wYRUounbumMCvJFcX8qFdl/jssKPswqbCZrG/Qhu7PirKQV8tjqIHMjL4EBDXbFfyJrPbo6/cT2kbenK30O4hnYt+TxLeeBIG+QmqMbrWp2jVjAKg9QeWMBJ3+5ApIJHkOSGEgogDOfLqD+WEZeRGW1liWfDDdlc0ynJdUoUEaCIW6Jdlz3NzeianfB212Zl/wz5nIERVSIIPPoGbfQ4JD7/ymEsBQ4yvcSL5pmdPtiUOLTLBN8R6BSSMQVhfQa/gxPVBTxxr7SnZOvan1dV3aR+7940xCTnhzyYEX+BvAe81H+bQJT46LCpc4XqF31a8FuWgT8UqlkMbBbM+XiXbtfaGNiBG/frK/eQw3JK7fdeP/R1JeAtIWGatWJ7ELMmeoj1LblFCosgypizrJT96OWx4JuyXBqHDGpblLj8Ta7QVJyoKPYoGEi5/X00E2FUJLrK5nRNzCjKTeFzKkros8XY2azZkn9v+67tFCH6oolTT132uCkso0BITX7S0Lugv3Zom1+L7vji0yER+KF9qdpV8HvOKX4V9Whtf1d6irmK/io+1OIp9twWDJWDXkYLljhidLckR+VZub+tw2fWV/mxOEk76RHSm7Rv0odJ3JV0hHqqNJXzAZoiJ/0XuBsCyeKc/lfLvlQ3dJhCfXfEq+A7bfTGfR1+5n9xdCNbTvtxVGK7pGfNzkvBWkLAuCOr3dKZTAH8dTPVCppNBX49Eqi/5Kt880Mu6YLsjxLJcrq9UXMTH4eu9TVVEdNvC7yDgATkUneECrtuAdqsZi8TJ20x19dqo9HUUhxaZQkFyOtKVE90O93tkC3oymyAwt1+5f3DoDulJpVQxLuoKZNvhxPVTJY4YzAixnp2YYVvwLekPtEW9NsUEbVftiv3t2tG1t+LDHLrCIE6TP65Xn8Fm2DeWsyDYO1aD01451TYnJzPfZEUB7wu2TzFLLgzy5tEX8lX1EfJI46oop69Zwe8k4V0i4WrRygtoGD1Xk6ErGAByTAoohLkc5OXVJZZaMhfQI0mVbSS+HpFrPd3vsKsLpy9kqkB08q7tmN1Ge9N6j1X8wr28PXqc3krhHEzoku8dCUe+hX0+RYaRvyVdaRxaZArYwEBE+qdn6b7YZ+hbFGDownvd/yrOrThx8S+1q4uj3osMWMtsedzCX/V9ih37Hu3ojQn8SnKiYCOKXeH7Lj+HdYF8IvxAp4p7ZFNhNc5r5OywXadP7peXEZWSH7KN75OYz6Mv66Pm3C3gXcUi0zvCdyThnSJhVYj8bMCegpYnMSWA75Jck5kDKJJ1aMSM5LdLevZU5rm5SGw5XW4pq+V09DAJqzb2PKxDbu04FZ/OsJ8dz7zC7AHFA4XBPqmqexAH9tUjv1CQVYFrS14U6TTmIHX/RCr/sA67pBr6rZMJvsCPnjiEPuqTKRSaUr+5p2d1vgMnwR/RgzgiNngvccbMC9sEoW0o/MM4cXGuxHEuW4o0EEf4XIiH2G2JSYh3OL/RPaRFr3RksSv5gM+qug7NqTysxoZNtafUD8F/dYIa/WGvb+zXWp9hm2rAdsAK2qZiHsV3QF+Ub6rfUWOQt/IabFb6NdK1BBmS8K6RsMygwu1HrqgJSV6fpU9eqhSykKy4tnuVvaN0ZjRkKxSbyCe1t+xBH+R6Zl46WeL7k/PHVmJ0b70XApLlySjBVPvFJopC19zot66A4rqk6EW6a6NtXNsVvJJMI3sAACAASURBVK5NUlD1IyLdobLOZ3WtitFQHER/i0znR+e7vS4caJNwuEECfCr2GQqiKq7RYzP9/qO9NivoQtQ4oObshTMIUXxVLKLPk0d0DtlScXRtSVZsEt0hlj0xsXEMh+w8hOztgvFjVUuxK/rQq6sbmGVxKvQD9EfAtudH4rwu+RYGV1mfpYPbwkAs1JQ4Z+APZvB4ny0nF9oS4bU5dztsR9cX+nnM70nC20zCSwbPGEAsJvQG+D1G26mjvegRJ+2xIq42K1YkYZLwpI+bY3HdrIIxVYEnToiTqbC3bLskYZIwSZgz70kx0FLkSMIk4RacbKIMSZgkPGkBZnFlcW0pnMQJcdKCk02UIQmThCcl4U1MGvpMQiAGiIGxMEASJgmThLkcTQwQA8TARBggCZOEmXwTJd9YI2nq4ayMGNhcDJCEScIkYZIwMUAMEAMTYYAkTBJm8k2UfJy9bO7shX3HvhsLAyRhkjBJmCRMDBADxMBEGCAJk4SZfBMl31gjaerhrIwY2FwMkITHIOEHmwsAJi/7jhggBoiBiTDwYM+QhEcg4Rc99XLOJjmbJAaIAWKAGJgLA8IdJOERSPixe8/MFXiOOicadbJAEKfEADGwRhgQ7iAJj0DCj965b554+lmCe43AzYEOBzrEADGwzhgQznjkzpMk4bFGIc97/CmSMEmYGCAGiAFioAkDwhlj8U+fnuf0fblt30lQOSPm6HudR9/0jfgkBqbFgHDEqghYOHanSFgaLEvTss5vD2vx1HTTiJBFYdqiwPgz/sTAkjHwYM9ygnCDcMQqJ6A7R8KrDC5t3VspmBlvxpsYIAY2DQMk4REOfm1ap9NfFipigBggBtYDAztHwlyOXvKyDg99cImfGCAGNg0DXI5ezYiEB7NIwNxbIwaIAWKgDwM8mLWk5WEh4L7A8zsmJjFADBADxAAwsKoT0juxHM2HdTCxkFh8JRaIAWKgBQMyI17FSemdIGE+tpJJ15J0lCFOiAFiQGOAj60caWmaf8CBiaUTi78TD8QAMdCCAf4Bh5FI+C4fysH98E07rUl/iVliYHoM8E8ZjnNqumXEQxmOjIkBYoAYIAZSDCz7fuqd2BNOg8r3TDRigBggBoiBFgyQhEdYkm4JNGWYkMQAMUAMEAMpBkjCJOHp90W4N8U+IAaIgR3FAEmYJMzk39HkT0fkfM9ZGjGwegyQhEnCJGGSMDFADBADE2GAJEwSZvJNlHycdax+1sGYM+brhgGSMEmYJEwSJgaIAWJgIgyQhDeehE/MhZF/V+YoBdHxlf3m+uxw5xJs/+zKXNvWy38zc3GcxuDQHJ3NOpmbmTnNZJJZw8GJOb2cBa1Wr4rt/pn+Ton5Xy+OE31pfx2ce38KfflwAX8f7pnhOLTJlGYP+8fn5uJGt3lmri/PzdHBQDvTdm/Re8ZkPfu+1C8XZydmfw2wRxImCW8fQfvBh7mZmYvLK3N941hQk+DRpWfGm6uqTEw8GOwYc51cg0GOTfRLp0/s4qdkP9a9Z/aP9aAhJ+H5/d0zdxvi0CRTKFR6wHGNtto4z8zpjpIwY7KeBHz3IXLX1QNdE8zlyeT1jyRMEp4chCkh3e79oTm1ZKCJzCfhzbkb+WLGifeWZBKZAvHcPT5JZnkN16AARLbiYhWKt5B75vueubuQvw1xeNgiE/tq+wbkLqsvO0q4GUYZk/WuIweHyay3JXcL2C/VhVt+RhLeQRKOZ13GXF92yzJhxpWvphqMGqsyN1fZLKjPlhQyq0sI6uDEE5AYnpkLtcwb5FKfSqNYEFbynfPZz9J8wcQMFgU1kmlKrBKJxYkLgk1twaZ9lVmw7YOKviZ/1bVCjC1xaJEpxAH9r1cWovb4ayCXdpt9r/vHL/N32wcxJkW31TWAkyZ7rbaMntEjtvqzuJ9heygm0ha3NKqiInmTbIU4fdpe2YcWXcCYstj9qvohtxm3EX1clAOW1GCzKBcGfibUk9C/AzGfRx98rb+ShM2y2X+V+usdXQbxuPIeTK17whix28RXe5w+GYUMj2TGZ/f7JFdlr9R/duD2VZEMsqfiZE/MUdiDVTPQAVsSB6fLGFk6xrImlm81cRVten+ieKIYqOLS2eknYRBmSyG1Niu2On9QOFVMCqQ2KF8h4dhf4MC3seIb4miXjFtkMn9hZ7hNsFXEie4f64cMvM4V7ozJ+78fJy3YdYOTFlsdAQKjdVy0xyQs/8tA0y/jY/Ch9SN2WNov+oD8GtAl+HJYkXb7nEW+qn5IbXa4jOtYUQ5YGiBhYNaOAnpsl9pbslvTV/PdfX5ojvzZDh3z/mviGIwpu2yu4rOjsyI2dmei0HdFIwAkK95eViWKyJbAfTeMWPNiW5ZP9bTZQrLpgtvt4XS2azZDWxHnrM0u3khWm3QoGKoIdO01pjUx4XtVHkUystPX/+jLrt22fa3+2gGUP4DWEocWGcQ1vLYTTrHPim1JYgIZhVPEeggnDg+VOIY2KHtVW/GADatAGd6sztaYwK8kVxfyoV2X+AwSBqmXVkqK/VWIWVFuqA2iBzIy+BAWVnkR6azkTSQzoK/UT+56LALkq3ala1bxGUl445ejQX5u1upG1+rUr1EzCiSBP7CEkbjbh0zJB0meEEIgbVky7A4fOR0y0vYk0GgrSyyb9LDdFauynCqmKBZNxAL90oZzc3omp3yRnJ3NvgQEqetCkso3+wzfqwOfBfxtiUOLTPANsW4lHOAyiSdwoQpwGrcwCMtIONEV4lX7PMfuXLaO/Wl15Ud+vcSlMSZoe6YP/du1I2Cn5sMcusRnp0/FA9erfgg2B/b5i3LQp9oWy6GNco7Ax6tku9be0AbEqF9fqZ/cSsm5O4jp0z0e1AHjq30lCW8BCcssDssrDlv+VpGz5BYlJIoQsyz/Jj/xjE6BPCnELrn80iB0WMMFEh6wFSdqB/708/R9KcnsZ2ijSvCuCCGBXeE8VbfXyJ6s3LJkl98HipDsc9t/ai898wd+qKKUySRx7WbjqlgGmRMzl7+w3xeHFplgH33TSDhZ0fTXl2wW9mltfFXsav1f/ryO3bvNtiRHxAu5vQ1tr702xqTUdh/ftB3ufY8Pc+gKuFLx7Gal3elg2HTg7v6XuwHCDDr0a/d99JuyoduEQaslvYLvsN0X83n0teeargm1/l3u5yThrSDhCkjSmU4B/HWw1guZTgZ9PRLJFq1GW2VdsN0lSFmu0O6K3eHrvU1VRHTbwu8g4AE5FJ3hAq7bgHaXSFjLye8D/rbEoUUmI2HMqtKVk9Q/yHV9aGOY2QSBuf3KfTnFipmSinG5/xCvxAZik52TmNcW5If7w/k3EBO0XbXL4SpvR9feig9z6AozdT0gw/XqM9gM+8ZyFgR7x+rQVK+capuTk5lvsqKA9wXbp+j7rO+ApzZ9IV8L+MV3aIceYOC7Vb6ShHeJhENxSotWXkBDka8mQ64jJp68sJSA7RJBLZlL0iBJle32hIFdXTh9IVMFIvUFs9toeUrvsYpfuJe3R4/TWymcPQXBXVfyvdQ37r5imYHU/S3pSuPQIlOwj4GI9E/PqkGxz9C3KMDQhfe6/1WcW3HSG8e5bHl8w1/lS4od+x66e2OCeCe5U7ARxa7wfZefw7pwGCzGiidGFffIpsJqnNcgw2G7Tp9sWQlSlTzaU7ON75OYz6Ov2EeqTWFgov2Kvi/gfknfk4R3ioTVAxzsbUD+FPSlLE37e2gD0FAwNJk5YCJZh0bMSH67pGdPZcp+TGzL6XILWthj7jsd3TRqRUHseViH3NpxKj6d4d5cWV7XMQCR+uKBwmC6U9xhT/0yXq4L7VZFZrgoSGzrMZ/bX+nHhjg0yQRMdIWp1G/u6VkdXoCTqM8QR8QG73EKX2Ze2CZQ/VGyV8KJi3MljnPZUqSBOMLnQjzEbsnHNCYh3gMnmrPYlXzAZ1Vdh+ZUHlZj00u1R/xHLFSbYLOc1439WusznBUZsB2wgrZl/vlaMaAvyjerK85bnEjvO9MR6aj0+RgyJOFdI+HSfYpCLGfd3pADVqWQJcXGpYRPjJt8ZpTdx5jYQuKfhluiRJfaW/bgD3I9My+dEPH9yfljKzG6t54LWWePsFPtF5soCrrB6vdu2RnXJUWvKYlxbVfw0Ka5/fX2huIg+ltk4Id+tdeFA22u3+SgGx4FWOyzQvGPHq3p9x/ttVlBl9vl4kN04SBgFN++OIKUZNDlBk9VWwprri3JykNk0w1QhmJi43eg2+D9GLxPuCP5dEbbHSpMdXUDySxOhX5AGxWs7a+yJ6xXPJxcgm/oy/osHdz2DwACCas6g/YG/5QNxNOSqiJsjVM5ByCDoUC80irJ+STm0TWFvl3W9yThbSbhFQJpUYAWE3oD/F60vbyum03PEwviZLG4zRNjyk4TY5IwSXjSx82xuE6T+JtWcIkT4mTTMNvqL0mYJEwS5sx7Ugy0FCuSMEm4BSebKEMSJglPWoBZXFlcWwoncUKctOBkE2VIwiThSUl4E5OGPpMQiAFiYCwMkIRJwiRhLkcTA8QAMTARBkjCJGEm30TJN9ZImno4KyMGNhcDJGGSMEmYJEwMEAPEwEQYIAmThJl8EyUfZy+bO3th37HvxsIASZgkTBImCRMDxAAxMBEGSMIkYSbfRMk31kiaejgrIwY2FwMk4TFI+MHmAoDJy74jBogBYmAiDDzYMyThEUj4RU+9nLNJziaJAWKAGCAG5sKAcAdJeAQSfuzeM3MFnqPOiUadLBDEKTFADKwRBoQ7SMIjkPCjd+6bJ55+luBeI3BzoMOBDjFADKwzBoQzHrnzJEl4rFHI8x5/iiRMEiYGiAFigBhowoBwxlj806fnOX1fbtt3ElTOiDn6XufRN30jPomBaTEgHLEqAhaO3SkSlgbL0rSs89vDWjw13TQiZFGYtigw/ow/MbBkDDzYs5wg3CAcscoJ6M6R8CqDS1v3VgpmxpvxJgaIgU3DAEl4hINfm9bp9JeFihggBoiB9cDAzpEwl6OXvKzDQx9c4icGiIFNwwCXo1czIuHBLBIw99aIAWKAGOjDAA9mLWl5WAi4L/D8jolJDBADxAAxAAys6oT0TixH82EdTCwkFl+JBWKAGGjBgMyIV3FSeidImI+tZNK1JB1liBNigBjQGOBjK0damuYfcGBi6cTi78QDMUAMtGCAf8BhJBK+y4dycD98005r0l9ilhiYHgP8U4bjnJpuGfFQhiNjYoAYIAaIgRQDy76feif2hNOg8j0TjRggBogBYqAFAyThEZakWwJNGSYkMUAMEAPEQIoBkjBJePp9Ee5NsQ+IAWJgRzFAEiYJM/l3NPnTETnfc5ZGDKweAyRhkjBJmCRMDBADxMBEGCAJk4SZfBMlH2cdq591MOaM+bphgCRMEiYJk4SJAWKAGJgIAyRhkvBWJN/+2cwM/bs+O9yKtt52JL9/dmWuQ7Bm5uI4jcuhOTqbdTI3M3OaySQzqoMTc3qp+2BmLrJ4H5qjS6XXzMz15YnZHyh+Tf4uRe+eGbYdxwE4vDiOP7d9dnxlo+5weGhOb0InlH+5Obex6dN5dCmXzszpQcFeGteDc9+nV+Yo/Y7vJ6sNJGGS8GTguy2Z6OtRqK5vrszFZfJz48iBJLxn7noiMDczG6drTwSaNFxhN8b4WJZkdOzvPjwxF55GEH9co2MOvdeX5+boWJH25Ukdg3P4O7belljFcRDSdljT8QwyCQkfnSmcgpA1fs/cAKVPZysJ7x/rgRdJOPTJGgw+SMIk4XoBXAOAtiZLX6FCMdWE0Kp3u+Qw+9JF2BOon3XdxWwJ7y0GEpkSLo5PzFE0G0uvSd/LzK3kj57Rlb5P9aTvx9LbYlv76n5fFIe4roRRfFci9hYSxvV2UGXJXvd/3obtwvz6t48kTBLeTRI+ODcXmH3oxUA/K8OsTX8Vfo9kkqXAAomVCyWKvDFGzQTLspUZll8C7paWTf/yLnxT9qTgRjaj2VpXwCKZEglnn6F9KPj+fUTupc86m2FA0OcviLxXr/JFBgotcWiRydpc6SfIVWIrfQCiXAYJyyDULfurOMAnvk5e/0jCJOHJQTjGyBtFrDRbyGbCKLCylyYzOPnBPqkv+PsH/vNjkLWSPXB7qEVigm5FCiU5+GuJXZFMSVYX6ah91pbsvcryLvw0plTIbYzhm7Inn0c2K0QBfyP7fQW8YAs6QAiyPyz/buWvJjC7v+z2nWO9fraMvdOCb1kcWmQK7Ucbi3GqxFb3bykWfTqjviv4Y/s9fE4SjuOhBnwhRqv/jCRMEt49Ei4Vw0rR7VsyLRZA6OkjYcjI3rWwhSLFok5FNMXijgICvcp2VHRK7U51Q4fyqYuBMb324Ucg9lwehGLZ15QOhaki2OKvtzmo1w6q/AG0Fr0tMqq9iHPsh2tl+n8f0fZ9V4p9DS/wJ34lCcfxUFgr9OWqZEnCJOHdI2EQjSYrfBaRjyRpvXAVCyD0KN2xnNJ34GdoymYs2xUJFPdSIe6KRWl/tNORrQgkBOZ0wz9Z2j43p2fdDLv1FC581YML62PYApiZa39YTvYp473kef11y8tua2FEvbckYRxQiw4J9hwQRMxIwqr/JyTGLqeW7w9JmCS8eyRsZ2r6dho1V1GE6BIRpIS9zS4pHWGqa/WvFRKOii0IW9mci4QLe8LWBWU7KiYFe/J9bvPEnIIkZbn4UpbrJV7J/nehSMopXPsvu/WoMECAPyaPrfUb36v45P4uSW+T7Q4LiDP6tzhYqhC7XIvrSMJ5TBHbbX0lCZOEd5KEJaFBPheFPeEu4YdIWPZksX+s9pYVETo7MuPz92niO7xXJAOf0vs+UaS74u7JR5Z05VaWg0Mj+9h2eRv6U5Is2NNxSG1mMajphR0QcEnOf9f574pt3i5VhFv8XZbeFttot3rtbQ9JeCtqTZcXCqsKA/N+TxImCW9FYsxd/EAYIMBK0R1vOVruCZU5oppNFmw2k3DqvxQB6CuRoC0SpQHFAHHLLK1EHnqPVXTjPtSa7ZIONQNMydkVsgZ/W/VG/jboLW5DNMSq+T7huIADv5wJx3GZl9A2UZ4kTBLeQRLGLFItg4LAQMphZFsq2K5QFAkTehQZOTm3ShsVWcgqm9AZza7Vgy2uZdYtp7NxLU54y+luLCEr21lRAnn3PKxj/1j2gt2sPtzGFelE/PyAQvlynT4o5fLKP82pu0Y/VMPeXhXpTorwoL8tejuZMNsf1Nv2YJM0viDT4qCiMmAQHbguwofHYPhOP8jDxzk8FEXeZ08oS2JZHFikMnyf9umy35OEScI7R8KhqOmiBSJRhOiSb0QSTsmmYFMTtqPtwv/ex+iRijeO7Oz1qZ0woHAFNn56Un5CGfGxloWs/ZObumKkYiL33YLQCq7KRx0hHSaPtnSHvwYfW4lZttWf+2tXK6JHZqZ6E39BboN63SpAdx92yXZMWohd12b1/S1JuBLe7uMMu8q2bbOKQ4KJrm/Ta/h+2bEhCZOEt4KEl50o66Hfz+gGiy0L53r014r6oTCY26n2b/iAgiRMEiYJb0wSk4RJLgViJwlvdA0jCZOENxrAu1WUScK71d8Fwi0NGEnCG13DSMIk4Y0GMItyY6EuFW9+RuwTA5NjgCRMEp4chCRSEikxQAzsKgZIwiRhkjBnA8QAMUAMTIQBkjBJmMk3UfLt6sif7easlxjoMEASJgmThEnCxAAxQAxMhAGSMEmYyTdR8nE20M0GGAvGYlcxQBImCZOEScLEADFADEyEAZIwSZjJN1Hy7erIn+3mrJcY6DBAEh6DhB90ASW4GAtigBggBoiBJgw82DMk4RFI+EVPvZyzSc4miQFigBggBubCgHAHSXgEEn7s3jNzBb5phEQwM6bEADFADGw1BoQ7SMIjkPCjd+6bJ55+dqvBwoEDl9eIAWKAGBgPA8IZj9x5kiQ81ijkeY8/RRLmqJ0YIAaIAWKgCQPCGWPxT5+e5/R9uW3fSVA5Ix5vpMhRN2NJDBAD24YB4YhVEbBw7E6RsDRYlqZlnd8e1uKp6aYR4bYlGdtD4iAGiIEIAw/2LCcINwhHrHICunMkvMrg0ta9lYKZ8Wa8iQFiYNMwQBIe4eDXpnU6/WWhIgaIAWJgPTCwcyTM5WguQ0XLUDykwi0JYoAY4HL0akYkPJhFAiYBEwPEADHQhwEezFrS8rAQcF/g+R0TkxggBogBYgAYWNUJ6Z1YjubDOphYSCy+EgvEADHQggGZEa/ipPROkDAfW8mka0k6yhAnxAAxoDHAx1aOtDTNP+DAxNKJxd+JB2KAGGjBAP+Aw0gkfJcP5eB+OE/AEgPEADEwLwb4pwzHOTXdMuKhDEfGxAAxQAwQAykGln0/9U7sCadB5XsmGjFADBADxEALBkjCIyxJtwSaMkxIYoAYIAaIgRQDJGGSMPdx5t3HoTwxQwwQAyNhgCRMEmYyjZRM6QiX7znrIQaIgSEMkIRJwiRhkjAxQAwQAxNhgCRMEmbyTZR8QyNkfs9ZFDGw/RggCZOEyyR8cGiOjs/NxeWVub6ZGWOuzFGJrFrlStfys3LsGRfGhRjYGQyQhLeEhPeFMC1ZGv9vZq4vz83RwZwjyYMTc3EDHf71Zmaub85jEm6Vm7CY7J9dmevQlJm5OD5MEvvQHF3OIpnryxOz3+fzwYk5vZRBCf7NzMVZqldifmj2j2UAAzljrotySf8cnHt/SoOeBfx9uGeG49AmU5qVjYa7vphv2HeMSYLpdem/5txdrf8k4S0g4f2zjhSuL6/s7NUR6cyczkXCJ+bCcoYjrP3qta1yqwVzRBLHV479bmZ+Nu/eXhx3Ph1dus/sYOVYkevlSULWuAbtNub6xsUZJBsTrJCl021E7uzcHJ2dm9NsEAC97tWStr+stPIAne3+7pm7DXFokikU0vFwF8ch6seC3XX+njFZ175szd3V+08S3nQSRpGV5eIqabYByxWQYeJulZuuWB6aUzsD1bNJn4Q3536mm76XGJWuS2J3fJLEOdeDQhwTc6InIRdcY0k7812uze0M+1tqT6qnRabg+4i4mw4nhXYl/TKXb4xJZfA6cpwX7aOG3J2rvxf1I7mOJLzhJIzZkZ7hxUBCkS2QK5Y+LTF5OVl2PpClbUzJ0uXWVjmXeG5pDrqMEZLRM0L4ryS6XzEj9ctI3dKyMb3LxmgXrvegd7YQh64d3fJz6bOhAuKvCXvmi+hwM1bXplQf7Jf0pp+pa2VA1hKHFpmkaAi+0G913Dm/Idd1qvpN909DH1tdgtVoKyTGZ5O9VlsGWJG2ILb6M/RN3NahmEj8hvKii7G2V/ahRZetCWGQoPpAflX94OKnbcZttHpC/ydywFIY6AIniVyI5ZDtvL1l/yAX64Ov9Vdcpwfr5fbWddxeniS80STsZzWBACqA8MmXzsww+3JFA7okK/1+st1ndgnbXdsqp5ZCjVsStoe8fP6jUElBPZIRarA1M6f2vcw4/V6rTW4ptudKrmePFcVAFRdJojSB0X6Qn+wPy7+urZV4alLKbPn4yN6y2pPO9tS1juj3emEY9hd944te5ptrTxSHFpnIP9EBO8PFC7YuztDPJ+YIcdH9Y/3o72OnSwZygs/ydsBYeILf2M6BbeA2L8rtMQnL/z15UcJr0YdArPUcg68OPxJj3xeFfkjbjWvT16IcsDRAwsCxTTaFgVRnqb2pjPhV05f6nL2Hv8qHTCbDfkNNmPMakvAukHCxaCbFHoCMRv+FgtsqF0a7ySgY16tEdcBP/OkDclWHT5CmQYeTjRJYiuLAvm2apFmhgG9SYeysX+01Z20uJXR/HAb9tYMaP3hpiUOLTNYX7YRTKpq1GXoUW8RRxQyxjgdJNV/649hmy2MXRNdbrGt+pH0Mv4bzIopd0Yd2XdJehx1lFzFW7YpsZv3etaUoB31Zn5VsXrnzJzXbxfbmA+kOS7m+qI8LbQGe6gOrrr1Dum7zPUl4J0gYCWhMAFwKciSQSgoHrCTR55VTCVnUF5IDdoZnV2Emlun2SePbFhfrQgzCsruc/vaH227a99YDIeqYIa6Jb8WiFdquk70nDvP62xKHFpnMz1bCKRRN0VXFkI6Dt6HiWI4h4qUKvfUXny+Gp2Dr2J9WV36UC25jTND2TB/87dox6MMcusRnp0/FA9cr/AabA+dLinLQp9oWy6GNkmM+XiXbPTGfR1+5nxzGirmb4VzjcXm/k4R3hITTwufArEi5kEAAcQT8eeVUkhX1BeCrBA2feeAX9vDsUpZKdui2r/AxsR21A6sDWgeuG1ret3t6/vR1eksTdCS2kfRhEJS2MbyvxSEnpdCnNX8rvkRxaJEJvqEQNRJOKPwdsVT7p6GPI7+VT+XPa3GUQYBbndBnDFI8OZ1yCl6+kRUStL322hiTSrwlLmk7Bn2YQ1fY0y7hXWEVNm081H9yNwCW5jtflYD+VdnQbUIO2MFxwXfY7ov5PPos1hRO8F7uQrD/0twtyOKaZb6ShDeahJG4ikyrQNJFqVDQQUpZQdfXSQGqFZtEDkmmEtIBGXJJYQ7L12qkbtsCe24va//g0B3MkSzKdPsCCduquIhtncDYl0uLKwpF+nmUhEjikv2K7Sa9tr2ITxIHbzP1q1dvxZcoDi0yBUyhYKb+RHFKYw49mc22Po78hq6Am3Hx1NmCb0l/BPsdKTfFBG3PsIN+79ox6MMcukLe6pzA9eoz2Az7xnI+A3vHaquqV061zcnJzDdZUcD7gu1TzJKzWoQcbtOXYtG+78vdQp8WdYwsRxLecBIGmdj7SgeWkCArB6TkX7pc6xImIXQkS5ZYQ3J5UbGALuhzQId8UuyQNCpZwwxQ+RQnS0mXL6a4xutNY5CRmt5jleSTB3D0DQCKpAB/ugIb+9sV8jBjSQvQQv7Cro5pEofgb5+M9s//jn4RP3twh2KtZ1Gh/9Cn0IX3EucCToDPqM8gHa0Q+wAAHfFJREFUl8ar2C51WLDJlu8v2AB2akUY7eiNCfokwULBRhS7wvcdVoZ1IfeLsVOxiGyqdqZ5UZQr+Ojk5BCdJI3yE7I12/g+ifk8+rIcG8zdAs5VDDJ9I31HEt50Eg6zDcur4dSoe3qWLqwCMIzqk4QAmAB8ezranz51auPluFa5UJSGT252BSXxWdmyp6ZlVB72b3HPbyF5YLv6sA7EAifB1RJlSPxOxpKI8gWnc2VAg59ANLCN06/wVxWcekKjSCdxCH03h7/Sr/ClGodGGWBEvbqC2I+73mKNeKi49vVxyV75YSmCh0oc57KlSANxhM8qDrovSz5muQhdwIc8GraQZ1nscJ32AZ9VdR2a06BftUf8RyyUPtgsz4Q7TEIuYF7rC/mDmavHiH5iXI/toBNty/xr06f7JbRV1TbkrbwGm5V+jXSNLEMS3gISFoCkj0jEbUbdPbCOqDCi1fcGRgCL7sH0J3xLM51mOX3PMU4Mlx/zmD9gAz53RcqeOD7wya2SPWqDT5L4CVSlk89SoLqnjUlqy9OoupipQi4xQFHwBTN90Uuzcu8mCMLpHXgcZkhsZTN8hkHGnP42x8HjJzSoFCv4EL8O4a63WKviqm/nqvVx0BVuZxOHZZtifDwFWwr77rN8BSnF3lBMrHw4ZOeDntw/LzLNPvTq6gaSWZyqRBiAEH6RPWG94lHyLRCdykvELNs6qtqOBwq4HjN4vG/RF/XLHLkbXZflYIz/MWRJwltCwq1gAAlrwmi9lnLjJyBj2h7TYuFfQZFkH7X3EWM1f6xIwjtFwhgVd8tKTJr5k4YxmyZmJOFp4k68LzfuJOEdIGFZ6pN9DyyPcha83KRi0VpOfEnCy4kr8TptXEnCO0DCYR9F9s/mfCIUE3TaBGX8u/iThLtYEBfbEwuS8A6QMBN2exKWfcm+JAa2CwMkYZLwev/5MR68Yf8QA8TAFmOAJEwSZoJvcYJz1rRdsyb25/b1J0mYJEwSJgkTA8QAMTARBkjCJGEm30TJx1nN9s1q2Kfs03kxQBImCZOEScLEADFADEyEAZIwSZjJN1HyzTtipjxnWcTA9mGAJDwGCT/YPmAw2dmnxAAxQAwsGQMP9gxJeAQSftFTL+dskrNJYoAYIAaIgbkwINxBEh6BhB+798xcgefocsmjSxYC4pEYIAY2AAPCHSThEUj40Tv3zRNPP0vQbwDoOQDiAIgYIAbWAQPCGY/ceZIkPNYo5HmPP0USJgkTA8QAMUAMNGFAOGMs/unT85y+L7ftOwkqZ8QcZa/DKJs+EIfEwHpiQDhiVQQsHLtTJCwNlqVpWee3h7V4arppRMhisZ7Fgv3CfiEGRsLAgz3LCcINwhGrnIDuHAmvMri0dW+lYGa8GW9igBjYNAyQhEc4+LVpnU5/WaiIAWKAGFgPDOwcCXM5eqTlGx7u4FI+MUAMbAsGuBy9mhEJD2aRgLmHRgwQA8RAHwZ4MGtJy8NCwH2B53dMTGKAGCAGiAFgYFUnpHdiOZoP62BiIbH4SiwQA8RACwZkRryKk9I7QcJ8bCWTriXpKEOcEAPEgMYAH1s50tI0/4ADE0snFn8nHogBYqAFA/wDDiOR8F0+lIP74dtyipPtIJaJgdVhgH/KcJxT0y0jHspwZEwMEAPEADGQYmDZ91PvxJ5wGlS+Z6IRA8QAMUAMtGCAJDzCknRLoCnDhCQGiAFigBhIMUASJgmvbv+De02MNTFADBADEQZIwiThCBDpKI3vOXInBogBYmB5GCAJk4RJwhyZEwPEADEwEQZIwiRhJt9EycfZxfJmF4wtY7spGCAJk4RJwiRhYoAYIAYmwgBJmCS8ocl3Yi6M/LsyR2nyHF/Zb67PDje0bYvPYvbPrsy1bb38NzMXx2kMDs3R2ayTuZmZ00ymYv/g3F9XiLntg0Ozf3xlrm+CA6apD3r1LubvcBz2TItMNJs6ODGnlyp20sybUowr8UtxOtH7/eNzc3Ez6zpJcHJ2YvYn8ieK8Q76QBImCW8oUZGEs+LlBx+WGC47Mrw47kjh6NLX3psrc1GRyfQ+3HPkGsp2iYQPTaT77NwcnZ0PErwl7R69kc5WfxvicLdFRhNCGCgYc33pYmfj531vGmxofZP9jryZ2f7XGDCXJxtaCzp8l7C77p+RhEnCG5p4KCYFQtjJmfChObUzUB0PH6ObczfLAZHgvSWCRKZADvtnftYkxJ3ZcAUQMvOQEa4xNb0L+dsQh4ctMoXCfnCYzxaLPhauLcR1MnLI2jGMgcl8Xae4LckXkjBJeGdIOJ51yYymW4ILM64wK1O/+BlCVebmypwexIW3z5YUNKtLyPDgxBOb2JNlwXj5uGizNGMBGSTfuetnzr/K4CSSKRUaWWK2sSqRl7Tbfx6RexyPYhEf0tvkr/JJ+qAlDi0ypTgUPysTmFvyVRgSjCTL/mNhYAhrxdhHbSm3Yfi6hj6O7FC+FFOSMEl4N0g4LD9KMXR7e7ZEetISMjw6lh/ZL3OEKHL2swNHjCAr2T9zsifmKOzBqhnogC1JRKfL7SlieRN7qXo2WbTp/YkSuoVYKqSGGaleto50h0KqCC98JoXVF3Eh6hAPY65vzvP9+ug6FOWK3iZ/vW3jBxotcWiRKfoJf/2r7BH7/e8oduh/GVT5pWvs02u5UTAAW5bkc1yX+1G3Q7YR3EqH9m34Oq2Dv98mXiRhkvCGkjAKty++umhmxdvLJjM1EFw8i4VeRaped1kehAo/2myhAGvCDWSmDpvVbGZJn7XZFcaIYIvkg/YaM1yEIZvEBnpl7JKSQRLzzG8b2wG90ewesspfO4DyKwgtcWiR0XgKv3e2Mce9vjw3R9EqCGSAB09QiJGKx+0x4G0pnRLfFszAtmtHvpJT7ieS7TLiQhImCW8oCaPYuFmrm3HEJ1cDwYUC2M1MrHxpFoOlVUWESDwULsxcOx1qGbnRVrlQ5gW8LFcohk3EAv2yFH9uTs8w63cxjAcjBRu12HjbZgEycLGFXwm5B3tz+NsShxaZQLw6DnJSuzuU1Z0wlhPSXi70v9+HD3rQxo6cy33bKqeW3uWEtjos5lZy1CAl+NC1xa38nLvDeX5EEfKlII8c4GsXw7FiQRImCW8sCcteJJbSXB2ZWXKRQin/QlFBYZTPbmbZTyigtvigCKaEoEhf67CWCiQ8YKtcgGFjqFAXCgHaGM0ac30y2z5Vt6fIXq/csiT70QuTcMV2NAvvLez1mM/tb8WXKN4tMr3+qvjLnr7FgMdLRbcU7MiHwnsU9Va5sP89gDXorb8i/i0YUG1vjRHlemssSZgk3AuQeuKucTKmM52ewpi3DwWpRsJ5oXJF0888Gm2lhdb5AdudjbJcIfYVu8PXe5vJLDaPi9iEf0lsKrbHIeG0rQP+VnyJ4tAiMwdxFHVn8UTshvq2VU7NhJOBV7nv0jjG76M2zNH2RWzxmjj2JGGS8PaTcCCPrgDWCwGKYEI0PTOXmGxwfb8tV/TUbF0KH8hBLYW3F0fY1X4Pn3qVk7XRqoH1Qw6exae0XbxKNqSg4HPd5tJncfHp+gCy2vey7LC/JV1pHFpkyvY7n/F9MhMuxkL1rSLn22MA7dBxh1/zvKINt9Uzj03KAkskYZLwDpDwngkPZ/BPB7KnoOXpR6oo9hNNt5xYPh2tCpgnNnfLkT9xndhCAbYEiBO0fo86LKP3ED8SOHqFXb9HiNPWerldbp05ldPdsrfp7cV7uX0FGUW/QJawjRPBWPJumqXV9S7kL3zpiUPAQ5+MnhF6ndf+ISfpGQTdZ0E3YiEPGbFDnXifdhQMoK2DuPakZ+Vl26bb24ZvfFjHNAMDkjBJeDdI2D71SR9Ekqo4M9dn6VOC6oSgi6avqfZFCnN8QlaeMNVvy+mSR0ZqObW37AkgyEUncOvFIr5nNH+kImbt1nEhoOxxhar9mU31nSYo/7u0GcQv+vV92NFgIbu2rndRf4fiIP60yAS/S4+stHux+f2/9poD3a84NR6vLoS+vSUGhrAW2iBxt/elxwcYjeCguPJRx1mkM+tPXjdPfEjCJOHtI+ENKAqhAGdExwI2TwHbZFligFgX/JKEScIk4QlImwWYBZgYIAZIwiMQsIxiNnk0Tt+nKQQswNPEfZ3wTgwQAyRhkjAHEBPMgiXxWIBZgIkBYoAkTBImCU9Ewus0I6MvJANiYDoMcE94BCImgKcDMGPP2BMDxMAmY4AkTBLmbJizYWKAGCAGJsIASZgkzOSbKPk2efRO3zn7JAbGwQBJmCRMEiYJEwPEADEwEQZIwiRhJt9EyceZxDgzCcaRcdxkDJCEScIkYZIwMUAMEAMTYYAkPAYJP+BIdJNHovSd+CUGiIFJMPCAj60c5bmdL3rq5RxFTjSKnCRx2FbinRggBkbAgHAHZ8IjzIQfu/cMATkCIEmonI0QA8TALmFAuIMkPAIJP3rnvnni6WdJxCRiYoAYIAaIgSYMCGc8cudJkvBYo5DnPf5UU+B3aZTHtnJWQwwQA8RAGQPCGWPxT5+e5/R9uW3fSVA5Iy4DjonIuBADxAAxsGc5YlUELBy7UyQsDZalaVnnt4e1eGqaqwNcmiMGiAFi4MGe5QThBuGIVU5Ad46EVxlc2rq3UjAz3ow3MUAMbBoGSMIjHPzatE6nvyxUxAAxQAysBwZ2joS5HM19L+57EQPEADEQYYDL0asZkfBgFhMvSjzuBXIvkBggBhIMyOFdHsxawhKxBJUFmCRMDBADxAAx0IKBVRHxTixH82EdTLqWpKMMcUIMEAPAgMyIV3FSejQS/it3H5i/8ZZvNq/5tz9o3vSj7zFv++XfMV//65803/jBmX2V9/K5fC9yIr+qgwF8bCUTC4nFV2KBGCAGWjGw9o+tfPQFLzFPv/1bzet/8J3m7b/xKfONv/WZ5h+Rl+vk+kef/5KlEjL/gAOTrjXpKEesEAPEADCwvn/A4c5989I3f5PZ/5n3m2/44Gdu/SN6RN8jS7pJ+i4fysH98OTwBZKMryy4xAAxUMXAOv4pw+f/rdeYN/7Ie8zXf+Azo/+88Ud+yYj+sZepqwFmYSY5EwPEADFADPRgYGw+SvXNtSd87/VvM2973++bt//mbGk/b3vfR4zYSR29zXuSMEe6xAAxQAwQA4tg4Dbc03JtMwk//OZ/ZQ7e/2nzdb8xW/qP2BF7LQ1okVkk8LyGCUsMEAPEADHQwjG3kWki4b8pBHw1W/mP2L1N43AtE4mJRAwQA8QAMbAIBsAjy3odJOEXv/5rzdf+2rX5e+//o5X/iN0Xf9ntl6YXCTyvYcISA8QAMUAMLIt8obeXhJ//zGvMW977EfO1v/5Hk/285b0fNne+4NW3mhEzkZhIxAAxQAwQA4tgAGS5rNc6Cd+5b173X95t3vZrfzT5z+t+6N23un1pkcDzGiYsMUAMEAPEwLLIF3qrJHz/Td9ovuZXb9bm5/6bvmHh2TATiYlEDBADxAAxsAgGQJbLei2S8KMveNK84ccvzVv/183a/LzhHZcLP1lrkcDzmjxh989mpvTv+ubKnB4f8l5Df6/h/tmVuQ6BmpmLLDaH5uhs1snczIbjd3BiTi91/Gfm4qyLea1v4MbFcd6fFuMDeptlCvdZDsdhz7TIlHJx//jcXNzE8bi+PDdHB5V2Fvwr6d3Yzw7OPZ6uzNG2t3XF7VsW+UJvkYQ//23/2Hz1xafX7uelX/MtC82GNzaxVgy2oTiFQn9zZS4u/Y8qhNVCv2btGGrnrb4/vnK8dzOzMbq+cW91bI4uPTX6OJZkYh9OzIW/RAY8Entcc+2J2JIS+kS9Qk7b73QP6737sEWmQHwNcbjbIlPATsChMeYabbVxnpnTHSTh/WM96CMJd/gu4LKApyF5kOWyXoskvPfvf9K85Vc+vXY/e9/zEyThBUA0BLLW71H8UPjDdSimlyc7Phs+NKeWDHQh9CR2c272pe8wY8F725+JTKmPj0+SWV7DNSDQyFZSmFr0tshEPjfE4WGLTOKr2ADWzFUSj4Js5NN2fo+cNDI4y7C3nW0OdWdF/bss8oXejISf+8QDs//ej5u3vO/Ta/fz5vd8zDz38afnJuJVd9q22kPCZyQMYvEkHGZ6fvYWvSiidkuK6tvCsrbVJSRycOKLjMjHS7ESb2czmQnBL0VCRblACMYY5V8uC+JI7KAYwJ7SkfnmSSSNYW5rqIDCF0348TXV/oK/xddhvXdDvGBbXSMz0ZY4tMgU/HNxMqY8s+/aDzmFLverYEzPlg9kWTuT6nBgcae2DkQ00VHuO8QkxpTgQXCPFQpr2W5HAMMFX+SjBFOhxsgs+PLE7Gd90sUiyBbiye+G4wSyXNZrRsL3v/Lvm7/7P64X/vnOT/2lRdEHfy/W8R/+xIHrs5/67MK6xa/7b/omkvBEyVQu6oeeALvCKIR5JLMnu28n/S57nv6zA7+PGWY0btnWLrE6iEQFNhTTm1lYekQB00RWLIQo9AMkjHZZ86rYpTrhS5UAYE/pkCIX6amQMHyo6k77vGKrK6ogARDlcLGx1w7qLZEslqz94KSiI4pDi0zaZszsZRacfRe3D7YuzoDFE3MU9ur99fBB4xMyoQ9l8CeDvnOHaXyvfIAtTe7ozxRT3Uxe497FrSlvqu1esL+r+uJ4drjavc+XRb7Qm5HwF/3rHzD7v3y98M93/qEj4Q/8ntLxe3/hyusf/8nCeuGT+AfnW193GUBjtj0qLJ4w3UvtYFGtMODzZEaJopiRpjGacLt9yq4YlwphmJFl+pRd2JS9RWlMKL5l8tTfZ7FtIdhgTy/dIx7dQCbTnRRL194eeQxyVHuGdMr3g3prMnbgFQ+w4j6TQ1juIJUdaLTEKmlzqd9rbSriIfju+7/kQ7F/YuJxunuwF3SkmEI/K/xlbRRbkOts1NrZfb7INXG7Ol38XMeilWcWlctI+DX/8RfMm//79cI//xwk/Ltex9Wfmc/aSv0X5vtuoRc+vfr7f54kXEzc5ScOiqjdf8KBmEss1ckp4NSHSmFAkVLk6EAP+a5IlYtpo1zBTqwPemR/0c/mFGkFWVk+FAxn/ibtLRV1WX7U5BMKrBwqOjenZ3o5tGu3LgLp79DXNyAIvuul1wHctOhtkcFsb3oSVge3BK/+8FY4VV7ARxi4KRwIKcosujsQF2+HxLHuwVTJXrFPlI7i9wnurMwi15T08LM03xYl19brMhJ+/U980HzVez+18M93fNLPhH9HdPyJ+YAl4L8073r/4jq1P19+/kGScHNijptQKMBpca3PUCqFAcUoKnTO17igYWaWk1NZzoIt/0+Rp74uak/BJydr/P5daZCRxLegQxJa23QJfmJO1aly2dOTW5bssv0AacpJWPvP7gMm9oEL+KHanRaW9H2L3hYZqxf2k/6N4tAig/aEVyx7D88Q0XdGtjHwYwOXEqi+zUlBJ/L90N4eZvUUdciHDqO9mKq0Oe0LzoQruA44WO33rWS6qFxGwl/xc79vvvI9n1r459sVCX/vHztQf+B3FteX+vLGn/0ISXgiMEYFJvIBZJuSJT5PiiaKUUYSkO/0RIU72KzLFfcAlR2nT2a+yewW71Xx7Ww3Fv+CDimwnZ5a8fDtUX7mhVmdDB6QQz/lKxMV+yD2Pr0tMuiflji0yECfenWx7FmG97K1mJeuh+yFnFvAnq/CQdoXqQ73vgFTaHNfnK3/wHeSNyoOqU+LEXcFD712du+aRcm19bqchN/9SfOmX/rUwj8g4c9+zs2Izef+zHz7LfSlvnzFuz9JEp4oSVDcs5kwios6rOKKRK2Y4POObK089KgihYIX2YScsodCqg/HhKXFTJ8sLXazl8i2Kr6RTthUutoKoSfwnusww4zbKAeKuodxyBJv05L4HIeXrP8teltk9J5wWHLXJJLGARjokykUfAwGpO97Vg2ivlP5AgyHAQr0od/Rz3ivrkV/pzqcrRZMYTCX4D6zUYpNIRbRdYtcM6ST30uft5LponIZCb/hpz9ivuK//eHCP//sE558jTGf/ZybCX/2E7OF9aW+fPm7Pjx3UO4+IJhQQG7ziuKT7gm7Xk4PT0nMewoDip/cbuT3l/GUqVAgwyzSWcCDGW5/OtrrU0+cCoStim9WyOGzksniCZmeh3XILSqncmpX9hlxe0xE0kmxBjGY7oQ4Yiav0cAD9vt8RPFu0dsiE4hfkQv86IkD9o5lybjbb22d5caYcE/P6ggdfVdcGfFLx8VtFLTXx89iXu7Btaejz92ytDWd2mrDVMghjfubtM09eYO+y14XuYZ1McvfNK4PJiDh1/7YB8wbf/EPF/75px93JPybH5+ZN/7iH5vftNj8S/POX11cp/ZH/Jt3xPH4U6/Y8YdIjJNsXQFxBSf8L0VUz9oCkAcKQ3qPZu0+YXsLSXyAKRyu8bZQdCNCQkFVBOfkCoesIKvIq6QT10ez1tBeF2eZ2WJAYe9pTmITxVFidyb3eeo+UnGT2R4ILQQ8/qUbtOA6RYaRXm2jUW+TbdiNZ6dDcZAC2CJTKpT2OgxgbDhkgOIfiJIM3nS05IljmEGjH6K+THGQ3tMrT+lSOsQ3YCI7uJfq8n2R+Z7cd9w7eK32p+qDqkzS/5Qb5IXHn3rl3HwzLz9lM+FXfs/PmTf8wicX/vk2kPCHvI4P/bnLgc/9qfm2W+iFT6/8np+dOygv/PwvHgx2KdH52fRJWyJC9sv0/cI+YB/sAgaEO+Yl1XnlMxJ+5l9+v/nyn//kwj/f+jE3E/7fH+p0/Lv/63hYf7aojWf+xffPHZTnv+RlJOENHfWShFnsd6HYs43rifPnv+QL5+abW5PwX3/DN5nX/9wnF/4JJPxbSsev/Kn5jOXhPzfffQvd4pf4N28jH3vxF5CEScLEwIZigAS1ngS1C/0i3DEv38wrn82E5dnMr/2pj5gv+5lPLPTzTz7qZ8IfjK/H5+b//L+F9Io/r/2vH17o2dHPfcFLWIA3tABzJswCvAvFnm1cT5w/9/kvWT0JC4u/7N+8w3zZT39i7X5e9l3vWDggL+LhLA5ENnQgwgK9ngWa/bLd/SKcMe+sdhH5bCYsSl785n9kXveuT6zdz4u/6h8uHJTH7j1DEiIJEQPEADFADDRhQDhjEVKd95oiCT/6gifNK3/gf5rXvvPja/Pzyh94n3n0FksDj955ieH9wts9cuXMhP1LDBADo2DgwZ4RzpiXUBeRL5KwKHridV9vvvSnPr42P0+87u23Dshj93hAaxSAciTdNJJmrEkIxMBmYkC4YhFCXeSaKgk/cue+ednJz5gv+cmPTf4jfog/izQwuubOffP408+ygJJEiQFigBggBooYEI4YhW8eu9fEWXUSfuye+WsP9szeD/+2+Ts/8bHJfvZ++EPm80Z8dNhffeLpYuA5Yt3MESv7jf1GDBADY2JAOCKavDWS6aLX9JKwKH3h3lvNq9/x++Y15x9b+Y/YFfuLNq52HQ9pMWnHTFrqIp6Ige3AwCqXocFPgyQsgvfe+h3m1T/+0ZX/iF04OvbrC17Kp2ixcGxH4WA/sh+JgdtjQDhhbJ5p0ddEwqLoxW/9DvOqH/uI2XvHR5f+I3Ze/NXfvtSAPHrnviER3x64TH7GkBggBjYdA8IFwgktpDm2TDMJi+EXvOqrzSv+84fMq37so0v7ecUP/ZZ5wavGX4KuBY4npllANr2A0H9imBhYHANTLEFrPpqLhOXCz3v6VeaZ7/pp8+yP/sHoP1/wXe+y+rWDq/hdNuJ5anpxELMAMHbEADGwaRiQmr/qQ1glPpubhK2SO/fNC7/k68zf/u5fNq88+4Nb/4ge0bfKY+FZMO7cN3ZW/IDJtGnJRH+JWWKAGGjGwIM9Y5+GNdHyc8o9i5GwP7ItT7B6/I3/wDx99KPmi09/17ziR/6g+Ufk5Tq5/jZPwkobdNv38pQU6SA+a5pJ3ZzUvN+St/0RA2uPAanpUttX9SSsVi66FQlrI4++6Cnzwi/9BvPSb/le8zeP32m+8Pt+3XzRf/pt8/If/rB9lffyuXwvciKvr1/H3+UvaMifspK/KSl/3Pnxp17JR1+y2Kx9seHggQPIncbAgz1bq6VmS+2WGr6Kv4a0KIeNRsKLOsDr2p6qwjgxTsQAMUAMbB8GSMJLfhoKk2b7koZ9yj4lBoiBsTBAEiYJr/22wFhgpx4WTmKAGFg3DJCEScIkYWKAGCAGiIGJMEASnijw6zYaoz+cIRADxAAxsHoM/H80QzGKNU1TrQAAAABJRU5ErkJggg==;" vertex="1" parent="1">
          <mxGeometry x="30" y="430" width="175.05" height="230" as="geometry" />
        </mxCell>
        <mxCell id="Jlm6lItwhGJ9jv6W5DHI-36" value="" style="endArrow=classic;html=1;rounded=0;exitX=0.452;exitY=-0.019;exitDx=0;exitDy=0;exitPerimeter=0;entryX=0.355;entryY=1.034;entryDx=0;entryDy=0;entryPerimeter=0;" edge="1" parent="1" source="Jlm6lItwhGJ9jv6W5DHI-18" target="Jlm6lItwhGJ9jv6W5DHI-39">
          <mxGeometry width="50" height="50" relative="1" as="geometry">
            <mxPoint x="230" y="410" as="sourcePoint" />
            <mxPoint x="440" y="240" as="targetPoint" />
          </mxGeometry>
        </mxCell>
        <mxCell id="Jlm6lItwhGJ9jv6W5DHI-39" value="" style="shape=image;verticalLabelPosition=bottom;labelBackgroundColor=default;verticalAlign=top;aspect=fixed;imageAspect=0;image=data:image/png,iVBORw0KGgoAAAANSUhEUgAAAjkAAAAxCAYAAAA4J7gpAAARs0lEQVR4Ae2dC5LbIAyGfS4fKOfJaXKZHIaOAAmBhIGQOmatzrTr2DzE9wshY6e7bdvm7K8xMB8wHzAfMB8wHzAf+IM+sDn78zkBcAj78zkB4/c5u9GaxnqUWF7e+OU87vTJtF9TbdBtM/HmxDN+xm+OwHm1zVfnWBu/OX4r1zbt11QPdLMkZ1I7c/45gMZvjt9IbWM9QkuWNX6SyV3OmPZrKg26WZIzqZ05/xxA4zfHb6S2sR6hJcsaP8nkLmdM+zWVBt0syZnUzpx/DqDxm+M3UttYj9CSZY2fZHKXM6b9mkqDbpbkTGpnzj8H0PjN8RupbaxHaMmyxk8yucsZ035NpUG3z5Oc1wMqu21/uvea4/+K1ddy/rd77l5U93gNDu9Henbz+5F9gxQvXbyb9aVH8TvjBL/30+0+iO7ueekgOBEXfof7Uj2vq/2lMJ5uDOgmk5zeiWuLjhdMOP/pMvIOJ4LZj/Ts5vcj+zjd1Y+7WffGgNWBDNov+C3DaSIuDDL6q8WX0H4ZfzzPS0A3S3ImeQvnn2xvrvpEMPtREtHN70P7Xo+ws7UNb23NKXHF2hprlY8FS1U+we8/cFL1UK0ZOTkRF0a6+cNlz9B+BJ/qJ//BH0dsumJZ0E0mOb2Wfrjo9Da/Sjnh/D81fCKY/UjPbn4f2qcGg59q9LvONdbGp18Pwe8/LCr/R4+JuNCP50+XPEP7EYD/x09GLFijLOgmkxx14r7d67FD4fB3f7jX097JAZlL50fn2/lDemWBfj8jT7bD8H4+4jP+wHl/vMT7TsdllGBGem7sPZ0+Pd+vh9vjOz6o/f5I72DhWMtdEm1stSlR8gvlvmFfYoG2+5+DvGt2r3g+Z33Ah3wG3zXBsg/3er/cg/lE8NFcL+4jyOnYb7HUtX/m/JxzgpNzrTkDI3y/nmxe7e7xghd6kHGMsRhro7/qdXp5pbYfz5d7sliuaiXm/e6gXnrtiLXH3/0Tce7lHjCO/ele0KYf08NBlbnx9I77e+V6tA/aljGzZBdsyucD+kC8JvhvLumU2Pt4xv1E8cc+m7BNbX6neB+sW+vfyKj4tQQKKFrMECj/aS8eZ6rTAs+4JH64aDiH5zAZws+Z4wJntZ0iEFIZdFZMaGKQ2TaH/YCx1b6y/lJdYRMmChjUthC4AojShgyP+ABtl3++Y1+yI7M/2l7tg1iWVq3/OWd9wEfEgEpZHgfKY/SRI39bjHXOT0tyOuYMseVzGOZPhTFwrNbp9clK26gZ04riF17jP6lcao9OgSkYD0hXjQcspPjCdsmgdzznl2trDzKxjQDODY4ZKL0crg0as8jJt5HYi7hGXLGtXpsqbeIYmO3nk5/rMTIqFhkBKkGnhfL9om/x8EV4zpw1a7edP/GDssFf8Fx0RsHc3+qEu6BtoAwLlHB3iN+0It08YuybJT4VPd+vl3un2zcHdx/eaZQgRvMAA12W+NS1FfzcN+1jCR0ZqC1OCu+6yctekax7+SRf2mAX1/sEO7elO1EK4OgjPb69CFHBTxlbc87g/ACOMG4/99JNAiXf3F8bddr4mFZMP+oLtdLmnp8uuHjj4pna42YeJjl8V3p6PO0Rf7tEW3slbqnslHLeB5AtuEQr7vbOW6Uv1aakJ5/f0j++TfX/twe6tR9X0UROE9GbRo669nbWLGbh/CzR8MlF5Lfve9iuhaiATDG4IEvMnIufPpD0lGF9R3GznSA/Vuy7TEKwfbQJCvtHExjg2F0XK0OLWox2ODHyxKpOWfD7sn1oD7+TomBccEZmWeCum77cFcGa77LwQZMGGHhTEMyLyUeuiW2MF+hXf4C14Cc49cyZtPBAezslHcGdVH9lyYdWp+2Iun6kFc5n0qqI9az/oH9ne1QP/QgtPWaApa70s6l9LzvymZIxG21H3FX9hNqOvHttYusGn9/CP5iJqxyCbpbkTKolnJ9nynD3ErcwH684seH5dDxHiQA5I0sk2KLgHa+nTOasKZBQPzBWmgjFJMP2MeBROcUmLJO1BxMLt6HLoFaHLPhRG9+xTw0GOFbGOE4Gv1OVTfS66ctdEawtyRnSUPAjX43+Tp8bc8a9/TuN4R0VKJvmi+qv3sp6nfYgOpMSmhfF3KNkBXeiO9ujeml8ydaZ8aRWzjpqat/LrloujqTTh1Q/obqRd7WvtDaMJa1n0f5ePzGuNx5XEbj2443vmbZOS8L5wXRitscXDEPQCI6J5zBg5OX5+8oZBdZmtUyW5LBn5CyIJtsaeuIEwW11b2b5uMoPlh6LRYeSu0fZQPIPgh+N8zv2dQWD3KQ/+0mwPiPJIT21hW4t1IJfObaeOQMvldKjm5Qs4I2I6q+NOm2KqZ8sgSd74248jYfNPT/vcTcXk5/UHuyQhqeX2isMuJgW2k+Ppz3ib5doat/LTisXH1n6uE6aIGtYTmTcVf2E2o686XO/nof+8W2oJ7QHurV3cngg1O58+V39CUZfrQvh/N5AFgSAGXoOOrDnmJwYqpDTCsapXLtM6he7xJ2kjT2eqrfDXnRmEyQ6it/l8Mel5tm4WPLWIZbG75v2pfHHu+sIpt5H4t1h/lJFNNYqH9IeFyfpVzBwqovOBifJFxLHv8Ja8Cs50eeDnRzik5dBhMQU4wBcaNRpO6GuH7XL5nNdq9pCmY8jjw/1JMeXwzHGn8igPZ7zSzS1P4zhOTudsUxMBCOmk+on5H84b4/WFW5Tv3+cT36ux8iwsZPj+3hnXzsMLydFB2bg58xZs7Zw/jgM7oR4l8Z3USjxoWGHr+GmLWwMHmmxgK+Zwlf562U0Z03nUp99evqvw1Iggq9CPukroex9ZJje8SVpsJnbS4OrHuj8vmlf3hZp0WRZNXnZCz2sPR8RLJMP8YWIfJyfpAWZ+0HLb9dAKvgJTvAaG35VGuaCNmfyr9tve3ppO1DQ/LVVp8VP109LcnyMKf4rC2kj9FfaFL9+DPGC1gSMC2nRxTHm/yVJyaA1nvOv92g/yi7FcfCTFFHbPhT4Z/8VANRX/LHPphH/OJ/9TI+gm9zJmWnxhnWF89+QAUwk/CZXSqT6QBi/Pk7fKGWs5ygavzl+K9c27ddUD3SzJGdSO3N+/9yCdpf4TX0PWuPXQ+k7ZYz1HMfr8cOdEh/I0+Nk2n2F83xHbW78d659Pe3vrEb/2EE3S3L6eaklzfnZuxnwzTGVUv2k8auz+fYVYz1H9Hr8LMmZU7S/9vW077f9ziVBN0tyJj3AnH8OoPGb4zdS21iP0JJljZ9kcpczpv2aSoNuluRMamfOPwfQ+M3xG6ltrEdoybLGTzK5yxnTfk2lQTef5MQD+GB/jYH5gPmA+YD5gPmA+cBf8YHiK+RrJmw/s9oy/Dn0xm+O30htYz1CS5Y1fpLJXc6Y9msqDbrZ46pJ7cz55wAavzl+I7WN9QgtWdb4SSZ3OWPar6k06GZJzqR25vxzAI3fHL+R2sZ6hJYsa/wkk7ucMe3XVBp0syRnUjtz/jmAxm+O30htYz1CS5Y1fpLJXc6Y9msqDbpZkjOpnTn/HEDjN8dvpLaxHqElyxo/yeQuZ0z7NZUG3SzJmdTOnH8OoPGb4zdS21iP0JJljZ9kcpczpv2aSoNuluRMamfOPwfQ+M3xG6ltrEdoybLGTzK5yxnTfk2lQTdLco60w9+ofPALmTTnp9/OHAAD5Oxv+k3YR53f45rGT4y8Q4fXI2fc84tChU6KzmW7fdrJ/25fadq1++9pp6dMINrFWsA/6URNY/rNyoW+cU5pXJPFfWzaOizALw3ajkYJ1HyPtXM4dxQf7YsTrAM7/C8E4tpr/0+OpMt+qzYE04NIqjl/CJraL8YLQdcmQCKu8UtXe3SIZfane6eKzaOg0e6eVCkuiEzrkOAwHWMwPNYv2MOacZgo8XPt/vvagbZ5u6EvPq6E4ph1KnfuUY/G0qL6HEtle9i0dUjtXZNfss+ORgn0+15Ne21uOxfaPY4To7Za+U8IgG62k6OQS4EvTgK+ihTlNeevB2BLcgp8foerPIefe3Sos8ZWtJ+6Dllb8e6sDFQ+qA0mVE601dG/ZrZoRyl0UEbzVaWFU0/1aCwNkgmpLKOcEWzGdLgiP2WUdqqTwIjvqdrHm56D5aHTEiv2vwiAbpbkHNI9KcmJwTcK4hf+cuL4CSkW17Z9h8O7wEU1eAi7auMM58tERFQvT0TeJWPHgxY/ZvWzRIidPzwsF9ee/rUGy3YOyoixOXeYUGpNnXuuprG0Ii1O7NonbAZ16PNVZpMdLkKg7XtS+1hHxGQ5ZNzt4fHdHxd1RbliEsN1iHXB//HxLe40x8Q/PsbN+mL99PSRPbnwcVDfGZYjvd6ZyMEeV9Wl+cT5XXRCdD7eunLnqC2m8RxfvC3J0R4bRp6Ph9uzyd2YlLWJyxc9fpxJ+HDb1mifl4fjUuOe/ss2tHZEmePACxP+un/acy3YXinXTHIUNoM6XJvfdZW9vmUVn2KGS+1jUlEkIqwKHfrEgiUacKE8hwkMVVLiDyUo1Kfi09CArytjVHcfZfv0maxb5sCSnKZUnzj/SJJTbz84dEqULMmpJzlbFkAi0y2xEzJ3LW5aAMG2ZQARfdCJGAy5jV39UwPxQGnHX0Gbyju7sv4f2cnx7PL3kORI8UyDzaAOcqHDfuzn2gSinxws5lL7eIOVXuqrIvCxnM9/JcmRlaVNWjvhBqqIR5Ukp7sP5FCbH7Khy56xJKcpjXS0sop0/pEkJ0wU9Kms7cLB8i1KXNDiT7WBrLXLftD4SWNrOlQCTWshLNhSf+LuKSYWbJfo8YCdnIMEihoLByFZLYJQd/+pMbWddJmO0E/4LiBe7GONpc/+WdOY2xHLFAsGL3F0LNgM6nBtfkcjt2vHBNq+J7WPsaEj9mrJiTwXbWCxBvrkj458nbI/EbPqOzn4QrRvl/fD2gxxBteX/jh3zPd3V+NYr7yF/Ts4oedPnH8gydEcFIfsA3ByMtvJySd8wFRJco64QsXa9dqih5r4qrvLd47YxeIwBIwiwfmg/2o7RX/hIwbL5DtYTAZqvHKFn+25Jh77DZtdsBn0g2vzG4ZhFYhA2/ek9rFOR8Lt529RLj+ntSVt8nVYQuLN13zYnyvjzgd9dMRDQnjRA0tymsJIRyurSOcfSHJc/W4gnwSxzWKiUGZeOn5p5IU/a/ykuTUdtImL78CUk5y3qidH4U5fJgepZuhP2yVJZcKR12+rPVbp7/+4nbJX+Fxh8gdePA4sjvTRePBzJZt+HaCVPl/l/dnxGgSiXxzEUU173Bk8qOaHX8ZyOJmd0xIVnMes8awOgtUSES3JGemD+mxzQTOu+hN0s29XHarTFrnu/FowlkFVnSjecfMF0nZytJ0cTGg4q8BYbPMWLwuHBZMlQjEI1BOYcoEMjiPawd2eaoJTqaf0r/pG5q8w1sLPou9o49B8NWvupx8ac03hk5krrvexEfqJdlIv1+aX7LSjUQIN36smuLGeMtfBr3AOeh8rblDzc7WYlce84Kv8nKznR+59mMU2f1KWle3F5IuSnKMb9lHGvylvSU6FOy4uEZC/gwvHxYJScf5QX5Z1cecGnZ+6jwtT6q900Hvu5PTqIMqxSQqMw2SWTGmSx+fTuS4pgJEuRbt62zGY8GfedJzbcNx/Xzti7ErART+DcVztj2a/NtcCK21OxREpyYnWtiIh/WeNqHPuB4nYFfkl6+xolIDmH5rvQbtH2mvtcB/yvnuY5KRH6OiDcJPm6zGHxc9Zf0W7noGa5Iz1QSyVeUXXFjiIPK8X+BZgRyYeOT8VsoMqAeNXRfP1C8Z6Dqnxm+O3cu0raI9Jzsocz7YddLPHVZPUr+D8k0P4aXXjdx5+Yz3H2vjN8Vu59hW0tyRn3INAN0tyxrllNa7g/JlBi30wfucJZqznWBu/OX4r176C9pbkjHsQ6GZJzji3rMYVnD8zaLEPxu88wYz1HGvjN8dv5dqm/ZrqgW6W5ExqZ84/B9D4zfEbqW2sR2jJssZPMrnLGdN+TaVBN5/kxAP4YH+NgfmA+YD5gPmA+YD5wJ/wgX/zQV0Aj06uEgAAAABJRU5ErkJggg==;" vertex="1" parent="1">
          <mxGeometry x="310" y="200" width="348.37" height="30" as="geometry" />
        </mxCell>
        <mxCell id="Jlm6lItwhGJ9jv6W5DHI-40" value="group by date" style="text;html=1;strokeColor=none;fillColor=none;align=center;verticalAlign=middle;whiteSpace=wrap;rounded=0;" vertex="1" parent="1">
          <mxGeometry x="450" y="260" width="60" height="30" as="geometry" />
        </mxCell>
        <mxCell id="Jlm6lItwhGJ9jv6W5DHI-42" value="" style="endArrow=classic;html=1;rounded=0;entryX=0.338;entryY=0.989;entryDx=0;entryDy=0;entryPerimeter=0;" edge="1" parent="1" target="Jlm6lItwhGJ9jv6W5DHI-43">
          <mxGeometry width="50" height="50" relative="1" as="geometry">
            <mxPoint x="620" y="200" as="sourcePoint" />
            <mxPoint x="640" y="140" as="targetPoint" />
          </mxGeometry>
        </mxCell>
        <mxCell id="Jlm6lItwhGJ9jv6W5DHI-43" value="" style="shape=image;verticalLabelPosition=bottom;labelBackgroundColor=default;verticalAlign=top;aspect=fixed;imageAspect=0;image=data:image/png,iVBORw0KGgoAAAANSUhEUgAAAXsAAAAxCAYAAAA7igm1AAAKq0lEQVR4Ae2dC7KrIAyGXVcX5Hq6GjfTxXiGRyCQcKQaX/W/M3eqCAG+kB9U2jMMwzDjPxhgDGAMYAz8/BgYZvxbT8AFCP4dQwCst3EGv2387lw6TuQQqy1ORABtofddWbD+jledG/xqIs85h9gb+BoBZACx0wRYd4JqZAO/BpgHJEPsDZyMADKA2GkCrDtBNbKBXwPMA5Ih9gZORgAZQOw0AdadoBrZwK8B5gHJEHsDJyOADCB2mrgr68/7FXa8jVNnT/fJdld++9B4ltVtYj+NYQC/3vPnWdyK3ooA+rznl9/O+prfTwZTULI5EaxtzO5s5TO/X2FLX9D6+nzn6pl5wc9srJ7XJ9Y9HP5DQBf73gEAsfdo9wugfzz37aVen35r9+D8gvXW+o/gkuoY57CuP08YBb/Utrgwqc+7+Z7Xp+4mPjwjxN5gACwGkEEd35iYxvjFEP7IYHUQf1Pz/nkF661VHsBF+uM8YRT86v7X5918z+tTdxMfnlEX+14oWNl7UosB1MvTKJ8UFyPDFzAjWF+gTf83YZpH8UjvPGEU/FaLe93r8/pUtwTnOgFd7NUB8JmnMb5kcoP3Nc7TG8/sHdbeAPpM4/yKz24D+Nc8vifxvuPzHuMzf7dCf83jlB/8SxvD/BrpnUkOuOjY/FJQ9ek8S3t1m8jmOE+faR5Z+3O9+uDaI1Wwnsv2vdkYLdsXRff1nifnBy/Ark/6+5X/fOD6VV53PpB+9P1XF0TU5sH7v91me4KCX93/+rzi2/Y/6xO9g062hpnfZNr3ChZ7CERNqL5Bm5yUXzCm1aIPkur3I/CCtmSt8Eu7MTR+LBL0fOQHWiVW/J1NbyMHXI/Y63XVj4AaNqkfrO0lhH3OhFglMVKYuDamsamx08Ve50I+mOdmLKS6ct8p76t4U38eU8GvHqv1+RLf5P/cp5CUeZd9z2xwdCyBTrFXHPeZ0g6DHFDHNv4qtS0G0Kzw86tDulMiIVHyec503a3Ep/mTF/p+hemdyISGBCZMAJGSCGKlLrVNOYj93Zyv293lRXFl9R7hD8Gai5FbtUc2WbCJXe6v45IQ9nDhPhD5HTSyTXURiVb6eUwFv7o/9XnB102Orm+a/3Of3J0o7T6C0NNYOP/T60T/AKDdBLHh6i3q+Z06ugWL/IjTUPFjk0BYmNMjhTof65F/lEKTBFvNMtFNQpxWXV7Fy+2gvW1iwc7NzVSe1ctauduhYN1qX802nVeCXItbOm/4gPpNdzbVZx+jLIZ9+e1wCn6pv5FLfd7iSxyS/3OfXB3+f7pm135YWk8g+mXhMU4aAFUACIevb8idSy4GEHFaEvtmvkgn+YGJvBJYEHvHi1bV9LyYzhfEfskH6brig4HqcvVn8ZOr23ztF8V+nIj1MMu+3znS7932L8WeOQ+PcZLnF8WeiTQf/PlRQ5xEtXye8xi+nEVC416Ox9rdi0LvRLaK6hJ7rS5/A0B3DVTHecKUALMDwZqJqnucmB4z0DdW0wRLArQg9hoX7oN0vbLD2ugPUz7iyDOcx1TwS+20W9n7CYzG6rDAiWPB8a4EvE4sDgC3TqJntLSS5J9MaHZt7UWNb+XHJwCdcx2IyqqS+SBPIjGfi746qBd8mtt0njBp7hasudjzMUnHaencKfZNLlm0dB851lnYkw9S/bw35zEV/OpxUZ8zvkVXSMzTuJN9SgwYF04Bx8cScL4fFgeAb9Nn5lvEwsu6GEDJ4cc2/iq19fJzW1XDlr8owq9yW2XoT9jimvO5rZDpdWLYKklC5rZlvt9hH3fhg9JXXrhFELvaPn77bK7L7V6p2ySD2LdTBPsx3hCsuRi9662h7EVseqyTRdu3uMVlfDFflT4ILyj59ejPJGoNZglR4/oBTAW/uv/1OedLt5OuH6KtWp9yWrFZIHHAwZEEnO+l2B/Zgh+oSwTQD/Tpql2QrLOgFCvPMzuQBDOv9M9sDq9b8uNXcfzLBCD2Bt5FABlA7DQhWV9P7NPji8vMPhmu5Jev4ei3CUDsDfyLADKA2GlCsr6a2F+tPSVYya+8jrPfJQCxN/AtAsgAYqcJsO4E1cgGfg0wD0iG2Bs4GQFkALHTBFh3gmpkA78GmAckJ7GPB2HPdtrtQbsM8Ak+GAMYAxgDPzAGqm/QPmCWs+yiGwD4dwwBsN7GGfy28btz6ThRQay2OBEBtIXed2XB+jtedW7wq4k85xxib+BrBJABxE4TYN0JqpEN/BpgHpAMsTdwMgLIAGKnCbDuBNXIBn4NMA9IhtgbOBkBZACx0wRYd4JqZAO/BpgHJEPsDZyMADKA2GkCrDtBNbKBXwPMA5Ih9gZORgAZQOw0AdadoBrZwK8B5gHJEPslJ9Ov+/3zOyf/BlD6Uay8Rzn/fPBS5bheE/iXdZ351HP6SeXsd20Ipd/Roe+2KJms8jgc9+F3qvN+snKIfdOt+TdOPCQlCKloK4Dod8/LosEuBJ/offfZYv2dlb1zBx9zv2tjIYg4/8nlOEGwglZ5qMf34EetxaclAa9jGAASaQ6yKPosAOvcKr94R/BPsdoMzjsIqKw7yp2eJd7h5Uk+CHs+Dy0M445+GtkqT+79bfnlLuBoJQHne/ye/b/w1oh9LFP8QRG9ElrxRUfkn6uoyop81SzirjvhCGJBjw5K0RB1OOezenrqKP4IhZ/Q+MpU76Nl6m3Fqhb7eF65Mf1REJ9ulYc54Lb8WB9wuI5AjH98g7aNb43Yy9vxln0vsExwXb46jYQ82VBEIAl1Uo/GhOPLSoHurqO2n85T63Y9uK1Y1Xd6rYmS+9YqD/PIbfmxPuBwHQGI/SK39WJf36JrVdXC7vJoaWVZ2Sa1jCYWDbEv7buzRh0k7pptacQ85Z5iFSd/Pqm3+EHszccMDAYCEPvFkSBFry4iBch2ZZ+El3Zs0CcJL00Q7Ny3kQsHNbop9rGfZJs+mU0/oVB6+nurZPiYT8n6mHq31BK4VXdTEPstSFF2BQGI/SK0NWIfy/CVXKMebUVepmm2ZJt8GSbMvrpusV9RR0usGv20Sr6b2KtC72BovnHpnKtVHgb/bvxY03G4kQDEfhGgFNa6iBZA9KK01t+6bCns4WqRpga8bFNRhirhwkFp3l61yvymjtQh2QaqYs9PjfWe9W2xHYR+mBOywpjVTpseO7niO/HLrcaRBQGI/SLFZVHTAyiWG2SwOxGg5/maSJdp8pEQiQjfGSPTZDnfVU3sZ5lX2ovvEphyldsEF0GaZNBZm5g2NdIz2QfGbOKNky6NDdcgqzzUOY1fqIN2btG4pXM5NsgWPu9FAGLf8BcFawSUt0Qqz6q1ACKzmh0RzNXjHh98PC2KQGrLOAURYMLry4xTufWS28gNml8DE5ginbZsDrObSMgmZanP6VEE7w/l3evzP9Z71fm93SiQ6f0G41qx90xZPo2lVR7XD41fsE/iDrH/3t/3KBH1A1svt7hLC6At9taUFUK8xsgNylyB9Q0wNZsIfk00P38BYm/g4isEEMTewJEPMHGFsfoAzJfsIsTewC1XCCCIvYEjH2DiCmP1AZgv2UWIvYFbEEAGEDtNgHUnqEY28GuAeUAyxN7AyQggA4idJsC6E1QjG/g1wDwgOYl9PGC7TvgOAhyDD8YAxgDGwN3HwB9/not4ZXsB3AAAAABJRU5ErkJggg==;" vertex="1" parent="1">
          <mxGeometry x="560" y="100" width="232.04" height="30" as="geometry" />
        </mxCell>
        <mxCell id="Jlm6lItwhGJ9jv6W5DHI-45" value="Подробная информация о корте" style="text;html=1;strokeColor=none;fillColor=none;align=center;verticalAlign=middle;whiteSpace=wrap;rounded=0;" vertex="1" parent="1">
          <mxGeometry x="560" y="70" width="190" height="30" as="geometry" />
        </mxCell>
        <mxCell id="Jlm6lItwhGJ9jv6W5DHI-46" value="Тренировка" style="text;html=1;strokeColor=none;fillColor=none;align=center;verticalAlign=middle;whiteSpace=wrap;rounded=0;" vertex="1" parent="1">
          <mxGeometry x="310" y="170" width="70" height="30" as="geometry" />
        </mxCell>
        <mxCell id="Jlm6lItwhGJ9jv6W5DHI-47" value="" style="shape=image;verticalLabelPosition=bottom;labelBackgroundColor=default;verticalAlign=top;aspect=fixed;imageAspect=0;image=data:image/png,iVBORw0KGgoAAAANSUhEUgAAAk4AAAAxCAYAAAAssibIAAAVv0lEQVR4Ae1dCbIjIQjNuXKgnCenyWX+YXoKFURBm97SmmGqptKLsrwHSC/5eTwej8X/OwYeAx4DHgMeAx4DHgMeA6YYeCy/8A/I/tV/v+zbXs4ck4jcDDjMYOPeOLxjnuN5B+r363Te7+cALAAeHr9Cxq/4oYXGL/um+Ws55phElGbAYQYbLTE3yhjHcxQmvmuH8/5dvFvagAdvnFroDHTcE0aS4ZhETGbAYQYbZYSNe8TxHJebKy1z3q9E1y4bePDGyY7XbSM9YST0jknEZAYcZrBRRti4RxzPcbm50jLn/Up07bKBB2+c7HjdNtITRkLvmERMZsBhBhtlhI17xPEcl5srLXPer0TXLht48MbJjtdtIz1hJPSOScRkBhxmsFFG2LhHHM9xubnSMuf9SnTtsoGH/Y3T5wWTl8fzvfzZdV428peD6nd8+1vezxB0y+tzLBT2Y3KeDcc8OGe2wOHvvTxDYj+XtzUx98zZYL6wccNcHyoRcDwlJqcdGWxd43457xyNZVmO1K3PK9XJ2MNsWY6AB9k4WY0ZLMB+OaiG9c0aKxTv5zUt+zE5zwZy68YNgcNmTg4WIIPvwkbDHB/SRsDxbGNz+Mxg6xr35yu876kfYOTeedzBrdu7dX6WV2x+4s2fx2vxxmkr+BOM1xLm84p3bh5Hb90c8X9z4J7XtGiY2Fw5zwabvmtHCRw2c3J90RM2XgvJ0NLPyFvHM1N8Bp5Z2rIsOxun0+0ojIo7Gu+n691TP8C8vfMUP82H9upEjquGyYol8CDvOFmtRuX+qM6K2O5xX0mY3dZtmXhe06JhYrPkPBts+q4dJXDYU0z2zNnglrBxw9xfG2otzj2/Hc+Mzhl4ZmneOBVYjL6zt241ehdrLEH+ycZJNeZv+bye6bYWPBN8LZ/36O844QL5Wj5/n+WV3q0Bp5+v8r2sP3jeyc7LMT1Zn+VvKfGp5UP8/b3ZM9VgA8yz/SsLJdqS7jjhLUe881T5mkheHo8N77wsqGMFOzVWal+fy+uDnqLcR37HiWSwYwZYSkwCwun9qWjzm8VryQez4f1Z2uOiETI2nsvrzblDeStYJZ+OxIEGi8CB8Ix8t4rB3zvlM8RNNUfTc+SYsLGKrx4HEv8yf03+VfrKWnBG/lpiAMc08nYDwI4ngHUGnmXdbq1r/Rhct+OsnC957+lNj6Ke7+VD7/LEx1F9X7Q7R6hnpb5pNcSwFv193mzt5WuFISE0nStrLdU9XDfh8/Wmd28BY/qPa2plSjpf/VSJYgwVJy4Ut4e944SEMyDQZvgkUOrnnWw8jVmRxeXiNs2Fu79MJp6HTyN2mxPmERd3aG7ji8Kgf0/j1LAbfVNiRQ1M0p1xjCIy9k/zm8wxiktMOoUU8Sassw2UIDgGPtG3kIDsYoGPKcbZ5R2Ngyp/w67AoeYEr66K29LZ5uBuPUdTdOCYsLG16CHGxFWOD8EV8mTxb00f6uWfKD/chGjkAdmZ8RR2Uqw0xjA9VogdT3gj5TiezXwEzojbtRjs29HUQfKtrMef+sije3o1m6Fx0o6n2MY4FLWgoQdzpTkPdXXWItLF82vD+0Y0P69ta3ir569pnBCAx0KL298nd2g7AiCTf95Wt5jAHbJw0wOuMBJJzO6/z2f5w5siqWMNBZDGsOBhsvAbYtCU4F0VahxwrkLuAp14CLxMeA8J6RtrxjBwQQDqYsfQX3aopyqd0/1FWVRUUB81RuhXHSvoZ5YLeCF+FFcGy3CIxCTLA/vwJhfxQTbycb24UHwpminpU7hibcWZwAqEoQ6Uhd7ZPwUOQg/qYHf06mZDzLHrt4wUNvJFr8sVQLSWmwb/Cn2Zc4y/4/lrjalG3lpAZGMcz/zEgGrStgIH7TC9IEz1p7Gurcdgg1ctrw7kvOS9oZf5BheCbGlbzydhszG263m4z3hBrugQ1iFYUyG+A/4HGifUSbW+UWNJb44jUI/28Ytnlna0CTysP6ojYyqHGspJ+pc3ZFBlwokosEmzO9xSVO4uYPPDCi+XRYsyP4jy8Qqf9nlXnbf51BZk0rcWyVgM6i5/68JsxI5iI8mn/SpWyLEsNwUfu7KjQaYNiUmWXWKKmGDj0BiHPCHnuI88klVH5WXuCYMH2kZKzBsCB+Igc14XhHqfGm5ecMwWrA8UNjbyiS9mxOFqbsL1AnvsyAogLYgNffW84EnNO+33eDPGFLNtrTj3UHU884InYrkHHD9HeVLVKuQb6wDMMcSgagfKwrsz1SfFOLersy15X18HxI38NV8IF6wfxtgW87BO9tYiHBNz60k3JTog8FO1TiveOI5zvCE3gQdvnAh8pTASsHrwnFd4eTTIbXvCZDsTueF9NJE8UkV1JMspkrsOOMIuJRmeF80Giudyc9LkBQ7HrX9KTLhsPj/rib40xqHtyDnuC1+OylPi7OLGqbhYqDkDqLRjHMKD27u5IrsUzJAnYb/2d6x0zs/LX11+gXvCUF1gN+LreH6xcTLGoMor1RAlfnfkvOR9Y+Nk8YXGHG2cck6A3eH/86X8bbm/8L70rldKaluteOM4XkOua5zqxy8IRg7ijfl/6nAZVJm47uJPIOYrD3iZLxKNvumyTIW3JneH19K3RsIkX/Y0IqVZur9iIah9o/06VjBhKrmI/Y47HRKTLDs/qoOkxDuJyG8e140LzZfQYxyVhwWpRHzvnsCB7OZ6sNl7Li98aZ4XDXXOXovkPGEjuwPU5QrjA2/lB/zr3AR9mVPQFf5z/9h5zvl5+Zv1c/kiXzYUZ4liPuJ4Yl1u1MEMVXuLYr6uVVX8GGNQbZxIB8/FtklrZyTvLf9zvhcXzRZfhM3G2K7nJV3dtQheXKdHiVlPdw4HqdZZ7/OxfJtwyHEEp1UO+by0nWrM778c3i1mBHZKGCy88EnFN5PKZZkKLyeEyw7buJgr7LBDWsKQbpQJhmFA4LH0ufkWaGOhIfmIC2GXCwMFX2EDnpc4Zj9sWCAsEpMsOwV2XEDRDiIuj6NDIBSxQ9+6vLFia8WqK2+b74gBfAocFE6ie2V8F8WpMYfrObItbGSYdbkiu0rbwxzGU7AN+Ut8F9wyffw4xR4/SHIyJ3pMg004xh5TpFPEpR1hxzMveEfwbPPKar8xBlt2tHVg7BzhnT2mLuKp0ThZfKEx7Zpd5BvmYT2P8qjM3WItaozh6dhFp9ZprbGoF21PSloc1jakmrXeOIUrOrxSBYLCs8hETqW8VvKt/V4xKYhQQAtf0cTAC99Ie8cXB8k3vTAS0FwByqeiCgjEr73m25EYTLbkkb5FmcXXuMOlBSYMyuefNl2RL91f0VwogSt9hWfc+HqiJjcf2/Leh8Qky4E/FyC/co6RyMbxPxeLvBHnibfim4kQ+/mLAJuwCoOPxQF6wD8FDionrDEMcV7FQmsOV3RgW9jIG5kuV/B6SfnN0Ne7zk00jMd+5R/Xxzg/L3+3xZTMW/TB9ul45sapXpuKC4JVOP+KP0fSWtdsMVjKynacl/OSd3BQ04u5gM1PBmLVF1ELjLEt5qENfA3CbczPiA34Ff6L2prtVreEzogH/Omk7lqr1vo415Kbyd6qcVItHP+gHlTj222x0OobXt3kpI0LZgwiDFaLxvHHSEwaCT6+K4cslDgcEnfJZGnjFVxlmVsa8Escvlio43kxwIOKl7wPaii78/OLaxHwIF8OH5eLrmUzBVXXEeWk1TdsnBKxyqOq3lVAfTWgGDLQIYlJXjj5DcCBTL7EFInDJWoOCZU2XsAVXX3u/4biISe/ONnx7IH9OzWu9lLyXo8YZ399LerZOjaHwIM3Tj3+BjlnT5h427a8TRm/Dhoflo0dkFvglphcsBhvMeimsRKHmwzpqJU2ns8VPXaDvwvVseUXTjmePRZ/p8bVXkre6xEj7a+tRT1bx+YQePDGqcffIOfmSpjvgOaYRJxnwGEGG78TtedocTzPwXE2Kc77GIwBD944jcFF1wpPGAmPYxIxmQGHGWyUETbuEcdzXG6utMx5vxJdu2zgITROaQN2/L9j4DHgMeAx4DHgMeAx4DHQjgH/Vp2917xnpF9pSNwdk4jJDDjMYKOMsHGPOJ7jcnOlZc77lejaZQMP/qjOjtdtIz1hJPSOScRkBhxmsFFG2LhHHM9xubnSMuf9SnTtsoEHb5zseN020hNGQu+YRExmwGEGG2WEjXvE8RyXmystc96vRNcuG3jwxsmO120jPWEk9I5JxGQGHGawUUbYuEccz3G5udIy5/1KdO2ygQdvnOx43TbSE0ZC75hETGbAYQYbZYSNe8TxHJebKy1z3q9E1y4bePDGyY7XbSM9YST0jknEZAYcZrBRRti4RxzPcbm50jLn/Up07bKBB2+c7HjdNlJLmPAn7YsfpD1qXvprzqfKPGpTe/53MGnrH+WMhsMotqEdM9iIts7w6XjOwNL5Njrv52O6RyLwMEfjhL9m3PkRMjWowrzGj9um37YqfoRwD4pfmKP6tsQ/S9+BZFnY73clsoHw5aE2R/M3TosFk5qvFkYxORaOb/37S83YMcRrbcbefT029krbMc/g6+027nArTpE//cDjAcXSz72kmNF+ZPisMaBzHjzPww+x5p8WTM05ywWnOhJqpVIHcOi6fov/ljFR4zy8I0JzfhKv6joZ82/wxin/plUIYq1qJW7UoGo2Tlluc/EbiHPVN7Bv1b/n8o4/Uld4g8WkA2cxfsSd7Zhs8yImT266I2Z5P2L/WMr4yXG1Fq/brGmPbuLQnnLSGbuv99l4xNXoH88RLW9inPA8Swshm3jWGPRmFjwBLwbDEvHjWMG13XN5PPgxiR/6zT8t82w5y6XC9lm82+RYMEILZ+Ed7Z3yM1xIP5fX69m4wTBB45STIxVpnoUVK2pQNRqLmFDhdlu18FVCB9lVfWvato4VTM3YNgUNfWIbJsHh5VkU6J57VfFu3J0MccSuSjKmNg56FljPbcbBKnhl3BZf77JxxYXtp0UcxDgpm2fMLWyyzxqTzZ0Wz134Zb/zlgFToSvOrnM2y+xsCVkG/Zo4IUcZ1BkzLe+Km2MeinUb8jnUN1bbub3Aw+B3nNDc9YVIDSqtcQrH4EpIBn9cDGJDlcBZHg8sgGgL3OipxlQNnQ76ug9ZQ7ml+lYOob1ad7b1ubw/7+VJ/kj/eVGJ8xq+s4DK8hMmFRbh/OuTGrU0hs0nwzdubMEkiA4FiV/ZthXGOGBjKWbKOXGcxAivWrVHNqWE43ubcTiuspKwHtf321iZvHe3XtTSfhXy6U5wutty1hhm87R41ljU++hjI9/wNL6C0MW9IaOdsyRdbiQ7qUE+aDfJkZro9Qrh21SPaDXHxj/GYyNsN9YpyL//rHHizQLfjqRqYPFmAkbBfhH4ShJpco4spvZCGX3CpItNTVrYk535/abcXWNIF76qhafEzIJFtOGx5CailIG6t37aMUmSg/+sGWoqVBoBheMwPWCkyVRkNPUdO7EZh2PqlNnrvt5vo2L2nkN1TrT45/Fy1hhm75x4pjjhi5EFG+Y3bVrmcQ5oIr7eoOUsH1RtB33ssaNFfyUi7NZyxBgFIzZmTt6ZAyNvVvGir+HRAeDhP2qc6qCUC7gGVlj4sRNRiZcLhybnK41TIB+LQtlEgemlL9Fu3gSG81TY5Pn2O1UIjMSi1BnHlXpw7rbPzUWkwKajSy1uyS/CBuanY+rjP4lDR+OhU5txOKRNm7zu6/02anZvPRbzKV94dBZhXoQti6xlDDN3HjwxR9KdZrrbnZzZ6DdBYJqXdJtzlqRXGzt5r6TgF1eK+AljVjBicubhnRk9yWa9TulreHQGePhvGqcARLHINRqnCAoAk/7Xj2LqQE/jWHMVdeH86pONs8aUOWFCQUn2iuIS7c6NUqOxYoWmDp46uHLz0PZRzkkNHNNjxYGPM2ESMKhsI17ZFSQJ1ootnkwFlM9/vdRHuYTLDq5Rm/XThINV2K5xCbOOr/fbuMuxYlKI46J+eONUAGTYwbpINUjUqCSEN56aXPO8LTmrKUq1ag/vlTg1fqoxsCswYmN+IY+YO+Nshngq1/l67ePGAg//R+OUFtCytjcap2pBjwGPoGoLq1w4dNDlOE5Gb9uaMIVeEQxVo6TcgQm+cv+LMdV8vOPCx+MxBnSQyfbBT6Gn53zjnBUTml74QkfLDTVOyiF8r8Cbn1BwKE6fuLMZhxN1R1HrcX2/jcecjjUA7+QyWa0FPsRRGn/WGKZ2XjxTrOCdJws2zG/a3DsPG5OiZpFUsXGIdyatKYeNyZsVRvlEuJBnu755EgKRn/YFNjX6SR/k33/QOCVAqsUbb51yUNSFcLUIyoVDlXNgMbUWykIvt5v9XZIIg7QZYiIEUFFU4riAEcjj59TiJeUGmRX2Us/2DLBiQpKDvcriRwPw6hKbZHZC3WTYiPMSBzHkpAObcThJbxaz7uv9NmZrt25hUa1COImRF19wIuQhNgcp93id2TcmWz4vnilWqI5Y8Mt+562983o5m6XD1nHeo7y+nFJn3KsxymPm5T37MMtWsZZWRgMP/0fjRInKEZDJp4EVAx8X0zgnv+icE4wf0+QceXxjTpjQLKGtKQEDybFhiAW91UhqjVN6HPF8L+/6pXhsxtiKgkWCYxGOsTHAQDimcsL56W+bMUExa41TagTrBQ6nl5/t4hbHpfOV33CujCfkCDmT8VXqlXubcZAiDh5p+4qC77cRLdn2ifmi0EiCIp+sIVfi6KwxqHQOPCGWMa6T5aE+lV+u2YUN5VEfd8Qrfuo5K/RT46s9ys8SxTyF9/X4sWGEWufgHa2d+1Nfw6NPwMPQjRMGXjI03KqM21VCtr6qWdx1qYmMixRfKFV99QKfEoRsen3iYsiqqw76+gJTW4j7oMv2T/pkmxdHhWJQ+4sNUv2cH6YYsAgyGTYwTdezxdLz/3pyLIQyrqJV2OCkphMSp/IpwgF/zI+Noe0st9SDcvF85E+T3ULHHhstCfuOq7kS/EVfsty7bMwW7NlKXBCHnFe2YGM8s3G8pqDmyHuWsXcMyJsFTy1GlLRJFxNtbCJ2JeaAQx9TzK0sV8srKfss3m1yrBjNxDvG/Myf+hoePUo13roojw3DLMVkD4qbfMNmRjRAezSPO2cTJuO6cdiyGXCYwcbDRHxRgOP5RbAHUuW8j0EG8DD0HactMP1yUO3xrb4aS2SX7yltAXiwsXswGcyFU8yZAYcZbDyFjC8JcTy/BPRgapz3MQgBHrxxGoOLrhWeMBIexyRiMgMOM9goI2zcI47nuNxcaZnzfiW6dtnAgzdOdrxuG+kJI6F3TCImM+Awg40ywsY94niOy82VljnvV6Jrlw08eONkx+u2kZ4wEnrHJGIyAw4z2CgjbNwjjue43FxpmfN+Jbp22cBDaJzSBuz4f8fAY8BjwGPAY8BjwGPAY6ARA/8AjU2u6L5NzHQAAAAASUVORK5CYII=;" vertex="1" parent="1">
          <mxGeometry x="90" y="60" width="375.61" height="31.2" as="geometry" />
        </mxCell>
        <mxCell id="Jlm6lItwhGJ9jv6W5DHI-48" value="" style="shape=image;verticalLabelPosition=bottom;labelBackgroundColor=default;verticalAlign=top;aspect=fixed;imageAspect=0;image=data:image/png,iVBORw0KGgoAAAANSUhEUgAAAPoAAABeCAYAAAAKYQnFAAALfUlEQVR4Ae2dDZKrIBCEPZcH8jyexst4GF5hRAZoYDAhyzO9VVtrRoXhm27/4uo0TZPhLxlQA4/XwGT4My4Ba0D+6AiQFeZ0bsQpJIxnjCjFq68DWWFWNDrmMlSU4tWXg6wwKxodcxkqSvHqy0FWmBWNjrkMFaV49eUgK8yKRsdchopSvPpykBVmRaNjLkNFKV59OcgKs3q80fdtue4RWLYdU3gzuq++j3nV9SHzqq3zjnhz/dzJGWG6004uJ9R+a+wdVq19lZYfkcs0CpwSuLvz9nW+jF4z1N0+tkXcaLFsqmZa8nqnPrl+7uSMBnannVxOqP3W2DusWvsqLT8ilzGNvq9mdnfsLZvR7SdT9D1F5Xq7tfVu2AC9I97c+O/k7MYr/95pJ5eTbPfuNGT1IS215DQil/GNPq9DG71FAG7ZFrFD8bqGKn9b+qk09bHZPXOCrKTR39DSxwBkGurNhUbPgO8ZbikqFK8yuZZ+lE2+vVjPnCArGt2dvqa3wPpiLMaeddoLKPPsz0XneTXu2lYyb8F74H3fzDLP/pD8ODSfzRwdmgfnN+7w/fwbn2fHfU/zbBZxQcyPYzJ23Xj5OZNri5ptm1Zg9jfOz5jdbIsc8yu/OK9Sf1C85wrxeGrjd/2Uc3ZL1f+W23l/7PUMwiViViotXfWbzbq/cn7Vczar7pJLmMTpl1cbfTSRdFgJnLmUjD4HBnfJv/4uZpEXoqQpo0MkKeywDbfxeG1QbL6q4pjdrGLDE7fpronV+53MFOVaYZbMln2ERi/n6HIO10maPzYgabTcNhq/7Cefc9pTKZJvp5yfduylvtE82678UWlJGF3uzGxbjqNsUzM9Ihd46C4TtQO+9rp2rywNXZgnIR3tzYtZt12cb4dikMubyuFWkJ84ujDHUYMvULDcscc9L+ydyznBBX1rKimWkX3kzOQ3JnKPkTsKEI0bA40u+7Rtu6Or0vhzucl42HP9k8xDtiPj74y9nkG4RGz0Y25FS+Yyutvp+L93dSHHPwqXutGj0cpBTIV5coBhOfwn2VawfLE4cgNhD7d8e/FUtn17eNVw5TtuV37G7ZRzlHuaYNyy4XM6FW+5bdkEzu3/Gbsci2Y6ZXUU2p8uoqO3yOi+HgVhVZLB3Mt1a9FEpftk9rlDCw937FI40XN9AcZDqc+z5+irPV/NHHIHbRWNLo8q/CF/MrqGccQbLNRWLoZZlXPE6+AeUvGW25at5PrJxeW6mmncTjk/vI6mt/oyKatGo0c7rnqPeAk8xr/lUt2jBwa047phdDnwc+tyXcByn4N+SkYvzYu4y36D9qNxfNzolRyLeUVjSMRbaVuunusnF5fraqZhO5X84DqazhTLJKzsOpV8pJ7f0YFMD46xkgdcRzb6xvTpsd57dLkls1cy/SFRdnAlKHLe9IN79A+MP8u9UUy4HVnvtD54ncaOM4sPbXTzt1z679GlMKNDo2zR5TrJeZUEdv8c/VNbcjyGUo7yXA19/RKqOBVvqe1wXZxb5dQsbKL4Cbdfyq9t7MXOwcyU1UB79MDosW77c+lv9GCAy3WFeN/Eba7Jd9BSLGKds7jywoW/qmuL+roO4LYnWIhXI/70wa0AxFML5frAOdqr7v6qrhVmckoRdYjEG7QhN4TK8edyjrqufsy1g/NrH3s1gWgBxMrk9OfWFaeiXQ/d46+Or7p9h8sXjF7+btwWBwk+EEuyjL35JjSMa8f+db7NCfGo8YcKnO9DbqyiXMWNQ3eMfoj3jfHnc3bq1/3Nt/OZseuy8EvZ2qOfopY+pAPZ74hcsNHF4BMh3pq3m21d/Nccdk822z21F0TSj70pZvH/fTZN82XgF9TXd9LXP7/YjcFxZ5z/J5g88Pii4s1boI6DiMKdcece1m+E7BjsNYrSuKVk8Pfo6vFnalW+oy3sv/Sp2M4Hxl7qG83LGd3eoZjVUsDovg5kPiNygUaXSXP6bwnkxfu3eY3YO1nhqpw7Gny4g1dh9NsEKF49cbLCrGj0gIs/nD7B+It10W2/r/npV0dBcx/68B3xjjn2VoSfZ/UcLjx0v9Q0ZlE/L95rwGJizLGLBFWTn2f1HC40ukpCf7fQ58X7d2Pp3TNZYcKWC42O2QwTpXj1pSArzIpGx1yGilK8+nKQFWZ1Gf2cqFx8im76gBeouAxZUgODaoBfr+Ht4BhRKxr+6AiQFeZ0bngoJIxnjCjFq68DWWFWNDrmMlSU4tWXg6wwKxodcxkqSvHqy0FWmBWNjrkMFaV49eUgK8yKRsdchopSvPpykBVmRaNjLkNFKV59OcgKs6LRMZehohSvvhxkhVnR6JjLF6Kvh2YcBXCPw8n0SvGSFZZGGxfe644p9otGb4mpPafsp41OVliHN7jQ6Bhll6h/tNVsluV8BBX36JA1WUEs4uUqbRqi0THPDtHX/zZfb3B1zyqj0QFrsgJQrmcN3tEQjY6Jdonuu395xfVceRodsiYriMXc5UKjY579o9yj6xmTFWbVwIVGxwj7RxuK1D+ZwXsgK1ygBi40OkbYP9pQpP7JDN4DWeECNXCh0THC/tGGIvVPZvAeyAoXqIELjY4R9o82FKl/MoP3QFa4QA1caHSMsH+0oUj9kxm8B7LCBWrgQqNjhP2jDUXqn8zgPZAVLlADFxodI+wfbShS/2QG74GscIEauNDoGGGXqH2jrL319fidzzfF2jfAutiavs3zV+91JysswbtcaHTMs0N0N2vhnebHf7LNqxH3zh05/KbRyQoL8D4XGh0THSb6m0a/h5+sMLdjJ0I4GM4oUdZHXwmywqxodMxlqCjFqy8HWWFWNDrmMlSU4tWXg6wwKxodcxkqSvHqy0FWmBWNjrkMFaV49eUgK8yKRsdchopSvPpykBVmdRn9nOBrk/kqaGrguRrg21TxdnCMKPdS+jqQFWZ17dHxbEZHIEDx6qtAVpgVjY65DBWlePXlICvMikbHXIaKUrz6cpAVZkWjYy5DRSlefTnICrOi0TGXoaIUr74cZIVZ0eiYy1BRildfDrLCrGh0zGWoKMWrLwdZYVY0OubSL7pvZl1mM8ubMubFrFv8uAmfwvPEq3nd7+vda6dA05t4wAM6LLHnsfI6uKZuaogPnrgIdp7YVmHw2czuUVKn6XOvYHuUeNWv+/VGt5yS3wysR7FCcnxDQzQ6Atojti3GvgUz3HnLRwMtJn1i3HP2Um2vQT6NnjF0rjzPN/p9DdHoOdV8K767Pf1sVnAE/wzxtr4GmUZvkp9CQzR6E9EOCyuK1KHXrzfZ9rpfGr2pQAoN0ehNRDss7J7NPT370D0g58acPTQ/jS4fhW1Pe7Y9eUqubPcZRz9yRMppx7OgIRpdybLXYtsyHVeLZ3Tc/tQryU6YNaPLbyeu6dnkVvtVo2s0RKP3crCmXSf4zJbYNvFI8bpx5xx7sIsuWOzia7npydczNMIRyziWFQ3R6ILZVyftV02Vr9ZsPr9rdFwNt/eawEbikawwhle0QUM0eglkt3ne5LlDdtf1I8Xr9kLArG7c2b9uXXDTzCNZ5UFcOwqNhmj0LMheMzaznK9mqhXIZvBI8TqzvmN0sO4jWUEZtmuIRocgewXbCkSjp3Vwh+5oI/kbRr+nIRo91VKnSHuBftPo9m5Be2U9uhhnjNndkcDPXoy7ryEavZOt42bdnsjudZJ7t9393A8+HNW/7lfeFuxfKT1fb6L93a/X3tEQjR47stNnWSRrdvj72AtM0ryKsduv0tbFeHPbdWbwvwJhsZ5+6P6Ohmj0UCvDfXq6eD8JnKwwzXOnwue6YzxjRClefR3ICrOi0TGXoaIUr74cZIVZ0eiYy1BRildfDrLCrGh0zGWoKMWrLwdZYVY0OuYyVJTi1ZeDrDArGh1zGSpK8erLQVaY1WX0cwJ/t5v7zpdx8qIG/hsN/APPnY1G74uwDQAAAABJRU5ErkJggg==;" vertex="1" parent="1">
          <mxGeometry x="80" y="270" width="132.98" height="50" as="geometry" />
        </mxCell>
        <mxCell id="Jlm6lItwhGJ9jv6W5DHI-49" value="Клиент" style="text;html=1;strokeColor=none;fillColor=none;align=center;verticalAlign=middle;whiteSpace=wrap;rounded=0;" vertex="1" parent="1">
          <mxGeometry x="90" y="30" width="60" height="30" as="geometry" />
        </mxCell>
        <mxCell id="Jlm6lItwhGJ9jv6W5DHI-50" value="" style="endArrow=classic;html=1;rounded=0;exitX=0;exitY=0.75;exitDx=0;exitDy=0;entryX=0.827;entryY=0.5;entryDx=0;entryDy=0;entryPerimeter=0;" edge="1" parent="1" source="Jlm6lItwhGJ9jv6W5DHI-39" target="Jlm6lItwhGJ9jv6W5DHI-48">
          <mxGeometry width="50" height="50" relative="1" as="geometry">
            <mxPoint x="160" y="220" as="sourcePoint" />
            <mxPoint x="210" y="170" as="targetPoint" />
            <Array as="points">
              <mxPoint x="270" y="280" />
            </Array>
          </mxGeometry>
        </mxCell>
        <mxCell id="Jlm6lItwhGJ9jv6W5DHI-52" value="" style="endArrow=classic;html=1;rounded=0;exitX=0;exitY=0.75;exitDx=0;exitDy=0;entryX=0.526;entryY=0.6;entryDx=0;entryDy=0;entryPerimeter=0;" edge="1" parent="1" source="Jlm6lItwhGJ9jv6W5DHI-47" target="Jlm6lItwhGJ9jv6W5DHI-48">
          <mxGeometry width="50" height="50" relative="1" as="geometry">
            <mxPoint x="160" y="220" as="sourcePoint" />
            <mxPoint x="210" y="170" as="targetPoint" />
            <Array as="points">
              <mxPoint x="70" y="150" />
            </Array>
          </mxGeometry>
        </mxCell>
        <mxCell id="Jlm6lItwhGJ9jv6W5DHI-55" value="&lt;font style=&quot;font-size: 9px;&quot;&gt;Мэтчинг клиента и тренировки&lt;/font&gt;" style="text;html=1;strokeColor=none;fillColor=none;align=center;verticalAlign=middle;whiteSpace=wrap;rounded=0;" vertex="1" parent="1">
          <mxGeometry x="80" y="240" width="130" height="30" as="geometry" />
        </mxCell>
        <mxCell id="Jlm6lItwhGJ9jv6W5DHI-56" value="" style="endArrow=classic;html=1;rounded=0;exitX=0.25;exitY=1;exitDx=0;exitDy=0;entryX=0.5;entryY=0;entryDx=0;entryDy=0;" edge="1" parent="1" source="Jlm6lItwhGJ9jv6W5DHI-39" target="Jlm6lItwhGJ9jv6W5DHI-35">
          <mxGeometry width="50" height="50" relative="1" as="geometry">
            <mxPoint x="280" y="460" as="sourcePoint" />
            <mxPoint x="330" y="410" as="targetPoint" />
            <Array as="points">
              <mxPoint x="270" y="360" />
            </Array>
          </mxGeometry>
        </mxCell>
      </root>
    </mxGraphModel>
  </diagram>
</mxfile>
